<?xml version="1.0" encoding="UTF-8"?>
<svg xmlns="http://www.w3.org/2000/svg" xmlns:xlink="http://www.w3.org/1999/xlink" viewBox="0 0 107.33 53">
  <defs>
    <style>
      .cls-1 {
        fill: url(#linear-gradient-2);
      }

      .cls-2 {
        fill: #fff;
      }

      .cls-3 {
        font-family: FranklinGothic-Heavy, 'Franklin Gothic Heavy';
        font-size: 12.53px;
        font-weight: 800;
      }

      .cls-4 {
        fill: #99f;
      }

      .cls-5 {
        fill: url(#linear-gradient-6);
      }

      .cls-6 {
        isolation: isolate;
      }

      .cls-7 {
        fill: url(#linear-gradient-3);
        stroke: #fdffff;
        stroke-miterlimit: 10;
        stroke-width: .19px;
      }

      .cls-8 {
        fill: #cfcfcf;
      }

      .cls-9, .cls-10 {
        opacity: .3;
      }

      .cls-10 {
        mix-blend-mode: multiply;
      }

      .cls-11 {
        fill: url(#linear-gradient-5);
      }

      .cls-12 {
        fill: url(#linear-gradient-7);
      }

      .cls-13 {
        fill: #fc3;
      }

      .cls-14 {
        fill: url(#linear-gradient-9);
      }

      .cls-15 {
        fill: url(#linear-gradient);
      }

      .cls-16 {
        fill: url(#linear-gradient-4);
      }

      .cls-17 {
        fill: url(#linear-gradient-8);
      }
    </style>
    <linearGradient id="linear-gradient" x1="5.66" y1="4.61" x2="15.83" y2="4.61" gradientUnits="userSpaceOnUse">
      <stop offset="0" stop-color="#a880f7"/>
      <stop offset="1" stop-color="#7ea2fd"/>
    </linearGradient>
    <linearGradient id="linear-gradient-2" x1="24.34" y1="5.48" x2="34.65" y2="5.48" xlink:href="#linear-gradient"/>
    <linearGradient id="linear-gradient-3" x1=".09" y1="26.07" x2="38.45" y2="26.07" xlink:href="#linear-gradient"/>
    <linearGradient id="linear-gradient-4" x1="16.84" y1="21.3" x2="20.21" y2="21.3" gradientUnits="userSpaceOnUse">
      <stop offset="0" stop-color="#a880f7"/>
      <stop offset="1" stop-color="#6165d5"/>
    </linearGradient>
    <linearGradient id="linear-gradient-5" x1="17.36" y1="26.42" x2="21.8" y2="26.42" gradientUnits="userSpaceOnUse">
      <stop offset="0" stop-color="#fd8e83"/>
      <stop offset="1" stop-color="#f970b9"/>
    </linearGradient>
    <linearGradient id="linear-gradient-6" x1="13.27" y1="23.12" x2="25.47" y2="23.12" xlink:href="#linear-gradient-4"/>
    <linearGradient id="linear-gradient-7" x1="15.28" y1="25.22" x2="22.69" y2="25.22" xlink:href="#linear-gradient-4"/>
    <linearGradient id="linear-gradient-8" x1="7.45" y1="18.7" x2="13.19" y2="18.7" gradientTransform="translate(27.89 6.55) rotate(84.25)" xlink:href="#linear-gradient-4"/>
    <linearGradient id="linear-gradient-9" x1="25.96" y1="19.9" x2="31.66" y2="19.9" gradientTransform="translate(3.16 -3.94) rotate(8.27)" xlink:href="#linear-gradient-4"/>
  </defs>
  <g class="cls-6">
    <g id="Layer_1" data-name="Layer 1">
      <g>
        <path class="cls-15" d="m5.74,6.59c.09,1.07.23,2.03.35,2.63,3.84-.35,7.59-1.67,9.74-4.01-1.36-1.18-2.69-2.34-4.13-3.36-.75-.52-1.52-1.01-2.34-1.44-3.62-1.82-3.9,2.76-3.61,6.17Z"/>
        <path class="cls-1" d="m34.12,7.62c-.25,1.05-.54,1.97-.74,2.56-3.74-.9-7.26-2.73-9.03-5.36,1.52-.98,3.02-1.93,4.59-2.73.82-.41,1.66-.78,2.53-1.09,3.86-1.29,3.44,3.29,2.65,6.62Z"/>
        <g>
          <path class="cls-7" d="m38.45,21.54c0-10.17-8.59-18.41-19.18-18.41S.09,11.38.09,21.54c0,5.05,2.12,9.62,5.55,12.95.39.42,4.22,4.53,8.06,7.94,2.89,2.56,5.5,5.7,5.56,6.58h0s0,0,0,0c.06-.88,2.67-4.01,5.56-6.58,3.84-3.41,7.67-7.52,8.06-7.94,3.43-3.33,5.55-7.9,5.55-12.95Z"/>
          <g>
            <ellipse class="cls-2" cx="19.27" cy="21.28" rx="16.1" ry="15.59"/>
            <g class="cls-10">
              <path class="cls-8" d="m23.31,30.54c-8.89,0-16.1-6.98-16.1-15.59,0-1.68.28-3.29.78-4.8-2.98,2.83-4.83,6.77-4.83,11.12,0,8.61,7.21,15.59,16.1,15.59,7.16,0,13.23-4.53,15.32-10.79-2.9,2.76-6.88,4.46-11.28,4.46Z"/>
            </g>
            <g class="cls-9">
              <path class="cls-2" d="m33.83,19.82c-.11,0-.2-.09-.21-.19-.15-4.15-3.61-8.15-6.77-10.12-.1-.06-.12-.18-.06-.28.06-.09.19-.12.29-.06,3.25,2.02,6.81,6.15,6.96,10.44,0,.11-.09.2-.2.21,0,0,0,0,0,0Z"/>
            </g>
            <g class="cls-9">
              <path class="cls-2" d="m25.25,8.64s-.06,0-.08-.02c-1.08-.46-2.28-.78-3.55-.94-.11-.01-.19-.12-.18-.23.02-.11.12-.19.23-.17,1.31.17,2.54.5,3.66.97.1.04.15.16.11.26-.03.08-.11.12-.19.12Z"/>
            </g>
            <g>
              <g class="cls-9">
                <path class="cls-2" d="m22.09,37.95c-.1,0-.18-.06-.2-.16-.02-.11.05-.21.16-.24.72-.14,1.43-.34,2.11-.59.11-.04.23.01.27.12.04.1-.01.22-.12.26-.7.25-1.43.46-2.17.61-.01,0-.03,0-.04,0Z"/>
              </g>
              <g class="cls-9">
                <path class="cls-2" d="m19.06,38.25c-1.82,0-3.65-.32-5.34-.94-.11-.04-.16-.15-.12-.26.04-.1.16-.16.27-.12,1.99.73,4.18,1.03,6.32.87.12,0,.21.07.22.18,0,.11-.08.21-.19.22-.39.03-.77.04-1.16.04Z"/>
              </g>
            </g>
          </g>
          <g class="cls-9">
            <path class="cls-2" d="m35.81,26.28s-.04,0-.06,0c-.11-.03-.17-.14-.14-.25.33-1.1.54-2.23.63-3.37,0-.11.11-.19.22-.18.11,0,.2.1.19.21-.09,1.17-.31,2.33-.65,3.46-.03.09-.11.14-.2.14Z"/>
            <path class="cls-2" d="m36.42,19.99c-.11,0-.2-.08-.21-.18-.68-6.95-5.82-12.77-12.81-14.49-.11-.03-.18-.14-.15-.24.03-.11.14-.17.25-.14,7.16,1.76,12.43,7.73,13.12,14.84.01.11-.07.21-.19.22,0,0-.01,0-.02,0Z"/>
          </g>
          <g class="cls-9">
            <path class="cls-2" d="m15.08,42.13c-.06,0-.12-.03-.17-.08-1.6-2.05-4.83-5.01-4.86-5.04C1.95,30.71,1.85,24.19,1.85,24.12c0-.11.09-.2.21-.2h0c.11,0,.21.09.21.2,0,.06.1,6.41,8.06,12.59.05.04,3.3,3.03,4.92,5.1.07.09.05.21-.04.28-.04.03-.08.04-.12.04Z"/>
          </g>
        </g>
        <g>
          <path class="cls-16" d="m16.85,20.95c-.04-.46.7-.49,1.63-.48.93,0,1.68.04,1.73.5.04.46-.64,1.18-1.57,1.17-.93,0-1.75-.73-1.8-1.19Z"/>
          <path class="cls-11" d="m21.8,24.86c-.49,3.69-2.82,4.36-4.44,2.14.04-1.21,1.02-2.22,2.48-2.4.67-.08,1.35.02,1.95.26Z"/>
          <path class="cls-5" d="m25.47,22.93c-.14.59-.67,1.09-1.34,1.4-.67.31-1.48.45-2.3.4-.82-.04-1.67-.29-2.4-.71-.73-.42-1.31-1.04-1.58-1.7h1.6c-.09.6-.45,1.18-1.01,1.6-.56.41-1.28.67-2.06.72-.39.02-.8,0-1.2-.09-.4-.08-.8-.24-1.13-.47-.33-.23-.58-.53-.69-.83-.12-.3-.12-.6,0-.87.03-.06.11-.09.19-.07.03,0,.05.02.07.04h0c.22.22.42.4.62.53.2.13.39.21.58.27.38.12.79.16,1.22.1.42-.05.84-.19,1.15-.4.32-.21.54-.49.61-.82v-.04c.08-.35.51-.55.95-.47.32.06.56.26.65.49.15.39.45.73.9.95.44.22.98.33,1.52.38.55.05,1.11.02,1.67-.06.56-.09,1.12-.23,1.74-.48h0c.07-.03.16,0,.2.05.02.03.02.06.02.08Z"/>
          <path class="cls-12" d="m19.76,28.9s-.03,0-.04,0c-1.11.12-2.23-.47-3.06-1.61-.61-.84-1.07-1.94-1.37-3.28-.04-.17.01-.34.14-.47.13-.13.32-.21.54-.22.79-.04,1.71-.46,1.85-1.28.05-.29.35-.5.73-.5.38,0,.73.2.85.49.48,1.17,2.01,1.35,2.46,1.38.22.01.44.1.59.23.15.14.24.31.23.49-.02.3-.04.59-.08.87-.31,2.3-1.34,3.73-2.84,3.91Zm-2.72-4.42c.25.91.6,1.68,1.01,2.25.44.6.94.95,1.32.91,0,0,0,0,0,0,.6-.07,1.35-1.01,1.6-2.89,0-.06.02-.12.02-.18-.89-.17-1.66-.53-2.24-1.02-.43.43-1.03.76-1.73.92Z"/>
          <g>
            <ellipse class="cls-17" cx="10.32" cy="18.7" rx="3.27" ry="2.87" transform="translate(-9.32 27.09) rotate(-84.25)"/>
            <ellipse class="cls-2" cx="11.1" cy="18.2" rx=".96" ry=".84" transform="translate(-8.13 27.42) rotate(-84.25)"/>
          </g>
          <g>
            <ellipse class="cls-14" cx="28.81" cy="19.9" rx="2.84" ry="3.3" transform="translate(-2.56 4.35) rotate(-8.27)"/>
            <ellipse class="cls-2" cx="28.13" cy="19.24" rx=".83" ry=".96" transform="translate(-2.48 4.25) rotate(-8.27)"/>
          </g>
        </g>
      </g>
      <path class="cls-13" d="m25.2,52.02c0,.54-2.66.98-5.93.98s-5.93-.44-5.93-.98,2.66-.98,5.93-.98,5.93.44,5.93.98Z"/>
      <text class="cls-3" transform="translate(45.36 31.86) scale(1.02 1)"><tspan class="cls-4" x="0" y="0">PETS</tspan><tspan class="cls-13" x="29.03" y="0">ZONE</tspan></text>
    </g>
  </g>
</svg>