<svg width="1181" height="874" viewBox="0 0 1181 874" fill="none" xmlns="http://www.w3.org/2000/svg">
	<path fill-rule="evenodd" clip-rule="evenodd" d="M292.42 -221C77.231 -221 19.6555 -96.5982 29.0115 21.0426C38.3675 138.683 246.559 196.845 312.571 321.906C355.753 403.713 321.503 719.451 490.665 786.384C769.187 896.588 1201 818.837 1201 818.837V232.661V-221C1201 -221 507.608 -221 292.42 -221Z" fill="#FFDA47"/>
	<path fill-rule="evenodd" clip-rule="evenodd" d="M270.629 -251C31.8452 -251 -6.81891 -123.75 3.56302 0.0716705C13.9449 123.893 123.463 154.002 245.567 272.149C393.397 415.19 300.062 738.862 487.772 809.311C796.834 925.305 1276 833.309 1276 833.309V226.496V-251C1276 -251 509.414 -251 270.629 -251Z" stroke="#FFDA47" stroke-width="4" stroke-linecap="round" stroke-dasharray="190"/>
</svg>