<svg width="67" height="55" viewBox="0 0 67 55" fill="none" xmlns="http://www.w3.org/2000/svg">
	<path fill-rule="evenodd" clip-rule="evenodd" d="M11.5234 46.0211C9.65163 46.4466 8.83664 46.6462 7.57031 47.3149C7.60249 48.4314 7.69944 49.6024 7.8342 50.8487C7.90379 51.5154 8.87807 52.7738 11.2973 51.6565C12.6457 51.035 11.9699 47.115 14.3006 45.409C14.3255 45.3898 14.34 45.3672 14.365 45.3477C13.2241 45.6326 12.2857 45.8484 11.5234 46.0211" fill="#FFDA47"/>
	<path fill-rule="evenodd" clip-rule="evenodd" d="M61.457 26.5024C59.2225 26.7815 52.3475 26.8349 48.3379 24.1211C48.4354 24.2969 48.53 24.4721 48.6419 24.6455C50.9778 28.2276 54.5738 29.9993 57.4543 30.875C58.7319 30.6828 60.0116 30.3834 61.2987 29.9165C63.882 28.9812 62.8842 26.3259 61.457 26.5024" fill="#7C58D3"/>
	<path fill-rule="evenodd" clip-rule="evenodd" d="M26.3895 6.23663C29.6346 5.07535 33.9019 7.28826 37.6984 11.5781C38.3286 11.3198 38.9611 11.0615 39.6019 10.8064C35.5328 6.23663 30.8704 3.88894 27.2821 5.17288C25.9256 5.65762 24.8574 6.62117 24.0713 7.93703C24.6975 7.15378 25.4657 6.56649 26.3895 6.23663" fill="#7C58D3"/>
	<path fill-rule="evenodd" clip-rule="evenodd" d="M45.0371 34.7344C44.518 37.7467 43.5027 39.9151 41.9988 40.7685C41.2598 41.1847 40.4484 41.2495 39.6016 41.0133C40.8673 41.6145 42.0817 41.6657 43.1715 41.048C44.6983 40.1829 45.7717 38.1189 46.3962 35.2816C45.9462 35.0978 45.494 34.9144 45.0371 34.7344" fill="#8D6EC8"/>
	<path fill-rule="evenodd" clip-rule="evenodd" d="M38.2485 7.55409C34.1541 3.14658 29.5212 1.04052 25.8014 2.50879C19.6469 4.9456 18.3571 16.237 22.9235 27.7266C27.4889 39.2212 36.184 46.5623 42.3425 44.1261C44.6978 43.1938 46.3339 40.9629 47.207 37.9228C47.5036 36.8853 48.0583 44.4817 41.7624 46.8168C34.9661 49.337 25.4385 41.2757 20.3602 28.4877C15.2745 15.6971 16.6196 3.16849 23.3588 0.503571C27.7879 -1.25163 33.4488 1.69661 38.2485 7.55409" fill="#7C58D3"/>
	<path fill-rule="evenodd" clip-rule="evenodd" d="M19.349 28.4116C15.9579 19.9845 15.7108 11.6838 18.1992 6.75391C15.0651 8.44648 12.792 15.2669 15.1641 24.4889C15.1603 24.4919 15.1565 24.4935 15.1527 24.4965C11.5454 26.4644 9.81483 27.0859 6.10501 26.209C3.13671 25.504 2.13509 22.4778 1.92385 22.8905C-0.68346 27.96 5.14248 31.8037 8.54995 31.5526C8.31508 36.9662 4.93188 39.6247 3.42014 41.6869C1.43802 44.3909 1.05937 48.0493 0.778148 52.4958C0.730227 53.2179 1.29583 54.6666 3.34353 53.7206C4.48545 53.1913 4.5567 48.921 6.62363 47.333C8.50077 45.8911 9.2527 45.9911 12.8307 44.741C16.8934 43.3228 20.4156 40.7745 20.9106 37.5133C21.1931 37.9447 21.4645 38.3843 21.7681 38.7977C26.7803 45.7785 30.866 44.4384 30.866 44.4384C25.7481 41.4139 21.9648 34.9144 19.349 28.4116" fill="#FFDA47"/>
	<path fill-rule="evenodd" clip-rule="evenodd" d="M61.2768 7.71876C61.7953 6.09073 62.7555 2.26299 60.4831 1.04142C59.4823 0.505075 58.1373 2.9036 55.1328 4.57669C56.5291 4.94603 59.516 5.91975 61.2768 7.71876" fill="#7C58D3"/>
	<path fill-rule="evenodd" clip-rule="evenodd" d="M57.1633 9.65217C57.6941 9.70002 58.0871 10.1687 58.0408 10.6996C57.991 11.2302 57.518 11.6214 56.985 11.5742C56.4555 11.5257 56.0612 11.0562 56.1068 10.5271C56.1587 9.99655 56.6275 9.60537 57.1633 9.65217ZM62.9381 35.2225C60.2399 35.1343 52.8808 33.9872 48.9429 28.1559C45.1629 22.5591 49.2764 16.4284 55.9128 18.2716C66.532 21.2196 66.891 15.5434 66.7643 13.7891C63.6196 12.6113 61.4159 12.4086 61.0156 10.3703C60.1513 5.93975 56.0771 5.57906 54.8734 5.1505C54.6885 4.47855 53.7066 1.00089 51.9035 0.964917C50.954 0.946148 51.7906 4.52954 49.0127 6.92702C40.2191 10.2814 31.5957 14.6832 24.0713 19.1262C24.5245 21.6216 25.2285 24.2133 26.2304 26.8217C27.2405 29.4534 28.4603 31.8619 29.8 34.0135C31.6763 33.9409 33.8963 34.0082 36.7954 34.1561C46.5706 34.6138 53.7451 39.9014 62.3344 38.2888C64.8778 37.8121 64.2966 35.2666 62.9381 35.2225V35.2225Z" fill="#7C58D3"/>
</svg>