<svg width="180" height="55" viewBox="0 0 180 55" fill="none" xmlns="http://www.w3.org/2000/svg">
	<g clip-path="url(#petopia_logo)">
		<path fill-rule="evenodd" clip-rule="evenodd" d="M11.5234 46.0211C9.65163 46.4466 8.83664 46.6462 7.57031 47.3149C7.60249 48.4314 7.69944 49.6024 7.8342 50.8487C7.90379 51.5154 8.87807 52.7738 11.2973 51.6565C12.6457 51.035 11.9699 47.115 14.3006 45.409C14.3255 45.3898 14.34 45.3672 14.365 45.3477C13.2241 45.6326 12.2857 45.8484 11.5234 46.0211" fill="#FFDA47"/>
		<path fill-rule="evenodd" clip-rule="evenodd" d="M61.457 26.5024C59.2225 26.7815 52.3475 26.8349 48.3379 24.1211C48.4354 24.2969 48.53 24.4721 48.6419 24.6455C50.9778 28.2276 54.5738 29.9993 57.4543 30.875C58.7319 30.6828 60.0116 30.3834 61.2987 29.9165C63.882 28.9812 62.8842 26.3259 61.457 26.5024" fill="#7C58D3"/>
		<path fill-rule="evenodd" clip-rule="evenodd" d="M26.3895 6.23663C29.6346 5.07535 33.9019 7.28826 37.6984 11.5781C38.3286 11.3198 38.9611 11.0615 39.6019 10.8064C35.5328 6.23663 30.8704 3.88894 27.2821 5.17288C25.9256 5.65762 24.8574 6.62117 24.0713 7.93703C24.6975 7.15378 25.4657 6.56649 26.3895 6.23663" fill="#7C58D3"/>
		<path fill-rule="evenodd" clip-rule="evenodd" d="M45.0371 34.7344C44.518 37.7467 43.5027 39.9151 41.9988 40.7685C41.2598 41.1847 40.4484 41.2495 39.6016 41.0133C40.8673 41.6145 42.0817 41.6657 43.1715 41.048C44.6983 40.1829 45.7717 38.1189 46.3962 35.2816C45.9462 35.0978 45.494 34.9144 45.0371 34.7344" fill="#8D6EC8"/>
		<path fill-rule="evenodd" clip-rule="evenodd" d="M38.2485 7.55409C34.1541 3.14658 29.5212 1.04052 25.8014 2.50879C19.6469 4.9456 18.3571 16.237 22.9235 27.7266C27.4889 39.2212 36.184 46.5623 42.3425 44.1261C44.6978 43.1938 46.3339 40.9629 47.207 37.9228C47.5036 36.8853 48.0583 44.4817 41.7624 46.8168C34.9661 49.337 25.4385 41.2757 20.3602 28.4877C15.2745 15.6971 16.6196 3.16849 23.3588 0.503571C27.7879 -1.25163 33.4488 1.69661 38.2485 7.55409" fill="#7C58D3"/>
		<path fill-rule="evenodd" clip-rule="evenodd" d="M19.349 28.4116C15.9579 19.9845 15.7108 11.6838 18.1992 6.75391C15.0651 8.44648 12.792 15.2669 15.1641 24.4889C15.1603 24.4919 15.1565 24.4935 15.1527 24.4965C11.5454 26.4644 9.81483 27.0859 6.10501 26.209C3.13671 25.504 2.13509 22.4778 1.92385 22.8905C-0.68346 27.96 5.14248 31.8037 8.54995 31.5526C8.31508 36.9662 4.93188 39.6247 3.42014 41.6869C1.43802 44.3909 1.05937 48.0493 0.778148 52.4958C0.730227 53.2179 1.29583 54.6666 3.34353 53.7206C4.48545 53.1913 4.5567 48.921 6.62363 47.333C8.50077 45.8911 9.2527 45.9911 12.8307 44.741C16.8934 43.3228 20.4156 40.7745 20.9106 37.5133C21.1931 37.9447 21.4645 38.3843 21.7681 38.7977C26.7803 45.7785 30.866 44.4384 30.866 44.4384C25.7481 41.4139 21.9648 34.9144 19.349 28.4116" fill="#FFDA47"/>
		<path fill-rule="evenodd" clip-rule="evenodd" d="M61.2768 7.71876C61.7953 6.09073 62.7555 2.26299 60.4831 1.04142C59.4823 0.505075 58.1373 2.9036 55.1328 4.57669C56.5291 4.94603 59.516 5.91975 61.2768 7.71876" fill="#7C58D3"/>
		<path fill-rule="evenodd" clip-rule="evenodd" d="M57.1633 9.65217C57.6941 9.70002 58.0871 10.1687 58.0408 10.6996C57.991 11.2302 57.518 11.6214 56.985 11.5742C56.4555 11.5257 56.0612 11.0562 56.1068 10.5271C56.1587 9.99655 56.6275 9.60537 57.1633 9.65217ZM62.9381 35.2225C60.2399 35.1343 52.8808 33.9872 48.9429 28.1559C45.1629 22.5591 49.2764 16.4284 55.9128 18.2716C66.532 21.2196 66.891 15.5434 66.7643 13.7891C63.6196 12.6113 61.4159 12.4086 61.0156 10.3703C60.1513 5.93975 56.0771 5.57906 54.8734 5.1505C54.6885 4.47855 53.7066 1.00089 51.9035 0.964917C50.954 0.946148 51.7906 4.52954 49.0127 6.92702C40.2191 10.2814 31.5957 14.6832 24.0713 19.1262C24.5245 21.6216 25.2285 24.2133 26.2304 26.8217C27.2405 29.4534 28.4603 31.8619 29.8 34.0135C31.6763 33.9409 33.8963 34.0082 36.7954 34.1561C46.5706 34.6138 53.7451 39.9014 62.3344 38.2888C64.8778 37.8121 64.2966 35.2666 62.9381 35.2225V35.2225Z" fill="#7C58D3"/>
		<path d="M86.3582 33.216C85.7502 33.216 85.2862 33.048 84.9662 32.712C84.6462 32.376 84.4862 31.904 84.4862 31.296V17.976C84.4862 17.352 84.6462 16.88 84.9662 16.56C85.3022 16.24 85.7742 16.08 86.3822 16.08H92.2142C94.1022 16.08 95.5582 16.56 96.5822 17.52C97.6062 18.464 98.1182 19.784 98.1182 21.48C98.1182 23.176 97.6062 24.504 96.5822 25.464C95.5582 26.424 94.1022 26.904 92.2142 26.904H88.2062V31.296C88.2062 31.904 88.0462 32.376 87.7262 32.712C87.4222 33.048 86.9662 33.216 86.3582 33.216ZM88.2062 24.024H91.5902C92.5502 24.024 93.2782 23.808 93.7742 23.376C94.2862 22.944 94.5422 22.312 94.5422 21.48C94.5422 20.648 94.2862 20.024 93.7742 19.608C93.2782 19.192 92.5502 18.984 91.5902 18.984H88.2062V24.024ZM105.599 33.264C104.207 33.264 103.007 33.016 101.999 32.52C101.007 32.008 100.239 31.296 99.6949 30.384C99.1669 29.456 98.9029 28.368 98.9029 27.12C98.9029 25.904 99.1589 24.84 99.6709 23.928C100.183 23 100.895 22.28 101.807 21.768C102.735 21.24 103.783 20.976 104.951 20.976C105.799 20.976 106.567 21.12 107.255 21.408C107.943 21.68 108.535 22.08 109.031 22.608C109.527 23.12 109.903 23.752 110.159 24.504C110.415 25.24 110.543 26.064 110.543 26.976C110.543 27.28 110.447 27.512 110.255 27.672C110.063 27.816 109.783 27.888 109.415 27.888H101.879V26.016H107.927L107.543 26.352C107.543 25.696 107.447 25.152 107.255 24.72C107.063 24.272 106.783 23.936 106.415 23.712C106.063 23.488 105.623 23.376 105.095 23.376C104.503 23.376 103.999 23.512 103.583 23.784C103.167 24.056 102.847 24.448 102.623 24.96C102.399 25.472 102.287 26.088 102.287 26.808V27C102.287 28.216 102.567 29.112 103.127 29.688C103.703 30.264 104.551 30.552 105.671 30.552C106.055 30.552 106.495 30.504 106.991 30.408C107.487 30.312 107.951 30.16 108.383 29.952C108.751 29.776 109.079 29.72 109.367 29.784C109.655 29.832 109.879 29.96 110.039 30.168C110.199 30.376 110.287 30.616 110.303 30.888C110.335 31.16 110.279 31.432 110.135 31.704C109.991 31.96 109.751 32.176 109.415 32.352C108.871 32.656 108.255 32.88 107.567 33.024C106.895 33.184 106.239 33.264 105.599 33.264ZM118.364 33.264C117.26 33.264 116.332 33.08 115.58 32.712C114.844 32.344 114.292 31.808 113.924 31.104C113.572 30.4 113.396 29.512 113.396 28.44V23.928H112.388C111.94 23.928 111.588 23.808 111.332 23.568C111.092 23.328 110.972 23 110.972 22.584C110.972 22.136 111.092 21.8 111.332 21.576C111.588 21.336 111.94 21.216 112.388 21.216H113.396V19.392C113.396 18.784 113.556 18.328 113.876 18.024C114.196 17.704 114.644 17.544 115.22 17.544C115.812 17.544 116.26 17.704 116.564 18.024C116.868 18.328 117.02 18.784 117.02 19.392V21.216H119.3C119.748 21.216 120.092 21.336 120.332 21.576C120.572 21.8 120.692 22.136 120.692 22.584C120.692 23 120.572 23.328 120.332 23.568C120.092 23.808 119.748 23.928 119.3 23.928H117.02V28.296C117.02 28.968 117.172 29.472 117.476 29.808C117.796 30.144 118.3 30.312 118.988 30.312C119.228 30.312 119.452 30.288 119.66 30.24C119.868 30.192 120.06 30.16 120.236 30.144C120.46 30.128 120.644 30.2 120.788 30.36C120.932 30.504 121.004 30.832 121.004 31.344C121.004 31.728 120.94 32.064 120.812 32.352C120.684 32.64 120.46 32.848 120.14 32.976C119.932 33.056 119.644 33.12 119.276 33.168C118.924 33.232 118.62 33.264 118.364 33.264ZM127.83 33.264C126.566 33.264 125.462 33.016 124.518 32.52C123.59 32.024 122.87 31.312 122.358 30.384C121.846 29.456 121.59 28.36 121.59 27.096C121.59 26.152 121.734 25.304 122.022 24.552C122.31 23.8 122.726 23.16 123.27 22.632C123.83 22.088 124.494 21.68 125.262 21.408C126.03 21.12 126.886 20.976 127.83 20.976C129.094 20.976 130.19 21.224 131.118 21.72C132.062 22.216 132.79 22.92 133.302 23.832C133.83 24.744 134.094 25.832 134.094 27.096C134.094 28.056 133.942 28.912 133.638 29.664C133.35 30.416 132.934 31.064 132.39 31.608C131.846 32.152 131.182 32.568 130.398 32.856C129.63 33.128 128.774 33.264 127.83 33.264ZM127.83 30.552C128.358 30.552 128.814 30.424 129.198 30.168C129.582 29.912 129.886 29.536 130.11 29.04C130.334 28.528 130.446 27.88 130.446 27.096C130.446 25.928 130.206 25.072 129.726 24.528C129.246 23.968 128.614 23.688 127.83 23.688C127.318 23.688 126.862 23.808 126.462 24.048C126.078 24.288 125.774 24.664 125.55 25.176C125.342 25.672 125.238 26.312 125.238 27.096C125.238 28.264 125.478 29.136 125.958 29.712C126.438 30.272 127.062 30.552 127.83 30.552ZM138.123 37.536C137.531 37.536 137.075 37.376 136.755 37.056C136.451 36.752 136.299 36.296 136.299 35.688V22.848C136.299 22.256 136.451 21.808 136.755 21.504C137.075 21.184 137.515 21.024 138.075 21.024C138.667 21.024 139.115 21.184 139.419 21.504C139.723 21.808 139.875 22.256 139.875 22.848V24.48L139.611 23.544C139.851 22.776 140.331 22.16 141.051 21.696C141.787 21.216 142.627 20.976 143.571 20.976C144.595 20.976 145.491 21.224 146.259 21.72C147.043 22.216 147.651 22.92 148.083 23.832C148.515 24.744 148.731 25.832 148.731 27.096C148.731 28.36 148.515 29.456 148.083 30.384C147.651 31.312 147.051 32.024 146.283 32.52C145.515 33.016 144.611 33.264 143.571 33.264C142.643 33.264 141.819 33.04 141.099 32.592C140.379 32.128 139.891 31.528 139.635 30.792H139.923V35.688C139.923 36.296 139.763 36.752 139.443 37.056C139.139 37.376 138.699 37.536 138.123 37.536ZM142.491 30.552C143.003 30.552 143.451 30.424 143.835 30.168C144.235 29.912 144.539 29.536 144.747 29.04C144.971 28.528 145.083 27.88 145.083 27.096C145.083 25.928 144.843 25.072 144.363 24.528C143.883 23.968 143.259 23.688 142.491 23.688C141.979 23.688 141.523 23.808 141.123 24.048C140.739 24.288 140.435 24.664 140.211 25.176C139.987 25.672 139.875 26.312 139.875 27.096C139.875 28.264 140.115 29.136 140.595 29.712C141.075 30.272 141.707 30.552 142.491 30.552ZM152.772 33.192C152.18 33.192 151.724 33.024 151.404 32.688C151.1 32.336 150.948 31.848 150.948 31.224V23.016C150.948 22.376 151.1 21.888 151.404 21.552C151.724 21.2 152.18 21.024 152.772 21.024C153.348 21.024 153.788 21.2 154.092 21.552C154.412 21.888 154.572 22.376 154.572 23.016V31.224C154.572 31.848 154.42 32.336 154.116 32.688C153.812 33.024 153.364 33.192 152.772 33.192ZM152.772 19.056C152.1 19.056 151.58 18.904 151.212 18.6C150.86 18.28 150.684 17.832 150.684 17.256C150.684 16.664 150.86 16.216 151.212 15.912C151.58 15.592 152.1 15.432 152.772 15.432C153.444 15.432 153.956 15.592 154.308 15.912C154.66 16.216 154.836 16.664 154.836 17.256C154.836 17.832 154.66 18.28 154.308 18.6C153.956 18.904 153.444 19.056 152.772 19.056ZM161.354 33.264C160.49 33.264 159.714 33.096 159.026 32.76C158.338 32.424 157.802 31.968 157.418 31.392C157.034 30.816 156.842 30.168 156.842 29.448C156.842 28.584 157.066 27.904 157.514 27.408C157.962 26.896 158.69 26.536 159.698 26.328C160.706 26.104 162.042 25.992 163.706 25.992H164.978V27.864H163.73C162.914 27.864 162.25 27.912 161.738 28.008C161.242 28.088 160.882 28.232 160.658 28.44C160.45 28.648 160.346 28.936 160.346 29.304C160.346 29.752 160.498 30.12 160.802 30.408C161.122 30.696 161.578 30.84 162.17 30.84C162.634 30.84 163.042 30.736 163.394 30.528C163.762 30.304 164.05 30.008 164.258 29.64C164.466 29.256 164.57 28.824 164.57 28.344V25.584C164.57 24.88 164.41 24.384 164.09 24.096C163.77 23.792 163.226 23.64 162.458 23.64C162.026 23.64 161.554 23.696 161.042 23.808C160.546 23.904 159.994 24.072 159.386 24.312C159.034 24.472 158.722 24.512 158.45 24.432C158.178 24.336 157.97 24.176 157.826 23.952C157.682 23.712 157.61 23.456 157.61 23.184C157.61 22.896 157.69 22.624 157.85 22.368C158.01 22.096 158.274 21.896 158.642 21.768C159.394 21.464 160.098 21.256 160.754 21.144C161.426 21.032 162.042 20.976 162.602 20.976C163.834 20.976 164.842 21.16 165.626 21.528C166.426 21.88 167.026 22.432 167.426 23.184C167.826 23.92 168.026 24.872 168.026 26.04V31.368C168.026 31.96 167.882 32.416 167.594 32.736C167.306 33.056 166.89 33.216 166.346 33.216C165.802 33.216 165.378 33.056 165.074 32.736C164.786 32.416 164.642 31.96 164.642 31.368V30.48L164.81 30.624C164.714 31.168 164.506 31.64 164.186 32.04C163.882 32.424 163.49 32.728 163.01 32.952C162.53 33.16 161.978 33.264 161.354 33.264Z" fill="#7C58D3"/>
	</g>
	<defs>
		<clipPath id="petopia_logo">
			<rect width="179.014" height="54.0313" fill="white" transform="translate(0.775391)"/>
		</clipPath>
	</defs>
</svg>