<svg width="31" height="30" viewBox="0 0 31 30" fill="none" xmlns="http://www.w3.org/2000/svg">
	<path d="M17.291 10.3611C16.1191 10.3611 11.0215 10.4783 7.79883 15.4001V10.3611C7.79883 7.31421 5.2207 4.73608 2.17383 4.73608C1.11914 4.73608 0.298828 5.61499 0.298828 6.61108C0.298828 7.66577 1.11914 8.48608 2.17383 8.48608C3.16992 8.48608 4.04883 9.36499 4.04883 10.3611V25.3611C4.04883 27.4705 5.68945 29.1111 7.79883 29.1111H18.1113C18.5801 29.1111 19.0488 28.7009 19.0488 28.1736V27.2361C19.0488 26.24 18.1699 25.3611 17.1738 25.3611H15.2988L22.7988 19.7361V28.1736C22.7988 28.7009 23.209 29.1111 23.7363 29.1111H25.6113C26.0801 29.1111 26.5488 28.7009 26.5488 28.1736V16.1033C25.9043 16.2791 25.3184 16.3962 24.6738 16.3962C21.041 16.3962 17.9941 13.8181 17.291 10.3611ZM26.5488 4.73608H22.7988L19.0488 0.986084V8.89624C19.0488 12.0017 21.5098 14.5212 24.6738 14.5212C27.7793 14.5212 30.2988 12.0017 30.2988 8.89624V0.986084L26.5488 4.73608ZM22.3301 9.42358C21.8027 9.42358 21.3926 9.01343 21.3926 8.48608C21.3926 8.01733 21.8027 7.54858 22.3301 7.54858C22.7988 7.54858 23.2676 8.01733 23.2676 8.48608C23.2676 9.01343 22.7988 9.42358 22.3301 9.42358ZM27.0176 9.42358C26.4902 9.42358 26.0801 9.01343 26.0801 8.48608C26.0801 8.01733 26.4902 7.54858 27.0176 7.54858C27.4863 7.54858 27.9551 8.01733 27.9551 8.48608C27.9551 9.01343 27.4863 9.42358 27.0176 9.42358Z" fill="#7C58D3"/>
</svg>