<svg width="56" height="58" viewBox="0 0 56 58" fill="none" xmlns="http://www.w3.org/2000/svg">
<path d="M46.2358 18C45.2615 18 44.4717 17.2541 44.4717 16.334V11.7895C44.4717 7.12588 40.447 3.33181 35.4999 3.33181C30.5529 3.33181 26.5283 7.12588 26.5283 11.7895V16.334C26.5283 17.2541 25.7385 18 24.7642 18C23.7898 18 23 17.2541 23 16.334V11.7895C23 5.2888 28.6075 0 35.4999 0C42.3925 0 48 5.2888 48 11.7896V16.3342C48 17.2541 47.2102 18 46.2358 18Z" fill="#752F00"/>
<path d="M1.55653 17C0.696957 17 0 17.7078 0 18.5809V56.4192C0 57.2922 0.696845 58 1.55653 58H41.9608L44 33.0193L41.9608 17L1.55653 17Z" fill="#F48430"/>
<path d="M56 57.5389L49.6642 45L43 58H54.909C55.3341 58 55.7189 57.8238 56 57.5389Z" fill="#893A00"/>
<path d="M55.5 58C56 58 56 58 56 56.8596V18.5986C56 17.7158 55.2336 17 54.2881 17H48.5257L46 33.1983L50 51.5C50 51.5 55 58 55.5 58Z" fill="#752F00"/>
<path d="M43 17V58H43.1886L50 51.2856V17L43 17Z" fill="#A44500"/>
<path d="M21 17H43V58H21L21 17Z" fill="#DA6B00"/>
<path d="M31.2358 23C30.2615 23 29.4717 22.2167 29.4717 21.2504V12.3814C29.4717 7.48367 25.447 3.49916 20.5001 3.49916C15.5531 3.49916 11.5283 7.48367 11.5283 12.3814V21.2504C11.5283 22.2167 10.7385 23 9.76416 23C8.78982 23 8 22.2167 8 21.2504V12.3814C8 5.55426 13.6075 0 20.5001 0C27.3926 0 33 5.55426 33 12.3814V21.2504C33 22.2167 32.2102 23 31.2358 23Z" fill="#C65000"/>
<path d="M29.6128 12.3814V21.2504C29.6128 22.2167 30.371 23 31.3064 23C32.2418 23 33 22.2167 33 21.2504V12.3814C33 5.55426 27.6169 0 21 0V3.49916C25.7492 3.49916 29.6128 7.48367 29.6128 12.3814Z" fill="#A44500"/>
<ellipse cx="21" cy="38.5" rx="13" ry="13.5" fill="white"/>
<circle cx="14.5" cy="34.5" r="1.5" fill="#FF6C6C"/>
<path d="M21 25V52C28.1818 51.9871 34 45.9481 34 38.5C34 31.0519 28.1818 25.0129 21 25L21 25Z" fill="#F9F9F9"/>
<path d="M21.0001 45.3622C21.8566 45.3622 22.673 45.522 23.4171 45.811C25.1209 46.4728 27.0008 45.3151 27 43.5936C27 43.4937 26.9971 43.3932 26.9914 43.292C26.8243 40.3499 24.1795 38.0099 21.0204 38C17.6974 37.9897 15 40.499 15 43.5959C15 43.6097 15 43.6234 15.0001 43.6372C15.0134 45.34 16.897 46.466 18.5824 45.8111C19.3268 45.522 21.0001 45.3622 21.0001 45.3622Z" fill="#FF6C6C"/>
<path d="M21 38V45.365C21.6884 45.3808 22.3452 45.5368 22.9462 45.8109C24.3984 46.4732 26.0007 45.3149 26 43.5927C26 43.4928 25.9975 43.3922 25.9927 43.291C25.8519 40.3831 23.6495 38.0648 21 38H21Z" fill="#FF0059"/>
<circle cx="21.5" cy="32.5" r="1.5" fill="#FF6C6C"/>
<path d="M21 31V34C22.1062 33.9922 23 33.324 23 32.5C23 31.676 22.1062 31.0077 21 31Z" fill="#FF0059"/>
<circle cx="27.5" cy="35.5" r="1.5" fill="#FF0059"/>
</svg>
