<svg width="35" height="32" viewBox="0 0 35 32" fill="none" xmlns="http://www.w3.org/2000/svg">
	<path d="M16.5371 15.7595L10.1504 9.07983C9.25195 8.14233 8.82227 6.97046 8.86133 5.56421C8.93945 4.15796 9.48633 3.02515 10.502 2.16577C11.4004 1.38452 12.4355 1.05249 13.6074 1.16968C14.8184 1.2478 15.834 1.71655 16.6543 2.57593L17.2988 3.27905L17.9434 2.57593C18.8027 1.71655 19.8184 1.2478 20.9902 1.16968C22.1621 1.05249 23.1973 1.38452 24.0957 2.16577C25.1504 3.02515 25.6973 4.15796 25.7363 5.56421C25.8145 6.97046 25.3848 8.14233 24.4473 9.07983L18.0605 15.7595C17.8262 15.9939 17.5723 16.1111 17.2988 16.1111C17.0254 16.1111 16.7715 15.9939 16.5371 15.7595ZM33.5293 20.3298C33.998 20.7205 34.2129 21.2087 34.1738 21.7947C34.1738 22.3806 33.9395 22.8494 33.4707 23.2009L24.623 30.2908C23.9199 30.8376 23.1387 31.1111 22.2793 31.1111H1.36133C1.08789 31.1111 0.853516 31.0134 0.658203 30.8181C0.501953 30.6619 0.423828 30.447 0.423828 30.1736V24.5486C0.423828 24.2751 0.501953 24.0603 0.658203 23.9041C0.853516 23.7087 1.08789 23.6111 1.36133 23.6111H4.58398L7.33789 21.3845C8.58789 20.3689 10.0332 19.8611 11.6738 19.8611H21.0488C21.6348 19.8611 22.1035 20.0955 22.4551 20.5642C22.8457 20.9939 23.002 21.4822 22.9238 22.0291C22.8457 22.4978 22.6113 22.8884 22.2207 23.2009C21.8301 23.4744 21.4004 23.6111 20.9316 23.6111H16.3613C16.0879 23.6111 15.8535 23.7087 15.6582 23.9041C15.502 24.0603 15.4238 24.2751 15.4238 24.5486C15.4238 24.822 15.502 25.0564 15.6582 25.2517C15.8535 25.408 16.0879 25.4861 16.3613 25.4861H23.2754C24.1738 25.4861 24.9551 25.2126 25.6191 24.6658L31.0684 20.3298C31.4199 20.0173 31.8301 19.8611 32.2988 19.8611C32.7676 19.8611 33.1777 20.0173 33.5293 20.3298Z" fill="#7C58D3"/>
</svg>