<svg width="38" height="44" viewBox="0 0 38 44" fill="none" xmlns="http://www.w3.org/2000/svg">
	<path fill-rule="evenodd" clip-rule="evenodd" d="M5.08097 1.93335V41.4874C5.08097 42.8745 3.95541 44 2.56835 44H2.51875C1.12495 44 0 42.8745 0 41.4874L1.86533 1.93335H5.08097Z" fill="#E1903F"/>
	<path fill-rule="evenodd" clip-rule="evenodd" d="M5.87918 4.13795H13.6424C13.9823 4.13795 14.2579 4.41353 14.2579 4.75402V4.76626C14.2579 5.10614 13.9823 5.38171 13.6424 5.38171H5.87918C5.41254 5.38171 5.03348 5.52501 5.03348 5.69342V5.69893C5.03348 5.86734 5.41254 6.00451 5.87918 6.00451H13.6424C13.9823 6.00451 14.2579 6.28008 14.2579 6.61996V6.63221C14.2579 6.97269 13.9823 7.24827 13.6424 7.24827H5.87918C5.41254 7.24827 5.03348 7.39157 5.03348 7.55936V7.56548C5.03348 7.73328 5.41254 7.86984 5.87918 7.86984H13.6424C13.9823 7.86984 14.2579 8.14603 14.2579 8.4859V8.49815C14.2579 8.83864 13.9823 9.11421 13.6424 9.11421H5.87918C5.41254 9.11421 5.03348 9.25751 5.03348 9.4253V9.43143C5.03348 9.59983 5.41254 9.7364 5.87918 9.7364H13.6424C13.9823 9.7364 14.2579 10.012 14.2579 10.3518V10.3647C14.2579 10.7046 13.9823 10.9802 13.6424 10.9802H5.87918C5.41254 10.9802 5.03348 11.1235 5.03348 11.2912V11.2974C5.03348 11.4658 5.41254 11.6023 5.87918 11.6023H13.6424C13.9823 11.6023 14.2579 11.8779 14.2579 12.2184V12.2306C14.2579 12.5705 13.9823 12.8461 13.6424 12.8461H5.87918C5.41254 12.8461 5.03348 12.9894 5.03348 13.1572V13.1639C5.03348 13.3317 5.41254 13.4683 5.87918 13.4683H13.6424C13.9823 13.4683 14.2579 13.7439 14.2579 14.0843V14.0966C14.2579 14.4371 13.9823 14.7127 13.6424 14.7127H5.87918C5.41254 14.7127 5.03348 14.8553 5.03348 15.0237V15.0299C5.03348 15.1977 5.41254 15.3342 5.87918 15.3342H13.6424C13.9823 15.3342 14.2579 15.6104 14.2579 15.9503V15.9625C14.2579 16.3024 13.9823 16.5786 13.6424 16.5786H5.87918C5.41254 16.5786 5.03348 16.7219 5.03348 16.8897V16.8958C5.03348 17.0636 5.41254 17.2008 5.87918 17.2008H13.6424C13.9823 17.2008 14.2579 17.4764 14.2579 17.8162V17.8291C14.2579 18.169 13.9823 18.4445 13.6424 18.4445H5.87918C5.41254 18.4445 5.03348 18.5878 5.03348 18.7556V18.7618C5.03348 18.9302 5.41254 19.0667 5.87918 19.0667H13.6424C13.9823 19.0667 14.2579 19.3423 14.2579 19.6828V19.695C14.2579 20.0349 13.9823 20.3105 13.6424 20.3105H5.87918C5.41254 20.3105 5.03348 20.4538 5.03348 20.6216V20.6277C5.03348 20.7955 5.41254 20.9327 5.87918 20.9327H13.6424C13.9823 20.9327 14.2579 21.2082 14.2579 21.5487V21.561C14.2579 21.9008 13.9823 22.1764 13.6424 22.1764H5.87918C5.41254 22.1764 5.03348 22.3197 5.03348 22.4875V22.4936C5.03348 22.662 5.41254 22.7986 5.87918 22.7986H13.4961C13.9584 22.7986 14.2873 23.3093 14.0411 23.7019C13.613 24.3859 12.5958 24.4037 11.409 24.4037H3.37207V1.92969H11.409C12.5254 1.92969 13.4899 1.94561 13.9578 2.51635C14.2836 2.91379 13.9847 3.51638 13.4709 3.51638H5.87918C5.41254 3.51638 5.03348 3.65907 5.03348 3.82686V3.8336C5.03348 4.00139 5.41254 4.13795 5.87918 4.13795Z" fill="#E1903F"/>
	<path fill-rule="evenodd" clip-rule="evenodd" d="M2.51876 42.9007C1.73552 42.9007 1.09863 42.2663 1.09863 41.4873L2.91252 3.08024L2.96213 3.03247H3.93153L3.98114 3.08269V41.4371C3.98114 42.2454 3.3265 42.9007 2.51876 42.9007Z" fill="#EF9E53"/>
	<path fill-rule="evenodd" clip-rule="evenodd" d="M26.8389 27.3699V43.9999H28.0471C29.2621 43.9999 30.2468 43.0158 30.2468 41.8008L29.1751 27.136C28.4519 27.2866 27.7036 27.3699 26.935 27.3699H26.8389Z" fill="#E1903F"/>
	<path fill-rule="evenodd" clip-rule="evenodd" d="M26.935 0H26.8389V1.13169H26.935C32.1856 1.13169 36.4423 5.22795 36.4423 10.2814V17.0893C36.4423 22.1421 32.1856 26.2389 26.935 26.2389H26.8389V26.7558H29.147L29.1751 27.1361C33.9683 26.1391 37.574 22.0153 37.574 17.0893V10.2808C37.574 4.6125 32.8011 0 26.935 0Z" fill="#EF9E53"/>
	<path fill-rule="evenodd" clip-rule="evenodd" d="M21.3449 1.88003L21.4184 1.88431H21.3449V1.88003ZM26.8393 26.7558V26.2389H26.7431C21.4919 26.2389 17.2358 22.1421 17.2358 17.0893V10.2814C17.2358 5.22795 21.4919 1.13169 26.7431 1.13169H26.8393V0H26.7431C20.8765 0 16.1035 4.6125 16.1035 10.2808V17.0893C16.1035 22.0153 19.7092 26.1391 24.503 27.1361L24.5306 26.7558H26.8393Z" fill="#E1903F"/>
	<path fill-rule="evenodd" clip-rule="evenodd" d="M21.3446 1.87998V1.88426H21.4181L21.3446 1.87998Z" fill="#E1903F"/>
	<path fill-rule="evenodd" clip-rule="evenodd" d="M24.4768 5.11762C24.0543 5.11762 23.7107 4.77468 23.7107 4.35091C23.7107 3.92775 24.0543 3.58481 24.4768 3.58481C24.9006 3.58481 25.2435 3.92775 25.2435 4.35091C25.2435 4.77468 24.9006 5.11762 24.4768 5.11762ZM24.4768 9.83667C24.0543 9.83667 23.7107 9.49374 23.7107 9.07058C23.7107 8.64742 24.0543 8.30387 24.4768 8.30387C24.9006 8.30387 25.2435 8.64742 25.2435 9.07058C25.2435 9.49374 24.9006 9.83667 24.4768 9.83667ZM24.4768 14.5557C24.0543 14.5557 23.7107 14.2128 23.7107 13.7896C23.7107 13.3665 24.0543 13.0235 24.4768 13.0235C24.9006 13.0235 25.2435 13.3665 25.2435 13.7896C25.2435 14.2128 24.9006 14.5557 24.4768 14.5557ZM24.4768 19.2748C24.0543 19.2748 23.7107 18.9318 23.7107 18.5093C23.7107 18.0855 24.0543 17.7426 24.4768 17.7426C24.9006 17.7426 25.2435 18.0855 25.2435 18.5093C25.2435 18.9318 24.9006 19.2748 24.4768 19.2748ZM24.4768 23.9944C24.0543 23.9944 23.7107 23.6515 23.7107 23.2283C23.7107 22.8052 24.0543 22.4623 24.4768 22.4623C24.9006 22.4623 25.2435 22.8052 25.2435 23.2283C25.2435 23.6515 24.9006 23.9944 24.4768 23.9944ZM22.1075 7.4747C21.685 7.4747 21.3414 7.13176 21.3414 6.7086C21.3414 6.28605 21.685 5.9425 22.1075 5.9425C22.5307 5.9425 22.8736 6.28605 22.8736 6.7086C22.8736 7.13176 22.5307 7.4747 22.1075 7.4747ZM22.1075 12.1944C21.685 12.1944 21.3414 11.8514 21.3414 11.4283C21.3414 11.0051 21.685 10.6622 22.1075 10.6622C22.5307 10.6622 22.8736 11.0051 22.8736 11.4283C22.8736 11.8514 22.5307 12.1944 22.1075 12.1944ZM22.1075 16.9134C21.685 16.9134 21.3414 16.5705 21.3414 16.1473C21.3414 15.7242 21.685 15.3812 22.1075 15.3812C22.5307 15.3812 22.8736 15.7242 22.8736 16.1473C22.8736 16.5705 22.5307 16.9134 22.1075 16.9134ZM22.1075 21.6325C21.685 21.6325 21.3414 21.2901 21.3414 20.8664C21.3414 20.4432 21.685 20.1003 22.1075 20.1003C22.5307 20.1003 22.8736 20.4432 22.8736 20.8664C22.8736 21.2901 22.5307 21.6325 22.1075 21.6325ZM19.7461 9.83667C19.323 9.83667 18.98 9.49374 18.98 9.07058C18.98 8.64742 19.323 8.30387 19.7461 8.30387C20.1693 8.30387 20.5122 8.64742 20.5122 9.07058C20.5122 9.49374 20.1693 9.83667 19.7461 9.83667ZM19.7461 14.5557C19.323 14.5557 18.98 14.2128 18.98 13.7896C18.98 13.3665 19.323 13.0235 19.7461 13.0235C20.1693 13.0235 20.5122 13.3665 20.5122 13.7896C20.5122 14.2128 20.1693 14.5557 19.7461 14.5557ZM19.7461 19.2748C19.323 19.2748 18.98 18.9318 18.98 18.5093C18.98 18.0855 19.323 17.7426 19.7461 17.7426C20.1693 17.7426 20.5122 18.0855 20.5122 18.5093C20.5122 18.9318 20.1693 19.2748 19.7461 19.2748ZM17.2354 10.2813V17.0892C17.2354 22.142 21.4914 26.2388 26.7427 26.2388H26.8388V21.6325C26.4156 21.6325 26.0727 21.2901 26.0727 20.8664C26.0727 20.4432 26.4156 20.1003 26.8388 20.1003V16.9134C26.4156 16.9134 26.0727 16.5705 26.0727 16.1473C26.0727 15.7242 26.4156 15.3812 26.8388 15.3812V12.1944C26.4156 12.1944 26.0727 11.8514 26.0727 11.4283C26.0727 11.0051 26.4156 10.6622 26.8388 10.6622V7.4747C26.4156 7.4747 26.0727 7.13176 26.0727 6.7086C26.0727 6.28605 26.4156 5.9425 26.8388 5.9425V1.13159H26.7427C21.4914 1.13159 17.2354 5.22785 17.2354 10.2813Z" fill="#662C22"/>
	<path fill-rule="evenodd" clip-rule="evenodd" d="M29.2082 22.4623C29.6314 22.4623 29.9749 22.8052 29.9749 23.2283C29.9749 23.6515 29.6314 23.9944 29.2082 23.9944C28.785 23.9944 28.4421 23.6515 28.4421 23.2283C28.4421 22.8052 28.785 22.4623 29.2082 22.4623ZM29.2082 17.7426C29.6314 17.7426 29.9749 18.0855 29.9749 18.5093C29.9749 18.9318 29.6314 19.2748 29.2082 19.2748C28.785 19.2748 28.4421 18.9318 28.4421 18.5093C28.4421 18.0855 28.785 17.7426 29.2082 17.7426ZM29.2082 13.0235C29.6314 13.0235 29.9749 13.3665 29.9749 13.7896C29.9749 14.2128 29.6314 14.5557 29.2082 14.5557C28.785 14.5557 28.4421 14.2128 28.4421 13.7896C28.4421 13.3665 28.785 13.0235 29.2082 13.0235ZM29.2082 8.30387C29.6314 8.30387 29.9749 8.64742 29.9749 9.07058C29.9749 9.49374 29.6314 9.83667 29.2082 9.83667C28.785 9.83667 28.4421 9.49374 28.4421 9.07058C28.4421 8.64742 28.785 8.30387 29.2082 8.30387ZM29.2082 3.58481C29.6314 3.58481 29.9749 3.92775 29.9749 4.35091C29.9749 4.77468 29.6314 5.11762 29.2082 5.11762C28.785 5.11762 28.4421 4.77468 28.4421 4.35091C28.4421 3.92775 28.785 3.58481 29.2082 3.58481ZM31.5696 20.1003C31.9933 20.1003 32.3357 20.4432 32.3357 20.8664C32.3357 21.2901 31.9933 21.6325 31.5696 21.6325C31.147 21.6325 30.8035 21.2901 30.8035 20.8664C30.8035 20.4432 31.147 20.1003 31.5696 20.1003ZM31.5696 15.3812C31.9933 15.3812 32.3357 15.7242 32.3357 16.1473C32.3357 16.5705 31.9933 16.9134 31.5696 16.9134C31.147 16.9134 30.8035 16.5705 30.8035 16.1473C30.8035 15.7242 31.147 15.3812 31.5696 15.3812ZM31.5696 10.6622C31.9933 10.6622 32.3357 11.0051 32.3357 11.4283C32.3357 11.8514 31.9933 12.1944 31.5696 12.1944C31.147 12.1944 30.8035 11.8514 30.8035 11.4283C30.8035 11.0051 31.147 10.6622 31.5696 10.6622ZM31.5696 5.9425C31.9933 5.9425 32.3357 6.28605 32.3357 6.7086C32.3357 7.13176 31.9933 7.4747 31.5696 7.4747C31.147 7.4747 30.8035 7.13176 30.8035 6.7086C30.8035 6.28605 31.147 5.9425 31.5696 5.9425ZM33.9389 17.7426C34.3627 17.7426 34.7056 18.0855 34.7056 18.5093C34.7056 18.9318 34.3627 19.2748 33.9389 19.2748C33.5163 19.2748 33.1728 18.9318 33.1728 18.5093C33.1728 18.0855 33.5163 17.7426 33.9389 17.7426ZM33.9389 13.0235C34.3627 13.0235 34.7056 13.3665 34.7056 13.7896C34.7056 14.2128 34.3627 14.5557 33.9389 14.5557C33.5163 14.5557 33.1728 14.2128 33.1728 13.7896C33.1728 13.3665 33.5163 13.0235 33.9389 13.0235ZM33.9389 8.30387C34.3627 8.30387 34.7056 8.64742 34.7056 9.07058C34.7056 9.49374 34.3627 9.83667 33.9389 9.83667C33.5163 9.83667 33.1728 9.49374 33.1728 9.07058C33.1728 8.64742 33.5163 8.30387 33.9389 8.30387ZM27.605 6.7086C27.605 7.13176 27.262 7.4747 26.8389 7.4747V10.6622C27.262 10.6622 27.605 11.0051 27.605 11.4283C27.605 11.8514 27.262 12.1944 26.8389 12.1944V15.3812C27.262 15.3812 27.605 15.7242 27.605 16.1473C27.605 16.5705 27.262 16.9134 26.8389 16.9134V20.1003C27.262 20.1003 27.605 20.4432 27.605 20.8664C27.605 21.2901 27.262 21.6325 26.8389 21.6325V26.2388H26.935C32.1856 26.2388 36.4423 22.142 36.4423 17.0892V10.2813C36.4423 5.22785 32.1856 1.13159 26.935 1.13159H26.8389V5.9425C27.262 5.9425 27.605 6.28605 27.605 6.7086Z" fill="#59231D"/>
	<path fill-rule="evenodd" clip-rule="evenodd" d="M22.1079 5.94263C21.6853 5.94263 21.3418 6.28618 21.3418 6.70872C21.3418 7.13188 21.6853 7.47482 22.1079 7.47482C22.5311 7.47482 22.874 7.13188 22.874 6.70872C22.874 6.28618 22.5311 5.94263 22.1079 5.94263Z" fill="#FBD88C"/>
	<path fill-rule="evenodd" clip-rule="evenodd" d="M26.0732 6.70872C26.0732 7.13188 26.4162 7.47482 26.8393 7.47482V5.94263C26.4162 5.94263 26.0732 6.28618 26.0732 6.70872Z" fill="#FBD88C"/>
	<path fill-rule="evenodd" clip-rule="evenodd" d="M27.605 6.70872C27.605 6.28618 27.262 5.94263 26.8389 5.94263V7.47482C27.262 7.47482 27.605 7.13188 27.605 6.70872Z" fill="#F3B62C"/>
	<path fill-rule="evenodd" clip-rule="evenodd" d="M31.5698 7.47482C31.9936 7.47482 32.3359 7.13188 32.3359 6.70872C32.3359 6.28618 31.9936 5.94263 31.5698 5.94263C31.1473 5.94263 30.8037 6.28618 30.8037 6.70872C30.8037 7.13188 31.1473 7.47482 31.5698 7.47482Z" fill="#F3B62C"/>
	<path fill-rule="evenodd" clip-rule="evenodd" d="M19.7466 8.30396C19.3234 8.30396 18.9805 8.6475 18.9805 9.07066C18.9805 9.49382 19.3234 9.83676 19.7466 9.83676C20.1697 9.83676 20.5127 9.49382 20.5127 9.07066C20.5127 8.6475 20.1697 8.30396 19.7466 8.30396Z" fill="#FBD88C"/>
	<path fill-rule="evenodd" clip-rule="evenodd" d="M24.477 8.30396C24.0545 8.30396 23.7109 8.6475 23.7109 9.07066C23.7109 9.49382 24.0545 9.83676 24.477 9.83676C24.9008 9.83676 25.2437 9.49382 25.2437 9.07066C25.2437 8.6475 24.9008 8.30396 24.477 8.30396Z" fill="#FBD88C"/>
	<path fill-rule="evenodd" clip-rule="evenodd" d="M29.2085 9.83676C29.6316 9.83676 29.9752 9.49382 29.9752 9.07066C29.9752 8.6475 29.6316 8.30396 29.2085 8.30396C28.7853 8.30396 28.4424 8.6475 28.4424 9.07066C28.4424 9.49382 28.7853 9.83676 29.2085 9.83676Z" fill="#F3B62C"/>
	<path fill-rule="evenodd" clip-rule="evenodd" d="M24.477 3.58496C24.0545 3.58496 23.7109 3.9279 23.7109 4.35106C23.7109 4.77483 24.0545 5.11777 24.477 5.11777C24.9008 5.11777 25.2437 4.77483 25.2437 4.35106C25.2437 3.9279 24.9008 3.58496 24.477 3.58496Z" fill="#FBD88C"/>
	<path fill-rule="evenodd" clip-rule="evenodd" d="M29.2085 5.11777C29.6316 5.11777 29.9752 4.77483 29.9752 4.35106C29.9752 3.9279 29.6316 3.58496 29.2085 3.58496C28.7853 3.58496 28.4424 3.9279 28.4424 4.35106C28.4424 4.77483 28.7853 5.11777 29.2085 5.11777Z" fill="#F3B62C"/>
	<path fill-rule="evenodd" clip-rule="evenodd" d="M33.9389 9.83676C34.3627 9.83676 34.7057 9.49382 34.7057 9.07066C34.7057 8.6475 34.3627 8.30396 33.9389 8.30396C33.5164 8.30396 33.1729 8.6475 33.1729 9.07066C33.1729 9.49382 33.5164 9.83676 33.9389 9.83676Z" fill="#F3B62C"/>
	<path fill-rule="evenodd" clip-rule="evenodd" d="M22.1079 10.6624C21.6853 10.6624 21.3418 11.0053 21.3418 11.4284C21.3418 11.8516 21.6853 12.1945 22.1079 12.1945C22.5311 12.1945 22.874 11.8516 22.874 11.4284C22.874 11.0053 22.5311 10.6624 22.1079 10.6624Z" fill="#FBD88C"/>
	<path fill-rule="evenodd" clip-rule="evenodd" d="M26.0732 11.4284C26.0732 11.8516 26.4162 12.1945 26.8393 12.1945V10.6624C26.4162 10.6624 26.0732 11.0053 26.0732 11.4284Z" fill="#FBD88C"/>
	<path fill-rule="evenodd" clip-rule="evenodd" d="M27.605 11.4284C27.605 11.0053 27.262 10.6624 26.8389 10.6624V12.1945C27.262 12.1945 27.605 11.8516 27.605 11.4284Z" fill="#F3B62C"/>
	<path fill-rule="evenodd" clip-rule="evenodd" d="M31.5698 12.1945C31.9936 12.1945 32.3359 11.8516 32.3359 11.4284C32.3359 11.0053 31.9936 10.6624 31.5698 10.6624C31.1473 10.6624 30.8037 11.0053 30.8037 11.4284C30.8037 11.8516 31.1473 12.1945 31.5698 12.1945Z" fill="#F3B62C"/>
	<path fill-rule="evenodd" clip-rule="evenodd" d="M19.7466 13.0237C19.3234 13.0237 18.9805 13.3666 18.9805 13.7898C18.9805 14.2129 19.3234 14.5559 19.7466 14.5559C20.1697 14.5559 20.5127 14.2129 20.5127 13.7898C20.5127 13.3666 20.1697 13.0237 19.7466 13.0237Z" fill="#FBD88C"/>
	<path fill-rule="evenodd" clip-rule="evenodd" d="M24.477 13.0237C24.0545 13.0237 23.7109 13.3666 23.7109 13.7898C23.7109 14.2129 24.0545 14.5559 24.477 14.5559C24.9008 14.5559 25.2437 14.2129 25.2437 13.7898C25.2437 13.3666 24.9008 13.0237 24.477 13.0237Z" fill="#FBD88C"/>
	<path fill-rule="evenodd" clip-rule="evenodd" d="M29.2085 14.5559C29.6316 14.5559 29.9752 14.2129 29.9752 13.7898C29.9752 13.3666 29.6316 13.0237 29.2085 13.0237C28.7853 13.0237 28.4424 13.3666 28.4424 13.7898C28.4424 14.2129 28.7853 14.5559 29.2085 14.5559Z" fill="#F3B62C"/>
	<path fill-rule="evenodd" clip-rule="evenodd" d="M33.9389 14.5559C34.3627 14.5559 34.7057 14.2129 34.7057 13.7898C34.7057 13.3666 34.3627 13.0237 33.9389 13.0237C33.5164 13.0237 33.1729 13.3666 33.1729 13.7898C33.1729 14.2129 33.5164 14.5559 33.9389 14.5559Z" fill="#F3B62C"/>
	<path fill-rule="evenodd" clip-rule="evenodd" d="M22.1079 15.3813C21.6853 15.3813 21.3418 15.7243 21.3418 16.1474C21.3418 16.5706 21.6853 16.9135 22.1079 16.9135C22.5311 16.9135 22.874 16.5706 22.874 16.1474C22.874 15.7243 22.5311 15.3813 22.1079 15.3813Z" fill="#FBD88C"/>
	<path fill-rule="evenodd" clip-rule="evenodd" d="M26.0732 16.1474C26.0732 16.5706 26.4162 16.9135 26.8393 16.9135V15.3813C26.4162 15.3813 26.0732 15.7243 26.0732 16.1474Z" fill="#FBD88C"/>
	<path fill-rule="evenodd" clip-rule="evenodd" d="M27.605 16.1474C27.605 15.7243 27.262 15.3813 26.8389 15.3813V16.9135C27.262 16.9135 27.605 16.5706 27.605 16.1474Z" fill="#F3B62C"/>
	<path fill-rule="evenodd" clip-rule="evenodd" d="M31.5698 16.9135C31.9936 16.9135 32.3359 16.5706 32.3359 16.1474C32.3359 15.7243 31.9936 15.3813 31.5698 15.3813C31.1473 15.3813 30.8037 15.7243 30.8037 16.1474C30.8037 16.5706 31.1473 16.9135 31.5698 16.9135Z" fill="#F3B62C"/>
	<path fill-rule="evenodd" clip-rule="evenodd" d="M19.7466 17.7427C19.3234 17.7427 18.9805 18.0856 18.9805 18.5094C18.9805 18.9319 19.3234 19.2749 19.7466 19.2749C20.1697 19.2749 20.5127 18.9319 20.5127 18.5094C20.5127 18.0856 20.1697 17.7427 19.7466 17.7427Z" fill="#FBD88C"/>
	<path fill-rule="evenodd" clip-rule="evenodd" d="M24.477 17.7427C24.0545 17.7427 23.7109 18.0856 23.7109 18.5094C23.7109 18.9319 24.0545 19.2749 24.477 19.2749C24.9008 19.2749 25.2437 18.9319 25.2437 18.5094C25.2437 18.0856 24.9008 17.7427 24.477 17.7427Z" fill="#FBD88C"/>
	<path fill-rule="evenodd" clip-rule="evenodd" d="M29.2085 19.2749C29.6316 19.2749 29.9752 18.9319 29.9752 18.5094C29.9752 18.0856 29.6316 17.7427 29.2085 17.7427C28.7853 17.7427 28.4424 18.0856 28.4424 18.5094C28.4424 18.9319 28.7853 19.2749 29.2085 19.2749Z" fill="#F3B62C"/>
	<path fill-rule="evenodd" clip-rule="evenodd" d="M33.9389 19.2749C34.3627 19.2749 34.7057 18.9319 34.7057 18.5094C34.7057 18.0856 34.3627 17.7427 33.9389 17.7427C33.5164 17.7427 33.1729 18.0856 33.1729 18.5094C33.1729 18.9319 33.5164 19.2749 33.9389 19.2749Z" fill="#F3B62C"/>
	<path fill-rule="evenodd" clip-rule="evenodd" d="M22.1079 20.1003C21.6853 20.1003 21.3418 20.4433 21.3418 20.8664C21.3418 21.2902 21.6853 21.6325 22.1079 21.6325C22.5311 21.6325 22.874 21.2902 22.874 20.8664C22.874 20.4433 22.5311 20.1003 22.1079 20.1003Z" fill="#FBD88C"/>
	<path fill-rule="evenodd" clip-rule="evenodd" d="M26.0732 20.8664C26.0732 21.2902 26.4162 21.6325 26.8393 21.6325V20.1003C26.4162 20.1003 26.0732 20.4433 26.0732 20.8664Z" fill="#FBD88C"/>
	<path fill-rule="evenodd" clip-rule="evenodd" d="M27.605 20.8664C27.605 20.4433 27.262 20.1003 26.8389 20.1003V21.6325C27.262 21.6325 27.605 21.2902 27.605 20.8664Z" fill="#F3B62C"/>
	<path fill-rule="evenodd" clip-rule="evenodd" d="M31.5698 21.6325C31.9936 21.6325 32.3359 21.2902 32.3359 20.8664C32.3359 20.4433 31.9936 20.1003 31.5698 20.1003C31.1473 20.1003 30.8037 20.4433 30.8037 20.8664C30.8037 21.2902 31.1473 21.6325 31.5698 21.6325Z" fill="#F3B62C"/>
	<path fill-rule="evenodd" clip-rule="evenodd" d="M24.477 22.4624C24.0545 22.4624 23.7109 22.8053 23.7109 23.2285C23.7109 23.6517 24.0545 23.9946 24.477 23.9946C24.9008 23.9946 25.2437 23.6517 25.2437 23.2285C25.2437 22.8053 24.9008 22.4624 24.477 22.4624Z" fill="#FBD88C"/>
	<path fill-rule="evenodd" clip-rule="evenodd" d="M29.2085 23.9946C29.6316 23.9946 29.9752 23.6517 29.9752 23.2285C29.9752 22.8053 29.6316 22.4624 29.2085 22.4624C28.7853 22.4624 28.4424 22.8053 28.4424 23.2285C28.4424 23.6517 28.7853 23.9946 29.2085 23.9946Z" fill="#F3B62C"/>
	<path fill-rule="evenodd" clip-rule="evenodd" d="M26.7431 27.3699C25.9745 27.3699 25.2262 27.2866 24.503 27.136L23.4307 41.8008C23.4307 43.0158 24.416 43.9999 25.6304 43.9999H26.8392V27.3699H26.7431Z" fill="#EF9E53"/>
	<path fill-rule="evenodd" clip-rule="evenodd" d="M26.8392 27.3701V26.7559H24.5305L24.5029 27.1362C25.2262 27.2868 25.9745 27.3701 26.743 27.3701H26.8392Z" fill="#E1903F"/>
	<path fill-rule="evenodd" clip-rule="evenodd" d="M26.8389 26.7559V27.3701H26.935C27.7036 27.3701 28.4519 27.2868 29.1751 27.1362L29.147 26.7559H26.8389Z" fill="#EF9E53"/>
</svg>