<svg width="26" height="25" viewBox="0 0 26 25" fill="none" xmlns="http://www.w3.org/2000/svg">
	<path d="M1.65625 1.27271C1.96875 0.897705 2.32812 0.85083 2.73438 1.13208L13.0469 8.86646V9.99146H10.7969L1.32812 2.91333C0.953125 2.60083 0.90625 2.25708 1.1875 1.88208L1.65625 1.27271ZM3.57812 8.96021C3.89062 9.24146 4.04688 9.58521 4.04688 9.99146C4.04688 10.3977 4.1875 10.7571 4.46875 11.0696C4.78125 11.3508 5.14062 11.4915 5.54688 11.4915H13.0469V18.9915H8.54688V24.2415C8.54688 24.4602 8.46875 24.6321 8.3125 24.7571C8.1875 24.9133 8.01562 24.9915 7.79688 24.9915H4.79688C4.57812 24.9915 4.39062 24.9133 4.23438 24.7571C4.10938 24.6321 4.04688 24.4602 4.04688 24.2415V14.2102C3.17188 13.8977 2.45312 13.3665 1.89062 12.6165C1.32812 11.8352 1.04688 10.9602 1.04688 9.99146C1.04688 9.58521 1.1875 9.24146 1.46875 8.96021C1.78125 8.64771 2.14062 8.49146 2.54688 8.49146C2.95312 8.49146 3.29688 8.64771 3.57812 8.96021ZM14.5469 18.9915V11.8665L20.5469 14.0227V24.2415C20.5469 24.4602 20.4688 24.6321 20.3125 24.7571C20.1875 24.9133 20.0156 24.9915 19.7969 24.9915H16.7969C16.5781 24.9915 16.3906 24.9133 16.2344 24.7571C16.1094 24.6321 16.0469 24.4602 16.0469 24.2415V18.9915H14.5469ZM24.2969 5.49146C24.5156 5.49146 24.6875 5.56958 24.8125 5.72583C24.9688 5.85083 25.0469 6.02271 25.0469 6.24146V7.74146C25.0469 8.58521 24.75 9.30396 24.1562 9.89771C23.5938 10.4602 22.8906 10.7415 22.0469 10.7415H20.5469V12.429L14.5469 10.2727V3.24146C14.5469 2.89771 14.7031 2.66333 15.0156 2.53833C15.3281 2.41333 15.5938 2.47583 15.8125 2.72583L17.125 3.99146H19.6094C19.8594 3.99146 20.1094 4.06958 20.3594 4.22583C20.6406 4.38208 20.8438 4.58521 20.9688 4.83521L21.2969 5.49146H24.2969ZM18.4844 7.55396C18.6406 7.67896 18.8281 7.74146 19.0469 7.74146C19.2656 7.74146 19.4375 7.67896 19.5625 7.55396C19.7188 7.39771 19.7969 7.21021 19.7969 6.99146C19.7969 6.77271 19.7188 6.60083 19.5625 6.47583C19.4375 6.31958 19.2656 6.24146 19.0469 6.24146C18.8281 6.24146 18.6406 6.31958 18.4844 6.47583C18.3594 6.60083 18.2969 6.77271 18.2969 6.99146C18.2969 7.21021 18.3594 7.39771 18.4844 7.55396Z" fill="#7C58D3"/>
</svg>