<svg width="39" height="20" viewBox="0 0 39 20" fill="none" xmlns="http://www.w3.org/2000/svg">
	<path d="M35.6465 9.46655C35.373 9.58374 35.2363 9.79858 35.2363 10.1111C35.2363 10.4236 35.373 10.6384 35.6465 10.7556C36.3887 11.1462 36.9746 11.6931 37.4043 12.3962C37.834 13.0994 38.0488 13.8611 38.0488 14.6814V15.1501C38.0488 16.322 37.6191 17.3376 36.7598 18.197C35.9004 19.0564 34.8848 19.4861 33.7129 19.4861C32.7754 19.4861 31.916 19.2126 31.1348 18.6658C30.3926 18.1189 29.8652 17.3962 29.5527 16.4978C29.5527 16.4587 29.4941 16.283 29.377 15.9705C29.2598 15.6189 29.1816 15.4041 29.1426 15.3259C29.1035 15.2087 29.0254 15.033 28.9082 14.7986C28.791 14.5251 28.6543 14.3494 28.498 14.2712C28.3809 14.1931 28.2246 14.115 28.0293 14.0369C27.834 13.9197 27.5996 13.8611 27.3262 13.8611H11.2715C11.0762 13.8611 10.9004 13.8806 10.7441 13.9197C10.5879 13.9587 10.4512 14.0173 10.334 14.0955C10.2168 14.1345 10.0996 14.2322 9.98242 14.3884C9.9043 14.5056 9.82617 14.6033 9.74805 14.6814C9.66992 14.7595 9.5918 14.8962 9.51367 15.0916C9.43555 15.2869 9.37695 15.4431 9.33789 15.5603C9.33789 15.6384 9.29883 15.7947 9.2207 16.0291C9.14258 16.2634 9.08398 16.4197 9.04492 16.4978C8.73242 17.3962 8.18555 18.1189 7.4043 18.6658C6.66211 19.2126 5.82227 19.4861 4.88477 19.4861C3.71289 19.4861 2.69727 19.0564 1.83789 18.197C0.978516 17.3376 0.548828 16.322 0.548828 15.1501V14.6814C0.548828 13.8611 0.763672 13.0994 1.19336 12.3962C1.62305 11.6931 2.20898 11.1462 2.95117 10.7556C3.22461 10.6384 3.36133 10.4236 3.36133 10.1111C3.36133 9.79858 3.22461 9.58374 2.95117 9.46655C2.20898 9.07593 1.62305 8.52905 1.19336 7.82593C0.763672 7.1228 0.548828 6.36108 0.548828 5.54077V5.07202C0.548828 3.90015 0.978516 2.88452 1.83789 2.02515C2.69727 1.16577 3.71289 0.736084 4.88477 0.736084C5.50977 0.736084 6.0957 0.872803 6.64258 1.14624C7.22852 1.38062 7.7168 1.73218 8.10742 2.20093C8.53711 2.63062 8.84961 3.13843 9.04492 3.72437C9.04492 3.76343 9.10352 3.95874 9.2207 4.3103C9.33789 4.6228 9.41602 4.83765 9.45508 4.95483C9.49414 5.03296 9.57227 5.20874 9.68945 5.48218C9.80664 5.71655 9.92383 5.8728 10.041 5.95093C10.1973 6.02905 10.373 6.12671 10.5684 6.2439C10.7637 6.32202 10.998 6.36108 11.2715 6.36108H27.3262C27.5215 6.36108 27.6973 6.34155 27.8535 6.30249C28.0488 6.26343 28.2051 6.1853 28.3223 6.06812C28.4785 5.95093 28.5957 5.85327 28.6738 5.77515C28.791 5.69702 28.8887 5.54077 28.9668 5.3064C29.084 5.07202 29.1426 4.91577 29.1426 4.83765C29.1816 4.75952 29.2598 4.56421 29.377 4.25171C29.4941 3.93921 29.5527 3.76343 29.5527 3.72437C29.8652 2.82593 30.3926 2.10327 31.1348 1.5564C31.916 1.00952 32.7754 0.736084 33.7129 0.736084C34.8848 0.736084 35.9004 1.16577 36.7598 2.02515C37.6191 2.88452 38.0488 3.90015 38.0488 5.07202V5.54077C38.0488 6.36108 37.834 7.1228 37.4043 7.82593C36.9746 8.52905 36.3887 9.07593 35.6465 9.46655Z" fill="#7C58D3"/>
</svg>