<svg width="56" height="56" viewBox="0 0 56 56" fill="none" xmlns="http://www.w3.org/2000/svg">
<path d="M0 11.7419H31V51.4839H0V11.7419Z" fill="#FDBF00"/>
<ellipse cx="15.5" cy="11.7419" rx="15.5" ry="11.7419" fill="#DFDFDD"/>
<path d="M15.619 19.871C11.218 19.871 7.24833 18.3226 5 15.7289L6.43857 14.4791C8.30202 16.6294 11.8198 17.9642 15.619 17.9642C18.4858 17.9642 21.1681 17.2277 23.1719 15.8905C25.057 14.6323 26.0952 12.9986 26.0952 11.2904C26.0952 9.5821 25.057 7.94844 23.1719 6.69018C21.1681 5.35303 18.4858 4.61653 15.619 4.61653C13.3499 4.61653 11.187 5.07905 9.36417 5.95427L8.5406 4.23516C10.619 3.23707 13.0665 2.70972 15.619 2.70972C18.8571 2.70972 21.9154 3.55992 24.2286 5.10384C26.6606 6.72689 28 8.92401 28 11.2904C28 13.6567 26.6606 15.8538 24.2286 17.4769C21.9154 19.0208 18.8571 19.871 15.619 19.871Z" fill="#D5D5D3"/>
<path fill-rule="evenodd" clip-rule="evenodd" d="M11 6.32251C9.52966 6.32428 8.07972 6.67208 6.76383 7.33864L5.44708 8.00763C4.5602 8.45831 4 9.37944 4 10.387C4 11.3946 4.5602 12.3157 5.44708 12.7664L6.76383 13.4354C8.07972 14.102 9.52966 14.4498 11 14.4515C13.2091 14.4515 15 12.6318 15 10.387C15 8.14226 13.2091 6.32251 11 6.32251ZM6.34161 10.9338C6.13225 10.8303 6 10.6186 6 10.387C6 10.1555 6.13225 9.9438 6.34161 9.84024L7.6585 9.18898C7.771 9.13346 7.885 9.08202 8 9.03219V11.7419C7.885 11.6924 7.77075 11.6406 7.6585 11.5851L6.34161 10.9338ZM10 11.6781C10.3314 11.7196 10.6655 11.7409 11 11.7419C12.1046 11.7419 13 10.9331 13 9.93541C13 8.93774 12.1046 8.12896 11 8.12896C10.6655 8.12989 10.3314 8.1512 10 8.19275V11.6781Z" fill="#F1F1F1"/>
<path d="M8 33.4194V43.3549L11 40.3743L14 43.3549V33.4194H8Z" fill="#2D7DBE"/>
<path d="M15.6428 30.1828C16.4678 28.4855 14.6578 26.7147 12.9231 27.5216C12.2796 25.7509 9.72037 25.7509 9.07687 27.5216C7.34223 26.7144 5.5326 28.4855 6.35723 30.1828C4.54759 30.8125 4.54759 33.3167 6.35723 33.9463C5.53222 35.6437 7.34223 37.4144 9.07687 36.6075C9.72037 38.3782 12.2796 38.3782 12.9231 36.6075C14.6578 37.4148 16.4674 35.6437 15.6428 33.9463C17.4524 33.3167 17.4524 30.8125 15.6428 30.1828Z" fill="#348ED8"/>
<path d="M3 46.0645H31V47.8709H3V46.0645Z" fill="#FFC261"/>
<rect x="21" y="24.3872" width="35" height="31.6129" rx="15.8065" fill="#DFDFDD"/>
<path d="M56 30.2401V45.6599C56 47.0597 55.0691 48.2874 53.7247 48.661C52.3802 49.0347 50.9525 48.4624 50.2347 47.2621L49.2224 45.5697C48.6018 44.5319 47.484 43.8968 46.2778 43.8967H26.8333C23.6117 43.8967 21 41.2763 21 38.0439V30.2401C21 27.0076 23.6117 24.3872 26.8333 24.3872H50.1667C53.3883 24.3872 56 27.0076 56 30.2401Z" fill="#FF415B"/>
<path d="M56 38.8386V42.9561C55.2585 43.6131 54.3512 44.0627 53.3728 44.258L53 42.4515C54.7445 42.0974 55.9969 40.5892 56 38.8386V38.8386Z" fill="#C6568B"/>
<path d="M26.9 40.6451C25.2991 40.6433 24.0018 39.3445 24 37.7418V36.7741H25.9333V37.7418C25.9339 38.2761 26.3664 38.709 26.9 38.7096H50.1C50.6336 38.709 51.0661 38.2761 51.0667 37.7418V29.9999C51.0661 29.4657 50.6336 29.0328 50.1 29.0322H36.5667V27.0967H50.1C51.7009 27.0985 52.9982 28.3972 53 29.9999V37.7418C52.9982 39.3445 51.7009 40.6433 50.1 40.6451H26.9Z" fill="#DF80B2"/>
<ellipse cx="29.8312" cy="31.6602" rx="4.82977" ry="2.89786" transform="rotate(-27.0517 29.8312 31.6602)" fill="#7C58D3"/>
<path d="M24 46.0645H26V50.5806H24V46.0645Z" fill="#EAEAE8"/>
</svg>
