<svg width="27" height="27" viewBox="0 0 27 27" fill="none" xmlns="http://www.w3.org/2000/svg">
<path d="M25.2537 10.7109C25.7954 11.4557 26.0662 12.3021 26.0662 13.25C26.0662 14.1979 25.7954 15.0612 25.2537 15.8398C24.712 16.5846 24.018 17.1094 23.1717 17.4141C23.5441 18.2266 23.6456 19.1068 23.4764 20.0547C23.3409 20.9688 22.9347 21.7643 22.2576 22.4414C21.5805 23.1185 20.7849 23.5247 19.8709 23.6602C18.9568 23.8294 18.0766 23.7279 17.2303 23.3555C17.0271 23.931 16.7224 24.4219 16.3162 24.8281C15.9099 25.2682 15.4191 25.6068 14.8435 25.8438C14.3019 26.1146 13.7094 26.25 13.0662 26.25C12.1183 26.25 11.255 25.9792 10.4764 25.4375C9.73156 24.8958 9.20682 24.2018 8.90213 23.3555C8.05578 23.7279 7.17557 23.8294 6.26151 23.6602C5.34744 23.5247 4.55187 23.1185 3.87479 22.4414C3.1977 21.7643 2.77453 20.9688 2.60526 20.0547C2.46984 19.1068 2.58833 18.2266 2.96073 17.4141C2.11437 17.1094 1.42036 16.5846 0.878695 15.8398C0.337028 15.0612 0.0661945 14.1979 0.0661945 13.25C0.0661945 12.3021 0.337028 11.4557 0.878695 10.7109C1.42036 9.93229 2.11437 9.39062 2.96073 9.08594C2.58833 8.27344 2.46984 7.41016 2.60526 6.49609C2.77453 5.54818 3.1977 4.73568 3.87479 4.05859C4.55187 3.38151 5.34744 2.97526 6.26151 2.83984C7.20942 2.67057 8.08963 2.77214 8.90213 3.14453C9.20682 2.29818 9.73156 1.60417 10.4764 1.0625C11.255 0.520833 12.1183 0.25 13.0662 0.25C14.0141 0.25 14.8605 0.520833 15.6053 1.0625C16.3839 1.60417 16.9256 2.29818 17.2303 3.14453C18.0428 2.77214 18.906 2.67057 19.8201 2.83984C20.768 2.97526 21.5805 3.38151 22.2576 4.05859C22.9347 4.73568 23.3409 5.54818 23.4764 6.49609C23.6456 7.41016 23.5441 8.27344 23.1717 9.08594C24.018 9.39062 24.712 9.93229 25.2537 10.7109ZM10.9334 8.88281C10.6287 8.54427 10.2563 8.375 9.81619 8.375C9.37609 8.375 8.98677 8.54427 8.64823 8.88281C8.34354 9.1875 8.19119 9.5599 8.19119 10C8.19119 10.4401 8.34354 10.8294 8.64823 11.168C8.98677 11.4727 9.37609 11.625 9.81619 11.625C10.2563 11.625 10.6287 11.4727 10.9334 11.168C11.2719 10.8294 11.4412 10.4401 11.4412 10C11.4412 9.5599 11.2719 9.1875 10.9334 8.88281ZM10.4256 17.6172L17.4334 10.6094C17.8058 10.237 17.8058 9.86458 17.4334 9.49219L16.824 8.88281C16.4516 8.51042 16.0792 8.51042 15.7068 8.88281L8.69901 15.8906C8.32661 16.263 8.32661 16.6354 8.69901 17.0078L9.30838 17.6172C9.68078 17.9896 10.0532 17.9896 10.4256 17.6172ZM15.1482 17.668C15.4868 17.9727 15.8761 18.125 16.3162 18.125C16.7563 18.125 17.1287 17.9727 17.4334 17.668C17.7719 17.3294 17.9412 16.9401 17.9412 16.5C17.9412 16.0599 17.7719 15.6875 17.4334 15.3828C17.1287 15.0443 16.7563 14.875 16.3162 14.875C15.8761 14.875 15.4868 15.0443 15.1482 15.3828C14.8435 15.6875 14.6912 16.0599 14.6912 16.5C14.6912 16.9401 14.8435 17.3294 15.1482 17.668Z" fill="#7C58D3"/>
</svg>