<svg width="37" height="44" viewBox="0 0 37 44" fill="none" xmlns="http://www.w3.org/2000/svg">
	<path fill-rule="evenodd" clip-rule="evenodd" d="M9.59897 19.582L9.57411 19.336L4.38748 17.6108C2.95814 17.1366 1.92342 15.9167 1.68914 14.4321L0.981302 9.99678C0.79611 8.83902 1.12859 7.6564 1.89235 6.76275C2.65611 5.86972 3.7654 5.35205 4.94181 5.35205H8.15161L8.0528 4.42236H4.94181C1.89856 4.42236 -0.417585 7.14494 0.0634186 10.1447L0.771252 14.58C1.06147 16.4033 2.34228 17.9128 4.09167 18.492L9.64247 20.334C9.6114 20.0873 9.59897 19.8344 9.59897 19.582Z" fill="#EC982D"/>
	<path fill-rule="evenodd" clip-rule="evenodd" d="M35.9485 10.1447L35.24 14.58C34.9504 16.4033 33.669 17.9128 31.9134 18.492L26.3203 20.352C26.3508 20.0991 26.375 19.8412 26.375 19.582L26.3936 19.3478L31.6238 17.6108C33.0469 17.1366 34.0816 15.9167 34.3221 14.4321L35.0306 9.99678C35.2151 8.83902 34.882 7.6564 34.1183 6.76275C33.3545 5.86972 32.2396 5.35205 31.0632 5.35205H27.823L27.9156 4.42236H31.0632C34.1065 4.42236 36.4288 7.14494 35.9485 10.1447Z" fill="#F3B62C"/>
	<path fill-rule="evenodd" clip-rule="evenodd" d="M20.3154 5.20213C22.2761 5.15241 24.2933 5.02936 26.0241 4.77954L24.4934 20.1027C24.2648 21.9496 23.0529 25.2011 20.674 26.3712C20.5522 26.4315 20.4323 26.4943 20.3154 26.5589V5.20213Z" fill="#EECA28"/>
	<path fill-rule="evenodd" clip-rule="evenodd" d="M17.9676 0V2.88229C12.0322 2.8767 7.16309 2.23101 7.16309 1.43866C7.16309 0.645688 11.9911 0 17.9676 0Z" fill="#EC982D"/>
	<path fill-rule="evenodd" clip-rule="evenodd" d="M28.8084 1.43866C28.8084 1.50888 28.7729 1.57351 28.6965 1.64374V1.64995C27.9396 2.34846 23.4092 2.88229 17.9678 2.88229V0C23.9381 0 28.8084 0.645688 28.8084 1.43866Z" fill="#F3B62C"/>
	<path fill-rule="evenodd" clip-rule="evenodd" d="M10.791 42.5329C10.791 42.4738 10.809 42.4092 10.85 42.3508L10.791 42.5329Z" fill="#A84266"/>
	<path fill-rule="evenodd" clip-rule="evenodd" d="M17.9676 42.5328V44.0001C13.9928 44.0001 10.7911 43.3426 10.7911 42.5328L10.8502 42.3507L10.8558 42.3389C11.7662 39.5915 14.0202 37.5015 16.8322 36.8086L16.9435 36.7794L16.7912 32.4765C16.7322 30.9148 16.0219 29.3885 14.1731 28.4781C10.9266 26.8816 9.37048 22.9074 9.05354 20.3358L7.16309 1.43872C7.16309 2.23107 12.0322 2.87676 17.9676 2.88235V42.5328Z" fill="#FBE15B"/>
	<path fill-rule="evenodd" clip-rule="evenodd" d="M17.9678 42.5328V44.0001C21.942 44.0001 25.1437 43.3426 25.1437 42.5328L25.0846 42.3507L25.079 42.3389C24.1692 39.5915 21.9146 37.5015 19.1025 36.8086L18.9913 36.7794L19.1436 32.4765C19.2026 30.9148 19.9129 29.3885 21.7624 28.4781C25.0088 26.8816 26.5643 22.9074 26.8813 20.3358L28.7717 1.43872C28.7717 2.23107 23.9026 2.87676 17.9678 2.88235V42.5328Z" fill="#F8D82B"/>
	<path fill-rule="evenodd" clip-rule="evenodd" d="M20.3154 5.20277C22.7584 5.14373 24.6333 4.99396 26.0763 4.78516L24.545 20.1021C24.3163 21.9496 23.1045 25.2011 20.7256 26.3713C20.5851 26.4403 20.4484 26.5123 20.3154 26.5875V5.20277Z" fill="#F2BA27"/>
	<path fill-rule="evenodd" clip-rule="evenodd" d="M15.6189 26.5869C15.4853 26.5123 15.3492 26.4403 15.2094 26.3719C12.8304 25.2011 11.618 21.9496 11.3837 20.0486L9.85742 4.78516C11.3011 4.99396 13.176 5.14373 15.6189 5.20277V26.5869Z" fill="#FDEA97"/>
</svg>