<svg width="34" height="27" viewBox="0 0 34 27" fill="none" xmlns="http://www.w3.org/2000/svg">
	<path d="M32.5193 18.125C32.7563 18.125 32.9425 18.2096 33.0779 18.3789C33.2472 18.5143 33.3318 18.7005 33.3318 18.9375V20.5625C33.3318 20.7995 33.2472 21.0026 33.0779 21.1719C32.9425 21.3073 32.7563 21.375 32.5193 21.375H30.0818C30.0818 22.7292 29.6079 23.8802 28.6599 24.8281C27.712 25.776 26.561 26.25 25.2068 26.25C23.8527 26.25 22.7016 25.776 21.7537 24.8281C20.8058 23.8802 20.3318 22.7292 20.3318 21.375H13.8318C13.8318 22.7292 13.3579 23.8802 12.4099 24.8281C11.462 25.776 10.311 26.25 8.95682 26.25C7.60265 26.25 6.45161 25.776 5.50369 24.8281C4.55578 23.8802 4.08182 22.7292 4.08182 21.375V14.875H11.8006C12.0714 14.875 12.2068 14.7396 12.2068 14.4688V13.6562C12.2068 13.3854 12.0714 13.25 11.8006 13.25H1.23807C0.967236 13.25 0.83182 13.1146 0.83182 12.8438V12.0312C0.83182 11.7604 0.967236 11.625 1.23807 11.625H13.4256C13.6964 11.625 13.8318 11.4896 13.8318 11.2188V10.4062C13.8318 10.1354 13.6964 10 13.4256 10H2.86307C2.59224 10 2.45682 9.86458 2.45682 9.59375V8.78125C2.45682 8.51042 2.59224 8.375 2.86307 8.375H15.0506C15.3214 8.375 15.4568 8.23958 15.4568 7.96875V7.15625C15.4568 6.88542 15.3214 6.75 15.0506 6.75H1.23807C0.967236 6.75 0.83182 6.61458 0.83182 6.34375V5.53125C0.83182 5.26042 0.967236 5.125 1.23807 5.125H4.08182V2.6875C4.08182 2.01042 4.3188 1.4349 4.79276 0.960938C5.26672 0.486979 5.84224 0.25 6.51932 0.25H19.5193C20.1964 0.25 20.7719 0.486979 21.2459 0.960938C21.7198 1.4349 21.9568 2.01042 21.9568 2.6875V5.125H24.1912C24.8683 5.125 25.4438 5.36198 25.9178 5.83594L30.9959 10.9141C31.4698 11.388 31.7068 11.9635 31.7068 12.6406V18.125H32.5193ZM7.23026 23.1016C7.70422 23.5755 8.27974 23.8125 8.95682 23.8125C9.6339 23.8125 10.2094 23.5755 10.6834 23.1016C11.1573 22.6276 11.3943 22.0521 11.3943 21.375C11.3943 20.6979 11.1573 20.1224 10.6834 19.6484C10.2094 19.1745 9.6339 18.9375 8.95682 18.9375C8.27974 18.9375 7.70422 19.1745 7.23026 19.6484C6.7563 20.1224 6.51932 20.6979 6.51932 21.375C6.51932 22.0521 6.7563 22.6276 7.23026 23.1016ZM23.4803 23.1016C23.9542 23.5755 24.5297 23.8125 25.2068 23.8125C25.8839 23.8125 26.4594 23.5755 26.9334 23.1016C27.4073 22.6276 27.6443 22.0521 27.6443 21.375C27.6443 20.6979 27.4073 20.1224 26.9334 19.6484C26.4594 19.1745 25.8839 18.9375 25.2068 18.9375C24.5297 18.9375 23.9542 19.1745 23.4803 19.6484C23.0063 20.1224 22.7693 20.6979 22.7693 21.375C22.7693 22.0521 23.0063 22.6276 23.4803 23.1016ZM29.2693 13.25V12.6406L24.1912 7.5625H21.9568V13.25H29.2693Z" fill="#7C58D3"/>
</svg>