<svg width="56" height="56" viewBox="0 0 56 56" fill="none" xmlns="http://www.w3.org/2000/svg">
<path d="M3.12553 15.934L2.66091 15.4383C2.39496 15.1546 2.06454 15 1.72397 15H1.5C1.1016 15.0005 0.719676 15.212 0.438333 15.5882C0.156991 15.9643 -0.000694444 16.474 2.29916e-06 17.0052V17.0427C-0.000100995 17.6451 0.212544 18.2123 0.57394 18.5738L1.13119 19.131C2.30919 20.31 3.00167 22.1601 3 24.124V24.1873C2.99999 25.3695 2.73749 26.5253 2.2456 27.5089L0.755814 30.4884C0.262991 31.474 6.56735e-06 32.6321 2.29916e-06 33.8166V46H3V34.2111C2.99998 33.4214 3.17528 32.6493 3.50381 31.9923L4.71319 29.5726C5.55211 27.8952 5.99986 25.9243 6 23.9081C6.00003 20.8059 4.94239 17.8719 3.12553 15.934Z" fill="#FBAB1F"/>
<path d="M54.134 38.1512C54.134 38.1512 55.6628 34.7791 55.9127 32.2549C56.1626 29.7307 55.902 27.9214 54.7932 26.1176C55.796 23.9424 55.221 21.3005 53.427 19.8414L53.0613 19.544C53.0613 17.1909 50.9846 15.492 48.8984 16.1384L47 16.7267C49.7177 20.6512 50.6236 26.2326 49.1463 31.752L47 38.3256L52.9261 41L54.134 38.1512Z" fill="#EF7800"/>
<path d="M11.52 16V28.2469C11.52 29.5207 10.8783 30.7101 9.81 31.4167L6.41232 33.6638C2.40626 36.3133 2.04699e-06 40.7738 0 45.5502V56H24V16L23.1565 16.2789C21.8525 16.7101 20.7746 17.6375 20.16 18.8571H15.36C14.7454 17.6375 13.6675 16.7101 12.3635 16.2789L11.52 16Z" fill="#FFB431"/>
<path d="M15 22H16V23H15V22Z" fill="#7A432A"/>
<path d="M19 22H20V23H19V22Z" fill="#7A432A"/>
<path d="M40.4103 21.2414V11.5862H43.3333L46.2564 4.82759L39.8834 0.881034C38.9543 0.305425 37.8806 0.000140665 36.7849 0H27.4715C26.3758 0.000140665 25.3021 0.305425 24.373 0.881034L18 4.82759L20.9231 11.5862H23.8462V51.1724C22.2318 51.1724 20.9231 52.4692 20.9231 54.069V56H56V49.1448C56.0001 43.0247 53.5467 37.1552 49.1795 32.8276L42.4772 26.1862C41.1538 24.8747 40.4102 23.096 40.4103 21.2414Z" fill="#F88400"/>
<path d="M37 15H35.2C34.1662 15.0003 33.1823 14.6047 32.5 13.9144C31.8177 14.6047 30.8338 15.0003 29.8 15H28V13.4H29.8C30.7936 13.399 31.5988 12.6832 31.6 11.8C31.6 11.3582 32.0029 11 32.5 11C32.9971 11 33.4 11.3582 33.4 11.8C33.4012 12.6832 34.2064 13.399 35.2 13.4H37V15Z" fill="#EA7206"/>
<path d="M28 5H29V6H28V5Z" fill="#7A432A"/>
<path d="M36 5H37V6H36V5Z" fill="#7A432A"/>
<path d="M25.5407 10H24V5.23671C24 5.08879 24.0278 4.94291 24.0814 4.81063L25.6221 1L27 1.85215L25.5407 5.46166V10Z" fill="#EA7206"/>
<path d="M41 10H39.4593V5.46166L38 1.85215L39.3779 1L40.9186 4.81063C40.9722 4.94291 41 5.08879 41 5.23671V10Z" fill="#EA7206"/>
<path d="M24 18H40V21H24V18Z" fill="#D65246"/>
<path d="M33 32H35V56H33V32Z" fill="#EA7206"/>
<path d="M27 56H25V54C25.0023 52.1767 26.2352 50.5848 28 50.1265V32H30V51C30 51.5523 29.5523 52 29 52C27.896 52.0013 27.0013 52.896 27 54V56Z" fill="#EA7206"/>
<path d="M34.8792 56H33V53.9717C33.0023 51.7324 34.6837 49.9177 36.7584 49.9151H38.6376V45.5106C38.6276 41.5662 40.0801 37.7815 42.6712 35L44 36.4343C41.7624 38.8361 40.5081 42.1044 40.5168 45.5106V50.9293C40.5168 51.4894 40.0961 51.9434 39.5772 51.9434H36.7584C35.7211 51.9448 34.8804 52.8521 34.8792 53.9717V56Z" fill="#EA7206"/>
<path d="M18 40H19V56H18V40Z" fill="#F99E0C"/>
<path d="M14.8793 40H12.6378V51.1266C12.2717 51.0423 11.8951 50.9998 11.517 51H9.27551V49.2426C9.28472 46.2592 7.95581 43.3965 5.58502 41.2926L4 42.7071C5.94902 44.4366 7.04153 46.79 7.03401 49.2426V52C7.03401 52.5523 7.53578 53 8.15476 53H11.517C12.7543 53.0013 13.757 53.896 13.7585 55V56H16V55C16.0006 54.0269 15.602 53.0873 14.8793 52.3585V40Z" fill="#F99E0C"/>
<rect x="31" y="7" width="3" height="3" rx="1.5" fill="#7A432A"/>
</svg>
