<svg width="56" height="56" viewBox="0 0 56 56" fill="none" xmlns="http://www.w3.org/2000/svg">
<path d="M55.9999 11.1244C56.0042 11.4702 55.8982 11.8193 55.6753 12.1145L39.5715 33.3508C39.2502 33.7753 38.7573 33.9994 38.2579 33.9994C37.9158 33.9994 37.5715 33.8949 37.2776 33.6783H18.7224C17.9979 34.2127 16.9705 34.0662 16.4285 33.3508L0.324718 12.1145C0.101769 11.8193 -0.00424177 11.4702 0.000129798 11.1244L9.42085 8L15.9432 11.1244L28 27.5006L40.0568 11.1244L47.0163 8.10774L55.9999 11.1244Z" fill="#FF415B"/>
<path d="M55.9999 11.0293C56.0042 11.3766 55.8982 11.7271 55.6753 12.0236L39.5715 33.3487C39.2502 33.775 38.7573 34 38.2579 34C37.9158 34 37.5715 33.8951 37.2776 33.6776H28V27.474L40.0568 11.0293L47.0163 8L55.9999 11.0293Z" fill="#D10050"/>
<path d="M28 26C19.7289 26 13 32.7289 13 41C13 49.2711 19.7289 56 28 56C36.2711 56 43 49.2711 43 41C43 32.7289 36.2711 26 28 26Z" fill="#FFDA2D"/>
<path d="M43 41C43 49.2711 36.2711 56 28 56V26C36.2711 26 43 32.7289 43 41Z" fill="#FDBF00"/>
<path d="M56 12H0C0.00655738 11.5634 0.169399 11.1314 0.485246 10.8057L10.4536 0.494857C10.7607 0.178286 11.1749 0 11.6066 0H44.3934C44.8251 0 45.2393 0.178286 45.5464 0.494857L55.5148 10.8057C55.8306 11.1314 55.9934 11.5634 56 12Z" fill="#FF8859"/>
<path d="M56 12H28V0H44.3934C44.8251 0 45.2393 0.178286 45.5464 0.494857L55.5148 10.8057C55.8306 11.1314 55.9934 11.5634 56 12Z" fill="#FF415B"/>
<path fill-rule="evenodd" clip-rule="evenodd" d="M23 44.6667C23 42.464 25.6307 40 29 40C29.3416 40 29.6756 40.0253 30 40.073V40C32.81 40 35 42.464 35 44.6667C35 46.2782 33.6867 48 30 48V47.9684C29.6842 47.9892 29.3511 48 29 48C24.576 48 23 46.2782 23 44.6667Z" fill="#766E6E"/>
<circle cx="27.5" cy="36.5" r="1.5" fill="#766E6E"/>
<path d="M30 36.5C30 37.328 29.104 38 28 38V35C29.104 35 30 35.672 30 36.5Z" fill="#5B5555"/>
<circle cx="32.5" cy="37.5" r="1.5" fill="#5B5555"/>
<circle cx="22.5" cy="37.5" r="1.5" fill="#766E6E"/>
</svg>
