<svg width="39" height="44" viewBox="0 0 39 44" fill="none" xmlns="http://www.w3.org/2000/svg">
	<path fill-rule="evenodd" clip-rule="evenodd" d="M30.7624 16.5536V39.3821H26.7391V26.7397C26.7391 22.818 23.5586 19.6432 19.6426 19.6432H19.416V5.21289L30.7624 16.5536Z" fill="#A84A37"/>
	<path fill-rule="evenodd" clip-rule="evenodd" d="M19.4163 5.21295V19.6433C15.5339 19.6887 12.3994 22.847 12.3994 26.7397V39.3821H8.05859V16.5599L19.4112 5.20728L19.4163 5.21295Z" fill="#AD513B"/>
	<path fill-rule="evenodd" clip-rule="evenodd" d="M8.05871 16.5598V44H4.57324V20.0453L8.05871 16.5598Z" fill="#BE6A4B"/>
	<path fill-rule="evenodd" clip-rule="evenodd" d="M19.4163 0.289355V5.20207L2.46771 22.1501L0 19.6835L19.4049 0.278564L19.4112 0.283676L19.4163 0.289355Z" fill="#CA7055"/>
	<path fill-rule="evenodd" clip-rule="evenodd" d="M38.8266 19.6835L36.3589 22.1501L19.416 5.21286V0.278564L38.8266 19.6835Z" fill="#BE6A4B"/>
	<path fill-rule="evenodd" clip-rule="evenodd" d="M34.2544 20.0452V43.9999H30.7627V16.5535L34.2544 20.0452Z" fill="#B2573F"/>
	<path fill-rule="evenodd" clip-rule="evenodd" d="M19.4164 0.278576V0.289367L19.4113 0.283688L19.4164 0.278576Z" fill="#D4C0D4"/>
	<path fill-rule="evenodd" clip-rule="evenodd" d="M19.4113 5.20727L19.4164 5.20216V5.21295L19.4113 5.20727Z" fill="#DFA278"/>
	<path fill-rule="evenodd" clip-rule="evenodd" d="M8.05859 41.9293H19.4163V39.3821H8.05859V41.9293Z" fill="#CA7055"/>
	<path fill-rule="evenodd" clip-rule="evenodd" d="M26.7391 26.7395V39.3819H19.416V19.6431H19.6426C23.5586 19.6431 26.7391 22.8179 26.7391 26.7395Z" fill="#49231D"/>
	<path fill-rule="evenodd" clip-rule="evenodd" d="M19.4164 19.6431V39.3819H12.3994V26.7395C12.3994 22.8468 15.5339 19.6885 19.4164 19.6431Z" fill="#3E201A"/>
	<path fill-rule="evenodd" clip-rule="evenodd" d="M19.416 41.9293H30.7624V39.3821H19.416V41.9293Z" fill="#BE6A4B"/>
</svg>