<svg width="60" height="39" viewBox="0 0 60 39" fill="none" xmlns="http://www.w3.org/2000/svg">
	<path fill-rule="evenodd" clip-rule="evenodd" d="M29.9995 7.97399V6.61965H20.11L17.3078 3.81655C15.4058 1.91454 12.8743 0.865967 10.1872 0.865967C7.49292 0.865967 4.96141 1.91454 3.0594 3.81655L2.95058 3.92626C1.04948 5.82737 0 8.35889 0 11.0532C0 13.7466 1.04948 16.279 2.95058 18.181L4.48028 19.7035L2.95058 21.2341C1.04948 23.1361 0 25.6667 0 28.361C0 31.0553 1.04948 33.5868 2.95058 35.4888L3.0594 35.5904C4.96141 37.4996 7.49292 38.5419 10.1872 38.5419C12.8743 38.5419 15.4058 37.4996 17.3078 35.5904L20.11 32.7945H29.9995V31.4411H19.548L16.3528 34.6363C14.708 36.2811 12.5155 37.1876 10.1872 37.1876C7.85174 37.1876 5.66555 36.2811 4.01445 34.6363L3.90563 34.5274C0.507202 31.1299 0.507202 25.5921 3.91193 22.1882L6.39668 19.7035L3.91193 17.2196C2.26083 15.5748 1.35344 13.3814 1.35344 11.0532C1.35344 8.724 2.26083 6.53152 3.91193 4.87952L4.01445 4.7788C5.66555 3.12679 7.85174 2.2194 10.1872 2.2194C12.5155 2.2194 14.708 3.12679 16.3528 4.7788L19.548 7.97399H29.9995Z" fill="#F3B62C"/>
	<path fill-rule="evenodd" clip-rule="evenodd" d="M55.1335 23.1496C58.0103 26.0264 58.0103 30.6964 55.1335 33.5733L55.0238 33.6812C53.5831 35.1165 51.7009 35.8341 49.8123 35.8341C47.9238 35.8341 46.0425 35.1165 44.6009 33.6812L41.0065 30.0867H30V9.32651H41.0065L44.6009 5.73294C46.0425 4.29766 47.9238 3.57373 49.8123 3.57373C51.7009 3.57373 53.5831 4.29766 55.0238 5.73294L55.1335 5.84085C58.0103 8.71859 58.0103 13.3886 55.1335 16.2646L51.6874 19.7035L55.1335 23.1496Z" fill="#F8D82B"/>
	<path fill-rule="evenodd" clip-rule="evenodd" d="M55.5184 19.7035L57.0418 18.181C58.951 16.279 60.0005 13.7466 60.0005 11.0532C60.0005 8.35889 58.951 5.82737 57.0418 3.92626L56.9402 3.81655C55.0381 1.91454 52.5066 0.865967 49.8123 0.865967C47.1181 0.865967 44.5865 1.91454 42.6854 3.81655L39.8886 6.61965H30V7.97399H40.4444L43.6459 4.7788C45.2907 3.12679 47.4841 2.2194 49.8123 2.2194C52.1406 2.2194 54.334 3.12679 55.9788 4.7788L56.0876 4.87952C57.7324 6.53152 58.6461 8.724 58.6461 11.0532C58.6461 13.3814 57.7324 15.5748 56.0876 17.2196L53.6029 19.7035L56.0876 22.1882C59.4923 25.5921 59.4923 31.1299 56.0876 34.5274L55.986 34.6363C54.334 36.2811 52.1406 37.1876 49.8123 37.1876C47.4841 37.1876 45.2907 36.2811 43.6459 34.6363L40.4444 31.4411H30V32.7945H39.8886L42.6854 35.5904C44.5865 37.4996 47.1181 38.5419 49.8123 38.5419C52.5066 38.5419 55.0381 37.4996 56.9402 35.5904L57.0418 35.4888C58.951 33.5868 60.0005 31.0553 60.0005 28.361C60.0005 25.6667 58.951 23.1361 57.0418 21.2341L55.5184 19.7035Z" fill="#EC982D"/>
	<path fill-rule="evenodd" clip-rule="evenodd" d="M56.0876 22.1883C59.4923 25.5921 59.4923 31.13 56.0876 34.5275L55.986 34.6363C54.334 36.2811 52.1406 37.1876 49.8123 37.1876C47.4841 37.1876 45.2907 36.2811 43.6459 34.6363L40.4444 31.4411H30V30.0868H41.0065L44.6009 33.6813C46.0425 35.1166 47.9238 35.8342 49.8123 35.8342C51.7009 35.8342 53.5831 35.1166 55.0238 33.6813L55.1335 33.5734C58.0103 30.6965 58.0103 26.0265 55.1335 23.1497L51.6874 19.7036L55.1335 16.2647C58.0103 13.3887 58.0103 8.71868 55.1335 5.84094L55.0238 5.73302C53.5831 4.29775 51.7009 3.57382 49.8123 3.57382C47.9238 3.57382 46.0425 4.29775 44.6009 5.73302L41.0065 9.3266H30V7.97407H40.4444L43.6459 4.77887C45.2907 3.12687 47.4841 2.21948 49.8123 2.21948C52.1406 2.21948 54.334 3.12687 55.9788 4.77887L56.0876 4.87959C57.7324 6.5316 58.6461 8.72408 58.6461 11.0532C58.6461 13.3815 57.7324 15.5749 56.0876 17.2197L53.6029 19.7036L56.0876 22.1883Z" fill="#FBE15B"/>
	<path fill-rule="evenodd" clip-rule="evenodd" d="M29.9992 9.32651V30.0867H18.9864L15.3991 33.6812C13.9567 35.1165 12.0691 35.8341 10.1868 35.8341C8.29742 35.8341 6.4098 35.1165 4.97453 33.6812L4.86662 33.5733C1.98977 30.6964 1.98977 26.0264 4.86662 23.1496L8.30462 19.7035L4.86662 16.2646C1.98977 13.3886 1.98977 8.71859 4.86662 5.84085L4.97453 5.73294C6.4098 4.29766 8.29742 3.57373 10.1868 3.57373C12.0691 3.57373 13.9567 4.29766 15.3991 5.73294L18.9864 9.32651H29.9992Z" fill="#FBE15B"/>
	<path fill-rule="evenodd" clip-rule="evenodd" d="M4.86706 5.84094C1.99022 8.71868 1.99022 13.3887 4.86706 16.2647L8.30506 19.7036L4.86706 23.1497C1.99022 26.0265 1.99022 30.6965 4.86706 33.5734L4.97497 33.6813C6.41025 35.1166 8.29786 35.8342 10.1873 35.8342C12.0695 35.8342 13.9571 35.1166 15.3996 33.6813L18.9869 30.0868H29.9996V31.4411H19.548L16.3528 34.6363C14.708 36.2811 12.5156 37.1876 10.1873 37.1876C7.85181 37.1876 5.66563 36.2811 4.01453 34.6363L3.90571 34.5275C0.50728 31.13 0.50728 25.5921 3.91201 22.1883L6.39676 19.7036L3.91201 17.2197C2.2609 15.5749 1.35352 13.3815 1.35352 11.0532C1.35352 8.72408 2.2609 6.5316 3.91201 4.87959L4.01453 4.77887C5.66563 3.12687 7.85181 2.21948 10.1873 2.21948C12.5156 2.21948 14.708 3.12687 16.3528 4.77887L19.548 7.97407H29.9996V9.3266H18.9869L15.3996 5.73302C13.9571 4.29775 12.0695 3.57382 10.1873 3.57382C8.29786 3.57382 6.41025 4.29775 4.97497 5.73302L4.86706 5.84094Z" fill="#F8D82B"/>
	<path fill-rule="evenodd" clip-rule="evenodd" d="M39.8498 24.6218L39.6295 23.8673C39.7743 24.111 39.8498 24.361 39.8498 24.6218Z" fill="#F3BE27"/>
	<path fill-rule="evenodd" clip-rule="evenodd" d="M24.9787 28.5426C24.3168 28.5426 23.7359 28.2413 23.5003 27.3222L23.3132 26.5929C23.0569 25.5929 23.4751 24.5308 24.3052 24.0731L25.5129 23.4076C26.253 22.9993 26.7953 22.2439 26.9922 21.3428L27.0669 20.9993C27.3861 19.5433 28.5471 18.519 29.8799 18.519H29.9033V27.3735L29.8268 27.3762C28.6793 27.4149 27.5543 27.7071 26.4814 28.1703C26.0093 28.3744 25.4715 28.5426 24.9787 28.5426Z" fill="#F8C630"/>
	<path fill-rule="evenodd" clip-rule="evenodd" d="M26.4913 18.5408C26.4913 18.5408 24.5578 18.101 24.5704 15.6333C24.5767 14.6073 25.5146 12.4391 26.9661 11.7142C27.2008 11.5964 27.4139 11.5479 27.6073 11.5479C28.6118 11.5479 29.0713 12.8752 29.0713 12.8752C29.0713 12.8752 29.1433 15.9958 29.0713 17.1567C28.9985 18.3186 26.4913 18.5408 26.4913 18.5408Z" fill="#F8C630"/>
	<path fill-rule="evenodd" clip-rule="evenodd" d="M22.9463 23.2907C22.4616 23.2907 20.9949 23.1252 20.3123 21.1989C19.9697 20.2313 20.118 17.8742 21.2368 16.6998C21.5443 16.3769 21.8609 16.26 22.1603 16.26C22.9508 16.26 23.6118 17.0784 23.6118 17.0784C23.6118 17.0784 24.7377 19.9903 25.0624 21.1072C25.3879 22.2241 23.1046 23.2835 23.1046 23.2835C23.1046 23.2835 23.047 23.2907 22.9463 23.2907Z" fill="#F8C630"/>
	<path fill-rule="evenodd" clip-rule="evenodd" d="M34.8274 28.5427C34.3346 28.5427 33.7968 28.3745 33.3247 28.1703C32.259 27.7099 31.1412 27.4176 30 27.3772V18.52C31.3022 18.5569 32.4263 19.5704 32.7392 20.9994L32.8139 21.3429C33.0117 22.244 33.5531 22.9994 34.2941 23.4077L35.5001 24.0732C36.331 24.5309 36.7492 25.593 36.4938 26.593L36.3059 27.3223C36.0702 28.2414 35.4893 28.5427 34.8274 28.5427Z" fill="#F3BE27"/>
	<path fill-rule="evenodd" clip-rule="evenodd" d="M29.9997 27.3771C29.9934 27.3762 29.9862 27.3762 29.9799 27.3762L29.9035 27.3735V18.519H29.926C29.9512 18.519 29.9754 18.519 29.9997 18.5199V27.3771Z" fill="#F8C630"/>
	<path fill-rule="evenodd" clip-rule="evenodd" d="M33.3147 18.5408C33.3147 18.5408 30.8083 18.3186 30.7355 17.1567C30.6627 15.9958 30.7355 12.8752 30.7355 12.8752C30.7355 12.8752 31.195 11.5479 32.1996 11.5479C32.3929 11.5479 32.606 11.5964 32.8398 11.7142C34.2922 12.4391 35.2302 14.6073 35.2347 15.6333C35.2482 18.101 33.3147 18.5408 33.3147 18.5408Z" fill="#F3BE27"/>
	<path fill-rule="evenodd" clip-rule="evenodd" d="M36.8606 23.2907C36.7599 23.2907 36.7015 23.2835 36.7015 23.2835C36.7015 23.2835 34.4181 22.2241 34.7437 21.1072C35.0692 19.9903 36.1951 17.0784 36.1951 17.0784C36.1951 17.0784 36.8552 16.26 37.6457 16.26C37.9443 16.26 38.2617 16.3769 38.5693 16.6998C39.6889 17.8742 39.8373 20.2313 39.4938 21.1989C38.8112 23.1252 37.3444 23.2907 36.8606 23.2907Z" fill="#F3BE27"/>
</svg>