<svg width="24" height="27" viewBox="0 0 24 27" fill="none" xmlns="http://www.w3.org/2000/svg">
	<path d="M16.9568 18.125C18.7511 18.125 20.2745 18.7682 21.5271 20.0547C22.8136 21.3073 23.4568 22.8307 23.4568 24.625C23.4568 25.0651 23.2875 25.4375 22.949 25.7422C22.6443 26.0807 22.2719 26.25 21.8318 26.25H2.33182C1.89172 26.25 1.50239 26.0807 1.16385 25.7422C0.859163 25.4375 0.70682 25.0651 0.70682 24.625C0.70682 22.8307 1.33312 21.3073 2.58573 20.0547C3.87218 18.7682 5.41255 18.125 7.20682 18.125H8.37479C9.55968 18.6667 10.7954 18.9375 12.0818 18.9375C13.3683 18.9375 14.604 18.6667 15.7889 18.125H16.9568ZM3.70291 11.4219C3.5675 11.5573 3.3813 11.625 3.14432 11.625C2.90734 11.625 2.70422 11.5573 2.53494 11.4219C2.39953 11.2526 2.33182 11.0495 2.33182 10.8125V10C2.33182 7.32552 3.27974 5.04036 5.17557 3.14453C7.10526 1.21484 9.40734 0.25 12.0818 0.25C14.7563 0.25 17.0415 1.21484 18.9373 3.14453C20.867 5.04036 21.8318 7.32552 21.8318 10V10.8125C21.8318 12.3698 21.2732 13.707 20.156 14.8242C19.0389 15.9414 17.7016 16.5 16.1443 16.5H11.2693C10.8292 16.5 10.4399 16.3477 10.1014 16.043C9.79666 15.7044 9.64432 15.3151 9.64432 14.875C9.64432 14.4349 9.79666 14.0625 10.1014 13.7578C10.4399 13.4193 10.8292 13.25 11.2693 13.25H12.8943C13.3344 13.25 13.7068 13.4193 14.0115 13.7578C14.35 14.0625 14.5193 14.4349 14.5193 14.875H16.1443C17.2615 14.875 18.2094 14.4857 18.9881 13.707C19.8006 12.8945 20.2068 11.9297 20.2068 10.8125V10C20.2068 7.76562 19.4112 5.85286 17.8201 4.26172C16.229 2.67057 14.3162 1.875 12.0818 1.875C9.84744 1.875 7.93468 2.67057 6.34354 4.26172C4.75239 5.85286 3.95682 7.76562 3.95682 10V10.8125C3.95682 11.0495 3.87218 11.2526 3.70291 11.4219ZM11.2693 11.625C10.3891 11.625 9.62739 11.9466 8.98416 12.5898C8.34093 13.2331 8.01932 13.9948 8.01932 14.875C8.01932 14.9089 8.01932 14.9427 8.01932 14.9766C8.01932 15.0104 8.01932 15.0273 8.01932 15.0273C6.39432 13.7409 5.58182 12.0651 5.58182 10C5.58182 8.20573 6.20812 6.68229 7.46073 5.42969C8.74718 4.14323 10.2875 3.5 12.0818 3.5C13.8761 3.5 15.3995 4.14323 16.6521 5.42969C17.9386 6.68229 18.5818 8.20573 18.5818 10V10.8125C18.5818 11.4896 18.3448 12.0651 17.8709 12.5391C17.3969 13.013 16.8214 13.25 16.1443 13.25H15.6873C15.4503 12.8099 15.0441 12.4375 14.4685 12.1328C13.9269 11.7943 13.4021 11.625 12.8943 11.625H11.2693Z" fill="#7C58D3"/>
</svg>