<svg width="1676" height="680" viewBox="0 0 1676 680" fill="none" xmlns="http://www.w3.org/2000/svg">
<path fill-rule="evenodd" clip-rule="evenodd" d="M198.976 104.225C200.933 110.699 196.613 116.339 189.838 116.674C184.804 116.924 179.938 118.05 175.313 120.081C172.354 121.382 170.277 123.615 168.673 126.415C165.337 132.237 160.844 133.353 154.85 130.363C149.734 127.81 146.728 123.825 146.732 118.231C146.735 115.059 147.699 111.775 148.764 108.718C150.192 104.615 152.833 101.107 155.809 97.9654C159.335 94.2399 162.65 91.7848 167.61 90.1566C174.018 88.0562 181.013 89.8079 187.14 91.6505C193.306 93.5032 197.159 98.209 198.976 104.225ZM178.661 86.1791C173.664 85.4401 168.484 85.5405 163.729 87.1239C159.715 88.4632 154.973 91.0886 152.138 94.3771C145.208 102.412 140.614 110.939 143.138 122.177C144.283 127.282 149.121 133.188 154.989 134.468C158.303 135.19 161.939 134.954 165.12 133.718C168.43 132.431 170.515 129.639 172.414 126.793C174.619 123.491 177.28 121.377 181.275 120.585C184.327 119.979 187.448 119.62 190.552 119.423C197.404 118.989 199.793 115.632 201.235 110.592C202.511 106.122 200.724 101.151 198.217 97.4477C193.557 90.5734 186.787 87.3788 178.661 86.1791Z" fill="#CDCCCE"/>
<path fill-rule="evenodd" clip-rule="evenodd" d="M131.263 85.6983C130.896 83.6724 131.428 82.7345 133.252 82.3468C136.227 81.7164 138.671 82.8975 140.655 84.9801C142.461 86.8769 143.839 89.1058 144.037 91.765C144.206 94.0438 143.205 94.9826 141.028 94.6793C135.462 93.9042 132.202 90.9078 131.263 85.6983ZM141.02 98.6405C144.043 99.3549 146.908 97.0368 147.024 93.8812C147.156 90.235 145.938 86.7469 144.064 83.6531C141.626 79.6258 138.175 77.5043 133.367 78.1318C129.633 78.6188 127.897 80.4399 127.692 84.182C127.525 87.1921 128.268 89.898 130.122 92.3877C132.886 96.1066 136.844 97.6555 141.02 98.6405Z" fill="#CDCCCE"/>
<path fill-rule="evenodd" clip-rule="evenodd" d="M131.801 116.144C132.078 117.798 130.515 120.127 128.718 118.576C127.056 117.14 123.249 114.123 124.591 111.487C126.257 108.226 131.496 114.309 131.801 116.144ZM122.13 107.743C120.598 108.105 120.29 109.257 120.089 110.415C119.29 114.991 122.176 120.042 126.564 121.869C129.235 122.982 132.643 122.515 134.448 120.715C136.548 118.621 135.74 116.339 135.083 114.153C133.398 109.964 126.648 106.679 122.13 107.743Z" fill="#CDCCCE"/>
<path fill-rule="evenodd" clip-rule="evenodd" d="M194.564 77.2704C192.725 78.2839 190.922 75.8024 190.415 74.2865C189.619 71.9266 190.224 69.1132 190.418 66.7035C190.694 63.3079 194.793 63.705 196.588 65.7519C199.014 68.5161 197.709 75.5278 194.564 77.2704ZM199.611 66.8059C198.754 62.6017 196.45 59.1027 192.012 60.9497C190.939 61.3981 189.879 62.0966 189.081 62.9385C186.353 65.8036 185.553 72.6626 187.41 76.1506C188.634 78.4509 191.947 80.535 194.102 80.2864C197.026 79.9478 198.579 77.9734 199.434 75.3738C200.092 73.3648 200.243 69.8942 199.611 66.8059Z" fill="#CDCCCE"/>
<path fill-rule="evenodd" clip-rule="evenodd" d="M162.952 61.705C163.127 60.9274 163.485 60.2198 164.116 59.6514C166.838 57.1947 170.173 58.3289 172.127 60.9052C174.549 64.096 174.773 71.2054 172.557 74.5817C171.512 76.1753 169.092 76.6946 167.552 75.317C165.331 73.332 164.113 70.6927 163.559 67.8122C163.22 66.0438 162.516 63.6577 162.952 61.705ZM172.517 78.2966C175.47 77.5158 175.949 75.0989 176.186 72.6522C176.743 66.8788 176.576 62.2115 172.357 57.8775C167.692 53.0812 158.554 58.4355 159.061 64.5764C159.416 68.8527 160.922 73.5356 163.82 76.788C166.241 79.502 169.369 79.1292 172.517 78.2966Z" fill="#CDCCCE"/>
<path fill-rule="evenodd" clip-rule="evenodd" d="M1219.74 642.567C1216.2 639.374 1216.71 634.476 1220.61 631.897C1223.51 629.98 1226 627.597 1228 624.756C1229.29 622.937 1229.7 620.869 1229.63 618.628C1229.48 613.967 1231.74 611.721 1236.4 611.409C1240.38 611.143 1243.63 612.476 1245.68 615.831C1246.84 617.732 1247.47 620.04 1247.95 622.246C1248.61 625.207 1248.32 628.236 1247.7 631.164C1246.97 634.635 1245.9 637.27 1243.55 639.988C1240.51 643.496 1235.7 644.902 1231.39 645.949C1227.04 647.003 1223.02 645.535 1219.74 642.567ZM1238.43 646.251C1241.68 644.94 1244.72 643.061 1246.97 640.443C1248.86 638.231 1250.72 634.992 1251.2 632.026C1252.38 624.777 1251.99 618.053 1246.37 612.203C1243.82 609.545 1238.78 607.704 1234.82 608.997C1232.58 609.728 1230.51 611.146 1229.07 613.004C1227.57 614.937 1227.35 617.343 1227.27 619.715C1227.17 622.468 1226.36 624.669 1224.27 626.546C1222.68 627.981 1220.95 629.293 1219.18 630.5C1215.27 633.166 1215.07 636.017 1216.06 639.544C1216.94 642.671 1219.83 645.024 1222.67 646.363C1227.96 648.847 1233.16 648.385 1238.43 646.251Z" fill="#CDCCCE"/>
<path fill-rule="evenodd" clip-rule="evenodd" d="M1266.56 629.782C1267.5 630.861 1267.52 631.618 1266.56 632.518C1264.99 633.984 1263.1 634.17 1261.16 633.648C1259.4 633.172 1257.77 632.341 1256.71 630.82C1255.8 629.516 1256.06 628.588 1257.48 627.973C1261.11 626.401 1264.14 627.004 1266.56 629.782ZM1256.08 625.597C1254 626.274 1253.1 628.712 1254.16 630.645C1255.37 632.878 1257.35 634.522 1259.58 635.69C1262.48 637.211 1265.32 637.22 1267.99 635.085C1270.06 633.428 1270.46 631.701 1269.25 629.384C1268.28 627.52 1266.87 626.17 1264.87 625.357C1261.88 624.139 1258.94 624.659 1256.08 625.597Z" fill="#CDCCCE"/>
<path fill-rule="evenodd" clip-rule="evenodd" d="M1255.23 611.91C1254.47 611.008 1254.58 609.015 1256.23 609.292C1257.77 609.551 1261.18 609.976 1261.31 612.073C1261.48 614.67 1256.08 612.912 1255.23 611.91ZM1264.17 613.437C1264.97 612.651 1264.74 611.837 1264.45 611.059C1263.28 607.984 1259.69 605.983 1256.36 606.496C1254.32 606.808 1252.41 608.351 1251.96 610.112C1251.44 612.16 1252.76 613.248 1253.95 614.332C1256.49 616.254 1261.8 615.754 1264.17 613.437Z" fill="#CDCCCE"/>
<path fill-rule="evenodd" clip-rule="evenodd" d="M1232.35 657.742C1233.05 656.529 1234.97 657.36 1235.81 658.069C1237.11 659.171 1237.76 661.012 1238.51 662.48C1239.56 664.548 1237.05 665.709 1235.29 665.128C1232.91 664.344 1231.16 659.823 1232.35 657.742ZM1233.17 665.541C1235.16 667.695 1237.74 668.948 1239.64 666.367C1240.1 665.742 1240.46 664.976 1240.62 664.215C1241.17 661.623 1239.19 657.363 1236.87 655.965C1235.35 655.043 1232.7 654.955 1231.54 655.832C1229.98 657.021 1229.79 658.696 1230.22 660.498C1230.56 661.89 1231.71 663.96 1233.17 665.541Z" fill="#CDCCCE"/>
<path fill-rule="evenodd" clip-rule="evenodd" d="M1256.02 655.232C1256.19 655.762 1256.23 656.317 1256.05 656.889C1255.29 659.356 1252.87 659.897 1250.78 659.068C1248.19 658.042 1245.52 653.864 1245.65 651.03C1245.71 649.693 1246.99 648.497 1248.4 648.759C1250.45 649.136 1252.12 650.272 1253.48 651.795C1254.31 652.731 1255.59 653.903 1256.02 655.232ZM1244.35 648.79C1242.85 650.338 1243.43 651.961 1244.15 653.514C1245.87 657.177 1247.64 659.912 1251.72 660.966C1256.24 662.133 1259.83 655.582 1257.34 652.088C1255.61 649.656 1253.03 647.401 1250.13 646.512C1247.7 645.771 1245.95 647.139 1244.35 648.79Z" fill="#CDCCCE"/>
<path fill-rule="evenodd" clip-rule="evenodd" d="M1623.36 72.6187C1623.54 72.0304 1623.7 71.4323 1623.92 70.8592C1624.03 70.5785 1624.26 70.3438 1624.77 69.6108C1624.76 70.4164 1624.88 70.7948 1624.74 70.9961C1624.33 71.5751 1623.83 72.0837 1623.36 72.6187ZM1616.55 84.5717C1614.71 87.0826 1612.08 87.9313 1609.04 87.9033C1603.48 87.8516 1596.99 86.5398 1591.78 84.8261C1587.57 83.4434 1584.56 81.9635 1580.42 80.389C1576.68 78.9648 1563.46 72.627 1562.96 72.2353C1562.18 71.6253 1562.01 70.7966 1562.47 69.9732C1563.19 68.6853 1563.9 67.3503 1564.86 66.2514C1565.57 65.4335 1566.55 64.5708 1567.89 65.5412C1568.25 65.805 1568.92 65.8217 1569.4 65.719C1570.56 65.4652 1571.49 65.9575 1572.35 66.5476C1578.88 70.9749 1586.09 74.017 1593.41 76.7468C1597.64 78.325 1602.13 79.2659 1606.57 80.1677C1610.01 80.8664 1615.8 81.0261 1619.79 79.5409C1618.72 81.2215 1617.73 82.9662 1616.55 84.5717ZM1562.66 59.5904C1556.32 55.5861 1546.79 50.2446 1540.85 44.9691C1536.7 41.5194 1534.3 37.7758 1531.64 33.6958C1530.84 32.4735 1530.21 31.099 1529.73 29.7163C1528.94 27.4569 1529.46 26.3239 1531.58 25.3807C1533.72 24.431 1535.94 23.7597 1538.32 23.7734C1546.33 23.8219 1554.09 25.2943 1561.49 28.3333C1564.69 29.6508 1577.38 35.9023 1580.5 37.6311C1584.73 39.9742 1588.85 42.536 1592.95 45.1034C1595.09 46.4433 1597.1 47.9932 1599.16 49.4566C1604.41 53.176 1609.59 57.0209 1613.58 62.1151C1616.13 65.362 1617.57 69.1194 1615.97 73.3515C1614.87 76.2794 1613.12 77.6016 1609.95 77.666C1602.67 77.8156 1596.96 76.1294 1589.56 73.3218C1585.96 72.2306 1574.67 65.8126 1572.33 64.5904C1571.36 64.0825 1570.68 63.4517 1570.09 62.4869C1568.91 60.5347 1567.11 59.6064 1564.73 59.9098C1564.06 59.9948 1563.21 59.9342 1562.66 59.5904ZM1542.57 48.7319C1544.15 49.6808 1545.73 50.6292 1547.31 51.5787C1545.53 50.9405 1543.52 50.6572 1542.57 48.7319ZM1533.07 38.5174C1534.51 40.2723 1535.96 42.0278 1537.62 44.0506C1534.58 42.5962 1533.74 41.6593 1533.07 38.5174ZM1559.18 65.7215C1557.81 68.0594 1557.79 68.0998 1555.37 66.7063C1549.96 63.5908 1544.92 59.9735 1540.06 56.0377C1535.18 52.0876 1530.97 47.5279 1526.93 42.7902C1525.44 41.0348 1524.29 38.9744 1523 37.0405C1521.99 35.5195 1521.85 33.9378 1522.57 32.2203C1523.51 29.9855 1524.8 27.98 1526.02 25.9235C1526.25 25.987 1526.37 27.7534 1526.54 28.7806C1527.11 32.1509 1532.16 41.0448 1536.71 45.623C1541.73 50.5542 1548.19 53.8803 1554.14 57.2373C1556.17 58.3768 1558.26 59.381 1560.31 60.4802C1561.56 61.152 1561.62 61.3565 1560.92 62.6992C1560.38 63.7294 1559.77 64.7177 1559.18 65.7215ZM1536.6 17.3954C1535.99 19.4977 1535.09 21.4361 1533.55 23.0752C1533.61 20.6697 1535.47 19.24 1536.6 17.3954ZM1538.76 17.0498C1539.11 16.6148 1539.81 16.3211 1540.39 16.2454C1541.54 16.092 1542.72 16.0398 1543.87 16.1171C1551.73 16.3506 1566.58 21.8609 1571.18 23.7007C1577.83 26.3687 1584.13 29.5517 1590.4 33.267C1596.63 36.7774 1603.71 40.9424 1609.46 45.3355C1612.45 47.2824 1620.33 54.3775 1623.15 59.0687C1624.38 60.6103 1624.94 62.3973 1625.48 64.225C1625.77 65.2057 1625.67 65.8405 1624.42 65.895C1624.13 65.9069 1623.81 66.4012 1623.58 66.7282C1622.42 68.3568 1621.3 70.0029 1619.9 71.508L1623.4 65.1936C1623.27 65.0692 1623.14 64.9449 1623.01 64.8205C1622.65 65.0471 1622.29 65.2727 1621.71 65.6414C1621.86 64.6958 1621.98 63.9261 1622.23 62.4065C1620.85 64.4567 1619.88 65.8894 1618.84 67.4295C1618.34 66.0181 1619.16 65.0903 1619.66 64.0767C1620.16 63.0647 1620.63 62.0369 1620.93 60.9015C1619.44 61.7543 1619.05 63.4659 1617.93 64.575C1615.89 63.1144 1615.87 63.0662 1616.73 61.2065C1617.06 60.4874 1617.39 59.77 1617.36 58.7709C1616.62 59.4127 1615.88 60.0545 1615.05 60.7752C1614.54 60.3447 1614.04 59.972 1613.6 59.5342C1608.64 54.5784 1603.09 50.3582 1597.28 46.4699C1592.98 43.5879 1588.63 40.7778 1584.18 38.1385C1581.46 36.5263 1565.24 28.3791 1560.61 26.5864C1560.51 26.5477 1560.41 26.4967 1560.31 26.4631C1559.32 26.1173 1559.7 25.3113 1559.7 24.6307C1559.03 24.8242 1558.36 25.0622 1557.68 25.1754C1557.54 25.1974 1557.35 24.7173 1557.14 24.5132C1556.91 24.2937 1556.64 24.1247 1556.38 23.934C1555.48 25.2454 1554.42 24.7676 1553.38 24.437C1553.48 24.2318 1553.55 24.0165 1553.63 23.8037C1553.75 23.4883 1553.39 23.165 1553.11 23.3885C1552.84 23.5976 1552.68 23.8674 1552.55 24.1792C1552.54 24.2042 1552.54 24.227 1552.54 24.2522C1552.47 24.2454 1552.4 24.2278 1552.33 24.2284C1551.15 24.2221 1550.55 23.3743 1551.04 22.0008C1550.11 22.4509 1549.42 22.9193 1548.66 23.1177C1547.95 23.3034 1547.43 22.6568 1547.66 21.9781C1547.88 21.3201 1548.21 20.6973 1548.22 19.8592C1547.85 20.2778 1547.41 20.6543 1547.12 21.1269C1546.14 22.769 1546.16 22.7818 1543.88 22.3355C1544.36 21.3015 1544.82 20.3004 1545.33 19.1987C1543.75 19.4039 1543.53 20.7278 1542.86 21.6131C1542.1 22.6091 1539.05 22.8965 1538.23 22.0301C1538.07 21.8597 1538.05 21.4063 1538.15 21.1593C1538.49 20.3576 1538.89 19.5848 1539.27 18.8022C1538.84 19.1408 1538.36 19.441 1538.04 19.8604C1537.49 20.5648 1537.07 21.3673 1536.42 22.0295C1536.61 20.0787 1537.57 18.4909 1538.76 17.0498ZM1626.29 60.8297C1620.49 51.2279 1611.54 44.706 1602.16 38.8347C1596.09 34.9143 1584.01 27.6141 1575 23.9029C1568.33 21.2236 1562.38 18.6382 1554.76 16.468C1550.35 15.0705 1545.69 14.6285 1540.99 14.7041C1537.82 14.7548 1536.32 14.7852 1533.42 15.721C1531.22 16.4311 1529.36 17.9126 1528.44 19.125C1527.74 20.0527 1527.08 21.0201 1526.48 22.0099C1524.43 25.3369 1522.3 28.6238 1520.43 32.0452C1519.59 33.5872 1519.97 35.8628 1521.27 38.1194C1523 41.0283 1524.8 43.8477 1527.11 46.3827C1532.34 52.1288 1538.34 56.973 1544.5 61.6226C1548.2 64.4188 1552.18 67.2169 1556.05 69.3607C1556.78 69.7627 1560.73 72.2661 1561.06 72.4959C1563.39 74.1507 1572.08 78.4262 1578.17 81.1411C1580.88 82.345 1588.43 85.5548 1595.39 87.4313C1600.77 88.8818 1606.13 89.4078 1611.68 89.4552C1614.44 89.4792 1616.13 88.352 1617.48 86.4063C1621.95 79.9811 1625.42 74.189 1628.2 68.0184C1629.03 66.1659 1627.3 62.5035 1626.29 60.8297Z" fill="#CDCCCE"/>
<path fill-rule="evenodd" clip-rule="evenodd" d="M1541.75 19.9759C1541.71 18.78 1542.07 17.8113 1543.44 17.4838C1543.09 18.1102 1542.87 18.5882 1542.58 19.0193C1542.34 19.3678 1542.03 19.6593 1541.75 19.9759Z" fill="#CDCCCE"/>
<path fill-rule="evenodd" clip-rule="evenodd" d="M1614.91 58.065C1614.5 56.8193 1615.13 56.2454 1615.9 55.1822C1616.01 56.5724 1615.63 57.242 1614.91 58.065Z" fill="#CDCCCE"/>
<path fill-rule="evenodd" clip-rule="evenodd" d="M1613.77 54.9869C1613.71 54.5504 1613.6 54.31 1613.67 54.1856C1614.07 53.5086 1614.52 52.8629 1614.94 52.2049C1615.59 52.9089 1614.64 53.6067 1614.37 54.2969C1614.29 54.4865 1614.07 54.6439 1613.77 54.9869Z" fill="#CDCCCE"/>
<path fill-rule="evenodd" clip-rule="evenodd" d="M1564.76 24.7257C1564.5 24.8148 1564.26 24.8978 1564.02 24.9799C1563.99 24.8576 1563.9 24.6695 1563.95 24.6246C1564.16 24.4506 1564.4 24.3212 1564.63 24.1766C1564.67 24.3239 1564.7 24.4719 1564.76 24.7257Z" fill="#CDCCCE"/>
<path fill-rule="evenodd" clip-rule="evenodd" d="M1602.23 47.0996C1602.1 46.7524 1601.93 46.4817 1601.99 46.4542C1602.23 46.3526 1602.54 46.333 1602.83 46.2831C1602.83 46.4398 1602.89 46.6351 1602.82 46.745C1602.72 46.8777 1602.51 46.9396 1602.23 47.0996Z" fill="#CDCCCE"/>
<path fill-rule="evenodd" clip-rule="evenodd" d="M1596.6 41.156C1596.68 41.5063 1596.81 41.7135 1596.74 41.7932C1596.62 41.93 1596.38 41.9872 1596.2 42.0772C1596.11 41.9123 1595.91 41.6879 1595.96 41.5955C1596.04 41.4371 1596.28 41.3619 1596.6 41.156Z" fill="#CDCCCE"/>
<path fill-rule="evenodd" clip-rule="evenodd" d="M1611.54 51.1246C1611.57 51.449 1611.62 51.7121 1611.6 51.9603C1611.59 52.0371 1611.4 52.0754 1611.29 52.1321C1611.23 51.8831 1611.14 51.6297 1611.13 51.386C1611.13 51.3065 1611.33 51.2495 1611.54 51.1246Z" fill="#CDCCCE"/>
<path fill-rule="evenodd" clip-rule="evenodd" d="M1580.66 32.1923C1580.68 32.5015 1580.77 32.7421 1580.69 32.8768C1580.61 32.9979 1580.35 33.0039 1580.17 33.0607C1580.11 32.8637 1579.96 32.6221 1580.03 32.4805C1580.09 32.3457 1580.37 32.3148 1580.66 32.1923Z" fill="#CDCCCE"/>
<path fill-rule="evenodd" clip-rule="evenodd" d="M1590.2 38.3551C1590.34 38.3784 1590.56 38.3592 1590.6 38.4368C1590.66 38.5451 1590.59 38.7254 1590.58 38.8754C1590.44 38.8487 1590.23 38.8689 1590.17 38.785C1590.11 38.6905 1590.19 38.5021 1590.2 38.3551Z" fill="#CDCCCE"/>
<path fill-rule="evenodd" clip-rule="evenodd" d="M1587.66 36.6291C1587.56 36.7277 1587.45 36.8276 1587.35 36.9253C1587.27 36.8119 1587.12 36.679 1587.14 36.5868C1587.16 36.4772 1587.34 36.4 1587.45 36.3083C1587.52 36.4148 1587.59 36.5222 1587.66 36.6291Z" fill="#CDCCCE"/>
<path fill-rule="evenodd" clip-rule="evenodd" d="M1577.54 30.8768C1577.59 30.6682 1577.57 30.4509 1577.62 30.2442C1577.64 30.1432 1577.48 30.0718 1577.42 30.1605C1577.32 30.3254 1577.26 30.484 1577.1 30.6191C1576.74 30.9428 1577.43 31.353 1577.54 30.8768Z" fill="#CDCCCE"/>
<path fill-rule="evenodd" clip-rule="evenodd" d="M1574.69 29.2449C1574.68 29.172 1574.58 29.1498 1574.53 29.1765C1574.22 29.344 1573.94 29.613 1574.08 29.9825C1574.11 30.0568 1574.2 30.0778 1574.27 30.0643C1574.65 29.9866 1574.71 29.5774 1574.69 29.2449Z" fill="#CDCCCE"/>
<path fill-rule="evenodd" clip-rule="evenodd" d="M1571.3 27.35C1571.25 27.4411 1571.19 27.5203 1571.11 27.5869C1571.02 27.6734 1570.99 27.7947 1571.07 27.9039C1571.3 28.2501 1571.66 27.7104 1571.75 27.5409C1571.89 27.2609 1571.45 27.086 1571.3 27.35Z" fill="#CDCCCE"/>
<path fill-rule="evenodd" clip-rule="evenodd" d="M1568.39 26.3016C1568.26 26.4483 1568.13 26.5603 1568.06 26.746C1568 26.917 1568.18 27.0374 1568.33 26.9505C1568.51 26.8406 1568.64 26.6974 1568.71 26.4916C1568.78 26.2893 1568.53 26.1385 1568.39 26.3016Z" fill="#CDCCCE"/>
<path fill-rule="evenodd" clip-rule="evenodd" d="M1567.75 26.4775C1567.84 26.2333 1567.49 26.0065 1567.32 26.226C1567.16 26.4417 1566.99 26.6588 1567.07 26.9417C1567.1 27.0394 1567.18 27.092 1567.28 27.064C1567.56 26.9854 1567.66 26.7334 1567.75 26.4775Z" fill="#CDCCCE"/>
<path fill-rule="evenodd" clip-rule="evenodd" d="M1581.71 33.3652C1581.72 33.227 1581.56 33.1204 1581.45 33.2104C1581.21 33.3932 1581.03 33.6163 1581.09 33.9172C1581.11 34.0139 1581.2 34.0718 1581.29 34.0369C1581.58 33.9295 1581.67 33.6599 1581.71 33.3652Z" fill="#CDCCCE"/>
<path fill-rule="evenodd" clip-rule="evenodd" d="M1584.72 33.3046C1584.72 33.203 1584.58 33.1133 1584.49 33.1735C1584.23 33.3493 1583.99 33.6083 1584.06 33.9424C1584.08 34.0289 1584.2 34.1013 1584.29 34.0696C1584.6 33.9542 1584.71 33.62 1584.72 33.3046Z" fill="#CDCCCE"/>
<path fill-rule="evenodd" clip-rule="evenodd" d="M1586.67 35.4758C1586.69 35.3173 1586.5 35.1864 1586.37 35.2963C1586.16 35.4642 1586.06 35.6135 1586.14 35.8704C1586.17 35.9535 1586.27 35.9692 1586.34 35.9502C1586.58 35.887 1586.64 35.7137 1586.67 35.4758Z" fill="#CDCCCE"/>
<path fill-rule="evenodd" clip-rule="evenodd" d="M1592.68 39.3423C1592.73 39.2233 1592.55 39.1094 1592.48 39.2232C1592.33 39.456 1592.18 39.5326 1592.08 39.8059C1592.01 39.9959 1592.26 40.1634 1592.39 39.992C1592.57 39.7634 1592.56 39.5921 1592.68 39.3423Z" fill="#CDCCCE"/>
<path fill-rule="evenodd" clip-rule="evenodd" d="M1595.7 39.2561C1595.69 39.1956 1595.6 39.1392 1595.54 39.1593C1595.27 39.2501 1595.15 39.4542 1595.02 39.6632C1594.98 39.7261 1594.95 39.8165 1595.02 39.9013C1595.04 39.9297 1595.06 39.9587 1595.08 39.9865C1595.12 40.0412 1595.17 40.071 1595.24 40.0769L1595.34 40.0849C1595.44 40.0942 1595.51 40.0342 1595.54 39.9661C1595.65 39.7453 1595.77 39.5281 1595.7 39.2561Z" fill="#CDCCCE"/>
<path fill-rule="evenodd" clip-rule="evenodd" d="M1598.74 42.3165C1598.77 42.2329 1598.59 42.12 1598.54 42.1965C1598.37 42.423 1597.89 42.5861 1598.03 42.9436C1598.06 42.9963 1598.12 43.0558 1598.19 43.0547C1598.68 43.0446 1598.63 42.6084 1598.74 42.3165Z" fill="#CDCCCE"/>
<path fill-rule="evenodd" clip-rule="evenodd" d="M1599.7 44.4469C1599.78 44.2599 1599.51 44.0873 1599.38 44.2621C1599.23 44.4761 1599.14 44.6128 1599.1 44.8636C1599.08 44.985 1599.24 45.0911 1599.33 45.0039C1599.53 44.832 1599.59 44.6911 1599.7 44.4469Z" fill="#CDCCCE"/>
<path fill-rule="evenodd" clip-rule="evenodd" d="M1606.26 46.5817C1606.37 46.3788 1606.15 46.2541 1606.03 46.4365C1605.78 46.7904 1605.38 47.1849 1605.11 47.5213C1604.85 47.8319 1604.77 48.1419 1604.54 48.4526C1604.42 48.6207 1604.45 48.8998 1604.63 48.8782C1605.4 48.782 1605.89 47.2813 1606.26 46.5817Z" fill="#CDCCCE"/>
<path fill-rule="evenodd" clip-rule="evenodd" d="M1607.15 48.3947C1607.14 48.1546 1606.84 48.3535 1606.8 48.5915C1606.67 49.3262 1605.76 49.9489 1605.48 50.611C1605.41 50.7732 1605.47 50.8723 1605.59 50.8442C1606.21 50.6952 1607.22 49.1365 1607.15 48.3947Z" fill="#CDCCCE"/>
<path fill-rule="evenodd" clip-rule="evenodd" d="M1608.72 49.2667C1608.69 49.1949 1608.6 49.1431 1608.52 49.1546C1608.15 49.2115 1607.96 49.6039 1608.05 49.9395C1608.07 50.0222 1608.21 50.1087 1608.3 50.0817C1608.63 49.9775 1608.87 49.6223 1608.72 49.2667Z" fill="#CDCCCE"/>
<path fill-rule="evenodd" clip-rule="evenodd" d="M1612.74 52.3489C1612.76 52.2197 1612.55 52.0863 1612.45 52.1774C1612.23 52.366 1612.04 52.594 1612.06 52.8995C1612.07 53.0307 1612.21 53.1232 1612.33 53.0574C1612.6 52.91 1612.7 52.6362 1612.74 52.3489Z" fill="#CDCCCE"/>
<path fill-rule="evenodd" clip-rule="evenodd" d="M398.628 651.575C398.06 652.843 394.468 652.256 394.066 652.472C393.911 652.24 393.696 652.011 393.402 651.793C392.172 650.879 390.57 651.275 389.149 651.322C389.026 651.325 388.915 651.348 388.796 651.357C390.087 650.98 391.376 650.465 392.459 650.012C392.942 649.81 393.629 649.545 394.303 649.212C395.229 648.965 396.066 648.482 397.081 648.47C398.574 648.448 399.102 650.514 398.628 651.575ZM398.682 657.104C398.191 659.181 395.459 658.238 394.165 658.397C394.071 658.409 386.877 656.043 386.796 655.943C387.802 656.312 391.806 656.267 391.873 656.275C393.35 656.455 395.101 655.079 395.294 653.473C395.391 653.513 396.772 653.92 397.295 654.032C397.656 654.111 398.138 654.088 398.428 654.395C398.882 654.881 398.852 656.384 398.682 657.104ZM398.176 662.872C397.824 663.328 397.588 663.431 396.949 663.472C396.192 663.524 395.494 663.254 394.796 663.016C396.536 661.732 395.437 659.563 395.407 659.476C396.111 659.532 396.838 659.554 397.53 659.507C398.387 659.874 398.832 660.071 398.795 660.964C398.774 661.471 398.511 662.435 398.176 662.872ZM393.586 661.717C392.403 663.113 390.913 662.225 390.241 661.895C389.406 661.487 388.493 661.233 387.643 660.857C387.172 660.65 386.255 660.401 385.796 660.039C386.483 659.38 386.918 658.415 386.898 657.475C387.753 657.813 388.768 658.009 389.298 658.155C390.535 658.498 392.432 658.637 393.454 659.425C393.586 659.479 394.07 661.143 393.586 661.717ZM391.72 666.5C391.3 667.468 390.374 668.701 389.253 668.448C388.836 668.354 387.567 667.034 387.615 666.953C388.373 666.533 388.502 665.188 388.111 664.353C387.772 663.632 387.309 663.031 386.796 662.478C386.994 662.57 387.187 662.658 387.355 662.745C388.034 663.089 392.426 664.873 391.72 666.5ZM390.352 672.727C389.2 673.469 387.895 673.888 386.749 672.921C386.426 672.647 386.144 672.281 385.796 672.09C386.371 671.765 387.111 671.3 387.096 670.647C387.276 670.177 387.221 669.722 387.049 669.212C386.902 668.77 386.685 668.338 386.434 667.923C386.931 667.877 387.416 667.725 387.836 667.481C388.12 667.876 388.529 668.14 388.904 668.465C389.147 668.675 389.355 668.862 389.583 669.02C389.596 669.086 389.623 669.15 389.67 669.207C390.191 669.846 391.08 669.993 391.601 670.683C392.262 671.559 391.09 672.249 390.352 672.727ZM382.73 671.483C381.75 671.46 381.657 670.71 381.346 669.901C381.037 669.096 380.814 668.24 380.501 667.443C380.182 666.629 380.076 665.842 379.843 665.023C379.83 664.807 379.819 664.59 379.795 664.384C380.541 664.371 381.313 664.04 381.89 663.479C381.99 663.873 382.129 664.26 382.23 664.636C382.499 665.638 382.967 666.709 383.735 667.249C383.889 667.356 384.058 667.438 384.236 667.501C384.416 667.923 384.567 668.352 384.664 668.855C384.735 669.234 384.828 669.672 384.784 670.049C384.774 670.147 384.737 670.246 384.699 670.344C384.498 670.536 384.297 670.733 384.078 670.887C383.692 671.158 383.198 671.496 382.73 671.483ZM382.589 675.486C381.919 676.376 380.426 676.815 379.61 676.2C379.141 675.844 379.071 675.655 378.917 674.961C378.763 674.258 378.659 673.559 378.463 672.868C378.285 672.245 378.261 671.319 377.795 670.877C377.914 670.864 378.029 670.877 378.149 670.85C378.816 670.704 379.595 670.231 379.788 669.482C380.084 670.581 380.584 672.036 381.306 672.587C381.509 672.74 381.731 672.836 381.96 672.899C382.304 673.805 383.196 674.683 382.589 675.486ZM378.043 678.008C377.409 678.702 374.774 678.725 373.996 677.525C373.534 676.812 374.007 675.646 374.043 675.34C374.731 675.232 375.356 674.934 375.67 674.328C376.038 673.615 375.87 672.511 376.042 671.736C376.143 671.27 376.169 670.875 376.101 670.483C376.462 670.596 376.839 670.643 377.225 670.651C377.219 670.718 377.436 674.715 377.716 675.785C377.895 676.469 378.29 676.987 378.795 677.352C378.552 677.774 378.508 677.497 378.043 678.008ZM373.111 674.439C371.872 674.254 371.676 673.209 371.849 672.186C372.044 671.018 372.219 669.76 372.555 668.624C372.7 668.132 372.843 667.739 372.848 667.343C373.37 667.178 373.819 666.904 374.088 666.481C373.951 667.735 373.726 669.261 374.737 670.115C375.065 670.394 375.422 670.613 375.795 670.799C375.49 671.536 375.337 672.346 375.035 673.07C374.577 674.18 374.467 674.641 373.111 674.439ZM368.839 665.387C368.603 664.439 369.356 663.219 369.767 662.38C369.989 661.928 370.347 661.466 370.563 660.99C370.66 660.888 370.746 660.781 370.809 660.66C371.784 660.888 372.983 660.839 373.795 660.477C373.703 660.876 373.627 661.275 373.537 661.648C373.282 662.682 373.129 663.735 372.846 664.764C372.784 664.991 372.691 665.21 372.591 665.43C372.426 665.533 372.299 665.687 372.108 665.857C371.202 666.664 369.204 666.861 368.839 665.387ZM369.863 677.169C369.184 677.747 368.327 677.432 367.653 677.052C366.051 676.15 367.049 674.207 367.765 673.011C368.053 672.53 368.373 672.008 368.507 671.458C369.127 671.019 369.74 670.273 370.225 669.482C370.096 670.297 370.026 671.119 369.905 671.787C369.648 673.211 369.568 674.567 370.795 675.319C370.506 675.966 370.314 676.785 369.863 677.169ZM365.089 669.554C364.597 668.974 364.783 668.714 365.191 668.05C365.491 667.559 365.848 667.135 366.205 666.689C366.961 665.748 367.513 664.852 367.855 663.652C367.887 663.55 367.876 663.445 367.843 663.348C368.075 663.182 368.298 662.996 368.509 662.792C368.625 662.679 368.751 662.583 368.872 662.478C368.143 664.032 367.808 665.769 368.87 666.809C369.123 667.059 369.447 667.243 369.795 667.386C369.285 667.894 368.968 668.586 368.534 669.221C368.261 669.618 367.91 670.222 367.448 670.403C366.706 670.692 365.595 670.151 365.089 669.554ZM362.417 673.033C361.726 673.475 361.256 673.704 360.505 673.194C360.106 672.922 359.652 672.67 359.305 672.327C357.503 670.545 361.047 667.483 360.965 667.366C361.588 667.104 362.189 666.716 362.715 666.369C363.43 665.894 364.293 665.376 364.834 664.655C365.158 664.644 365.483 664.584 365.794 664.479C365.616 664.752 365.441 665.03 365.233 665.299C364.761 665.908 364.155 666.396 363.699 667.014C362.56 668.558 362.18 669.576 363.678 670.902C363.829 671.034 363.987 671.158 364.149 671.278C363.522 671.765 363.124 672.581 362.417 673.033ZM357.836 667.59C357.118 668.026 356.367 668.724 355.517 668.397C354.909 668.165 354.582 667.582 354.183 666.996C352.856 665.043 355.25 664.555 356.412 663.479C356.415 663.611 356.401 663.728 356.42 663.871C356.613 665.303 357.564 666.55 358.794 667.003C358.47 667.193 358.152 667.401 357.836 667.59ZM354.193 662.448C353.043 662.545 353.002 662.446 352.464 661.591C352.216 661.196 351.808 660.647 351.794 660.165C351.768 659.298 352.504 659.301 353.217 659.045C354.007 658.761 354.782 658.613 355.57 658.476C355.733 659.3 356.228 660.096 356.947 660.513C358.077 661.171 359.454 661.031 360.794 660.735C360.548 660.86 357.799 662.142 354.193 662.448ZM352.623 655.327C351.465 655.304 350.64 655.025 350.817 653.564C350.861 653.194 351.087 652.21 351.429 651.998C351.772 651.787 356.735 651.589 357.133 651.472C357.228 651.606 357.868 652.274 358.022 652.306C358.923 652.892 360.8 653.186 361.794 653.473C361.741 653.583 361.682 653.692 361.651 653.798C361.556 654.106 361.512 654.423 361.493 654.736C357.69 655.903 353.257 655.34 352.623 655.327ZM352.809 648.996C352.829 648.397 352.939 647.924 353.245 647.407C353.533 646.92 353.813 646.634 354.301 646.469C354.637 646.605 354.999 646.69 355.355 646.778C356.188 646.987 357.008 647.27 357.845 647.452C357.88 647.46 357.922 647.443 357.961 647.442C358.198 647.643 358.445 647.841 358.694 648.038C358.995 648.278 359.375 648.58 359.794 648.871C358.679 648.932 357.517 649.493 357.167 650.471C356.763 650.361 356.343 650.326 355.899 650.262C355.073 650.146 354.12 650.026 353.322 649.809C352.693 649.641 352.791 649.558 352.809 648.996ZM357.359 643.467C357.205 643.35 357.052 643.234 356.922 643.116C356.302 642.546 355.546 642.179 354.899 641.656C354.834 641.527 354.743 641.492 354.827 641.157C354.958 640.636 355.366 640.46 355.882 640.466C356.966 640.479 357.833 641.417 358.794 641.855C358.131 642.199 357.59 642.77 357.359 643.467ZM358.872 638.716C358.97 638.479 359.647 638.127 359.829 637.973C360.695 637.234 361.329 637.358 362.175 637.971C362.456 638.174 362.714 638.408 363.005 638.586C362.985 638.633 362.835 639.271 362.911 639.509C362.798 639.95 363.094 640.266 363.318 640.657C363.649 641.242 363.84 641.897 364.194 642.482C364.381 642.788 364.582 643.133 364.794 643.467C364.44 643.076 363.84 642.787 363.45 642.519C362.691 641.998 361.818 641.606 360.942 641.309C360.557 641.178 360.134 641.155 359.713 641.212C359.551 641.178 358.502 639.607 358.872 638.716ZM360.814 634.592C360.973 633.818 362.59 633.185 363.243 632.899C363.485 632.791 363.814 632.583 364.067 632.519C364.771 632.34 364.83 632.598 365.258 632.98C365.063 633.241 364.916 633.532 364.901 633.879C364.867 634.704 365.359 635.612 365.794 636.363C365.718 636.379 365.635 636.385 365.558 636.405C364.884 636.577 364.156 636.957 363.574 637.464C363.229 637.047 362.637 636.728 362.198 636.458C361.804 636.217 361.427 636.101 361.048 636.058C361.097 635.554 360.702 635.145 360.814 634.592ZM366.142 637.485C366.934 637.375 367.269 637.693 367.6 638.422C367.827 638.927 368.075 639.455 368.35 639.93C367.789 640.41 367.422 641.139 367.52 642.023C367.577 642.534 367.785 642.988 367.983 643.439C368.416 644.42 368.501 645.362 368.777 646.392C368.784 646.415 368.788 646.443 368.794 646.469C368.076 645.77 367.228 645.041 366.39 644.533C366.39 644.519 366.403 644.501 366.397 644.492C365.168 643.074 363.978 639.972 363.926 639.888C363.237 638.789 365.442 637.582 366.142 637.485ZM366.402 634.258C367.081 633.846 368.39 633.503 369.193 633.463C369.961 633.426 370.228 634.092 370.457 634.672C369.998 635.027 369.652 635.468 369.565 636.013C369.429 636.846 369.859 637.485 370.197 638.215C370.522 638.917 370.572 639.686 370.795 640.403C370.634 640.411 370.476 640.438 370.317 640.465C370.329 640.245 370.257 640.019 370.085 639.739C369.765 639.21 369.208 638.444 368.732 638.017C368.114 637.465 367.292 637.297 366.464 637.31C366.663 636.256 364.908 635.163 366.402 634.258ZM370.91 630.73C371.526 630.531 372.258 630.521 372.907 630.524C373.537 630.527 374.158 630.467 374.788 630.464C375.263 630.463 375.484 630.407 375.728 630.721C375.762 630.766 375.779 630.872 375.795 630.987C375.413 631.119 375.093 631.317 374.9 631.619C374.61 632.074 374.606 632.76 374.755 633.433C373.954 632.894 372.921 633.023 371.782 633.253C371.543 633.3 371.294 633.373 371.047 633.461C370.828 632.925 370.375 632.299 369.795 632.029C369.982 631.454 370.143 630.979 370.91 630.73ZM376.467 637.626C378.003 636.944 378.816 638.558 378.795 639.792C378.778 640.634 378.114 641.822 378.298 642.655C377.986 642.931 377.742 643.27 377.634 643.692C377.446 644.426 376.912 646.254 376.845 646.469C376.645 646.327 376.386 646.227 376.021 646.192C375.45 646.137 374.662 646.463 374.814 646.217C376.086 644.136 375.532 641.448 375.558 639.159C375.565 638.463 375.771 637.935 376.467 637.626ZM376.521 631.589C376.965 631.441 377.624 631.438 378.077 631.493C378.723 631.573 380.442 631.474 380.744 632.133C381.004 632.704 380.193 634.232 380.212 634.294C379.71 634.82 379.382 635.634 379.209 636.463C378.621 635.882 377.789 635.617 376.816 635.851C376.613 635.9 376.441 635.963 376.275 636.03C376.234 635.666 376.11 635.299 375.96 634.944C375.695 633.068 375.664 631.877 376.521 631.589ZM382.412 635.485C383.217 635.472 384.002 635.332 384.484 635.949C385.234 636.907 384.422 637.766 384.208 638.721C384.106 639.185 383.794 639.839 383.818 640.359C383.658 640.535 383.506 640.716 383.381 640.882C383.049 641.315 382.718 641.731 382.381 642.162C382.293 642.274 382.199 642.372 382.105 642.467C381.723 642.287 381.279 642.182 380.831 642.17C380.507 642.162 380.167 642.192 379.827 642.25C380.203 641.186 380.08 639.759 379.957 639C379.924 638.786 379.866 638.581 379.795 638.388C380.08 637.651 380.252 636.862 380.755 636.23C381.23 635.631 381.607 635.495 382.412 635.485ZM384.506 633.581C384.862 633.137 384.784 632.864 385.485 632.588C386.346 632.25 387.686 632.63 388.321 633.213C389.068 633.902 388.779 633.477 388.495 634.149C388.364 634.461 388.047 634.768 387.85 635.056C387.252 635.931 386.835 636.849 386.311 637.76C386.235 637.894 386.016 638.155 385.77 638.464C385.82 638.284 385.881 638.1 385.918 637.924C386.188 636.639 385.867 635.08 384.486 634.575C384.286 634.504 384.046 634.448 383.796 634.401C384.091 634.2 384.256 633.899 384.506 633.581ZM389.154 635.506C389.576 635.396 389.818 635.507 390.219 635.704C390.702 635.941 391.313 636.13 391.722 636.458C392.328 636.943 389.019 640.111 388.683 640.465C388.356 639.797 387.588 639.334 386.796 639.127C387.66 637.958 388.345 636.703 389.154 635.506ZM392.22 639.556C392.981 639.834 393.792 640.459 393.796 641.286C393.803 642.414 391.922 643.178 391.002 643.622C390.282 643.969 389.183 644.171 388.548 644.729C388.425 644.737 388.3 644.746 388.17 644.767C388.008 644.776 387.861 644.816 387.715 644.869C387.07 645.039 386.454 645.314 386.158 645.494C385.693 645.778 385.24 646.117 384.796 646.469C385.381 645.781 385.947 645.065 386.564 644.397C387.141 643.774 387.932 643.201 388.184 642.358C388.227 642.209 388.256 642.066 388.268 641.927C388.906 641.396 389.478 640.783 390.154 640.29C390.836 639.791 391.369 639.244 392.22 639.556ZM384.623 654.311C382.82 653.355 384.426 653.152 385.105 652.905C385.17 652.88 388.39 652.62 389.851 652.564C390.587 652.536 391.777 652.287 392.411 652.751C392.857 653.077 392.881 653.692 392.66 653.987C392.158 654.663 389.708 654.432 389.002 654.449C387.719 654.484 384.799 654.405 384.623 654.311ZM378.531 662.327C378.131 661.498 377.805 660.635 377.483 659.784C377.283 659.253 377.142 658.688 376.795 658.209C377.114 658.197 377.436 658.147 377.742 658.101C378.35 658.006 378.9 657.784 379.339 657.475C379.512 657.658 382.142 659.99 381.757 661.878C381.682 662.508 381.277 663.047 380.55 663.305C379.221 663.775 378.972 663.24 378.531 662.327ZM374.775 661.792C375.079 661.56 376.142 661.576 376.29 661.478C376.334 661.606 376.972 664.636 378.254 665.213C378.064 665.932 378.839 668.857 378.793 669.623C378.828 670.271 377.433 670.424 376.323 670.478C374.945 670.545 374.564 669.938 374.238 669.513C373.041 667.947 374.63 662.253 374.775 661.792ZM370.929 657.898C371.332 656.921 371.876 655.92 372.474 655.081C372.586 654.923 372.784 654.707 372.959 654.474C373.703 654.542 374.717 654.557 374.709 655.549C374.709 655.619 374.746 655.67 374.795 655.702C374.749 655.774 374.707 655.85 374.683 655.947C374.45 656.883 374.341 657.702 373.806 658.525C373.163 659.514 372.678 659.557 371.651 659.419C370.921 659.322 370.588 658.725 370.929 657.898ZM369.096 651.872C368.904 651.682 368.784 651.436 368.795 651.194C368.843 650.131 370.031 650.495 370.641 650.705C371.397 650.966 373.689 651.408 373.776 652.068C373.846 652.593 373.741 653.344 373.166 653.463C372.694 653.56 369.732 652.926 369.096 651.872ZM366.477 656.216C365.402 656.632 364.579 656.461 363.997 656.29C363.533 656.156 362.978 655.856 362.84 655.426C362.681 654.932 362.952 654.469 363.376 654.188C363.387 654.179 363.389 654.167 363.401 654.159C364.037 654.183 367.825 653.833 368.99 653.473C369.048 653.506 370.267 654.002 370.459 654.194C370.726 654.464 370.855 654.879 370.767 655.235C370.766 655.24 370.761 655.247 370.758 655.251C369.352 655.627 367.905 655.892 366.477 656.216ZM364.427 661.238C365.214 660.536 366.382 660.052 367.281 659.484C367.649 659.253 368.019 659 368.379 658.728C368.75 658.64 369.084 658.627 369.415 658.476C369.112 659.214 369.043 659.997 369.795 660.581C369.166 660.994 367.55 662.171 366.217 663.058C365.643 663.439 365.48 663.7 364.478 663.213C363.453 662.713 363.702 661.882 364.427 661.238ZM361.643 661.836C361.875 661.692 362.145 661.58 362.427 661.478C362.42 661.521 362.406 661.559 362.402 661.605C362.264 663.103 362.904 664.122 363.794 664.599C363.153 664.954 362.527 665.447 361.976 665.806C361.28 666.257 360.647 666.804 359.857 666.241C359.365 665.891 358.651 664.609 358.818 664.169C359.009 663.667 360.039 663.026 360.41 662.732C360.806 662.42 361.225 662.096 361.643 661.836ZM369.795 649.282C369.754 649.324 369.5 649.71 369.522 649.873C369.059 649.864 368.621 650.01 368.292 650.471C367.598 649.878 366.923 649.251 366.168 648.819C365.612 648.498 364.991 648.233 364.475 647.82C363.395 646.96 363.569 644.97 365.22 645.584C366.708 646.137 369.697 649.173 369.795 649.282ZM371.393 641.031C371.737 641.308 371.995 641.768 372.166 642.144C372.508 642.893 372.437 643.704 372.688 644.482C372.938 645.262 373.54 645.846 373.795 646.629C372.973 647.087 372.243 647.758 371.199 647.335C370.078 646.882 370.021 644.856 369.665 643.883C369.55 643.569 369.402 643.295 369.231 643.004C368.738 642.16 368.564 642.19 369.237 641.272C369.873 640.408 370.25 640.106 371.393 641.031ZM378.687 655.001C379.143 655.901 378.068 656.484 377.11 656.475C375.378 656.458 375.049 655.17 374.795 654.928C375.153 654.169 375.241 653.444 376.479 653.474C377.513 653.499 378.298 654.233 378.687 655.001ZM381.119 646.456C380.79 647.216 380.543 648.059 380.133 648.779C379.581 649.751 378.869 649.435 378.038 649.37C378.012 649.226 377.985 649.082 377.964 648.943C377.912 648.59 377.867 648.26 377.795 647.963C378.39 647.21 378.86 646.425 379.129 645.458C379.404 644.482 379.619 643.248 380.773 643.5C382.776 643.935 381.24 646.178 381.119 646.456ZM383.891 649.61C384.366 649.496 384.828 649.369 385.259 649.6C385.567 649.765 385.763 650.203 385.793 650.601C385.896 651.881 383.018 653.163 382.138 653.374C381.288 653.577 379.849 653.545 379.799 652.51C379.765 651.754 379.975 651.343 380.526 650.71C381.473 649.868 383.025 649.82 383.891 649.61ZM386.915 646.643C387.48 646.186 388.013 645.769 388.711 645.549C388.845 645.507 388.983 645.484 389.122 645.468C389.375 645.512 389.624 645.568 389.871 645.702C390.131 645.841 390.615 646.11 390.738 646.398C390.936 646.87 390.594 647.401 390.246 647.642C389.757 647.979 389.181 648.229 388.674 648.541C388.152 648.86 387.628 649.206 387.076 649.471C386.922 649.134 386.697 648.821 386.451 648.594C385.891 648.08 385.385 647.954 384.796 648.032C385.524 647.603 386.251 647.178 386.915 646.643ZM383.058 643.071C383.21 642.93 385.017 640.591 386.063 640.483C386.828 640.425 387.602 640.466 387.78 641.362C387.981 642.386 386.185 643.822 385.636 644.501C384.859 645.459 383.99 646.877 382.849 647.452C382.754 647.423 382.652 647.405 382.546 647.44C382.264 647.533 382.032 647.388 381.795 647.267C381.964 646.866 382.138 646.463 382.339 646.076C382.58 645.612 382.924 645.201 383.105 644.71C383.109 644.699 383.109 644.69 383.11 644.679C383.179 644.553 383.234 644.415 383.264 644.267C383.36 643.797 383.267 643.396 383.058 643.071ZM375.768 646.511C376.364 646.31 376.629 646.846 376.675 647.723C376.724 648.65 376.76 649.56 376.795 650.483C376.577 651.005 376.748 651.521 376.191 651.468C375.996 651.449 374.71 651.047 374.82 650.162C374.71 648.772 374.948 646.79 375.768 646.511ZM375.482 640.243C375.572 641.575 375.552 642.988 375.47 644.319C375.43 644.984 375.11 645.781 375.216 646.469C375.167 646.362 375.128 646.267 375.07 646.136C374.689 645.28 374.644 644.637 374.474 643.765C374.258 642.655 373.421 641.184 372.348 640.518C372.08 640.353 371.788 640.247 371.486 640.176C371.698 639.71 371.601 639.122 371.496 638.618C371.25 637.405 370.026 635.845 371.536 634.958C372.094 634.63 372.89 634.536 373.535 634.483C374.354 634.417 374.663 634.476 375.06 635.105C375.402 635.646 375.607 636.104 375.654 636.753C375.687 637.214 375.63 637.528 375.795 637.869C375.454 638.513 375.421 639.326 375.482 640.243ZM358.803 645.147C358.683 644.24 359.708 643.359 360.51 643.478C360.938 643.541 361.524 643.893 361.904 644.062C362.402 644.284 362.859 644.586 363.329 644.854C363.041 645.086 362.794 645.437 362.618 645.973C362.145 647.428 362.855 648.402 363.794 649.074C363.741 649.132 363.377 649.374 363.328 649.471C362.608 648.855 361.738 648.589 361.024 647.961C360.545 647.54 358.984 646.527 358.803 645.147ZM359.208 652.209C358.849 651.881 358.553 651.606 359.078 651.131C359.434 650.81 360.829 650.429 362.018 650.475C364.466 650.738 366.444 651.493 368.665 651.945C368.685 652.145 368.726 652.339 368.794 652.527C367.948 652.591 367.05 652.877 366.277 653.019C365.649 653.136 364.802 653.225 364.102 653.467C363.036 653.528 360.179 653.094 359.208 652.209ZM359.415 657.179C360.297 657.091 361.532 656.975 362.398 656.475C362.508 656.732 362.65 656.976 362.857 657.191C363.636 657.998 364.601 658.395 365.696 658.426C365.726 658.426 365.762 658.421 365.794 658.421C365.835 658.622 362.847 659.591 361.621 659.915C361.029 660.072 360.257 660.468 359.647 660.477C358.787 660.486 357.123 659.883 356.88 658.747C356.303 657.699 358.781 657.241 359.415 657.179ZM385.299 659.028C384.633 659.834 384.034 659.404 383.464 658.907C383.054 658.549 382.612 658.124 382.298 657.685C381.789 656.977 381.354 656.25 380.795 655.62C380.918 655.571 381.022 655.481 381.04 655.293C381.171 653.887 382.695 654.652 383.372 654.954C384.086 655.274 384.488 655.708 385 656.292C385.316 656.651 385.571 656.926 385.771 657.276C385.777 657.325 385.768 657.367 385.782 657.416C385.868 657.742 385.54 658.737 385.299 659.028ZM381.796 660.477C382.184 660.948 382.626 661.377 383.084 661.614C383.59 661.875 384.085 661.878 384.539 661.729C384.7 662.423 385.58 663.106 385.89 663.617C386.149 664.046 386.648 664.894 386.765 665.401C386.868 665.838 386.694 666.094 386.517 666.363C385.956 666.968 385.691 667.68 384.616 667.429C384.455 667.393 384.31 667.331 384.176 667.256C384.113 667.196 384.056 667.126 383.99 667.072C383.961 667.047 383.925 667.045 383.889 667.042C383.12 666.375 382.811 665.086 382.236 664.231C383.237 663.382 381.755 660.586 381.796 660.477ZM395.12 644.749C397.111 646.189 394.195 647.316 392.944 647.819C391.069 648.575 388.859 649.128 386.796 649.471C386.802 649.42 386.83 649.373 386.83 649.324C387.755 649.214 388.763 648.603 389.547 648.276C390.483 647.885 391.648 647.504 391.76 646.453C391.805 646.027 391.551 645.59 391.161 645.204C392.331 644.646 394.269 644.131 395.12 644.749ZM400.74 650.498C400.624 649.2 400.122 647.226 398.581 646.98C398.076 646.898 397.57 646.957 397.073 647.088C397.096 647.021 397.137 646.959 397.152 646.89C397.451 645.412 396.221 643.609 394.779 643.269C394.333 643.161 393.91 643.214 393.501 643.34C393.643 643.245 393.783 643.149 393.915 643.061C395.297 642.136 395.958 640.771 395.029 639.176C394.668 638.555 393.641 637.906 392.68 637.677C393.365 637.011 393.652 635.959 392.977 635.154C392.627 634.738 392.122 634.605 391.653 634.369C391.184 634.139 390.648 633.893 390.134 633.784C389.988 633.752 389.837 633.766 389.688 633.767C390.186 632.766 389.866 632.073 388.734 631.361C387.522 630.599 385.854 630.273 384.55 631.003C383.821 631.408 382.914 632.783 383.025 633.652C382.821 633.64 382.614 633.635 382.411 633.645C382.645 633.179 382.733 632.628 382.608 632.133C382.16 630.337 380.386 630.414 378.894 630.269C378.392 630.222 377.666 630.152 376.95 630.19C377.016 629.668 376.874 629.102 376.468 628.772C375.688 628.136 373.98 628.656 373.073 628.703C371.16 628.802 368.791 629.151 368.899 631.449C368.022 631.485 366.999 631.873 366.303 632.186C366.278 632.196 366.259 632.211 366.234 632.222C365.844 631.715 365.206 631.353 364.568 631.311C363.72 631.254 362.701 631.966 361.999 632.365C361.317 632.751 360.063 633.252 359.75 634.048C359.414 634.9 359.945 635.565 360.308 636.259C359.986 636.312 359.659 636.406 359.309 636.593C358.5 637.02 357.468 638.1 357.223 639.01C357.127 639.37 357.214 639.7 357.374 640.017C356.238 639.424 355.011 638.968 353.865 639.634C353.296 639.964 352.981 640.442 352.971 641.115C352.948 642.523 354.669 643.48 355.187 643.965C355.631 644.379 356.094 644.761 356.559 645.151C356.618 645.391 356.723 645.61 356.84 645.823C356.804 645.815 356.758 645.806 356.726 645.802C356.091 645.66 354.617 645.256 354.481 645.225C352.331 644.731 351.277 648.221 351.543 649.79C351.656 650.453 352.034 650.765 352.516 650.955C352.265 650.973 352.005 650.973 351.773 651.013C350.43 651.242 349.863 652.922 349.798 654.134C349.698 656.035 351.145 656.657 352.746 656.8C353.033 656.826 353.369 656.864 353.72 656.9C352.942 657.149 351.975 657.428 351.32 657.84C349.845 658.774 350.75 660.914 351.425 662.09C352.427 663.831 353.244 664.102 355.13 663.532C355.612 663.385 356.325 663.264 357.056 663.089C357.03 663.145 357.024 663.215 357.006 663.276C355.697 663.359 354.303 663.958 353.403 664.935C352.465 665.954 353.1 667.091 353.76 668.077C354.582 669.309 355.463 670.172 357.071 669.791C357.298 669.736 357.515 669.653 357.726 669.56C357.359 670.655 357.584 671.863 358.783 672.854C359.752 673.658 361.313 674.805 362.631 674.294C363.752 673.86 364.992 672.349 365.553 671.162C365.898 671.318 366.256 671.44 366.619 671.482C366.541 671.647 366.462 671.813 366.367 671.97C365.974 672.618 365.397 673.549 365.238 674.307C364.878 676.021 365.123 677.078 366.488 677.773C367.809 678.443 369.565 679.033 370.827 677.858C371.394 677.333 371.68 676.126 371.534 675.234C371.724 675.29 371.913 675.346 372.133 675.38C371.931 676.183 371.961 677.196 372.107 677.765C372.384 678.833 374.082 679.315 375.031 679.365C375.694 679.402 377.591 679.805 378.535 678.918C378.95 678.53 379.075 678.1 378.902 677.641C379.315 677.789 379.762 677.868 380.218 677.861C381.444 677.841 383.32 677.081 384.013 676.012C384.714 674.932 384.103 673.798 383.425 672.83C383.704 672.759 383.97 672.657 384.224 672.545C384.6 673.737 385.769 675.178 387.054 675.173C388.649 675.169 390.468 674.2 391.606 673.152C392.653 672.184 393.454 671.168 392.311 669.973C392.107 669.759 391.825 669.466 391.508 669.181C392.012 668.86 392.445 668.368 392.849 667.88C393.644 666.916 394.394 665.676 393.577 664.591C393.397 664.351 393.172 664.136 392.922 663.945C392.956 663.934 392.988 663.913 393.019 663.899C393.635 664.149 394.309 664.43 394.952 664.589C396.033 664.859 397.929 664.867 398.578 663.832C399.268 662.737 399.758 659.83 398.695 658.799C399.464 658.398 400.018 657.695 400.089 656.44C400.145 655.455 400.192 654.273 399.504 653.542C400.95 653.246 400.851 651.733 400.74 650.498Z" fill="#CDCCCE"/>
<ellipse cx="398.797" cy="259.245" rx="10.0008" ry="10.0058" fill="#FFDA47"/>
<ellipse cx="281.788" cy="139.175" rx="5.00039" ry="5.0029" fill="#7C58D3"/>
<ellipse cx="1427.88" cy="10.1003" rx="10.0008" ry="10.0058" fill="#7C58D3"/>
<ellipse cx="1660.89" cy="168.192" rx="15.0012" ry="15.0087" fill="#FF47A2"/>
<ellipse cx="10.7664" cy="86.1442" rx="10.0008" ry="10.0058" fill="#FFDA47"/>
</svg>
