<svg width="1922" height="44" viewBox="0 0 1922 44" fill="none" xmlns="http://www.w3.org/2000/svg">
<path d="M1 42.2242C1 42.2242 109.408 7.72912 195.5 1.72416C275.609 -3.8635 322 24.7242 399 24.56C476 24.3959 490.5 42.2242 556.5 42.2242C622.5 42.2242 661.5 24.7242 746.5 24.7242C831.5 24.7242 863 42.2242 918.5 42.2242C974 42.2242 1002.15 10.8575 1099 11.06C1177.5 11.2242 1232 42.2242 1280.5 42.2242C1329 42.2242 1367 11.2242 1435.5 11.06C1504 10.8959 1612.5 48.7239 1676 42.2242C1739.5 35.7242 1894 4.22416 1921 1.72416" stroke="#EBE5F7" stroke-width="2"/>
</svg>
