<svg width="95" height="123" viewBox="0 0 95 123" fill="none" xmlns="http://www.w3.org/2000/svg">
	<g opacity="0.5">
		<path d="M86.4115 66.122C86.1782 64.1465 84.9874 62.4496 83.2254 61.583C81.4639 60.7169 79.4162 60.8209 77.7478 61.8612L73.7278 64.3684C73.0606 64.7841 72.5541 65.3945 72.2622 66.1324C71.9702 66.8707 71.9211 67.6679 72.1199 68.4375C72.3187 69.2071 72.747 69.8768 73.3577 70.3742C73.9687 70.8716 74.7055 71.1497 75.4878 71.1788L75.5403 71.1807C77.5021 71.2679 79.3539 72.1867 80.6288 73.7073C80.9574 74.0991 81.3553 74.4112 81.8017 74.6309C82.0445 74.7502 82.3019 74.8423 82.5708 74.9053C83.3336 75.0835 84.1156 75.0093 84.833 74.6901C85.5496 74.371 86.1342 73.837 86.5226 73.1461C86.911 72.4552 87.0669 71.6725 86.9738 70.8824L86.4115 66.122Z" fill="#EFEFEF"/>
		<path d="M75.717 60.99C76.5364 61.0613 77.3304 60.7489 77.9531 60.1108C78.546 59.5036 78.913 58.6677 78.9866 57.7566C79.0598 56.8455 78.8319 55.9586 78.3449 55.2587C77.8334 54.5232 77.1007 54.0797 76.2821 54.0096C74.6363 53.8678 73.1701 55.3181 73.0133 57.2438C72.8902 58.7773 73.6348 60.1556 74.7746 60.724C75.0657 60.8693 75.3824 60.9617 75.717 60.99Z" fill="#EFEFEF"/>
		<path d="M81.81 59.7217C83.5007 60.4758 85.6338 59.6442 86.5656 57.8681C87.4974 56.0914 86.8805 54.0326 85.1897 53.2782C83.4996 52.5241 81.3662 53.356 80.4344 55.1328C79.5026 56.9089 80.1196 58.9677 81.81 59.7217Z" fill="#EFEFEF"/>
		<path d="M86.9028 63.1607V63.161C87.1315 63.3821 87.3883 63.559 87.6648 63.6925C88.9555 64.3146 90.6681 63.9846 91.8466 62.7774C92.5248 62.0823 92.9318 61.1979 92.9921 60.287C93.0554 59.3338 92.7364 58.4656 92.0935 57.8428C91.4506 57.2199 90.571 56.9262 89.6163 57.0158C88.7041 57.1016 87.8283 57.5317 87.1501 58.2268C85.7193 59.6929 85.6082 61.9062 86.9028 63.1607Z" fill="#EFEFEF"/>
		<path d="M94.6772 65.7107L94.6768 65.7098C93.8651 64.0515 91.7805 63.5048 90.0291 64.4907C88.2788 65.4784 87.5134 67.6308 88.3228 69.2887C88.618 69.8937 89.0827 70.351 89.6389 70.6398C90.6084 71.1435 91.8562 71.1359 92.9706 70.5091C94.7212 69.5214 95.4866 67.369 94.6772 65.7107Z" fill="#EFEFEF"/>
		<path d="M76.4115 13.122C76.1782 11.1465 74.9874 9.44958 73.2254 8.58303C71.4639 7.71685 69.4162 7.82088 67.7478 8.86119L63.7278 11.3684C63.0606 11.7841 62.5541 12.3945 62.2622 13.1324C61.9702 13.8707 61.9211 14.6679 62.1199 15.4375C62.3187 16.2071 62.747 16.8768 63.3577 17.3742C63.9687 17.8716 64.7055 18.1497 65.4878 18.1788L65.5403 18.1807C67.5021 18.2679 69.3539 19.1867 70.6288 20.7073C70.9574 21.0991 71.3553 21.4112 71.8017 21.6309C72.0445 21.7502 72.3019 21.8423 72.5708 21.9053C73.3336 22.0835 74.1156 22.0093 74.833 21.6901C75.5496 21.371 76.1342 20.837 76.5226 20.1461C76.911 19.4552 77.0669 18.6725 76.9738 17.8824L76.4115 13.122Z" fill="#EFEFEF"/>
		<path d="M65.717 7.99002C66.5364 8.06131 67.3304 7.74893 67.9531 7.11075C68.546 6.50363 68.913 5.66768 68.9866 4.7566C69.0598 3.84552 68.8319 2.95859 68.3449 2.25871C67.8334 1.52318 67.1007 1.07972 66.2821 1.00957C64.6363 0.867758 63.1701 2.31812 63.0133 4.24376C62.8902 5.7773 63.6348 7.1556 64.7746 7.72402C65.0657 7.86928 65.3824 7.96165 65.717 7.99002Z" fill="#EFEFEF"/>
		<path d="M71.81 6.72174C73.5007 7.47581 75.6338 6.64422 76.5656 4.86813C77.4974 3.09136 76.8805 1.03261 75.1897 0.2782C73.4996 -0.475874 71.3662 0.356046 70.4344 2.13281C69.5026 3.90891 70.1196 5.96766 71.81 6.72174Z" fill="#EFEFEF"/>
		<path d="M76.9028 10.1607V10.161C77.1315 10.3821 77.3883 10.559 77.6648 10.6925C78.9555 11.3146 80.6681 10.9846 81.8466 9.77741C82.5248 9.08234 82.9318 8.19792 82.9921 7.28703C83.0554 6.33382 82.7364 5.46564 82.0935 4.84277C81.4506 4.21989 80.571 3.92621 79.6163 4.01579C78.7041 4.10159 77.8283 4.53171 77.1501 5.22677C75.7193 6.69288 75.6082 8.90621 76.9028 10.1607Z" fill="#EFEFEF"/>
		<path d="M84.6772 12.7107L84.6768 12.7098C83.8651 11.0515 81.7805 10.5048 80.0291 11.4907C78.2788 12.4784 77.5134 14.6308 78.3228 16.2887C78.618 16.8937 79.0827 17.351 79.6389 17.6398C80.6084 18.1435 81.8562 18.1359 82.9706 17.5091C84.7212 16.5214 85.4866 14.369 84.6772 12.7107Z" fill="#EFEFEF"/>
		<path d="M22.2938 57.8537C22.0139 55.596 20.5847 53.6567 18.4707 52.6663C16.3566 51.6764 13.8992 51.7953 11.8973 52.9842L7.07319 55.8496C6.27284 56.3247 5.66464 57.0223 5.31453 57.8656C4.96437 58.7094 4.9054 59.6204 5.14354 60.5C5.38235 61.3795 5.89614 62.1449 6.62933 62.7133C7.36248 63.2818 8.24641 63.5997 9.18526 63.6329L9.24824 63.6351C11.6023 63.7348 13.8246 64.7848 15.3543 66.5226C15.749 66.9704 16.2261 67.3271 16.762 67.5781C17.0533 67.7145 17.3624 67.8197 17.6848 67.8918C18.6001 68.0955 19.5388 68.0107 20.3995 67.6459C21.2597 67.2811 21.9609 66.6709 22.427 65.8812C22.8931 65.0916 23.0803 64.1972 22.9685 63.2942L22.2938 57.8537Z" fill="#EFEFEF"/>
		<path d="M10.1697 51.9886C11.1255 52.0701 12.052 51.7131 12.7786 50.9837C13.4701 50.2899 13.8984 49.3345 13.9843 48.2933C14.0698 47.252 13.8039 46.2384 13.2358 45.4385C12.6389 44.5979 11.7838 44.0911 10.8291 44.0109C8.90911 43.8489 7.19842 45.5064 7.01548 47.7072C6.87188 49.4598 7.74047 51.035 9.07019 51.6846C9.4097 51.8506 9.77935 51.9562 10.1697 51.9886Z" fill="#EFEFEF"/>
		<path d="M17.0687 51.6422C19.0007 52.6118 21.4388 51.5426 22.5036 49.259C23.5686 46.9746 22.8632 44.3276 20.9312 43.3577C18.9994 42.3882 16.5613 43.4578 15.4963 45.7422C14.4315 48.0257 15.1369 50.6727 17.0687 51.6422Z" fill="#EFEFEF"/>
		<path d="M23.0315 55.0408L23.0317 55.0412C23.2928 55.2939 23.5864 55.496 23.9026 55.6485C25.3777 56.3595 27.3348 55.9824 28.6815 54.6028C29.457 53.8084 29.922 52.7976 29.991 51.7566C30.0634 50.6672 29.6987 49.675 28.9641 48.9632C28.2293 48.2513 27.2238 47.9157 26.1327 48.018C25.0904 48.1161 24.0895 48.6077 23.3144 49.402C21.6792 51.0776 21.5523 53.6071 23.0315 55.0408Z" fill="#EFEFEF"/>
		<path d="M29.6771 58.7107L29.6769 58.7098C28.8651 57.0515 26.7805 56.5048 25.0292 57.4907C23.2787 58.4784 22.5134 60.6308 23.3229 62.2887C23.618 62.8937 24.0827 63.351 24.639 63.6398C25.6084 64.1435 26.8564 64.1359 27.9708 63.5091C29.7211 62.5214 30.4866 60.369 29.6771 58.7107Z" fill="#EFEFEF"/>
		<path d="M20.1761 110.951C19.8495 108.27 18.1823 105.967 15.7156 104.791C13.2494 103.616 10.3822 103.757 8.04692 105.169L2.41872 108.571C1.48498 109.136 0.775415 109.964 0.36695 110.965C-0.0415668 111.967 -0.110372 113.049 0.167467 114.094C0.446076 115.138 1.0455 116.047 1.90089 116.722C2.75623 117.397 3.78748 117.775 4.88292 117.814L4.95634 117.817C7.7029 117.935 10.2954 119.182 12.0802 121.246C12.5403 121.777 13.0969 122.201 13.7223 122.499C14.0622 122.661 14.4227 122.786 14.799 122.871C15.8671 123.113 16.9618 123.013 17.9661 122.579C18.9695 122.146 19.7879 121.422 20.3317 120.484C20.8755 119.546 21.0937 118.484 20.9633 117.412L20.1761 110.951Z" fill="#EFEFEF"/>
		<path d="M5.62263 103.987C6.7151 104.079 7.77386 103.677 8.60411 102.857C9.39471 102.076 9.88394 101.001 9.98209 99.8299C10.0797 98.6585 9.77589 97.5182 9.12655 96.6183C8.44451 95.6727 7.46753 95.1025 6.37606 95.0123C4.18171 94.83 2.22677 96.6947 2.01769 99.1705C1.85358 101.142 2.84626 102.914 4.3661 103.645C4.75421 103.832 5.17653 103.951 5.62263 103.987Z" fill="#EFEFEF"/>
		<path d="M14.3272 103.602C16.501 104.68 19.2435 103.492 20.4415 100.954C21.6395 98.4162 20.8463 95.4752 18.6725 94.3974C16.4996 93.3202 13.7566 94.5086 12.5582 97.0469C11.3606 99.5842 12.1539 102.525 14.3272 103.602Z" fill="#EFEFEF"/>
		<path d="M21.1607 108.921V108.921C21.4547 109.206 21.7849 109.433 22.1404 109.605C23.8 110.404 26.0018 109.98 27.5171 108.428C28.389 107.534 28.9123 106.397 28.9898 105.226C29.0713 104.001 28.6611 102.884 27.8345 102.084C27.0079 101.283 25.877 100.905 24.6495 101.02C23.4767 101.131 22.3506 101.684 21.4786 102.577C19.6391 104.462 19.4962 107.308 21.1607 108.921Z" fill="#EFEFEF"/>
		<path d="M29.6311 111.955L29.6306 111.954C28.703 110.059 26.3205 109.434 24.3189 110.561C22.3187 111.69 21.4439 114.149 22.3689 116.044C22.7062 116.736 23.2374 117.258 23.873 117.588C24.981 118.164 26.4071 118.155 27.6806 117.439C29.6813 116.31 30.5561 113.85 29.6311 111.955Z" fill="#EFEFEF"/>
	</g>
</svg>