<svg width="1920" height="733" viewBox="0 0 1920 733" fill="none" xmlns="http://www.w3.org/2000/svg">
<path d="M1628.47 259.805C1627.86 254.865 1624.77 250.624 1620.19 248.458C1615.61 246.292 1610.28 246.552 1605.94 249.153L1595.49 255.421C1593.76 256.46 1592.44 257.986 1591.68 259.831C1590.92 261.677 1590.8 263.67 1591.31 265.594C1591.83 267.518 1592.94 269.192 1594.53 270.435C1596.12 271.679 1598.03 272.374 1600.07 272.447L1600.2 272.452C1605.31 272.67 1610.12 274.967 1613.43 278.768C1614.29 279.748 1615.32 280.528 1616.48 281.077C1617.12 281.375 1617.79 281.606 1618.48 281.763C1620.47 282.209 1622.5 282.023 1624.37 281.225C1626.23 280.427 1627.75 279.093 1628.76 277.365C1629.77 275.638 1630.17 273.681 1629.93 271.706L1628.47 259.805Z" fill="#EFEFEF"/>
<path d="M1601.79 246.976C1603.84 247.149 1605.83 246.39 1607.38 244.84C1608.87 243.366 1609.78 241.336 1609.97 239.123C1610.15 236.911 1609.58 234.757 1608.36 233.057C1607.08 231.271 1605.25 230.194 1603.21 230.023C1599.09 229.679 1595.43 233.201 1595.03 237.878C1594.73 241.602 1596.59 244.949 1599.44 246.33C1600.16 246.683 1600.96 246.907 1601.79 246.976Z" fill="#EFEFEF"/>
<path d="M1616.65 246.205C1621 248.359 1626.49 245.983 1628.88 240.909C1631.28 235.832 1629.69 229.95 1625.34 227.795C1621 225.64 1615.51 228.017 1613.12 233.094C1610.72 238.168 1612.31 244.05 1616.65 246.205Z" fill="#EFEFEF"/>
<path d="M1629.19 253.962V253.963C1629.75 254.499 1630.37 254.929 1631.04 255.253C1634.18 256.764 1638.34 255.963 1641.2 253.031C1642.85 251.343 1643.83 249.195 1643.98 246.983C1644.13 244.668 1643.36 242.559 1641.8 241.047C1640.24 239.534 1638.1 238.821 1635.78 239.038C1633.57 239.247 1631.44 240.291 1629.79 241.979C1626.32 245.54 1626.05 250.915 1629.19 253.962Z" fill="#EFEFEF"/>
<path d="M1646.22 261.91L1646.22 261.908C1644.24 258.118 1639.18 256.868 1634.93 259.122C1630.68 261.379 1628.82 266.299 1630.78 270.089C1631.5 271.471 1632.63 272.517 1633.98 273.177C1636.33 274.328 1639.37 274.311 1642.07 272.878C1646.32 270.62 1648.18 265.701 1646.22 261.91Z" fill="#EFEFEF"/>
<path d="M1708.47 33.8049C1707.86 28.8653 1704.77 24.6239 1700.19 22.4576C1695.61 20.2921 1690.28 20.5522 1685.94 23.153L1675.49 29.4209C1673.76 30.4603 1672.44 31.9863 1671.68 33.831C1670.92 35.6767 1670.79 37.6697 1671.31 39.5937C1671.83 41.5177 1672.94 43.1919 1674.53 44.4354C1676.12 45.679 1678.03 46.3744 1680.07 46.4471L1680.2 46.4517C1685.31 46.6699 1690.12 48.9667 1693.43 52.7681C1694.29 53.7479 1695.32 54.5281 1696.48 55.0771C1697.12 55.3754 1697.79 55.6057 1698.48 55.7632C1700.47 56.2088 1702.5 56.0233 1704.37 55.2254C1706.23 54.4274 1707.75 53.0925 1708.76 51.3652C1709.77 49.6379 1710.17 47.6813 1709.93 45.706L1708.47 33.8049Z" fill="#EFEFEF"/>
<path d="M1680.79 20.9758C1682.84 21.1489 1684.83 20.3902 1686.38 18.8406C1687.87 17.3663 1688.78 15.3359 1688.97 13.1227C1689.15 10.9106 1688.58 8.75636 1687.36 7.05615C1686.08 5.27057 1684.25 4.19301 1682.21 4.02331C1678.09 3.67843 1674.43 7.2009 1674.03 11.8777C1673.73 15.6023 1675.59 18.9494 1678.44 20.3297C1679.16 20.6825 1679.96 20.9069 1680.79 20.9758Z" fill="#EFEFEF"/>
<path d="M1696.65 19.2048C1701 21.3595 1706.49 18.9838 1708.88 13.9088C1711.28 8.83252 1709.69 2.94972 1705.34 0.794902C1701 -1.35963 1695.51 1.01713 1693.12 6.09349C1690.72 11.1685 1692.31 17.0502 1696.65 19.2048Z" fill="#EFEFEF"/>
<path d="M1709.19 27.9616V27.9625C1709.75 28.4995 1710.37 28.9291 1711.04 29.2531C1714.18 30.764 1718.34 29.9626 1721.2 27.0308C1722.85 25.3428 1723.83 23.1948 1723.98 20.9827C1724.13 18.6673 1723.36 16.5591 1721.8 15.0464C1720.24 13.5335 1718.1 12.8208 1715.78 13.0384C1713.57 13.2463 1711.44 14.2908 1709.79 15.9789C1706.32 19.5397 1706.05 24.915 1709.19 27.9616Z" fill="#EFEFEF"/>
<path d="M1726.22 34.9101L1726.22 34.9082C1724.24 31.1177 1719.18 29.868 1714.93 32.1217C1710.68 34.3792 1708.82 39.299 1710.78 43.0885C1711.5 44.4712 1712.63 45.5166 1713.98 46.1766C1716.33 47.3281 1719.37 47.3107 1722.07 45.878C1726.32 43.6204 1728.18 38.7006 1726.22 34.9101Z" fill="#EFEFEF"/>
<path d="M1764.47 179.805C1763.86 174.866 1760.77 170.624 1756.19 168.458C1751.61 166.292 1746.28 166.552 1741.94 169.153L1731.49 175.421C1729.76 176.46 1728.44 177.986 1727.68 179.831C1726.92 181.677 1726.79 183.67 1727.31 185.594C1727.83 187.518 1728.94 189.192 1730.53 190.435C1732.12 191.679 1734.03 192.374 1736.07 192.447L1736.2 192.452C1741.31 192.67 1746.12 194.967 1749.43 198.768C1750.29 199.748 1751.32 200.528 1752.48 201.077C1753.12 201.375 1753.79 201.606 1754.48 201.763C1756.47 202.209 1758.5 202.023 1760.37 201.225C1762.23 200.427 1763.75 199.093 1764.76 197.365C1765.77 195.638 1766.17 193.681 1765.93 191.706L1764.47 179.805Z" fill="#EFEFEF"/>
<path d="M1737.79 166.976C1739.84 167.149 1741.83 166.39 1743.38 164.84C1744.87 163.366 1745.78 161.336 1745.97 159.123C1746.15 156.911 1745.58 154.757 1744.36 153.057C1743.08 151.271 1741.25 150.194 1739.21 150.023C1735.09 149.679 1731.43 153.201 1731.03 157.878C1730.73 161.602 1732.59 164.949 1735.44 166.33C1736.16 166.683 1736.96 166.907 1737.79 166.976Z" fill="#EFEFEF"/>
<path d="M1752.65 165.205C1757 167.359 1762.49 164.983 1764.88 159.909C1767.28 154.832 1765.69 148.95 1761.34 146.795C1757 144.64 1751.51 147.017 1749.12 152.094C1746.72 157.168 1748.31 163.05 1752.65 165.205Z" fill="#EFEFEF"/>
<path d="M1765.19 173.962V173.963C1765.75 174.499 1766.37 174.929 1767.04 175.253C1770.18 176.764 1774.34 175.963 1777.2 173.031C1778.85 171.343 1779.83 169.195 1779.98 166.983C1780.13 164.668 1779.36 162.559 1777.8 161.047C1776.24 159.534 1774.1 158.821 1771.78 159.038C1769.57 159.247 1767.44 160.291 1765.79 161.979C1762.32 165.54 1762.05 170.915 1765.19 173.962Z" fill="#EFEFEF"/>
<path d="M1783.22 180.91L1783.22 180.908C1781.24 177.118 1776.18 175.868 1771.93 178.122C1767.68 180.379 1765.82 185.299 1767.78 189.089C1768.5 190.471 1769.63 191.517 1770.98 192.177C1773.33 193.328 1776.37 193.311 1779.07 191.878C1783.32 189.62 1785.18 184.701 1783.22 180.91Z" fill="#EFEFEF"/>
<path d="M1911.47 259.805C1910.86 254.865 1907.77 250.624 1903.19 248.458C1898.61 246.292 1893.28 246.552 1888.94 249.153L1878.49 255.421C1876.76 256.46 1875.44 257.986 1874.68 259.831C1873.92 261.677 1873.79 263.67 1874.31 265.594C1874.83 267.518 1875.94 269.192 1877.53 270.435C1879.12 271.679 1881.03 272.374 1883.07 272.447L1883.2 272.452C1888.31 272.67 1893.12 274.967 1896.43 278.768C1897.29 279.748 1898.32 280.528 1899.48 281.077C1900.12 281.375 1900.79 281.606 1901.48 281.763C1903.47 282.209 1905.5 282.023 1907.37 281.225C1909.23 280.427 1910.75 279.093 1911.76 277.365C1912.77 275.638 1913.17 273.681 1912.93 271.706L1911.47 259.805Z" fill="#EFEFEF"/>
<path d="M1884.79 246.976C1886.84 247.149 1888.83 246.39 1890.38 244.84C1891.87 243.366 1892.78 241.336 1892.97 239.123C1893.15 236.911 1892.58 234.757 1891.36 233.057C1890.08 231.271 1888.25 230.194 1886.21 230.023C1882.09 229.679 1878.43 233.201 1878.03 237.878C1877.73 241.602 1879.59 244.949 1882.44 246.33C1883.16 246.683 1883.96 246.907 1884.79 246.976Z" fill="#EFEFEF"/>
<path d="M1899.65 245.205C1904 247.359 1909.49 244.983 1911.88 239.909C1914.28 234.832 1912.69 228.95 1908.34 226.795C1904 224.64 1898.51 227.017 1896.12 232.094C1893.72 237.168 1895.31 243.05 1899.65 245.205Z" fill="#EFEFEF"/>
<path d="M1912.19 253.962V253.963C1912.75 254.499 1913.37 254.929 1914.04 255.253C1917.18 256.764 1921.34 255.963 1924.2 253.031C1925.85 251.343 1926.83 249.195 1926.98 246.983C1927.13 244.668 1926.36 242.559 1924.8 241.047C1923.24 239.534 1921.1 238.821 1918.78 239.038C1916.57 239.247 1914.44 240.291 1912.79 241.979C1909.32 245.54 1909.05 250.915 1912.19 253.962Z" fill="#EFEFEF"/>
<path d="M1929.22 261.91L1929.22 261.908C1927.24 258.118 1922.18 256.868 1917.93 259.122C1913.68 261.379 1911.82 266.299 1913.78 270.089C1914.5 271.471 1915.63 272.517 1916.98 273.177C1919.33 274.328 1922.37 274.311 1925.07 272.878C1929.32 270.62 1931.18 265.701 1929.22 261.91Z" fill="#EFEFEF"/>
<path d="M1910.47 33.805C1909.86 28.866 1906.77 24.6239 1902.19 22.4579C1897.61 20.292 1892.28 20.5521 1887.94 23.1533L1877.49 29.4207C1875.76 30.4604 1874.44 31.9861 1873.68 33.8314C1872.92 35.6772 1872.79 37.6695 1873.31 39.5941C1873.83 41.518 1874.94 43.1922 1876.53 44.4358C1878.12 45.6794 1880.03 46.3747 1882.07 46.4472L1882.2 46.4516C1887.31 46.67 1892.12 48.9671 1895.43 52.7678C1896.29 53.748 1897.32 54.5281 1898.48 55.0771C1899.12 55.3756 1899.79 55.6058 1900.48 55.7632C1902.47 56.209 1904.5 56.023 1906.37 55.2251C1908.23 54.4273 1909.75 53.0924 1910.76 51.3649C1911.77 49.6375 1912.17 47.6809 1911.93 45.7058L1910.47 33.805Z" fill="#EFEFEF"/>
<path d="M1883.79 20.9759C1885.84 21.1483 1887.83 20.3901 1889.38 18.8405C1890.87 17.3662 1891.78 15.3357 1891.97 13.1226C1892.15 10.9105 1891.58 8.75631 1890.36 7.05611C1889.08 5.27056 1887.25 4.19301 1885.21 4.02331C1881.09 3.67843 1877.43 7.20086 1877.03 11.8776C1876.73 15.6021 1878.59 18.9492 1881.44 20.3297C1882.16 20.6823 1882.96 20.9064 1883.79 20.9759Z" fill="#EFEFEF"/>
<path d="M1898.65 19.2048C1903 21.3595 1908.49 18.9838 1910.88 13.9088C1913.28 8.83252 1911.69 2.94972 1907.34 0.794902C1903 -1.35963 1897.51 1.01713 1895.12 6.09349C1892.72 11.1685 1894.31 17.0502 1898.65 19.2048Z" fill="#EFEFEF"/>
<path d="M1912.19 27.9618V27.962C1912.75 28.4995 1913.37 28.9291 1914.04 29.2529C1917.18 30.7639 1921.34 29.963 1924.2 27.0308C1925.85 25.3431 1926.83 23.1951 1926.98 20.983C1927.13 18.6673 1926.36 16.5591 1924.8 15.0464C1923.24 13.5335 1921.1 12.8208 1918.78 13.0384C1916.57 13.2463 1914.44 14.2908 1912.79 15.9789C1909.32 19.5397 1909.05 24.9152 1912.19 27.9618Z" fill="#EFEFEF"/>
<path d="M1929.22 34.9103L1929.22 34.9083C1927.24 31.1181 1922.18 29.8677 1917.93 32.1218C1913.68 34.3789 1911.82 39.2988 1913.78 43.0885C1914.5 44.4711 1915.63 45.5162 1916.98 46.1767C1919.33 47.3279 1922.37 47.3109 1925.07 45.8779C1929.32 43.6207 1931.18 38.7009 1929.22 34.9103Z" fill="#EFEFEF"/>
<path d="M28.4307 709.537C27.8086 704.316 24.6327 699.831 19.9348 697.541C15.2368 695.252 9.77594 695.527 5.32744 698.276L-5.39291 704.902C-7.17147 706.001 -8.52302 707.614 -9.30105 709.564C-10.0792 711.515 -10.2102 713.622 -9.68102 715.656C-9.15033 717.69 -8.00857 719.46 -6.37926 720.775C-4.75005 722.089 -2.78576 722.824 -0.699415 722.901L-0.559459 722.906C4.67167 723.137 9.61026 725.565 13.0096 729.583C13.8866 730.619 14.9469 731.444 16.1378 732.024C16.7851 732.34 17.472 732.583 18.1884 732.75C20.2225 733.221 22.3085 733.025 24.2211 732.181C26.1326 731.338 27.6908 729.926 28.7267 728.1C29.7625 726.274 30.1785 724.206 29.93 722.118L28.4307 709.537Z" fill="#EFEFEF"/>
<path d="M1.24501 695.974C3.42972 696.158 5.54752 695.354 7.20822 693.713C8.78891 692.152 9.76766 690.003 9.96414 687.66C10.1595 685.317 9.55184 683.036 8.25319 681.237C6.8889 679.345 4.93448 678.205 2.75224 678.025C-1.63632 677.66 -5.54646 681.389 -5.96461 686.341C-6.29284 690.284 -4.30749 693.829 -1.26814 695.29C-0.492117 695.664 0.352802 695.901 1.24501 695.974Z" fill="#EFEFEF"/>
<path d="M16.9131 695.165C21.5016 697.427 27.2921 694.933 29.821 689.604C32.3504 684.274 30.6751 678.098 26.0866 675.835C21.4986 673.572 15.7081 676.068 13.1787 681.398C10.6498 686.727 12.3252 692.903 16.9131 695.165Z" fill="#EFEFEF"/>
<path d="M30.3208 703.842L30.3213 703.843C30.9089 704.411 31.5695 704.866 32.2807 705.209C35.5999 706.809 40.0032 705.96 43.0334 702.856C44.7781 701.069 45.8245 698.795 45.9797 696.452C46.1426 694.001 45.3221 691.769 43.6693 690.167C42.016 688.565 39.7536 687.81 37.2985 688.041C34.9533 688.261 32.7013 689.367 30.9575 691.155C27.2782 694.925 26.9927 700.616 30.3208 703.842Z" fill="#EFEFEF"/>
<path d="M47.2159 711.91L47.2152 711.908C45.2438 708.118 40.1811 706.868 35.9281 709.122C31.6769 711.379 29.8182 716.299 31.7842 720.089C32.5009 721.471 33.6294 722.517 34.9803 723.177C37.3346 724.328 40.3655 724.311 43.0719 722.878C47.3227 720.62 49.1819 715.701 47.2159 711.91Z" fill="#EFEFEF"/>
<path d="M207.431 651.537C206.809 646.316 203.633 641.831 198.934 639.541C194.237 637.252 188.776 637.527 184.327 640.276L173.607 646.902C171.829 648.001 170.477 649.614 169.699 651.564C168.921 653.515 168.79 655.622 169.319 657.656C169.85 659.69 170.991 661.46 172.621 662.775C174.25 664.089 176.214 664.824 178.301 664.901L178.441 664.906C183.672 665.137 188.61 667.565 192.01 671.583C192.886 672.619 193.946 673.444 195.138 674.024C195.785 674.34 196.472 674.583 197.189 674.75C199.223 675.221 201.308 675.025 203.221 674.181C205.132 673.338 206.691 671.926 207.727 670.1C208.763 668.274 209.178 666.206 208.93 664.118L207.431 651.537Z" fill="#EFEFEF"/>
<path d="M180.245 637.974C182.43 638.158 184.548 637.354 186.208 635.713C187.789 634.152 188.768 632.003 188.964 629.66C189.159 627.317 188.552 625.036 187.253 623.237C185.889 621.345 183.935 620.205 181.752 620.025C177.363 619.66 173.454 623.389 173.035 628.341C172.707 632.284 174.693 635.829 177.732 637.29C178.508 637.664 179.353 637.901 180.245 637.974Z" fill="#EFEFEF"/>
<path d="M195.913 636.165C200.502 638.427 206.292 635.933 208.821 630.604C211.35 625.274 209.676 619.098 205.086 616.835C200.499 614.572 194.708 617.068 192.178 622.398C189.65 627.727 191.325 633.903 195.913 636.165Z" fill="#EFEFEF"/>
<path d="M209.321 645.842V645.843C209.909 646.411 210.57 646.866 211.281 647.209C214.6 648.809 219.004 647.96 222.034 644.856C223.778 643.069 224.825 640.795 224.98 638.452C225.143 636.001 224.322 633.769 222.669 632.167C221.016 630.565 218.754 629.81 216.299 630.041C213.953 630.261 211.701 631.367 209.957 633.155C206.278 636.925 205.992 642.616 209.321 645.842Z" fill="#EFEFEF"/>
<path d="M226.216 652.91L226.215 652.908C224.244 649.118 219.181 647.868 214.928 650.122C210.677 652.379 208.818 657.299 210.784 661.089C211.501 662.471 212.629 663.517 213.98 664.177C216.335 665.328 219.365 665.311 222.071 663.878C226.323 661.62 228.182 656.701 226.216 652.91Z" fill="#EFEFEF"/>
<path d="M111.666 521.342C111.137 516.967 108.438 513.21 104.444 511.291C100.451 509.373 95.8102 509.603 92.0284 511.907L82.9162 517.459C81.4041 518.379 80.256 519.731 79.5943 521.365C78.9325 522.999 78.8211 524.765 79.2717 526.469C79.7223 528.173 80.6933 529.656 82.0774 530.757C83.4624 531.859 85.1326 532.474 86.9058 532.539L87.0247 532.543C91.4714 532.736 95.6688 534.771 98.5585 538.138C99.3034 539.005 100.205 539.696 101.217 540.183C101.767 540.447 102.351 540.651 102.96 540.79C104.69 541.185 106.462 541.021 108.088 540.314C109.712 539.607 111.038 538.425 111.918 536.895C112.798 535.365 113.152 533.632 112.941 531.882L111.666 521.342Z" fill="#EFEFEF"/>
<path d="M87.8869 509.979C89.6621 510.131 91.3826 509.462 92.7317 508.094C94.0164 506.793 94.8114 505.002 94.9709 503.05C95.1296 501.098 94.6358 499.197 93.5807 497.697C92.4723 496.121 90.8848 495.171 89.1112 495.021C85.5454 494.717 82.3686 497.825 82.0287 501.951C81.7621 505.237 83.3755 508.191 85.845 509.409C86.4757 509.72 87.1619 509.918 87.8869 509.979Z" fill="#EFEFEF"/>
<path d="M101.137 508.324C105.002 510.156 109.877 508.136 112.007 503.823C114.137 499.508 112.727 494.508 108.862 492.676C104.999 490.844 100.123 492.865 97.9929 497.18C95.8631 501.493 97.2733 506.493 101.137 508.324Z" fill="#EFEFEF"/>
<path d="M112.934 516.201V516.202C113.425 516.676 113.975 517.055 114.567 517.341C117.333 518.674 121.003 517.967 123.528 515.38C124.982 513.891 125.854 511.996 125.983 510.044C126.119 508.001 125.435 506.141 124.058 504.806C122.68 503.471 120.795 502.842 118.749 503.034C116.794 503.218 114.918 504.139 113.464 505.629C110.399 508.77 110.16 513.513 112.934 516.201Z" fill="#EFEFEF"/>
<path d="M128.308 522.421L128.307 522.42C126.568 519.103 122.101 518.01 118.348 519.981C114.598 521.957 112.957 526.262 114.692 529.577C115.324 530.787 116.32 531.702 117.512 532.28C119.589 533.287 122.263 533.272 124.651 532.018C128.403 530.043 130.043 525.738 128.308 522.421Z" fill="#EFEFEF"/>
</svg>
