<svg width="212" height="258" viewBox="0 0 212 258" fill="none" xmlns="http://www.w3.org/2000/svg">
<path fill-rule="evenodd" clip-rule="evenodd" d="M208.377 73.9991C207.041 74.7233 208.888 76.1855 208.314 77.0268C207.747 77.8521 206.551 78.1795 205.909 78.9771C205.601 79.3581 205.962 80.3184 205.971 81.0148C205.982 82.0544 205.549 82.6258 204.492 82.4016C202.91 82.0683 201.337 81.6913 199.751 81.3897C197.804 81.0187 196.117 81.4651 194.523 82.8599C191.928 85.1317 189.418 87.4054 187.757 90.6137C185.893 94.2148 183.75 97.6512 181.867 101.242C178.477 107.706 177.37 114.855 176.784 122.077C176.165 129.708 175.722 137.356 175.373 145.005C174.907 155.259 173.744 165.435 170.425 175.084C167.101 184.748 159.31 196.752 152.785 204.4C150.508 207.067 148.033 209.366 143.937 210.7C144.451 208.835 144.654 207.604 145.12 206.499C147.203 201.575 147.625 196.398 147.368 191.105C147.306 189.827 147.323 188.541 147.186 187.276C146.946 185.067 147.654 183.371 148.648 181.302C150.786 176.853 151.46 173.984 152.708 170.258C153.376 168.264 153.928 166.215 154.353 164.149C155.004 160.971 155.779 157.778 156.008 154.552C156.445 148.342 156.804 142.1 156.701 135.88C156.579 128.396 155.796 120.926 155.588 113.442C155.492 109.929 156.034 106.391 156.35 102.871C156.963 96.0381 159.36 89.7804 161.716 83.4591C164.021 77.2668 167.57 72.0349 171.658 67.1461C175.179 62.9359 179.211 59.5431 184.806 58.8428C191.562 57.9956 197.855 59.0253 203.503 63.2871C205.986 65.162 207.557 67.8048 209.012 70.5289C209.676 71.7749 210.234 72.9932 208.377 73.9991ZM129.772 227.534C132.178 227.794 132.296 227.896 133.603 226.181C134.635 224.828 135.607 224.667 137.092 225.197C141.501 226.773 145.366 229.286 148.744 232.602C149.686 233.524 150.469 234.806 150.906 236.084C151.415 237.572 151.269 239.177 149.992 240.391C149.294 241.058 148.438 240.937 148.102 240.03C147.708 238.973 147.58 237.739 146.98 236.852C146.345 235.911 145.527 235.022 144.673 234.302C144.337 234.016 143.325 233.397 142.92 233.818C142.229 234.534 144.204 236.116 144.568 236.58C145.711 238.046 146.428 239.709 146.402 241.643C146.385 242.931 145.499 244.099 144.489 243.885C143.271 243.625 142.978 242.346 142.635 241.276C142.188 239.887 141.625 238.719 140.619 237.661C140.33 237.358 140.001 237.066 139.601 236.973C138.105 236.62 138.614 238.201 139.203 238.84C140.377 240.109 140.788 241.939 141.152 243.671C141.266 244.218 141.383 244.788 141.266 245.336C140.988 246.645 139.966 246.379 139.057 246.066C135.206 244.742 131.361 243.401 127.517 242.06C124.094 240.865 120.147 238.812 116.539 238.514C116.312 238.145 116.07 237.782 115.779 237.427C112.306 233.203 110.366 228.316 110.803 222.632C111.062 219.249 111.3 215.822 112.017 212.529C113.311 206.595 114.81 200.696 116.496 194.873C118.566 187.722 118.868 180.357 119.289 173.004C119.538 168.631 119.488 164.241 119.563 159.858C119.568 159.439 119.559 158.995 119.437 158.604C119.373 158.401 119.05 158.189 118.836 158.177C118.636 158.165 118.256 158.399 118.241 158.554C118.082 160.378 117.864 162.209 117.877 164.036C117.945 172.56 117.707 181.071 115.92 189.411C114.613 195.494 112.793 201.454 111.477 207.537C110.403 212.507 109.617 217.557 108.935 222.604C108.451 226.191 109.129 229.644 110.904 232.838C112.096 234.981 114.039 237.774 114.551 240.111C113.816 239.467 113.134 238.756 112.352 238.167C111.89 237.82 110.919 237.911 110.876 238.639C110.856 238.961 111 239.268 111.165 239.542C111.567 240.207 112.111 240.76 112.549 241.399C112.988 242.038 113.322 242.818 113.207 243.597C113.089 244.401 112.455 245.088 111.698 245.234C111.576 245.256 111.443 245.266 111.334 245.205C111.222 245.145 111.154 245.022 111.096 244.907C110.863 244.427 109.243 237.959 108.106 240.679C107.7 241.645 108.72 243.504 108.999 244.403C107.197 245.304 105.669 245.022 104.198 244.127C102.687 243.209 101.157 242.318 99.7007 241.31C91.3557 235.54 92.5682 235.157 90.8714 227.207C90.8114 226.931 90.7813 226.648 90.7644 226.364C90.1788 216.89 89.4712 207.42 89.047 197.938C88.5158 186.048 87.72 174.207 84.8933 162.628C84.7825 162.175 84.3846 161.8 83.9003 161.046C83.2716 163.385 83.9717 165.137 84.2345 166.907C85.0866 172.651 86.9523 194.359 87.5191 199.41C88.422 207.454 88.8969 227.269 89.0827 229.1C89.276 231.024 89.6852 232.81 90.3158 234.455C89.3379 234.842 88.1949 234.709 87.1607 234.768C86.3235 234.82 85.5052 234.86 84.6774 234.881C83.8928 234.866 83.0426 234.927 81.952 235.042C79.42 235.306 76.8673 235.431 74.324 235.441C72.0323 235.449 71.8239 235.09 72.1111 232.63C72.6029 228.425 73.2786 224.239 73.5751 220.021C74.0819 212.801 74.309 197.396 74.9359 191.95C75.6942 185.349 76.7191 178.778 77.3478 172.165C77.7082 168.377 77.5111 164.532 77.5149 160.711C77.5149 160.413 77.1076 160.114 76.8899 159.816C76.6177 160.074 76.1841 160.282 76.1015 160.598C75.8876 161.409 75.7299 162.262 75.7243 163.104C75.6623 171.496 74.7351 179.798 73.622 188.097C73.0026 192.728 72.479 197.396 72.2913 202.069C71.8502 212.991 71.4166 223.898 69.5077 234.683C68.3027 241.486 65.3408 246.619 58.6532 248.576C56.1549 249.308 55.8621 249.064 56.0048 246.385C56.0423 245.655 56.0536 244.853 55.712 244.286C54.3343 245.042 53.621 246.629 53.4577 248.206C53.3001 249.722 52.4498 250.131 51.2072 249.814C49.9534 249.496 49.4767 248.562 49.7301 247.238C49.8821 246.455 50.1317 245.998 50.0717 245.159C49.9835 244.016 48.6715 245.028 48.4143 245.506C47.7142 246.804 47.2037 248.216 46.573 249.691C44.7336 248.256 45.4919 246.568 46.2239 245.127C48.2135 241.211 49.3115 236.967 50.6385 232.794C51.7234 229.388 52.1382 225.925 52.2752 222.358C52.6056 213.898 50.6498 205.724 49.4016 197.488C48.3655 190.655 46.4454 183.972 44.91 177.224C44.3769 174.883 41.0115 160.927 40.7788 160.427C40.6924 160.235 40.2889 160.001 40.1688 160.066C39.8534 160.243 39.4443 160.534 39.3823 160.848C39.2772 161.382 39.3223 161.993 39.4611 162.522C40.2814 165.655 41.1448 168.776 41.9969 171.901C45.4224 184.464 47.7423 197.293 49.67 210.178C50.6911 217.015 51.3668 224.023 49.4523 230.903C48.694 233.628 48.0032 236.383 47.0666 239.04C46.7325 239.988 45.8917 240.887 45.0639 241.457C43.842 242.298 42.4361 242.849 41.0904 243.478C39.4931 244.226 37.7662 244.738 36.2872 245.685C32.4 248.179 28.6141 250.853 24.7888 253.458C23.2403 254.514 22.7261 255.085 21.3164 253.782C20.331 252.873 20.0213 251.877 20.0664 250.54C20.1246 248.74 20.0082 245.933 18.6849 249.318C18.2288 250.486 17.784 251.665 17.4105 252.865C16.8905 254.534 16.0609 255.097 14.4505 254.617C13.0484 254.198 13.6734 253.24 13.8705 252.248C14.3435 249.879 14.6288 247.466 15.0305 244.804C11.468 246.101 12.17 250.129 10.3324 252.337C7.49254 249.691 7.3086 249.2 8.55116 246.242C8.97535 245.23 9.67922 244.332 10.3418 243.451C13.191 239.671 16.731 236.669 20.2522 233.639C21.1475 232.868 21.9227 233.13 22.865 233.356C24.4059 233.725 25.9845 233.941 27.5574 234.114C27.7845 234.139 28.2124 233.59 28.2706 233.253C28.3063 233.052 27.8333 232.604 27.5255 232.514C25.5978 231.959 23.5782 231.681 21.7294 230.929C14.809 228.114 9.69423 222.8 5.72444 216.479C2.98406 212.112 2.71565 208.225 2.6706 205.829C2.51481 197.396 4.70336 187.641 6.98013 181.095C8.45355 176.861 11.0888 173.165 13.1816 169.217C14.5669 166.604 15.4265 163.989 15.419 160.802C15.3984 153.729 15.7062 146.628 16.3575 139.59C16.7817 134.978 17.6864 130.333 19.0265 125.924C20.3592 121.541 22.4914 117.428 24.3159 113.22C24.5092 112.772 24.9991 112.47 25.4702 111.974C26.6414 113.274 27.593 114.472 28.6873 115.5C29.7797 116.524 30.9172 117.581 32.2066 118.26C36.5894 120.563 36.6157 120.5 38.2655 115.801C38.3237 115.633 38.6428 115.569 38.9825 115.375C40.7469 118.694 43.5511 120.702 46.8114 122.426C47.1248 121.024 48.2247 118.736 48.3186 118.795C48.7766 119.087 49.2721 119.347 49.6587 119.726C52.7351 122.746 56.5285 123.982 60.5133 124.966C62.4747 125.45 64.1246 125.474 65.4797 124.222C65.5867 124.391 65.7294 124.527 65.9227 124.547C67.0245 124.652 68.0381 124.004 69.0835 123.738C69.5659 123.619 70.159 123.571 70.7353 123.478C71.2664 123.557 71.7563 123.629 72.2312 123.694C78.5716 124.569 84.8144 124.801 90.4735 120.809C91.0197 120.422 91.6992 120.226 92.3373 120.016C93.3716 119.678 94.2406 119.599 93.9722 121.274C93.7545 122.629 94.5447 123.073 95.6502 122.946C96.3034 122.871 96.9772 122.672 97.5666 122.367C103.303 119.397 109.975 118.377 114.681 113.22C114.902 112.978 115.839 113.099 116.025 113.258C119.668 116.381 123.06 126.968 124.18 130.011C126.71 136.876 129.852 143.576 130.631 150.991C131.119 155.634 133.092 159.33 135.75 162.78C137.721 165.34 139.203 168.175 140.369 171.215C141.827 175.01 143.823 178.47 144.851 184.169C145.927 190.129 145.966 198.728 143.554 205.085C142.655 207.456 138.83 219.717 129.772 227.534ZM19.2968 113.317C16.9637 110.427 15.9727 106.885 14.9835 103.34C14.3641 101.115 14.092 101.04 12.4478 102.522C11.9766 102.947 11.513 103.377 10.8054 104.026C9.45774 101.147 8.85523 98.3932 8.57931 95.6017C8.3109 92.8914 8.36909 90.1415 8.26961 86.9352C6.44895 88.207 5.04873 89.1832 3.65226 90.1593C2.11502 87.3797 1.89541 85.8857 1.63639 82.5861C1.21032 77.1161 2.84141 72.2352 5.03183 67.4596C5.3772 66.7037 5.82204 65.9596 5.97407 65.1581C6.1186 64.4001 5.79388 63.7494 4.82724 64.0906C4.22661 64.3009 3.6241 64.5073 2.86393 64.7712C2.86393 63.6383 2.74943 62.7792 2.89021 61.9736C3.10981 60.7256 3.48521 59.5074 3.83432 58.2892C5.83893 51.2914 9.83688 44.1765 9.08422 36.522C9.02979 35.9863 8.92843 32.2086 8.79892 30.6987C8.45168 26.6433 6.94822 15.3876 8.92655 7.91761C9.27942 6.59027 10.704 6.09028 11.9241 5.96925C14.1614 5.74902 16.2543 6.32044 18.0355 7.67357C20.316 9.40368 22.6416 11.1576 24.5899 13.2706C28.0229 16.9868 31.8819 19.9371 36.2872 22.2109C38.9637 23.5938 41.2011 23.568 43.7575 21.6692C48.5851 18.08 53.8181 16.8459 60.0121 16.1217C63.7379 15.6852 66.803 15.4571 70.5551 15.5245C76.7791 15.6337 83.5869 17.2507 89.3379 19.9629C91.1793 20.8319 92.8498 20.2764 93.944 18.7606C97.6135 15.5245 102.773 11.3421 106.786 7.17358C109.645 4.20343 113.117 2.90982 116.807 2.17571C118.996 1.7412 121.335 1.59835 123.542 2.69752C124.755 3.30068 125.532 3.98717 125.451 5.54665C125.261 9.23107 125.312 12.9333 124.989 16.6019C124.141 26.173 124.621 35.522 127.444 44.7876C129.454 51.3866 130.731 58.2376 132.234 65.0013C132.627 66.7691 132.844 68.6024 131.756 70.3583C131.393 70.9436 131.517 71.9773 131.641 72.7709C132.035 75.2848 132.58 77.7708 132.976 80.2846C133.355 82.6794 133.447 85.0742 132.309 87.3995C131.932 87.2428 131.577 87.0979 131.223 86.9491C129.342 86.1654 128.786 86.465 128.623 88.4312C128.554 89.2784 128.614 90.1375 128.595 90.9907C128.522 94.0203 127.913 96.927 126.496 99.5698C124.244 103.764 121.879 107.889 118.696 111.403C116.19 109.345 116.19 109.345 114.02 111.276C113.919 111.367 113.812 111.456 113.718 111.558C109.185 116.371 102.319 118.668 96.7144 121.135C96.4254 120.645 96.2978 119.599 96.3034 119.337C96.3634 116.609 95.6164 116.494 93.3077 117.528C92.1947 118.024 91.031 118.464 90.0343 119.161C86.1659 121.847 81.8451 122.492 77.3553 122.666C75.9758 122.722 73.7797 122.684 75.2494 120.899C75.4727 120.625 76.1259 119.089 74.7032 119.752C73.4681 120.321 72.2406 120.887 70.8535 121.526C68.9709 122.561 67.4036 122.813 66.6697 122.994C66.6679 122.96 66.666 122.924 66.6641 122.889C67.5763 122.281 68.3909 120.226 68.2577 120.184C67.1765 119.863 64.4042 122.359 64.1771 122.533C62.8614 123.547 61.4236 123.891 60.0421 123.375C56.2657 121.968 52.2696 120.891 49.6775 117.218C49.4391 116.881 49.1501 116.565 48.8329 116.309C47.8137 115.49 46.7964 115.772 46.2633 117.051C45.9142 117.891 45.6627 118.778 45.306 119.821C43.0818 118.311 41.3531 116.867 40.3152 114.553C39.6113 112.986 38.2392 112.934 37.1412 114.224C36.8803 114.536 36.747 114.96 36.5237 115.309C35.4181 117.044 34.9733 117.301 33.3478 116.559C32.263 116.063 31.2118 115.355 30.3353 114.52C29.1453 113.387 28.1449 112.03 27.0468 110.786C25.6016 109.149 24.1976 109.25 23.2066 111.147C22.5215 112.456 21.9978 113.859 21.2714 115.514C20.3817 114.53 19.8074 113.952 19.2968 113.317ZM211.287 70.4754C208.28 63.5787 202.929 59.3943 196.237 57.4202C192.958 56.4539 189.296 56.3508 185.876 56.6722C182.879 56.9539 179.62 57.7714 177.113 59.4281C172.925 62.1958 169.231 65.8168 166.371 70.2016C160.978 78.4672 157.068 87.5304 154.968 97.2603C153.962 101.913 153.88 106.845 153.741 109.962C153.523 114.915 154.062 120.27 154.08 125.226C154.103 131.747 154.557 137.43 154.55 143.951C154.536 154.564 151.969 166.024 148.403 175.262C147.766 176.913 147.008 178.534 145.977 180.893C145.007 176.564 142.505 169.455 139.04 163.747C137.379 161.012 135.675 158.271 134.153 155.435C133.375 153.989 132.79 152.336 132.516 150.701C131.575 145.09 130.29 139.62 128.049 134.4C126.275 130.271 124.205 122.662 121.252 117.18C119.567 114.048 120.16 112.026 122.033 109.744C122.384 109.316 122.812 108.945 123.112 108.482C125.915 104.165 129.124 100.098 129.916 94.6394C130.125 93.193 130.498 91.6097 132.24 90.953C132.839 90.7268 133.302 89.7109 133.569 88.953C134.363 86.6912 134.935 84.4174 134.631 81.8957C134.31 79.2331 134.147 76.4911 134.387 73.8324C134.686 70.5488 134.473 67.3386 134.01 64.1283C133.563 61.049 133.424 57.7813 132.294 54.9837C130.93 48.4264 127.645 38.506 126.804 32.8574C126.44 30.788 126.125 28.6432 126.245 26.5599C126.485 22.32 127.078 18.1038 127.444 13.8698C127.713 10.7648 127.953 7.65175 128.017 4.53676C128.075 1.84437 127.795 1.6043 125.182 0.71345C124.424 0.455521 123.64 0.209496 122.851 0.134101C115.022 -0.615878 108.385 1.75112 102.875 7.96126C100.055 11.1378 96.5962 13.6913 93.3659 16.4491C91.7836 17.8003 90.07 17.9709 88.1048 17.0245C80.7564 13.4889 76.5614 13.3044 68.6781 13.2091C62.8632 13.1397 52.3935 14.3579 47.0366 16.8618C45.2141 17.713 43.5548 18.959 41.8355 20.0522C40.6624 20.8002 39.3786 21.691 38.0797 20.8795C35.0015 18.955 31.6773 17.7487 29.012 14.7607C25.0741 10.3402 21.7144 6.74503 16.6259 4.85222C14.7733 4.16375 12.7068 3.81654 10.7435 3.83241C7.44374 3.8582 7.02893 4.46533 6.43956 8.07039C5.12005 16.1297 5.44664 24.2187 6.32507 32.2661C6.93696 37.8612 6.86939 43.2976 5.08439 48.6446C4.68084 49.851 4.29606 51.0652 3.98073 52.2993C2.93525 56.3944 1.89166 60.4915 0.917509 64.6085C0.587162 66.0033 0.463282 67.3941 1.92169 68.3961C2.25767 68.6262 2.32712 69.6083 2.2145 70.1778C1.99489 71.2789 1.56506 72.3325 1.21407 73.4039C-0.580315 78.8501 -0.221813 84.348 1.22346 89.7427C2.14693 93.191 2.95215 93.2942 5.90838 91.1911C5.99284 91.1315 6.16177 91.2049 6.49212 91.2347C6.58034 91.6851 6.75677 92.195 6.76803 92.7089C6.86376 97.0381 8.19078 101.078 9.38829 105.141C9.93073 106.978 10.2986 107.064 11.9672 106.072C12.4778 105.768 12.9846 105.462 13.7466 105.006C15.0924 109.439 16.8361 113.254 19.5277 116.5C20.1865 117.292 19.8824 117.907 19.5221 118.766C18.3321 121.605 16.9506 124.44 16.3012 127.436C14.2309 137.021 13.3393 146.791 13.4763 156.61C13.5495 161.776 12.5529 166.417 9.80122 170.693C5.57991 177.258 3.23745 184.669 1.7415 192.343C0.0109311 201.2 -0.163627 206.16 0.793629 209.962C1.49937 212.761 2.44536 214.761 3.86811 217.293C6.97075 222.812 11.2258 227.019 16.2055 230.534C16.9506 231.058 17.6132 231.713 18.1613 232.181C15.1863 235.159 12.3257 237.927 9.57598 240.814C7.53947 242.955 6.01537 245.419 5.86896 248.629C5.80139 250.139 6.02663 251.55 7.03269 252.571C9.51029 255.083 12.4008 256.938 15.9446 256.714C17.4574 256.617 18.745 256.472 20.1546 257.299C20.8172 257.688 22.0241 257.502 22.7899 257.129C24.1169 256.482 25.3463 255.565 26.5194 254.625C30.7107 251.266 35.2999 248.617 39.9942 246.169C40.9721 245.661 42.0195 244.716 43.3765 245.391C43.2902 246.197 43.1663 246.881 43.1531 247.568C43.0799 250.954 44.2793 252.077 47.5847 251.774C48.0933 251.726 48.6564 251.518 49.1032 251.675C51.5113 252.524 53.942 252.097 56.2882 251.647C60.4157 250.853 64.4493 249.564 67.1502 245.824C68.3553 244.153 69.3932 242.272 70.1365 240.328C70.8892 238.36 72.0904 237.987 73.8905 237.961C77.7777 237.899 81.6649 237.629 85.5502 237.401C85.935 237.381 89.5463 237.244 90.8132 237.524C91.2919 237.687 91.7649 237.877 92.2285 238.147C92.2773 238.177 92.3242 238.179 92.373 238.195C93.3978 239.512 94.6723 240.675 96.2884 241.625C98.3906 242.863 100.361 244.351 102.368 245.762C104.979 247.597 107.571 247.867 110.167 246.236C110.565 246.411 110.959 246.593 111.364 246.74C111.383 246.756 111.396 246.784 111.417 246.794C114.332 248.29 117.256 246.593 117.631 243.262C117.778 241.982 117.59 240.848 117.172 239.784C117.9 240.163 126.438 243.496 129.68 244.766C131.816 245.603 135.211 246.903 137.208 247.994C139.742 249.381 141.876 250.21 143.817 247.165C144.538 246.038 146.509 246.496 147.222 245.252C148.136 243.647 149.478 242.943 151.073 242.409C152.703 241.863 153.395 240.397 153.232 238.721C152.909 235.427 152.222 232.251 149.42 230.142C145.64 227.296 141.998 224.197 137.289 223.13C139.106 219.81 140.729 216.743 142.471 213.755C142.751 213.275 143.537 213.077 144.127 212.858C148.232 211.35 151.708 209.077 154.625 205.458C157.162 202.311 166.162 191.321 170.374 180.462C173.732 171.8 175.857 162.713 176.358 153.235C176.917 142.61 177.695 131.995 178.642 121.403C179.247 114.635 180.401 107.935 183.845 101.98C185.858 98.4984 187.965 95.0779 189.974 91.5918C191.597 88.7745 193.589 86.4094 196.198 84.5087C197.463 83.5861 198.52 83.3123 199.903 83.719C201.971 84.3282 204.06 84.8658 206.131 85.4611C207.48 85.8519 208.07 85.465 208.128 83.9849C208.156 83.2806 207.88 82.5365 208.015 81.8719C208.169 81.112 208.462 80.231 208.982 79.737C211.88 76.9831 212.785 73.9098 211.287 70.4754Z" fill="#CDCCCE"/>
<path fill-rule="evenodd" clip-rule="evenodd" d="M19.903 29.6449C19.8959 29.5676 19.8854 29.4902 19.8801 29.4107C20.1164 28.6179 20.2099 27.8377 20.2399 27.0575C20.3986 28.1013 20.4215 29.1722 20.4233 30.2264C20.4251 30.5904 20.6208 30.8268 20.8695 30.9334C19.5714 31.7346 20.0176 30.9836 19.903 29.6449ZM18.432 26.9445C18.1851 25.1791 17.8747 23.4137 17.7389 21.686C17.6454 20.5146 17.4373 20.113 18.3897 19.9917C19.0776 19.9059 19.9594 20.4644 20.6032 20.7698C22.0548 21.458 23.1377 22.4746 24.3512 23.5936C24.9721 24.1647 26.8222 25.2775 26.8169 26.1518C26.8169 26.361 26.7605 26.5659 26.6688 26.7688C26.4889 26.3066 26.2808 25.8966 25.9774 25.4762C25.7693 25.1917 25.3989 24.9783 25.0796 25.1582C24.9703 25.2189 24.8168 25.3695 24.6634 25.5536C24.6017 25.3109 24.4958 25.0683 24.2895 24.8131C23.9826 24.4345 23.4535 24.6353 23.1977 24.9574C23.0989 25.0829 23.0548 25.2482 22.9896 25.3946C22.8785 24.9532 22.7303 24.5265 22.5363 24.1103C22.3634 23.7338 21.9296 23.6836 21.6262 23.784C21.3634 23.8718 21.1729 24.1417 21.0106 24.4763C20.7708 23.6543 20.6685 22.8071 19.9788 22.3491C19.7566 22.2026 19.5044 22.2947 19.3192 22.4787C19.2398 21.8951 19.1569 21.3095 19.0758 20.7322C19 20.1988 18.335 20.1339 18.2556 20.705C17.9699 22.7674 18.2892 24.8528 18.4796 26.9383C18.4638 26.9425 18.4479 26.9383 18.432 26.9445ZM27.1027 23.3322C25.54 22.1169 24.1942 20.4979 22.4904 19.565C21.0724 18.789 18.5502 17.3331 16.9275 18.2179C15.3207 19.0902 16.2414 22.1064 16.4672 23.6166C16.834 26.0639 17.2485 28.3104 17.8905 30.6532C17.9188 31.6007 18.0599 32.4939 18.4567 33.0419C19.7654 34.8491 21.8661 32.8244 23.1236 32.0943C25.0514 30.9753 27.4025 29.7014 28.6195 27.457C29.6496 25.5577 28.4008 24.3404 27.1027 23.3322Z" fill="#CDCCCE"/>
<path fill-rule="evenodd" clip-rule="evenodd" d="M116.718 17.4553C116.649 18.1768 116.528 18.8961 116.489 19.6196C116.389 21.4084 116.398 23.1951 116.271 24.986C116.187 26.1589 116.295 27.7536 115.138 28.2705C114.881 28.3865 114.425 28.319 113.93 28.1819C114.157 28.0806 114.337 27.876 114.357 27.5237C114.443 26.1062 116.14 25.4438 115.672 23.925C115.619 23.7499 115.482 23.5896 115.318 23.4841C115.461 23.2099 115.541 22.9061 115.482 22.5602C115.42 22.191 115.187 21.862 114.823 21.8071C114.678 21.7839 114.547 21.8029 114.415 21.8177C114.421 21.7987 114.435 21.786 114.441 21.767C114.709 21.0709 114.069 20.2946 113.394 20.5752C113.343 20.5984 113.3 20.6364 113.251 20.6596C113.403 20.4339 113.489 20.1702 113.394 19.8875C113.362 19.7989 113.333 19.7103 113.302 19.6217C113.198 19.318 112.939 19.1387 112.661 19.1028C113.329 18.5775 114.012 18.0797 114.736 17.6557C115.514 17.198 114.795 15.9682 114.028 16.2361C113.752 16.3331 113.472 16.504 113.243 16.7276C111.638 17.757 110.263 19.1724 108.785 20.4022C108.468 20.6659 108.186 20.9486 107.91 21.2376C107.896 21.246 107.883 21.2502 107.869 21.2587C108.977 19.434 110.191 17.738 111.884 16.4428C112.779 15.7614 116.35 13.0191 117.131 13.7258C117.007 13.614 116.708 17.5629 116.718 17.4553ZM108.609 25.9205C108.959 25.7012 109.298 25.4565 109.647 25.2244C109.641 25.2518 109.627 25.2729 109.621 25.2982C109.451 26.0155 110.191 26.4205 110.727 26.2707C111.058 26.18 111.365 25.9648 111.659 25.7244C111.653 25.8045 111.632 25.8805 111.639 25.9669C111.671 26.3888 112.094 26.8318 112.509 26.7348C112.628 26.7074 112.72 26.6314 112.826 26.5808C112.767 26.7917 112.718 27.0048 112.697 27.2389C112.675 27.4668 112.738 27.6503 112.83 27.8064C112.475 27.6672 112.162 27.5343 111.968 27.4562C111.753 27.3697 110.013 26.6525 108.609 25.9205ZM118.523 12.5276C117.456 10.6228 114.838 12.1564 113.55 12.8905C111.164 14.249 108.805 16.2234 107.145 18.5375C105.96 20.1892 104.193 23.2352 104.003 25.3531C103.973 25.6864 104.183 25.9332 104.43 26.0134C104.621 26.3424 104.935 26.6019 105.338 26.8824C106.716 27.8338 108.707 28.2599 110.24 28.9856C111.906 29.7724 115.48 31.5085 117.076 30.0276C118.691 28.5278 118.38 23.4356 118.47 21.3705C118.566 19.2083 119.58 14.4177 118.523 12.5276Z" fill="#CDCCCE"/>
<path fill-rule="evenodd" clip-rule="evenodd" d="M123 73.8087C118.495 74.4711 114.453 75.2089 110.382 75.6299C104.203 76.2672 98.44 78.2853 92.7778 80.7573C91.4378 81.3424 90.055 81.8291 88.6739 82.31C88.5004 82.3718 88.0506 82.142 88.0245 81.9894C87.9629 81.6514 88.0207 81.2439 88.1626 80.9291C88.2577 80.7186 88.5731 80.6008 88.8064 80.4753C97.8391 75.6859 107.331 72.733 117.573 72.8238C118.904 72.8354 120.234 72.9687 121.559 73.1058C121.903 73.1405 122.222 73.4186 123 73.8087Z" fill="#CDCCCE"/>
<path fill-rule="evenodd" clip-rule="evenodd" d="M50 83.341C47.2107 83.5947 45.3286 82.3982 43.351 81.7366C41.1952 81.0163 39.1707 79.6949 36.9794 79.3123C28.1221 76.9876 21.8518 77.4541 21.3456 77.3097C21.1807 77.2629 20.9745 76.8978 21.0026 76.7163C21.0363 76.5036 21.2763 76.2303 21.4806 76.1639C21.8555 76.0371 22.2717 76.0078 22.6728 76.0019C31.8075 75.7989 40.4698 77.8191 48.6428 82.0742C48.984 82.2519 49.2352 82.6149 50 83.341Z" fill="#CDCCCE"/>
<path fill-rule="evenodd" clip-rule="evenodd" d="M124 81.9998C118.304 82.2858 113.471 82.3928 108.662 82.8317C106.54 83.0261 104.443 83.8078 102.376 84.4891C100.694 85.0415 99.0875 85.8888 97.4163 86.4958C97.0038 86.6487 96.4753 86.3779 96 86.3015C96.2738 85.8102 96.4506 85.1485 96.8384 84.8603C97.7395 84.1943 98.6958 83.5283 99.711 83.1789C102.163 82.3404 104.631 81.3949 107.152 81.0215C113.778 79.5913 121.945 80.1328 124 81.9998Z" fill="#CDCCCE"/>
<path fill-rule="evenodd" clip-rule="evenodd" d="M121 91.6658C119.345 91.9722 117.82 91.7859 116.281 91.3987C110.139 89.8439 103.969 89.0903 97.7254 90.7486C97.3369 90.8521 96.9102 90.9039 96.516 90.8439C96.317 90.817 96.0472 90.5126 96.007 90.2911C95.9668 90.0654 96.1046 89.6845 96.2807 89.5582C96.7265 89.2352 97.2126 88.9143 97.7254 88.7735C105.521 86.6784 113.122 87.4195 120.529 90.701C120.705 90.7797 120.767 91.171 121 91.6658Z" fill="#CDCCCE"/>
<path fill-rule="evenodd" clip-rule="evenodd" d="M91.5516 66.3832C89.596 66.6523 87.5831 66.4165 85.8071 65.6115C84.7636 65.1401 81.1356 62.9319 82.1902 60.9906C82.8155 59.8409 84.9523 60.9239 85.6683 61.4242C89.9438 64.4129 92.9946 64.1772 96.7447 60.4769C97.753 59.4807 98.1212 61.0484 97.9658 61.9668C97.8048 62.9252 96.5671 64.4619 95.8567 64.8844C94.5487 65.6649 93.0668 66.1741 91.5516 66.3832Z" fill="#CDCCCE"/>
<path fill-rule="evenodd" clip-rule="evenodd" d="M47.1039 69.5221C44.2203 70.0055 41.1523 69.2375 40.1 66.2055C39.4079 64.212 42.5133 65.1928 43.1184 65.6484C44.7278 66.862 46.4633 66.8163 48.1561 65.8613C49.3166 65.2087 51.1089 62.5487 52.5036 63.5435C53.5825 64.3134 52.6633 66.484 52.0014 67.1704C50.8977 68.3124 49.0434 69.1997 47.1039 69.5221Z" fill="#CDCCCE"/>
<path fill-rule="evenodd" clip-rule="evenodd" d="M47 91.9445C42.5665 92.2899 38.3912 92.0062 34.2408 92.5052C30.2836 92.9825 26.3551 94.2541 22 94.985C23.0787 93.6049 24.2971 93.0759 25.6034 92.9057C32.1695 90.9749 41.7326 89.7234 47 91.9445Z" fill="#CDCCCE"/>
<path fill-rule="evenodd" clip-rule="evenodd" d="M44 86.0644C36.4459 84.5329 29.5709 85.0478 22 86.5419C24.7259 84.1804 27.4722 83.7252 33.5084 83.4454C37.1009 83.2813 40.5467 83.1656 44 86.0644Z" fill="#CDCCCE"/>
<path fill-rule="evenodd" clip-rule="evenodd" d="M79.2017 90.5239C81.1637 90.5537 82.8135 89.723 84.3846 88.5466C84.8279 88.2127 85.7126 88.4154 85.9389 88.944C86.2981 89.7787 84.9757 90.977 84.5081 91.4043C82.7817 92.9802 80.5409 93.475 78.317 93.1908C76.0425 92.8987 73.9981 91.919 72.1464 90.3649C70.1563 88.6956 69.9823 88.7254 68.2279 90.7226C64.2832 95.2159 59.5192 95.818 54.3194 94.095C53.401 93.791 52.1815 93.2246 51.5643 92.4039C50.9526 91.5951 50.4738 89.7111 52.1609 90.1642C52.5257 90.2636 52.8193 90.6312 53.1616 90.8518C57.9611 93.9659 63.3517 93.1869 67.2646 88.8208C69.165 86.7004 68.9125 84.5402 66.6904 82.7437C65.3287 81.6408 64.0269 80.4226 62.8542 79.099C62.0387 78.1809 62.0817 77.0998 63.0094 76.0803C65.6729 73.159 71.5759 73.1034 73.914 76.1499C74.2974 76.6467 74.3161 77.8669 74.0094 78.4691C73.3865 79.6932 72.4775 80.7743 71.589 81.8196C70.7567 82.7993 70.7436 83.789 71.1027 84.9655C72.1651 88.4532 75.2083 90.5696 79.2017 90.5239Z" fill="#CDCCCE"/>
</svg>
