<svg width="129" height="90" viewBox="0 0 129 90" fill="none" xmlns="http://www.w3.org/2000/svg">
<path fill-rule="evenodd" clip-rule="evenodd" d="M62.9157 68.9904C59.6386 63.299 60.2207 59.1037 64.6591 56.4046C65.7184 55.7612 66.7604 55.5218 67.7878 55.6894C68.8093 55.857 69.5224 56.2819 69.9124 56.9701C71.0271 58.9092 71.1813 61.4736 70.3664 64.6665C69.5515 67.8593 68.1225 70.5375 66.0822 72.704C65.2499 72.4496 64.1876 71.2108 62.9157 68.9904ZM74.0277 86.1007C73.5882 85.3317 72.5026 83.7308 70.7826 81.289C69.2954 79.2542 68.2883 77.6832 67.7616 76.585C68.2913 75.6634 70.835 74.0386 72.7849 69.2807C74.9503 63.9932 75.0987 59.6214 73.076 56.1083C70.3809 51.4283 66.8739 50.3989 62.5577 53.0232C62.549 53.0292 62.517 53.0621 62.5053 53.0711C60.6718 54.0107 58.9692 55.471 58.0233 56.5572C56.9843 57.7511 55.9394 58.7805 55.5 60.2587C55.4534 60.3545 54.8655 61.8896 55.0285 62.1649C55.1391 63.4157 57.4179 66.2075 57.6799 66.5786C58.6927 68.2573 59.7026 69.948 60.7271 71.5459C61.4576 72.6291 61.7719 73.7034 61.67 74.7717C61.5682 75.8429 61.6264 76.5611 61.833 76.9232C62.0426 77.2853 63.0758 77.7491 64.9326 78.3057C66.5072 80.6726 68.0526 83.0306 69.5631 85.3826C71.6004 88.2822 72.9392 89.6497 73.5853 89.4761C73.5853 89.4761 75.1075 89.2038 74.994 88.6143C74.8834 88.0248 74.6098 87.1092 74.0277 86.1007Z" fill="#CDCCCE"/>
<path fill-rule="evenodd" clip-rule="evenodd" d="M103.709 53.5032C103.513 53.78 103.277 54.0202 102.967 54.2149C101.721 54.9905 99.5398 53.9472 96.418 51.0792C94.755 49.5189 90.5227 44.5401 90.4047 44.6131C91.8433 51.5506 90.4248 57.3202 88.9517 58.2417C86.8542 59.5526 84.377 59.1055 81.5228 56.9066C79.4109 55.2916 77.8313 53.5367 76.7725 51.6479C75.9727 50.2124 75.4979 49.3212 75.3512 48.9684C74.7355 47.3017 74.9283 46.1551 75.9382 45.5255C76.2892 45.3035 76.8876 45.3735 77.7422 45.7263C78.5909 46.0791 79.0685 46.3376 79.1577 46.5018C79.2958 46.7451 79.4311 47.4812 79.5634 48.7008C79.6929 49.9204 79.831 50.6503 79.9691 50.8967C80.4956 51.8426 81.4077 52.7702 82.6996 53.6766C84.2274 54.7137 85.3955 54.9813 86.2097 54.4734C87.4527 53.6948 87.8699 51.1643 87.4671 46.8759C87.0614 44.4702 86.8024 42.0522 86.3478 39.6829C86.1781 38.8161 87.1966 38.4846 87.5822 38.2443C88.477 37.6847 89.4207 37.8733 90.4133 38.8009C90.8046 39.2206 91.3801 40.5254 92.6518 42.332C93.9753 44.3272 95.2528 45.5103 95.9577 46.2585C96.6683 47.0097 98.0523 48.0104 100.118 49.2665C101.994 50.3675 102.995 51.0427 103.133 51.286C103.133 51.286 104.609 52.2167 103.709 53.5032Z" fill="#CDCCCE"/>
<path fill-rule="evenodd" clip-rule="evenodd" d="M111.72 26.4912C111.351 26.0142 110.944 25.7139 110.368 25.5726C108.428 25.0956 106.835 25.3488 106.444 25.5902C105.49 26.1762 104.645 27.8721 103.923 30.678C103.093 34.0286 102.725 36.4635 102.495 36.8728L101.835 35.9836C101.158 34.7912 100.75 34.1287 100.625 33.9903C100.22 33.6488 98.8659 32.6418 97.7694 33.3308C96.3869 34.5733 97.2396 36.2074 97.489 36.6431C98.5259 38.4686 100.008 40.4825 101.928 42.6819C104.643 45.7292 106.612 46.8746 107.838 46.1267C108.564 45.6762 108.77 45.0962 108.465 44.3749C107.64 42.467 107.017 40.7887 106.597 39.3283C106.076 37.5029 106.167 35.2623 106.872 32.6065C107.408 30.5985 108.074 29.0056 108.87 27.8309C108.94 27.8574 109.918 28.2136 109.958 28.2401C111.04 28.9732 112.655 27.6984 111.72 26.4912Z" fill="#CDCCCE"/>
<path fill-rule="evenodd" clip-rule="evenodd" d="M128.632 15.9153C128.135 14.9652 126.782 13.8233 124.793 13.7289C124.724 13.7229 123.438 13.7289 122.671 14.3532C121.775 15.0901 120.839 16.7161 120.099 19.6211C119.252 23.0863 118.714 25.029 118.477 25.4523C118.477 25.4523 116.861 23.1868 116.734 23.0437C116.321 22.6935 115.581 21.6277 113.817 22.3646C112.329 23.2447 113.28 25.3366 113.531 25.7873C114.592 27.6782 116.104 29.761 118.064 32.0326C120.833 35.1842 122.842 36.3718 124.091 35.5953C124.834 35.1324 125.045 34.5295 124.733 33.7835C123.891 31.8103 123.255 30.0746 122.828 28.5643C122.296 26.6764 122.388 24.3622 123.108 21.6125C123.712 19.3044 124.498 17.5596 125.435 16.3142C126.163 16.573 126.814 17.5992 127.389 18.0833C128.725 19.2009 129.502 17.5839 128.632 15.9153Z" fill="#CDCCCE"/>
<path fill-rule="evenodd" clip-rule="evenodd" d="M8.09223 58.9525C4.56938 53.417 4.87424 49.1342 9.004 46.1011C9.98915 45.3792 10.9856 45.0668 11.9877 45.1639C12.987 45.267 13.7011 45.6492 14.1246 46.3165C15.3242 48.2 15.6263 50.7843 15.0363 54.0691C14.4435 57.354 13.2269 60.1627 11.3836 62.4891C10.5622 62.2889 9.46129 61.109 8.09223 58.9525ZM19.9028 75.5012C19.4286 74.752 18.2769 73.2081 16.4618 70.8544C14.898 68.8981 13.8253 67.3785 13.2495 66.3048C13.704 65.3342 16.0666 63.5204 17.6587 58.5764C19.4314 53.0743 19.3044 48.6459 17.1308 45.2306C14.2375 40.6779 10.7767 39.8772 6.76269 42.8253C6.75423 42.8314 6.726 42.8648 6.71753 42.8769C4.99845 43.9476 3.44026 45.543 2.5906 46.7077C1.6619 47.9847 0.713434 49.0978 0.380344 50.6235C0.335179 50.7206 -0.136228 52.316 0.0387852 52.5829C0.222267 53.8417 2.60189 56.5078 2.8757 56.8657C3.95965 58.4975 5.04361 60.1354 6.13321 61.6853C6.90384 62.7287 7.27644 63.7933 7.23975 64.8853C7.21152 65.9741 7.3075 66.696 7.5305 67.0479C7.75914 67.3997 8.78382 67.7971 10.6186 68.2338C12.2869 70.5238 13.9241 72.8017 15.536 75.0796C17.6841 77.8731 19.0645 79.1652 19.6798 78.9438C19.6798 78.9438 21.1364 78.5677 20.9896 77.9793C20.8456 77.3878 20.5238 76.4809 19.9028 75.5012Z" fill="#CDCCCE"/>
<path fill-rule="evenodd" clip-rule="evenodd" d="M47.7585 40.7758C47.5875 41.0601 47.368 41.3171 47.0716 41.5318C45.8888 42.3876 43.6686 41.5016 40.4053 38.8707C38.6696 37.4343 34.1779 32.7835 34.0668 32.8651C35.9136 39.6509 34.8648 45.4721 33.4654 46.4881C31.4732 47.9336 28.9937 47.6614 26.0382 45.6717C23.855 44.2141 22.1849 42.5812 21.0278 40.7819C20.1443 39.412 19.6198 38.5593 19.4545 38.2206C18.7449 36.6088 18.8646 35.4567 19.825 34.7612C20.1585 34.5192 20.7542 34.5464 21.6206 34.8368C22.4813 35.1301 22.9687 35.3569 23.0656 35.5111C23.2195 35.747 23.399 36.4637 23.6014 37.6642C23.8037 38.8647 23.9861 39.5814 24.1343 39.8172C24.7157 40.7184 25.6734 41.5742 27.0072 42.3846C28.5804 43.313 29.7518 43.4974 30.527 42.935C31.7069 42.0792 31.9606 39.539 31.3022 35.3145C30.7522 32.9528 30.3503 30.5729 29.7547 28.2536C29.5352 27.4038 30.527 27.0077 30.8918 26.7416C31.7383 26.1247 32.6817 26.2487 33.7219 27.0984C34.1323 27.4915 34.7822 28.7434 36.1502 30.449C37.5809 32.3389 38.9147 33.4215 39.6586 34.117C40.4053 34.8126 41.8332 35.7137 43.9536 36.8175C45.8746 37.7791 46.9063 38.3809 47.0545 38.6137C47.0545 38.6137 48.5764 39.4332 47.7585 40.7758Z" fill="#CDCCCE"/>
<path fill-rule="evenodd" clip-rule="evenodd" d="M54.6583 12.6319C54.2506 12.1633 53.8048 11.8766 53.2035 11.7718C51.1678 11.4111 49.5399 11.7872 49.1469 12.0677C48.2024 12.746 47.4398 14.5805 46.8766 17.5649C46.2371 21.1227 46.0142 23.694 45.806 24.138L45.0639 23.2531C44.2836 22.0569 43.8231 21.394 43.6853 21.2584C43.2453 20.9285 41.7787 19.9727 40.6934 20.7743C39.3441 22.1679 40.3297 23.8143 40.6142 24.2521C41.8051 26.0896 43.4682 28.0874 45.5948 30.2456C48.5984 33.2361 50.7103 34.2967 51.9275 33.4273C52.6462 32.9062 52.8222 32.2865 52.4555 31.5528C51.4817 29.6166 50.7279 27.9086 50.2057 26.4102C49.5458 24.5419 49.493 22.1956 50.0503 19.3685C50.4697 17.2319 51.0564 15.5239 51.8043 14.2351C51.8777 14.2598 52.9101 14.562 52.9512 14.5897C54.1186 15.2772 55.7055 13.8282 54.6583 12.6319Z" fill="#CDCCCE"/>
<path fill-rule="evenodd" clip-rule="evenodd" d="M70.5588 1.96286C70.024 1.04886 68.6536 0.00733224 66.74 0.0498436C66.6703 0.0498436 65.4364 0.140939 64.7345 0.818085C63.9156 1.60758 63.1134 3.29285 62.5758 6.23221C61.9686 9.7394 61.5647 11.7101 61.3642 12.1474C61.3642 12.1474 59.6762 10.0066 59.5453 9.87301C59.1247 9.5481 58.3504 8.53997 56.7014 9.39627C55.3199 10.371 56.3588 12.3903 56.629 12.8184C57.7627 14.6312 59.3392 16.5959 61.3586 18.7245C64.2108 21.6699 66.2135 22.7145 67.3667 21.8551C68.0519 21.345 68.2218 20.7316 67.8736 20.0089C66.9489 18.105 66.2358 16.4198 65.7317 14.947C65.1105 13.1069 65.0604 10.7931 65.5896 8.00858C66.0325 5.67349 66.6815 3.88194 67.5088 2.57623C68.2246 2.78575 68.9126 3.76352 69.4947 4.20381C70.8429 5.22408 71.4974 3.5631 70.5588 1.96286Z" fill="#CDCCCE"/>
</svg>
