<svg width="3193" height="858" viewBox="0 0 3193 858" fill="none" xmlns="http://www.w3.org/2000/svg">
	<mask id="path-1-inside-1_0_2472" fill="white">
		<path fill-rule="evenodd" clip-rule="evenodd" d="M382.625 0.00340712C118.773 -0.53804 0 63.6234 0 71.4744V111H63.7708H382.625H502V747H195.771H132V822.803L195.771 817.93C523.861 767.093 688.356 796.128 805.184 816.75C838.917 822.704 868.675 827.957 897.25 830.383C1024.79 840.67 1152.33 844.46 1279.88 839.587C1407.42 834.173 1534.96 819.554 1662.5 798.979C1790.04 778.404 1886.5 775.426 2045.12 777.592C2203.75 779.758 2414.2 812.515 2414.2 812.515C2414.2 812.515 2659.72 857.997 2810.38 857.997C3074.23 858.538 3193 794.377 3193 786.526V747H3129.23H2810.38H2629V111H2678.38H2997.23H3061V35.1974L2997.23 40.0705C2669.14 90.9071 2504.64 61.8718 2387.82 41.2502C2354.08 35.2961 2324.32 30.0434 2295.75 27.6172C2168.21 17.3297 2040.67 13.5396 1913.12 18.4126C1785.58 23.8271 1658.04 38.4461 1530.5 59.0211C1402.96 79.5961 1306.5 82.574 1147.88 80.4083C989.245 78.2425 778.801 45.4849 778.801 45.4849C778.801 45.4849 533.284 0.00340712 382.625 0.00340712Z"/>
	</mask>
	<path fill-rule="evenodd" clip-rule="evenodd" d="M382.625 0.00340712C118.773 -0.53804 0 63.6234 0 71.4744V111H63.7708H382.625H502V747H195.771H132V822.803L195.771 817.93C523.861 767.093 688.356 796.128 805.184 816.75C838.917 822.704 868.675 827.957 897.25 830.383C1024.79 840.67 1152.33 844.46 1279.88 839.587C1407.42 834.173 1534.96 819.554 1662.5 798.979C1790.04 778.404 1886.5 775.426 2045.12 777.592C2203.75 779.758 2414.2 812.515 2414.2 812.515C2414.2 812.515 2659.72 857.997 2810.38 857.997C3074.23 858.538 3193 794.377 3193 786.526V747H3129.23H2810.38H2629V111H2678.38H2997.23H3061V35.1974L2997.23 40.0705C2669.14 90.9071 2504.64 61.8718 2387.82 41.2502C2354.08 35.2961 2324.32 30.0434 2295.75 27.6172C2168.21 17.3297 2040.67 13.5396 1913.12 18.4126C1785.58 23.8271 1658.04 38.4461 1530.5 59.0211C1402.96 79.5961 1306.5 82.574 1147.88 80.4083C989.245 78.2425 778.801 45.4849 778.801 45.4849C778.801 45.4849 533.284 0.00340712 382.625 0.00340712Z" fill="#FFF8F9"/>
	<path d="M1.5 71.4744C1.5 70.6459 0.828427 69.9744 0 69.9744C-0.828427 69.9744 -1.5 70.6459 -1.5 71.4744H1.5ZM382.622 1.5034C383.45 1.5051 384.123 0.834911 384.125 0.00648524C384.127 -0.82194 383.457 -1.49489 382.628 -1.49659L382.622 1.5034ZM0 109.5C-0.828427 109.5 -1.5 110.172 -1.5 111C-1.5 111.828 -0.828427 112.5 0 112.5V109.5ZM63.7708 109.5C62.9424 109.5 62.2708 110.172 62.2708 111C62.2708 111.828 62.9424 112.5 63.7708 112.5V109.5ZM382.625 109.5C381.797 109.5 381.125 110.172 381.125 111C381.125 111.828 381.797 112.5 382.625 112.5V109.5ZM503.5 111C503.5 110.172 502.828 109.5 502 109.5C501.172 109.5 500.5 110.172 500.5 111H503.5ZM502 748.5C502.828 748.5 503.5 747.828 503.5 747C503.5 746.172 502.828 745.5 502 745.5V748.5ZM195.771 748.5C196.599 748.5 197.271 747.828 197.271 747C197.271 746.172 196.599 745.5 195.771 745.5V748.5ZM133.5 747C133.5 746.172 132.828 745.5 132 745.5C131.172 745.5 130.5 746.172 130.5 747H133.5ZM131.886 821.307C131.06 821.37 130.441 822.091 130.504 822.917C130.567 823.743 131.288 824.361 132.114 824.298L131.886 821.307ZM195.541 816.447C194.722 816.574 194.162 817.341 194.288 818.159C194.415 818.978 195.182 819.539 196 819.412L195.541 816.447ZM805.445 815.273C804.629 815.129 803.851 815.673 803.707 816.489C803.563 817.305 804.108 818.083 804.924 818.227L805.445 815.273ZM897.371 828.888C896.545 828.821 895.821 829.436 895.755 830.262C895.688 831.088 896.304 831.811 897.129 831.878L897.371 828.888ZM1279.81 838.089C1278.98 838.124 1278.34 838.823 1278.38 839.651C1278.41 840.479 1279.11 841.121 1279.94 841.086L1279.81 838.089ZM1662.26 797.498C1661.44 797.63 1660.89 798.4 1661.02 799.218C1661.15 800.036 1661.92 800.592 1662.74 800.46L1662.26 797.498ZM2045.15 776.092C2044.32 776.081 2043.64 776.743 2043.63 777.571C2043.61 778.4 2044.28 779.08 2045.1 779.092L2045.15 776.092ZM2414.47 811.04C2413.66 810.889 2412.87 811.427 2412.72 812.242C2412.57 813.056 2413.11 813.839 2413.93 813.99L2414.47 811.04ZM2810.38 856.497C2809.55 856.495 2808.88 857.165 2808.88 857.994C2808.87 858.822 2809.54 859.495 2810.37 859.497L2810.38 856.497ZM3191.5 786.526C3191.5 787.354 3192.17 788.026 3193 788.026C3193.83 788.026 3194.5 787.354 3194.5 786.526H3191.5ZM3193 748.5C3193.83 748.5 3194.5 747.828 3194.5 747C3194.5 746.172 3193.83 745.5 3193 745.5V748.5ZM3129.23 748.5C3130.06 748.5 3130.73 747.828 3130.73 747C3130.73 746.172 3130.06 745.5 3129.23 745.5V748.5ZM2810.38 748.5C2811.2 748.5 2811.88 747.828 2811.88 747C2811.88 746.172 2811.2 745.5 2810.38 745.5V748.5ZM2629 747H2627.5V748.5H2629V747ZM2629 109.5C2628.17 109.5 2627.5 110.172 2627.5 111C2627.5 111.828 2628.17 112.5 2629 112.5V109.5ZM2678.38 109.5C2677.55 109.5 2676.88 110.172 2676.88 111C2676.88 111.828 2677.55 112.5 2678.38 112.5V109.5ZM2997.23 109.5C2996.4 109.5 2995.73 110.172 2995.73 111C2995.73 111.828 2996.4 112.5 2997.23 112.5V109.5ZM3059.5 111C3059.5 111.828 3060.17 112.5 3061 112.5C3061.83 112.5 3062.5 111.828 3062.5 111H3059.5ZM3061.11 36.6931C3061.94 36.63 3062.56 35.9092 3062.5 35.0832C3062.43 34.2571 3061.71 33.6387 3060.89 33.7018L3061.11 36.6931ZM2997.46 41.5528C2998.28 41.4259 2998.84 40.6594 2998.71 39.8408C2998.58 39.0221 2997.82 38.4613 2997 38.5882L2997.46 41.5528ZM2387.55 42.7274C2388.37 42.8714 2389.15 42.3267 2389.29 41.5109C2389.44 40.6951 2388.89 39.917 2388.08 39.773L2387.55 42.7274ZM2295.63 29.1123C2296.46 29.1789 2297.18 28.5635 2297.25 27.7378C2297.31 26.912 2296.7 26.1887 2295.87 26.122L2295.63 29.1123ZM1913.19 19.9112C1914.02 19.8761 1914.66 19.1767 1914.62 18.349C1914.59 17.5213 1913.89 16.8788 1913.06 16.9139L1913.19 19.9112ZM1530.74 60.502C1531.56 60.37 1532.11 59.6001 1531.98 58.7822C1531.85 57.9644 1531.08 57.4083 1530.26 57.5402L1530.74 60.502ZM1147.85 81.9081C1148.68 81.9194 1149.36 81.2571 1149.37 80.4287C1149.39 79.6004 1148.72 78.9197 1147.9 78.9084L1147.85 81.9081ZM778.528 46.9598C779.343 47.1107 780.125 46.5727 780.276 45.7582C780.427 44.9436 779.889 44.1609 779.075 44.01L778.528 46.9598ZM-1.5 91.2372C-1.5 92.0656 -0.828427 92.7372 0 92.7372C0.828427 92.7372 1.5 92.0656 1.5 91.2372H-1.5ZM31.8854 112.5C32.7138 112.5 33.3854 111.828 33.3854 111C33.3854 110.172 32.7138 109.5 31.8854 109.5V112.5ZM116.913 112.5C117.742 112.5 118.413 111.828 118.413 111C118.413 110.172 117.742 109.5 116.913 109.5V112.5ZM223.198 109.5C222.369 109.5 221.698 110.172 221.698 111C221.698 111.828 222.369 112.5 223.198 112.5V109.5ZM329.483 112.5C330.311 112.5 330.983 111.828 330.983 111C330.983 110.172 330.311 109.5 329.483 109.5V112.5ZM442.312 112.5C443.141 112.5 443.812 111.828 443.812 111C443.812 110.172 443.141 109.5 442.312 109.5V112.5ZM500.5 174.6C500.5 175.428 501.172 176.1 502 176.1C502.828 176.1 503.5 175.428 503.5 174.6H500.5ZM503.5 301.8C503.5 300.972 502.828 300.3 502 300.3C501.172 300.3 500.5 300.972 500.5 301.8H503.5ZM500.5 429C500.5 429.828 501.172 430.5 502 430.5C502.828 430.5 503.5 429.828 503.5 429H500.5ZM503.5 556.2C503.5 555.372 502.828 554.7 502 554.7C501.172 554.7 500.5 555.372 500.5 556.2H503.5ZM500.5 683.4C500.5 684.228 501.172 684.9 502 684.9C502.828 684.9 503.5 684.228 503.5 683.4H500.5ZM450.962 745.5C450.133 745.5 449.462 746.172 449.462 747C449.462 747.828 450.133 748.5 450.962 748.5V745.5ZM348.885 748.5C349.714 748.5 350.385 747.828 350.385 747C350.385 746.172 349.714 745.5 348.885 745.5V748.5ZM246.809 745.5C245.981 745.5 245.309 746.172 245.309 747C245.309 747.828 245.981 748.5 246.809 748.5V745.5ZM163.885 745.5C163.057 745.5 162.385 746.172 162.385 747C162.385 747.828 163.057 748.5 163.885 748.5V745.5ZM130.5 784.901C130.5 785.73 131.172 786.401 132 786.401C132.828 786.401 133.5 785.73 133.5 784.901H130.5ZM164 821.862C164.826 821.799 165.444 821.078 165.381 820.252C165.318 819.426 164.597 818.807 163.771 818.87L164 821.862ZM256.625 810.662C257.446 810.552 258.023 809.798 257.914 808.977C257.804 808.155 257.05 807.578 256.229 807.688L256.625 810.662ZM378.201 794.446C377.375 794.514 376.761 795.238 376.828 796.063C376.896 796.889 377.62 797.504 378.446 797.436L378.201 794.446ZM500.629 791.3C501.457 791.286 502.118 790.604 502.105 789.776C502.091 788.948 501.409 788.287 500.581 788.3L500.629 791.3ZM623.22 791.287C622.394 791.231 621.678 791.856 621.622 792.683C621.567 793.509 622.191 794.225 623.018 794.28L623.22 791.287ZM744.565 808.022C745.383 808.149 746.15 807.589 746.278 806.77C746.405 805.952 745.845 805.185 745.027 805.057L744.565 808.022ZM850.843 826.047C851.661 826.176 852.429 825.617 852.557 824.798C852.686 823.98 852.127 823.212 851.308 823.084L850.843 826.047ZM960.817 836.465C961.643 836.517 962.356 835.89 962.408 835.063C962.461 834.236 961.833 833.523 961.006 833.471L960.817 836.465ZM1088.47 839.167C1087.64 839.146 1086.95 839.801 1086.93 840.629C1086.91 841.457 1087.56 842.145 1088.39 842.166L1088.47 839.167ZM1216.1 842.812C1216.93 842.799 1217.59 842.117 1217.57 841.289C1217.56 840.46 1216.88 839.799 1216.05 839.813L1216.1 842.812ZM1344.04 837.605C1344.87 837.551 1345.5 836.836 1345.44 836.01C1345.39 835.183 1344.67 834.557 1343.85 834.612L1344.04 837.605ZM1471.62 823.413C1470.79 823.502 1470.2 824.242 1470.29 825.066C1470.38 825.89 1471.12 826.485 1471.94 826.396L1471.62 823.413ZM1599.29 810.189C1600.11 810.07 1600.68 809.309 1600.56 808.489C1600.44 807.669 1599.68 807.101 1598.86 807.22L1599.29 810.189ZM1726.01 791.374C1726.83 791.272 1727.42 790.522 1727.31 789.7C1727.21 788.878 1726.46 788.295 1725.64 788.397L1726.01 791.374ZM1853.2 777.728C1852.37 777.765 1851.73 778.466 1851.76 779.294C1851.8 780.122 1852.5 780.762 1853.33 780.725L1853.2 777.728ZM1981.12 778.516C1981.95 778.519 1982.62 777.849 1982.63 777.021C1982.63 776.193 1981.96 775.519 1981.13 775.516L1981.12 778.516ZM2106.83 781.232C2107.66 781.276 2108.36 780.641 2108.41 779.814C2108.45 778.986 2107.82 778.28 2106.99 778.236L2106.83 781.232ZM2230.33 787.957C2229.51 787.874 2228.77 788.476 2228.69 789.3C2228.61 790.124 2229.21 790.859 2230.03 790.942L2230.33 787.957ZM2352.86 805.335C2353.68 805.444 2354.43 804.867 2354.54 804.045C2354.65 803.224 2354.07 802.47 2353.25 802.361L2352.86 805.335ZM2479.45 825.185C2480.27 825.317 2481.04 824.761 2481.17 823.943C2481.31 823.126 2480.75 822.356 2479.93 822.223L2479.45 825.185ZM2611.64 841.206C2610.82 841.103 2610.07 841.686 2609.97 842.508C2609.86 843.331 2610.45 844.08 2611.27 844.183L2611.64 841.206ZM2743.83 857.163C2744.66 857.215 2745.37 856.587 2745.42 855.76C2745.48 854.934 2744.85 854.221 2744.02 854.169L2743.83 857.163ZM2876.17 858.241C2877 858.207 2877.64 857.508 2877.61 856.681C2877.57 855.853 2876.87 855.21 2876.05 855.244L2876.17 858.241ZM3006.66 843.177C3005.84 843.301 3005.27 844.064 3005.4 844.884C3005.52 845.703 3006.28 846.267 3007.1 846.144L3006.66 843.177ZM3135.16 816.526C3135.94 816.26 3136.36 815.409 3136.1 814.624C3135.83 813.84 3134.98 813.419 3134.19 813.685L3135.16 816.526ZM3194.5 766.763C3194.5 765.934 3193.83 765.263 3193 765.263C3192.17 765.263 3191.5 765.934 3191.5 766.763H3194.5ZM3161.11 745.5C3160.29 745.5 3159.61 746.172 3159.61 747C3159.61 747.828 3160.29 748.5 3161.11 748.5V745.5ZM3076.09 745.5C3075.26 745.5 3074.59 746.172 3074.59 747C3074.59 747.828 3075.26 748.5 3076.09 748.5V745.5ZM2969.8 748.5C2970.63 748.5 2971.3 747.828 2971.3 747C2971.3 746.172 2970.63 745.5 2969.8 745.5V748.5ZM2863.52 745.5C2862.69 745.5 2862.02 746.172 2862.02 747C2862.02 747.828 2862.69 748.5 2863.52 748.5V745.5ZM2765.03 745.5C2764.2 745.5 2763.53 746.172 2763.53 747C2763.53 747.828 2764.2 748.5 2765.03 748.5V745.5ZM2674.34 748.5C2675.17 748.5 2675.84 747.828 2675.84 747C2675.84 746.172 2675.17 745.5 2674.34 745.5V748.5ZM2630.5 683.4C2630.5 682.572 2629.83 681.9 2629 681.9C2628.17 681.9 2627.5 682.572 2627.5 683.4H2630.5ZM2627.5 556.2C2627.5 557.028 2628.17 557.7 2629 557.7C2629.83 557.7 2630.5 557.028 2630.5 556.2H2627.5ZM2630.5 429C2630.5 428.172 2629.83 427.5 2629 427.5C2628.17 427.5 2627.5 428.172 2627.5 429H2630.5ZM2627.5 301.8C2627.5 302.628 2628.17 303.3 2629 303.3C2629.83 303.3 2630.5 302.628 2630.5 301.8H2627.5ZM2630.5 174.6C2630.5 173.772 2629.83 173.1 2629 173.1C2628.17 173.1 2627.5 173.772 2627.5 174.6H2630.5ZM2653.69 112.5C2654.52 112.5 2655.19 111.828 2655.19 111C2655.19 110.172 2654.52 109.5 2653.69 109.5V112.5ZM2731.52 112.5C2732.35 112.5 2733.02 111.828 2733.02 111C2733.02 110.172 2732.35 109.5 2731.52 109.5V112.5ZM2837.8 109.5C2836.97 109.5 2836.3 110.172 2836.3 111C2836.3 111.828 2836.97 112.5 2837.8 112.5V109.5ZM2944.09 112.5C2944.92 112.5 2945.59 111.828 2945.59 111C2945.59 110.172 2944.92 109.5 2944.09 109.5V112.5ZM3029.11 112.5C3029.94 112.5 3030.61 111.828 3030.61 111C3030.61 110.172 3029.94 109.5 3029.11 109.5V112.5ZM3062.5 73.0987C3062.5 72.2703 3061.83 71.5987 3061 71.5987C3060.17 71.5987 3059.5 72.2703 3059.5 73.0987H3062.5ZM3029 36.1383C3028.17 36.2014 3027.56 36.9222 3027.62 37.7482C3027.68 38.5743 3028.4 39.1927 3029.23 39.1296L3029 36.1383ZM2936.37 47.3383C2935.55 47.4478 2934.98 48.2023 2935.09 49.0234C2935.2 49.8446 2935.95 50.4215 2936.77 50.312L2936.37 47.3383ZM2814.8 63.5538C2815.62 63.4863 2816.24 62.7622 2816.17 61.9365C2816.1 61.1108 2815.38 60.4963 2814.55 60.5638L2814.8 63.5538ZM2692.37 66.7004C2691.54 66.7136 2690.88 67.3958 2690.9 68.2241C2690.91 69.0524 2691.59 69.7132 2692.42 69.7L2692.37 66.7004ZM2569.78 66.7128C2570.61 66.7686 2571.32 66.1438 2571.38 65.3173C2571.43 64.4907 2570.81 63.7754 2569.98 63.7196L2569.78 66.7128ZM2448.44 49.9783C2447.62 49.8508 2446.85 50.411 2446.72 51.2295C2446.59 52.0481 2447.15 52.815 2447.97 52.9426L2448.44 49.9783ZM2342.16 31.9527C2341.34 31.8242 2340.57 32.3835 2340.44 33.2019C2340.31 34.0203 2340.87 34.7879 2341.69 34.9164L2342.16 31.9527ZM2232.18 21.5348C2231.36 21.4826 2230.64 22.1104 2230.59 22.9372C2230.54 23.764 2231.17 24.4766 2231.99 24.5289L2232.18 21.5348ZM2104.53 18.8326C2105.36 18.8537 2106.05 18.1995 2106.07 17.3713C2106.09 16.5432 2105.44 15.8547 2104.61 15.8336L2104.53 18.8326ZM1976.9 15.1877C1976.07 15.201 1975.41 15.8832 1975.43 16.7115C1975.44 17.5398 1976.12 18.2006 1976.95 18.1873L1976.9 15.1877ZM1848.96 20.3948C1848.13 20.4493 1847.5 21.1635 1847.56 21.9902C1847.61 22.8168 1848.33 23.4428 1849.15 23.3883L1848.96 20.3948ZM1721.38 34.5868C1722.21 34.4975 1722.8 33.7575 1722.71 32.9339C1722.62 32.1103 1721.88 31.515 1721.06 31.6043L1721.38 34.5868ZM1593.71 47.8108C1592.89 47.9298 1592.32 48.6908 1592.44 49.5107C1592.56 50.3305 1593.32 50.8987 1594.14 50.7797L1593.71 47.8108ZM1466.99 66.6257C1466.17 66.7282 1465.58 67.4776 1465.69 68.2997C1465.79 69.1218 1466.54 69.7051 1467.36 69.6027L1466.99 66.6257ZM1339.8 80.2716C1340.63 80.2346 1341.27 79.5337 1341.24 78.7061C1341.2 77.8785 1340.5 77.2376 1339.67 77.2746L1339.8 80.2716ZM1211.88 79.4838C1211.05 79.4812 1210.38 80.1506 1210.37 80.979C1210.37 81.8074 1211.04 82.4811 1211.87 82.4838L1211.88 79.4838ZM1086.17 76.7677C1085.34 76.724 1084.64 77.3591 1084.59 78.1864C1084.55 79.0137 1085.18 79.7198 1086.01 79.7635L1086.17 76.7677ZM962.666 70.0428C963.49 70.1256 964.225 69.5245 964.308 68.7002C964.391 67.8759 963.79 67.1406 962.965 67.0578L962.666 70.0428ZM840.144 52.6654C839.322 52.5562 838.568 53.1334 838.459 53.9546C838.35 54.7758 838.927 55.53 839.748 55.6392L840.144 52.6654ZM713.547 32.8149C712.729 32.6828 711.959 33.2387 711.827 34.0565C711.695 34.8743 712.251 35.6444 713.069 35.7765L713.547 32.8149ZM581.36 16.7938C582.182 16.8966 582.932 16.3136 583.035 15.4915C583.138 14.6695 582.555 13.9198 581.733 13.817L581.36 16.7938ZM449.167 0.837283C448.341 0.785024 447.628 1.4129 447.576 2.23967C447.523 3.06645 448.151 3.77905 448.978 3.83131L449.167 0.837283ZM316.83 -0.241173C316.003 -0.207118 315.359 0.491494 315.393 1.31922C315.427 2.14695 316.126 2.79035 316.954 2.75629L316.83 -0.241173ZM186.344 14.8226C187.164 14.6995 187.728 13.9355 187.605 13.1163C187.482 12.2971 186.718 11.7328 185.898 11.8559L186.344 14.8226ZM57.8432 41.4736C57.0586 41.7395 56.6381 42.5911 56.904 43.3757C57.1699 44.1603 58.0215 44.5808 58.8061 44.3149L57.8432 41.4736ZM-1.5 71.4744V91.2372H1.5V71.4744H-1.5ZM0 112.5H31.8854V109.5H0V112.5ZM63.7708 112.5H116.913V109.5H63.7708V112.5ZM223.198 112.5H329.483V109.5H223.198V112.5ZM382.625 112.5H442.312V109.5H382.625V112.5ZM500.5 111V174.6H503.5V111H500.5ZM500.5 301.8V429H503.5V301.8H500.5ZM500.5 556.2V683.4H503.5V556.2H500.5ZM502 745.5H450.962V748.5H502V745.5ZM348.885 745.5H246.809V748.5H348.885V745.5ZM195.771 745.5H163.885V748.5H195.771V745.5ZM130.5 747V784.901H133.5V747H130.5ZM132.114 824.298L164 821.862L163.771 818.87L131.886 821.307L132.114 824.298ZM196 819.412C216.861 816.18 237.059 813.27 256.625 810.662L256.229 807.688C236.641 810.3 216.422 813.212 195.541 816.447L196 819.412ZM378.446 797.436C422.912 793.799 463.458 791.892 500.629 791.3L500.581 788.3C463.342 788.893 422.73 790.804 378.201 794.446L378.446 797.436ZM623.018 794.28C669.439 797.416 709.262 802.522 744.565 808.022L745.027 805.057C709.66 799.547 669.747 794.43 623.22 791.287L623.018 794.28ZM804.924 818.227C821.022 821.069 836.232 823.753 850.843 826.047L851.308 823.084C836.731 820.795 821.549 818.115 805.445 815.273L804.924 818.227ZM897.129 831.878C918.358 833.59 939.587 835.123 960.817 836.465L961.006 833.471C939.794 832.13 918.583 830.599 897.371 828.888L897.129 831.878ZM1088.39 842.166C1130.96 843.252 1173.53 843.495 1216.1 842.812L1216.05 839.813C1173.52 840.494 1131 840.252 1088.47 839.167L1088.39 842.166ZM1279.94 841.086C1301.31 840.179 1322.68 839.014 1344.04 837.605L1343.85 834.612C1322.5 836.019 1301.16 837.183 1279.81 838.089L1279.94 841.086ZM1471.94 826.396C1514.39 821.792 1556.84 816.35 1599.29 810.189L1598.86 807.22C1556.44 813.377 1514.03 818.814 1471.62 823.413L1471.94 826.396ZM1662.74 800.46C1684.59 796.935 1705.52 793.928 1726.01 791.374L1725.64 788.397C1705.11 790.955 1684.14 793.968 1662.26 797.498L1662.74 800.46ZM1853.33 780.725C1892.85 778.958 1934.36 778.367 1981.12 778.516L1981.13 775.516C1934.34 775.367 1892.78 775.958 1853.2 777.728L1853.33 780.725ZM2045.1 779.092C2065.03 779.364 2085.78 780.119 2106.83 781.232L2106.99 778.236C2085.91 777.122 2065.12 776.365 2045.15 776.092L2045.1 779.092ZM2230.03 790.942C2277.07 795.667 2320.2 800.993 2352.86 805.335L2353.25 802.361C2320.57 798.016 2277.41 792.686 2230.33 787.957L2230.03 790.942ZM2414.2 812.515C2413.93 813.99 2413.93 813.99 2413.93 813.99C2413.93 813.99 2413.93 813.99 2413.93 813.99C2413.93 813.99 2413.93 813.991 2413.93 813.991C2413.93 813.991 2413.94 813.992 2413.94 813.994C2413.96 813.996 2413.98 813.999 2414 814.004C2414.05 814.013 2414.13 814.027 2414.23 814.045C2414.42 814.082 2414.72 814.136 2415.11 814.207C2415.89 814.35 2417.05 814.561 2418.57 814.835C2421.6 815.381 2426.05 816.177 2431.75 817.174C2443.15 819.168 2459.53 821.967 2479.45 825.185L2479.93 822.223C2460.02 819.007 2443.66 816.211 2432.27 814.219C2426.57 813.223 2422.12 812.428 2419.1 811.882C2417.58 811.609 2416.43 811.399 2415.65 811.256C2415.26 811.185 2414.97 811.131 2414.77 811.095C2414.67 811.077 2414.6 811.063 2414.55 811.054C2414.52 811.049 2414.5 811.046 2414.49 811.044C2414.48 811.042 2414.48 811.042 2414.48 811.041C2414.47 811.041 2414.47 811.041 2414.47 811.04C2414.47 811.04 2414.47 811.04 2414.47 811.04C2414.47 811.04 2414.47 811.04 2414.2 812.515ZM2611.27 844.183C2654.87 849.635 2700.88 854.448 2743.83 857.163L2744.02 854.169C2701.15 851.459 2655.21 846.653 2611.64 841.206L2611.27 844.183ZM2810.37 859.497C2833.4 859.544 2855.33 859.099 2876.17 858.241L2876.05 855.244C2855.25 856.099 2833.37 856.544 2810.38 856.497L2810.37 859.497ZM3007.1 846.144C3062.38 837.836 3104.81 826.81 3135.16 816.526L3134.19 813.685C3104.03 823.906 3061.77 834.893 3006.66 843.177L3007.1 846.144ZM3194.5 786.526V766.763H3191.5V786.526H3194.5ZM3193 745.5H3161.11V748.5H3193V745.5ZM3129.23 745.5H3076.09V748.5H3129.23V745.5ZM2969.8 745.5H2863.52V748.5H2969.8V745.5ZM2810.38 745.5H2765.03V748.5H2810.38V745.5ZM2674.34 745.5H2629V748.5H2674.34V745.5ZM2630.5 747V683.4H2627.5V747H2630.5ZM2630.5 556.2V429H2627.5V556.2H2630.5ZM2630.5 301.8V174.6H2627.5V301.8H2630.5ZM2629 112.5H2653.69V109.5H2629V112.5ZM2678.38 112.5H2731.52V109.5H2678.38V112.5ZM2837.8 112.5H2944.09V109.5H2837.8V112.5ZM2997.23 112.5H3029.11V109.5H2997.23V112.5ZM3062.5 111V73.0987H3059.5V111H3062.5ZM3060.89 33.7018L3029 36.1383L3029.23 39.1296L3061.11 36.6931L3060.89 33.7018ZM2997 38.5882C2976.14 41.8204 2955.94 44.7296 2936.37 47.3383L2936.77 50.312C2956.36 47.7004 2976.58 44.7882 2997.46 41.5528L2997 38.5882ZM2814.55 60.5638C2770.09 64.2009 2729.54 66.1082 2692.37 66.7004L2692.42 69.7C2729.66 69.1068 2770.27 67.1961 2814.8 63.5538L2814.55 60.5638ZM2569.98 63.7196C2523.56 60.5842 2483.74 55.4783 2448.44 49.9783L2447.97 52.9426C2483.34 58.4525 2523.25 63.5701 2569.78 66.7128L2569.98 63.7196ZM2388.08 39.773C2371.98 36.9315 2356.77 34.2466 2342.16 31.9527L2341.69 34.9164C2356.27 37.2051 2371.45 39.8848 2387.55 42.7274L2388.08 39.773ZM2295.87 26.122C2274.64 24.4097 2253.41 22.8773 2232.18 21.5348L2231.99 24.5289C2253.21 25.8702 2274.42 27.4014 2295.63 29.1123L2295.87 26.122ZM2104.61 15.8336C2062.04 14.7476 2019.47 14.5054 1976.9 15.1877L1976.95 18.1873C2019.48 17.5057 2062 17.7476 2104.53 18.8326L2104.61 15.8336ZM1913.06 16.9139C1891.69 17.8211 1870.32 18.9865 1848.96 20.3948L1849.15 23.3883C1870.5 21.9815 1891.84 20.8174 1913.19 19.9112L1913.06 16.9139ZM1721.06 31.6043C1678.61 36.2077 1636.16 41.6498 1593.71 47.8108L1594.14 50.7797C1636.56 44.6234 1678.97 39.186 1721.38 34.5868L1721.06 31.6043ZM1530.26 57.5402C1508.41 61.0649 1487.48 64.0724 1466.99 66.6257L1467.36 69.6027C1487.89 67.0446 1508.86 64.0319 1530.74 60.502L1530.26 57.5402ZM1339.67 77.2746C1300.15 79.0421 1258.64 79.6332 1211.88 79.4838L1211.87 82.4838C1258.66 82.6333 1300.22 82.042 1339.8 80.2716L1339.67 77.2746ZM1147.9 78.9084C1127.97 78.6363 1107.22 77.8809 1086.17 76.7677L1086.01 79.7635C1107.09 80.8784 1127.88 81.6354 1147.85 81.9081L1147.9 78.9084ZM962.965 67.0578C915.926 62.3329 872.798 57.0072 840.144 52.6654L839.748 55.6392C872.426 59.984 915.587 65.3139 962.666 70.0428L962.965 67.0578ZM778.801 45.4849C779.075 44.01 779.074 44.01 779.074 44.01C779.074 44.0099 779.074 44.0099 779.073 44.0098C779.072 44.0096 779.071 44.0094 779.07 44.0091C779.066 44.0085 779.062 44.0076 779.055 44.0065C779.043 44.0041 779.024 44.0007 778.999 43.996C778.949 43.9868 778.874 43.973 778.775 43.9548C778.577 43.9183 778.281 43.8639 777.891 43.7925C777.11 43.6498 775.95 43.4387 774.435 43.1653C771.404 42.6186 766.949 41.8227 761.248 40.8258C749.848 38.8318 733.468 36.0334 713.547 32.8149L713.069 35.7765C732.975 38.9927 749.342 41.7889 760.731 43.7809C766.426 44.7769 770.876 45.5718 773.902 46.1177C775.415 46.3906 776.572 46.6012 777.351 46.7436C777.74 46.8148 778.035 46.8689 778.232 46.9052C778.33 46.9233 778.405 46.937 778.454 46.9462C778.479 46.9507 778.497 46.9542 778.51 46.9564C778.516 46.9576 778.521 46.9584 778.524 46.959C778.525 46.9593 778.526 46.9595 778.527 46.9596C778.527 46.9597 778.528 46.9598 778.528 46.9598C778.528 46.9598 778.528 46.9598 778.801 45.4849ZM581.733 13.817C538.128 8.36514 492.121 3.55231 449.167 0.837283L448.978 3.83131C491.851 6.54119 537.793 11.3466 581.36 16.7938L581.733 13.817ZM382.628 -1.49659C359.598 -1.54385 337.672 -1.09864 316.83 -0.241173L316.954 2.75629C337.751 1.90062 359.635 1.45623 382.622 1.5034L382.628 -1.49659ZM185.898 11.8559C130.623 20.1644 88.1882 31.1902 57.8432 41.4736L58.8061 44.3149C88.9682 34.0935 131.229 23.1071 186.344 14.8226L185.898 11.8559ZM3 71.4744C3 69.8175 1.65685 68.4744 0 68.4744C-1.65685 68.4744 -3 69.8175 -3 71.4744H3ZM382.619 3.0034C384.276 3.0068 385.622 1.66641 385.625 0.00956337C385.628 -1.64729 384.288 -2.99319 382.631 -2.99659L382.619 3.0034ZM0 108C-1.65685 108 -3 109.343 -3 111C-3 112.657 -1.65685 114 0 114V108ZM63.7708 108C62.114 108 60.7708 109.343 60.7708 111C60.7708 112.657 62.114 114 63.7708 114V108ZM382.625 108C380.968 108 379.625 109.343 379.625 111C379.625 112.657 380.968 114 382.625 114V108ZM505 111C505 109.343 503.657 108 502 108C500.343 108 499 109.343 499 111H505ZM502 750C503.657 750 505 748.657 505 747C505 745.343 503.657 744 502 744V750ZM195.771 750C197.428 750 198.771 748.657 198.771 747C198.771 745.343 197.428 744 195.771 744V750ZM135 747C135 745.343 133.657 744 132 744C130.343 744 129 745.343 129 747H135ZM131.771 819.811C130.119 819.937 128.882 821.379 129.009 823.031C129.135 824.683 130.577 825.92 132.229 825.794L131.771 819.811ZM195.311 814.965C193.674 815.219 192.552 816.752 192.806 818.389C193.06 820.026 194.593 821.148 196.23 820.894L195.311 814.965ZM805.706 813.795C804.074 813.508 802.518 814.597 802.23 816.228C801.942 817.86 803.031 819.416 804.663 819.704L805.706 813.795ZM897.491 827.393C895.84 827.259 894.393 828.49 894.26 830.142C894.127 831.793 895.357 833.24 897.009 833.373L897.491 827.393ZM1279.75 836.59C1278.09 836.66 1276.81 838.059 1276.88 839.715C1276.95 841.37 1278.35 842.655 1280 842.585L1279.75 836.59ZM1662.02 796.017C1660.39 796.281 1659.27 797.821 1659.54 799.457C1659.8 801.092 1661.34 802.204 1662.98 801.941L1662.02 796.017ZM2045.17 774.592C2043.51 774.569 2042.15 775.894 2042.13 777.551C2042.1 779.207 2043.43 780.569 2045.08 780.591L2045.17 774.592ZM2414.75 809.565C2413.12 809.263 2411.55 810.339 2411.25 811.969C2410.95 813.598 2412.02 815.163 2413.65 815.465L2414.75 809.565ZM2810.38 854.997C2808.72 854.993 2807.38 856.334 2807.38 857.99C2807.37 859.647 2808.71 860.993 2810.37 860.997L2810.38 854.997ZM3190 786.526C3190 788.182 3191.34 789.526 3193 789.526C3194.66 789.526 3196 788.182 3196 786.526H3190ZM3193 750C3194.66 750 3196 748.657 3196 747C3196 745.343 3194.66 744 3193 744V750ZM3129.23 750C3130.89 750 3132.23 748.657 3132.23 747C3132.23 745.343 3130.89 744 3129.23 744V750ZM2810.38 750C2812.03 750 2813.38 748.657 2813.38 747C2813.38 745.343 2812.03 744 2810.38 744V750ZM2629 747H2626V750H2629V747ZM2629 108C2627.34 108 2626 109.343 2626 111C2626 112.657 2627.34 114 2629 114V108ZM2678.38 108C2676.72 108 2675.38 109.343 2675.38 111C2675.38 112.657 2676.72 114 2678.38 114V108ZM2997.23 108C2995.57 108 2994.23 109.343 2994.23 111C2994.23 112.657 2995.57 114 2997.23 114V108ZM3058 111C3058 112.657 3059.34 114 3061 114C3062.66 114 3064 112.657 3064 111H3058ZM3061.23 38.1887C3062.88 38.0625 3064.12 36.6209 3063.99 34.9689C3063.86 33.3168 3062.42 32.0799 3060.77 32.2062L3061.23 38.1887ZM2997.69 43.0351C2999.33 42.7814 3000.45 41.2484 3000.19 39.6111C2999.94 37.9738 2998.41 36.8522 2996.77 37.1058L2997.69 43.0351ZM2387.29 44.2045C2388.93 44.4925 2390.48 43.4033 2390.77 41.7717C2391.06 40.14 2389.97 38.5839 2388.34 38.2959L2387.29 44.2045ZM2295.51 30.6075C2297.16 30.7407 2298.61 29.5099 2298.74 27.8584C2298.87 26.2069 2297.64 24.7601 2295.99 24.6269L2295.51 30.6075ZM1913.25 21.4099C1914.91 21.3396 1916.19 19.9407 1916.12 18.2854C1916.05 16.63 1914.65 15.345 1913 15.4153L1913.25 21.4099ZM1530.98 61.9828C1532.61 61.7189 1533.73 60.179 1533.46 58.5433C1533.2 56.9076 1531.66 55.7955 1530.02 56.0594L1530.98 61.9828ZM1147.83 83.408C1149.49 83.4306 1150.85 82.1059 1150.87 80.4492C1150.9 78.7925 1149.57 77.4311 1147.92 77.4085L1147.83 83.408ZM778.255 48.4348C779.884 48.7365 781.449 47.6605 781.751 46.0314C782.053 44.4022 780.977 42.8369 779.348 42.5351L778.255 48.4348ZM-3 91.2372C-3 92.894 -1.65685 94.2372 0 94.2372C1.65685 94.2372 3 92.894 3 91.2372H-3ZM31.8854 114C33.5423 114 34.8854 112.657 34.8854 111C34.8854 109.343 33.5423 108 31.8854 108V114ZM116.913 114C118.57 114 119.913 112.657 119.913 111C119.913 109.343 118.57 108 116.913 108V114ZM223.198 108C221.541 108 220.198 109.343 220.198 111C220.198 112.657 221.541 114 223.198 114V108ZM329.483 114C331.139 114 332.483 112.657 332.483 111C332.483 109.343 331.139 108 329.483 108V114ZM442.312 114C443.969 114 445.312 112.657 445.312 111C445.312 109.343 443.969 108 442.312 108V114ZM499 174.6C499 176.257 500.343 177.6 502 177.6C503.657 177.6 505 176.257 505 174.6H499ZM505 301.8C505 300.143 503.657 298.8 502 298.8C500.343 298.8 499 300.143 499 301.8H505ZM499 429C499 430.657 500.343 432 502 432C503.657 432 505 430.657 505 429H499ZM505 556.2C505 554.543 503.657 553.2 502 553.2C500.343 553.2 499 554.543 499 556.2H505ZM499 683.4C499 685.057 500.343 686.4 502 686.4C503.657 686.4 505 685.057 505 683.4H499ZM450.962 744C449.305 744 447.962 745.343 447.962 747C447.962 748.657 449.305 750 450.962 750V744ZM348.885 750C350.542 750 351.885 748.657 351.885 747C351.885 745.343 350.542 744 348.885 744V750ZM246.809 744C245.152 744 243.809 745.343 243.809 747C243.809 748.657 245.152 750 246.809 750V744ZM163.885 744C162.229 744 160.885 745.343 160.885 747C160.885 748.657 162.229 750 163.885 750V744ZM129 784.901C129 786.558 130.343 787.901 132 787.901C133.657 787.901 135 786.558 135 784.901H129ZM164.114 823.357C165.766 823.231 167.003 821.789 166.877 820.137C166.75 818.485 165.309 817.249 163.657 817.375L164.114 823.357ZM256.823 812.148C258.466 811.93 259.62 810.421 259.401 808.778C259.182 807.136 257.673 805.982 256.03 806.201L256.823 812.148ZM378.079 792.951C376.427 793.086 375.198 794.534 375.333 796.186C375.468 797.837 376.917 799.066 378.568 798.931L378.079 792.951ZM500.652 792.799C502.309 792.773 503.631 791.409 503.604 789.752C503.578 788.095 502.214 786.774 500.557 786.8L500.652 792.799ZM623.321 789.791C621.668 789.679 620.237 790.929 620.126 792.582C620.014 794.235 621.264 795.665 622.917 795.777L623.321 789.791ZM744.334 809.504C745.971 809.759 747.505 808.638 747.76 807.001C748.015 805.364 746.895 803.83 745.258 803.575L744.334 809.504ZM850.61 827.529C852.247 827.786 853.782 826.668 854.039 825.031C854.296 823.394 853.178 821.859 851.541 821.602L850.61 827.529ZM960.722 837.962C962.376 838.067 963.801 836.811 963.905 835.157C964.01 833.504 962.754 832.079 961.101 831.974L960.722 837.962ZM1088.51 837.668C1086.85 837.626 1085.47 838.934 1085.43 840.59C1085.39 842.247 1086.7 843.624 1088.35 843.666L1088.51 837.668ZM1216.12 844.312C1217.78 844.286 1219.1 842.921 1219.07 841.264C1219.05 839.608 1217.68 838.286 1216.02 838.313L1216.12 844.312ZM1344.14 839.102C1345.8 838.993 1347.05 837.564 1346.94 835.911C1346.83 834.258 1345.4 833.006 1343.75 833.115L1344.14 839.102ZM1471.45 821.922C1469.81 822.101 1468.62 823.581 1468.8 825.228C1468.97 826.875 1470.45 828.066 1472.1 827.887L1471.45 821.922ZM1599.51 811.674C1601.15 811.436 1602.28 809.914 1602.04 808.274C1601.81 806.634 1600.28 805.498 1598.64 805.736L1599.51 811.674ZM1726.2 792.863C1727.84 792.658 1729.01 791.159 1728.8 789.515C1728.6 787.871 1727.1 786.704 1725.45 786.909L1726.2 792.863ZM1853.13 776.23C1851.47 776.304 1850.19 777.706 1850.27 779.361C1850.34 781.016 1851.74 782.298 1853.4 782.224L1853.13 776.23ZM1981.12 780.016C1982.77 780.021 1984.12 778.683 1984.13 777.026C1984.13 775.369 1982.79 774.021 1981.14 774.016L1981.12 780.016ZM2106.75 782.73C2108.41 782.818 2109.82 781.547 2109.91 779.893C2109.99 778.238 2108.72 776.826 2107.07 776.739L2106.75 782.73ZM2230.48 786.465C2228.84 786.299 2227.36 787.501 2227.2 789.15C2227.03 790.798 2228.24 792.269 2229.88 792.435L2230.48 786.465ZM2352.66 806.822C2354.3 807.04 2355.81 805.885 2356.03 804.243C2356.25 802.601 2355.09 801.092 2353.45 800.874L2352.66 806.822ZM2479.21 826.666C2480.85 826.93 2482.39 825.818 2482.65 824.183C2482.92 822.547 2481.81 821.007 2480.17 820.743L2479.21 826.666ZM2611.83 839.718C2610.18 839.512 2608.68 840.678 2608.48 842.322C2608.27 843.966 2609.44 845.466 2611.08 845.671L2611.83 839.718ZM2743.74 858.66C2745.39 858.764 2746.82 857.508 2746.92 855.855C2747.03 854.201 2745.77 852.776 2744.12 852.672L2743.74 858.66ZM2876.23 859.74C2877.89 859.672 2879.17 858.275 2879.11 856.619C2879.04 854.964 2877.64 853.677 2875.98 853.745L2876.23 859.74ZM3006.43 841.694C3004.79 841.94 3003.67 843.468 3003.91 845.107C3004.16 846.745 3005.69 847.874 3007.32 847.627L3006.43 841.694ZM3135.64 817.947C3137.21 817.415 3138.05 815.712 3137.52 814.143C3136.98 812.574 3135.28 811.733 3133.71 812.264L3135.64 817.947ZM3196 766.763C3196 765.106 3194.66 763.763 3193 763.763C3191.34 763.763 3190 765.106 3190 766.763H3196ZM3161.11 744C3159.46 744 3158.11 745.343 3158.11 747C3158.11 748.657 3159.46 750 3161.11 750V744ZM3076.09 744C3074.43 744 3073.09 745.343 3073.09 747C3073.09 748.657 3074.43 750 3076.09 750V744ZM2969.8 750C2971.46 750 2972.8 748.657 2972.8 747C2972.8 745.343 2971.46 744 2969.8 744V750ZM2863.52 744C2861.86 744 2860.52 745.343 2860.52 747C2860.52 748.657 2861.86 750 2863.52 750V744ZM2765.03 744C2763.37 744 2762.03 745.343 2762.03 747C2762.03 748.657 2763.37 750 2765.03 750V744ZM2674.34 750C2676 750 2677.34 748.657 2677.34 747C2677.34 745.343 2676 744 2674.34 744V750ZM2632 683.4C2632 681.743 2630.66 680.4 2629 680.4C2627.34 680.4 2626 681.743 2626 683.4H2632ZM2626 556.2C2626 557.857 2627.34 559.2 2629 559.2C2630.66 559.2 2632 557.857 2632 556.2H2626ZM2632 429C2632 427.343 2630.66 426 2629 426C2627.34 426 2626 427.343 2626 429H2632ZM2626 301.8C2626 303.457 2627.34 304.8 2629 304.8C2630.66 304.8 2632 303.457 2632 301.8H2626ZM2632 174.6C2632 172.943 2630.66 171.6 2629 171.6C2627.34 171.6 2626 172.943 2626 174.6H2632ZM2653.69 114C2655.34 114 2656.69 112.657 2656.69 111C2656.69 109.343 2655.34 108 2653.69 108V114ZM2731.52 114C2733.17 114 2734.52 112.657 2734.52 111C2734.52 109.343 2733.17 108 2731.52 108V114ZM2837.8 108C2836.15 108 2834.8 109.343 2834.8 111C2834.8 112.657 2836.15 114 2837.8 114V108ZM2944.09 114C2945.74 114 2947.09 112.657 2947.09 111C2947.09 109.343 2945.74 108 2944.09 108V114ZM3029.11 114C3030.77 114 3032.11 112.657 3032.11 111C3032.11 109.343 3030.77 108 3029.11 108V114ZM3064 73.0987C3064 71.4419 3062.66 70.0987 3061 70.0987C3059.34 70.0987 3058 71.4419 3058 73.0987H3064ZM3028.89 34.6427C3027.23 34.7689 3026 36.2105 3026.12 37.8625C3026.25 39.5146 3027.69 40.7515 3029.34 40.6252L3028.89 34.6427ZM2936.18 45.8515C2934.53 46.0705 2933.38 47.5793 2933.6 49.2217C2933.82 50.864 2935.33 52.0178 2936.97 51.7989L2936.18 45.8515ZM2814.92 65.0488C2816.57 64.9137 2817.8 63.4656 2817.67 61.8142C2817.53 60.1629 2816.08 58.9337 2814.43 59.0688L2814.92 65.0488ZM2692.35 65.2006C2690.69 65.227 2689.37 66.5914 2689.4 68.248C2689.42 69.9047 2690.79 71.2262 2692.44 71.1998L2692.35 65.2006ZM2569.68 68.2094C2571.33 68.321 2572.76 67.0715 2572.87 65.4184C2572.99 63.7653 2571.74 62.3347 2570.08 62.223L2569.68 68.2094ZM2448.67 48.4962C2447.03 48.2411 2445.49 49.3615 2445.24 50.9986C2444.98 52.6357 2446.11 54.1696 2447.74 54.4247L2448.67 48.4962ZM2342.39 30.4709C2340.75 30.2139 2339.22 31.3324 2338.96 32.9692C2338.7 34.606 2339.82 36.1413 2341.46 36.3982L2342.39 30.4709ZM2232.28 20.0378C2230.62 19.9333 2229.2 21.189 2229.09 22.8425C2228.99 24.4961 2230.25 25.9213 2231.9 26.0259L2232.28 20.0378ZM2104.49 20.3321C2106.15 20.3744 2107.53 19.0659 2107.57 17.4096C2107.61 15.7533 2106.3 14.3763 2104.65 14.3341L2104.49 20.3321ZM1976.88 13.6879C1975.22 13.7144 1973.9 15.0789 1973.93 16.7356C1973.95 18.3922 1975.32 19.7136 1976.98 19.6871L1976.88 13.6879ZM1848.86 18.898C1847.2 19.007 1845.95 20.4356 1846.06 22.0888C1846.17 23.7421 1847.6 24.994 1849.25 24.885L1848.86 18.898ZM1721.55 36.0781C1723.19 35.8995 1724.38 34.4194 1724.2 32.7722C1724.03 31.125 1722.55 29.9344 1720.9 30.1131L1721.55 36.0781ZM1593.49 46.3263C1591.85 46.5643 1590.72 48.0864 1590.96 49.7261C1591.19 51.3658 1592.72 52.5021 1594.36 52.2641L1593.49 46.3263ZM1466.8 65.1372C1465.16 65.3421 1463.99 66.8411 1464.2 68.4852C1464.4 70.1293 1465.9 71.2961 1467.55 71.0912L1466.8 65.1372ZM1339.87 81.7701C1341.53 81.696 1342.81 80.2942 1342.73 78.639C1342.66 76.9838 1341.26 75.702 1339.6 75.7761L1339.87 81.7701ZM1211.88 77.9838C1210.23 77.9785 1208.88 79.3174 1208.87 80.9742C1208.87 82.6311 1210.21 83.9785 1211.86 83.9838L1211.88 77.9838ZM1086.25 75.2698C1084.59 75.1823 1083.18 76.4526 1083.09 78.1072C1083.01 79.7617 1084.28 81.1739 1085.93 81.2614L1086.25 75.2698ZM962.516 71.5353C964.164 71.7009 965.635 70.4987 965.801 68.8501C965.966 67.2016 964.764 65.7309 963.115 65.5653L962.516 71.5353ZM840.341 51.1785C838.699 50.9601 837.19 52.1145 836.972 53.7569C836.754 55.3993 837.908 56.9077 839.55 57.1261L840.341 51.1785ZM713.786 31.3342C712.151 31.0699 710.61 32.1816 710.346 33.8173C710.082 35.4529 711.194 36.9931 712.829 37.2573L713.786 31.3342ZM581.174 18.2823C582.818 18.4878 584.318 17.3217 584.523 15.6776C584.729 14.0336 583.563 12.5342 581.919 12.3286L581.174 18.2823ZM449.262 -0.65973C447.608 -0.764247 446.183 0.491496 446.079 2.14505C445.974 3.7986 447.23 5.2238 448.883 5.32832L449.262 -0.65973ZM316.769 -1.73991C315.113 -1.6718 313.826 -0.274571 313.894 1.38088C313.963 3.03634 315.36 4.32313 317.015 4.25502L316.769 -1.73991ZM186.567 16.3059C188.206 16.0597 189.334 14.5318 189.088 12.8933C188.842 11.2549 187.314 10.1263 185.675 10.3726L186.567 16.3059ZM57.3618 40.053C55.7926 40.5848 54.9516 42.2879 55.4834 43.8571C56.0152 45.4263 57.7183 46.2673 59.2875 45.7355L57.3618 40.053ZM-3 71.4744V91.2372H3V71.4744H-3ZM0 114H31.8854V108H0V114ZM63.7708 114H116.913V108H63.7708V114ZM223.198 114H329.483V108H223.198V114ZM382.625 114H442.312V108H382.625V114ZM499 111V174.6H505V111H499ZM499 301.8V429H505V301.8H499ZM499 556.2V683.4H505V556.2H499ZM502 744H450.962V750H502V744ZM348.885 744H246.809V750H348.885V744ZM195.771 744H163.885V750H195.771V744ZM129 747V784.901H135V747H129ZM132.229 825.794L164.114 823.357L163.657 817.375L131.771 819.811L132.229 825.794ZM196.23 820.894C217.08 817.663 237.268 814.756 256.823 812.148L256.03 806.201C236.432 808.814 216.203 811.728 195.311 814.965L196.23 820.894ZM378.568 798.931C423.003 795.297 463.516 793.391 500.652 792.799L500.557 786.8C463.284 787.394 422.64 789.306 378.079 792.951L378.568 798.931ZM622.917 795.777C669.284 798.909 709.063 804.009 744.334 809.504L745.258 803.575C709.859 798.06 669.902 792.937 623.321 789.791L622.917 795.777ZM804.663 819.704C820.758 822.545 835.983 825.233 850.61 827.529L851.541 821.602C836.98 819.316 821.813 816.639 805.706 813.795L804.663 819.704ZM897.009 833.373C918.246 835.086 939.484 836.619 960.722 837.962L961.101 831.974C939.898 830.633 918.695 829.103 897.491 827.393L897.009 833.373ZM1088.35 843.666C1130.94 844.752 1173.53 844.995 1216.12 844.312L1216.02 838.313C1173.52 838.994 1131.01 838.752 1088.51 837.668L1088.35 843.666ZM1280 842.585C1301.38 841.677 1322.76 840.511 1344.14 839.102L1343.75 833.115C1322.41 834.521 1301.08 835.685 1279.75 836.59L1280 842.585ZM1472.1 827.887C1514.57 823.281 1557.04 817.837 1599.51 811.674L1598.64 805.736C1556.24 811.89 1513.85 817.325 1471.45 821.922L1472.1 827.887ZM1662.98 801.941C1684.81 798.419 1705.73 795.414 1726.2 792.863L1725.45 786.909C1704.91 789.469 1683.92 792.485 1662.02 796.017L1662.98 801.941ZM1853.4 782.224C1892.89 780.458 1934.37 779.867 1981.12 780.016L1981.14 774.016C1934.33 773.867 1892.75 774.458 1853.13 776.23L1853.4 782.224ZM2045.08 780.591C2064.99 780.863 2085.72 781.618 2106.75 782.73L2107.07 776.739C2085.97 775.623 2065.16 774.865 2045.17 774.592L2045.08 780.591ZM2229.88 792.435C2276.9 797.158 2320.02 802.481 2352.66 806.822L2353.45 800.874C2320.76 796.528 2277.58 791.196 2230.48 786.465L2229.88 792.435ZM2414.2 812.515C2413.65 815.465 2413.65 815.465 2413.65 815.465C2413.65 815.465 2413.65 815.465 2413.65 815.465C2413.65 815.465 2413.66 815.466 2413.66 815.466C2413.66 815.466 2413.67 815.467 2413.67 815.469C2413.68 815.471 2413.7 815.474 2413.73 815.479C2413.78 815.488 2413.85 815.502 2413.95 815.52C2414.15 815.557 2414.45 815.612 2414.84 815.683C2415.62 815.826 2416.78 816.037 2418.3 816.311C2421.33 816.858 2425.79 817.654 2431.49 818.652C2442.9 820.647 2459.29 823.446 2479.21 826.666L2480.17 820.743C2460.27 817.528 2443.91 814.733 2432.53 812.742C2426.84 811.746 2422.39 810.952 2419.36 810.406C2417.85 810.133 2416.7 809.923 2415.92 809.781C2415.53 809.71 2415.24 809.656 2415.04 809.62C2414.94 809.601 2414.87 809.588 2414.82 809.579C2414.79 809.574 2414.78 809.571 2414.76 809.569C2414.76 809.567 2414.75 809.567 2414.75 809.566C2414.75 809.566 2414.75 809.566 2414.75 809.565C2414.75 809.565 2414.75 809.565 2414.75 809.565C2414.75 809.565 2414.75 809.565 2414.2 812.515ZM2611.08 845.671C2654.7 851.126 2700.74 855.942 2743.74 858.66L2744.12 852.672C2701.28 849.964 2655.38 845.163 2611.83 839.718L2611.08 845.671ZM2810.37 860.997C2833.42 861.044 2855.37 860.598 2876.23 859.74L2875.98 853.745C2855.21 854.6 2833.35 855.044 2810.38 854.997L2810.37 860.997ZM3007.32 847.627C3062.68 839.307 3105.2 828.261 3135.64 817.947L3133.71 812.264C3103.64 822.455 3061.47 833.422 3006.43 841.694L3007.32 847.627ZM3196 786.526V766.763H3190V786.526H3196ZM3193 744H3161.11V750H3193V744ZM3129.23 744H3076.09V750H3129.23V744ZM2969.8 744H2863.52V750H2969.8V744ZM2810.38 744H2765.03V750H2810.38V744ZM2674.34 744H2629V750H2674.34V744ZM2632 747V683.4H2626V747H2632ZM2632 556.2V429H2626V556.2H2632ZM2632 301.8V174.6H2626V301.8H2632ZM2629 114H2653.69V108H2629V114ZM2678.38 114H2731.52V108H2678.38V114ZM2837.8 114H2944.09V108H2837.8V114ZM2997.23 114H3029.11V108H2997.23V114ZM3064 111V73.0987H3058V111H3064ZM3060.77 32.2062L3028.89 34.6427L3029.34 40.6252L3061.23 38.1887L3060.77 32.2062ZM2996.77 37.1058C2975.92 40.3366 2955.73 43.2442 2936.18 45.8515L2936.97 51.7989C2956.57 49.1858 2976.8 46.2721 2997.69 43.0351L2996.77 37.1058ZM2814.43 59.0688C2770 62.7034 2729.48 64.609 2692.35 65.2006L2692.44 71.1998C2729.72 70.606 2770.36 68.6937 2814.92 65.0488L2814.43 59.0688ZM2570.08 62.223C2523.72 59.0912 2483.94 53.9912 2448.67 48.4962L2447.74 54.4247C2483.14 59.9397 2523.1 65.0631 2569.68 68.2094L2570.08 62.223ZM2388.34 38.2959C2372.24 35.4549 2357.02 32.7674 2342.39 30.4709L2341.46 36.3982C2356.02 38.6843 2371.19 41.3614 2387.29 44.2045L2388.34 38.2959ZM2295.99 24.6269C2274.75 22.9139 2253.52 21.3809 2232.28 20.0378L2231.9 26.0259C2253.1 27.3667 2274.31 28.8972 2295.51 30.6075L2295.99 24.6269ZM2104.65 14.3341C2062.06 13.2475 2019.47 13.0053 1976.88 13.6879L1976.98 19.6871C2019.48 19.0059 2061.99 19.2476 2104.49 20.3321L2104.65 14.3341ZM1913 15.4153C1891.62 16.323 1870.24 17.489 1848.86 18.898L1849.25 24.885C1870.59 23.479 1891.92 22.3155 1913.25 21.4099L1913 15.4153ZM1720.9 30.1131C1678.43 34.7185 1635.96 40.163 1593.49 46.3263L1594.36 52.2641C1636.76 46.1103 1679.15 40.6752 1721.55 36.0781L1720.9 30.1131ZM1530.02 56.0594C1508.19 59.5814 1487.27 62.5863 1466.8 65.1372L1467.55 71.0912C1488.09 68.5307 1509.08 65.5154 1530.98 61.9828L1530.02 56.0594ZM1339.6 75.7761C1300.11 77.5422 1258.63 78.1332 1211.88 77.9838L1211.86 83.9838C1258.67 84.1334 1300.25 83.5419 1339.87 81.7701L1339.6 75.7761ZM1147.92 77.4085C1128.01 77.1368 1107.28 76.3822 1086.25 75.2698L1085.93 81.2614C1107.03 82.3771 1127.84 83.135 1147.83 83.408L1147.92 77.4085ZM963.115 65.5653C916.096 60.8424 872.985 55.5187 840.341 51.1785L839.55 57.1261C872.239 61.4725 915.417 66.8044 962.516 71.5353L963.115 65.5653ZM778.801 45.4849C779.348 42.5351 779.348 42.5351 779.347 42.5351C779.347 42.535 779.347 42.5349 779.346 42.5349C779.346 42.5347 779.344 42.5345 779.343 42.5342C779.339 42.5336 779.335 42.5327 779.328 42.5315C779.315 42.5291 779.296 42.5256 779.271 42.521C779.221 42.5117 779.146 42.4978 779.047 42.4795C778.848 42.4429 778.551 42.3885 778.16 42.317C777.378 42.174 776.218 41.9627 774.701 41.6891C771.668 41.142 767.21 40.3456 761.507 39.3482C750.101 37.3533 733.714 34.5538 713.786 31.3342L712.829 37.2573C732.729 40.4723 749.089 43.2674 760.473 45.2585C766.165 46.254 770.613 47.0484 773.636 47.5938C775.148 47.8665 776.304 48.077 777.081 48.2191C777.47 48.2902 777.764 48.3442 777.96 48.3804C778.059 48.3985 778.132 48.4121 778.182 48.4212C778.206 48.4258 778.225 48.4292 778.237 48.4314C778.243 48.4326 778.248 48.4334 778.251 48.434C778.252 48.4342 778.253 48.4344 778.254 48.4346C778.254 48.4346 778.255 48.4347 778.255 48.4347C778.255 48.4347 778.255 48.4348 778.801 45.4849ZM581.919 12.3286C538.296 6.87443 492.257 2.05787 449.262 -0.65973L448.883 5.32832C491.716 8.03564 537.625 12.8373 581.174 18.2823L581.919 12.3286ZM382.631 -2.99659C359.58 -3.04389 337.632 -2.59827 316.769 -1.73991L317.015 4.25502C337.791 3.40025 359.653 2.95627 382.619 3.0034L382.631 -2.99659ZM185.675 10.3726C130.321 18.6931 87.7983 29.7386 57.3618 40.053L59.2875 45.7355C89.3581 35.5451 131.532 24.5784 186.567 16.3059L185.675 10.3726Z" fill="#FFBBDD" mask="url(#path-1-inside-1_0_2472)"/>
</svg>