<svg width="81" height="69" viewBox="0 0 81 69" fill="none" xmlns="http://www.w3.org/2000/svg">
	<path fill-rule="evenodd" clip-rule="evenodd" d="M40.4175 46.2341C38.5336 47.0107 36.6316 46.8356 34.8207 45.8161C30.9541 43.6415 28.7348 40.3105 27.973 35.9529C27.5088 33.3009 28.1416 31.0664 29.7583 28.8956C31.477 26.5891 33.5594 25.1387 36.2874 24.3733C39.5591 23.4535 42.5508 23.447 45.0219 26.3235C48.2093 29.51 51.5874 34.3557 52.0992 36.1914C52.9656 38.8864 49.872 41.4459 47.9649 42.62C45.5883 44.0825 42.9932 45.1741 40.4175 46.2341ZM22.888 47.5796C24.8109 47.4604 26.7861 45.8856 28.6692 45.3593C29.14 45.2295 29.8284 44.981 30.1068 45.1979C31.3448 46.1633 32.4791 47.2668 33.619 48.3541C33.704 48.4345 33.5637 48.7822 33.4985 48.9964C32.1382 53.4531 30.9181 57.967 28.5094 61.9961C26.6408 65.1242 23.8464 66.8344 20.2616 67.2448C18.4106 67.4572 16.8628 66.6597 15.8206 65.1846C15.0453 64.0846 14.4149 62.788 14.078 61.4899C13.5049 59.271 13.127 56.9927 12.8239 54.7198C12.3788 51.3708 10.9108 48.6263 8.3799 46.4072C7.17204 45.3501 6.01603 44.2305 4.83198 43.1433C2.62316 41.1169 1.51009 38.4549 2.27703 35.7126C3.09627 32.7726 5.49165 31.428 8.69195 31.0807C14.0965 30.4977 19.2782 31.8098 24.5374 32.5579C24.7552 32.589 25.0201 32.6653 25.1579 32.8176C25.3623 33.0436 25.6047 33.3648 25.5919 33.6306C25.5785 33.9249 25.3593 34.3726 25.1233 34.4547C24.4978 34.6739 23.8192 34.7707 23.1525 34.8459C21.5796 35.0223 19.9795 35.06 18.4315 35.3575C17.8426 35.4702 17.2803 35.9394 17.0313 36.4561C17.9886 36.8122 19.4527 36.7618 20.4978 36.7318C21.8476 36.6941 23.2072 36.7503 24.5568 36.8515C24.7774 36.8679 25.1189 37.318 25.1342 37.5813C25.1495 37.8147 24.8276 38.2331 24.5922 38.283C23.3975 38.5309 22.141 38.5543 20.9814 38.9552C20.6287 39.0758 19.6054 39.3805 19.4826 39.8029C18.6693 42.5878 25.3692 42.0216 25.9511 39.845C26.211 40.0384 26.559 40.1848 26.7043 40.4436C26.839 40.6801 26.8729 41.2425 26.7499 41.3126C25.9729 41.7564 25.1293 42.0834 24.3188 42.4933C23.2792 43.0208 21.669 43.4784 21.646 44.9141C22.392 44.66 23.1264 44.0166 23.9234 43.7117C24.9708 43.3111 26.0544 42.9523 27.1559 42.7654C27.5338 42.7003 28.0155 43.2075 28.4494 43.4526C28.1964 43.7428 28.0119 44.1769 27.6792 44.3069C26.232 44.8692 23.2286 45.8141 22.888 47.5796ZM49.1403 24.8976C49.0206 24.7778 48.8987 24.6574 48.7789 24.5376C48.8449 24.3314 48.8692 24.0967 48.9849 23.9239C49.5842 23.0313 50.7664 22.4405 50.4259 21.0699C48.7202 20.6367 48.5512 22.2823 47.7304 23.0507C47.5221 23.2454 47.2237 23.3408 46.9655 23.482C46.8851 23.0916 46.5989 22.5553 46.7557 22.3339C48.4437 19.9586 49.246 16.961 51.7251 15.1371C51.9037 15.0049 52.1421 14.8543 52.1952 14.6682C52.9237 12.141 49.9328 14.2523 49.1648 14.8937C47.6421 16.1672 46.4947 17.8225 45.7352 19.6536C45.4326 20.3816 45.1215 21.1274 44.6769 21.7683C44.4886 22.0422 43.8806 22.2557 43.5808 22.1528C43.2518 22.0403 42.9803 21.5604 42.8357 21.1834C42.7266 20.8937 42.8722 20.5162 42.8719 20.1772C42.8579 14.7216 45.1777 10.1124 48.1889 5.80188C49.0819 4.52352 50.2346 3.32234 51.896 2.98572C56.4256 2.07119 61.487 2.98526 62.7187 8.83311C63.0125 10.2223 63.7523 11.2849 64.6407 12.3537C66.3681 14.4283 68.6531 15.6446 71.0131 16.7308C72.9895 17.6425 74.8278 18.7064 76.3249 20.3059C79.7429 23.9576 78.9061 29.2452 74.4529 31.3855C72.5338 32.3055 70.4875 33.0822 68.4119 33.5341C64.2249 34.4431 59.9786 35.079 55.7594 35.8436C54.8868 36.001 54.1816 35.933 53.9216 34.9066C53.6849 33.9688 53.5706 33.2285 54.8302 32.8104C56.0557 32.4039 57.3387 32.0448 58.4486 31.3669C59.1068 30.9652 61.1033 29.0272 58.9883 29.1194C58.3363 29.1472 57.648 29.3352 57.0584 29.6252C55.8491 30.22 54.7178 30.9723 53.5013 31.5508C53.2529 31.6701 52.6005 31.4087 52.4536 31.1436C52.2926 30.8532 52.3543 30.1849 52.5814 29.9908C52.9807 29.6497 53.5711 29.514 54.0999 29.35C55.0656 29.0488 56.0784 28.8689 57.0105 28.4905C57.7559 28.1898 58.5137 27.5632 58.0568 26.6958C57.8559 26.3169 56.868 26.1235 56.3047 26.2219C55.4341 26.3764 54.6128 26.8353 53.7837 27.1972C53.0577 27.513 52.3788 28.0497 51.6314 28.1543C51.1016 28.2268 50.4265 27.825 49.9651 27.4504C49.8479 27.355 50.1662 26.4265 50.5019 26.1133C51.567 25.1155 52.7726 24.2685 53.8428 23.2734C54.8604 22.3259 54.1725 21.3138 52.8784 21.7159C52.2701 21.9056 51.7143 22.3593 51.222 22.7981C50.487 23.4525 49.8306 24.1924 49.1403 24.8976ZM1.86797 42.1652C2.21523 42.5509 2.93134 43.4348 3.73852 44.2255C4.71482 45.1809 5.79132 46.0361 6.78369 46.9769C9.06162 49.1367 10.7958 51.5663 11.4047 54.7851C11.8903 57.3566 12.343 58.6616 12.5168 61.4264C12.4372 62.5803 12.9081 64.6505 13.7594 65.571C16.2878 68.3096 19.0949 69.0197 22.681 67.8109C27.3707 66.232 30.266 62.874 32.3066 58.6866C33.5913 56.0448 34.4932 53.2006 35.3827 50.3875C35.9363 48.6306 36.7276 47.7272 38.738 47.7859C41.5634 47.8668 44.0371 46.5942 46.3763 45.119C49.1621 43.3592 52.1122 41.7723 53.624 38.5938C54.1733 37.4378 55.2144 36.9816 56.355 36.762C59.4811 36.1614 62.602 35.4911 65.757 35.0863C69.0774 34.6624 72.1837 33.6581 75.1876 32.2719C80.8302 29.6665 81.9483 23.0588 77.5544 18.6736C75.9919 17.1155 74.2895 15.8469 72.2047 15.0822C71.246 14.7305 70.3126 14.2738 69.4261 13.7614C66.8751 12.2827 64.9322 10.3964 64.3917 7.2475C63.9113 4.44453 62.4972 2.1777 59.7315 0.886893C55.215 -1.21811 49.3596 0.605423 46.4229 4.66117C43.2396 9.05807 41.5541 13.8629 41.0569 19.2062C40.8451 21.4726 40.7299 21.4287 38.4257 21.8935C36.9831 22.1838 35.5346 22.5034 34.1425 22.9683C30.7269 24.1068 28.4426 26.6408 26.7546 29.6419C26.1414 30.7329 25.6161 30.7582 24.6395 30.6284C21.2555 30.1786 17.8532 29.8597 14.4768 29.3666C10.7327 28.8189 7.00922 28.8769 4.13927 30.3544C2.88788 30.8156 2.37565 31.674 1.93552 32.2879C-0.216726 35.2842 -0.201722 38.4214 1.86797 42.1652Z" fill="#CDCCCE"/>
</svg>