<svg width="502" height="452" viewBox="0 0 502 452" fill="none" xmlns="http://www.w3.org/2000/svg">
<path fill-rule="evenodd" clip-rule="evenodd" d="M437.42 20.1412C436.167 24.9946 434.046 28.4198 431.624 33.1137C426.849 42.3774 419.144 48.6292 410.648 54.2987C409.117 55.3202 407.633 56.3809 406.184 57.4969C403.785 59.344 398.786 63.588 396.612 65.7715C392.403 70.0006 388.537 74.223 385.352 79.1291C382.935 82.8502 380.809 86.7538 378.381 90.4668C375.837 94.3595 373.104 98.1306 370.424 101.935C369.077 103.846 367.276 104.48 365 103.63C365.023 103.416 364.98 103.134 365.07 103.083C368.264 101.244 370.577 98.6103 372.479 95.4999C375.299 90.891 378.25 86.3579 381.196 81.826C382.312 80.1101 383.54 78.4616 384.774 76.8254C390.052 69.8236 395.462 62.9259 401.753 56.7673C403.759 54.8027 405.85 52.9475 408.372 51.5518C410.686 50.2695 412.766 48.6279 414.832 46.9943C416.831 45.4134 418.918 43.9258 420.805 42.2125C425.988 37.501 430.213 32.0801 432.761 25.4851C433.855 22.6544 434.896 19.8439 434.98 16.7673C435.089 12.726 434.332 8.88326 432.162 5C434.383 5.99311 435.673 7.26726 436.514 9.13998C438.124 12.726 438.425 16.2431 437.42 20.1412ZM360.273 100.957C357.056 98.3595 356.256 95.3818 357.672 91.5348C358.933 88.1049 364.717 81.5003 365.262 80.8293C368.384 76.9768 372.006 73.5944 375.308 69.9199C377.667 67.2969 379.941 64.5855 381.925 61.578C384.562 57.5816 386.234 53.4153 386.84 48.7248C386.908 48.1936 387.059 47.6571 387.259 47.1585C387.886 45.5991 388.57 45.3817 389.96 46.2959C390.592 46.7103 391.177 47.1952 391.785 47.6462C392.473 48.1556 393.498 48.5414 393.737 49.2124C393.899 49.6689 392.926 50.5029 392.538 51.212C392.439 51.3927 392.58 51.773 392.717 51.9931C392.779 52.0936 393.158 52.1181 393.3 52.0257C395.16 50.8289 397.03 49.6458 398.897 48.4572C399.9 47.9057 400.884 47.2509 401.83 46.5663C403.688 45.3587 405.533 44.1347 407.337 42.8524C409.417 41.3758 411.123 39.3273 412.87 37.4188C419.49 30.1907 423.617 21.7768 424.547 11.9012C424.794 9.27811 424.655 6.69986 423.325 4.30772C423.186 4.05913 423.156 3.74941 423.139 3.43426C423.706 3.21148 424.268 3.04712 424.892 3.00637C425.156 2.99006 425.409 3.00772 425.662 3.02946C428.458 3.56195 429.989 5.93916 430.987 8.74154C432.167 12.052 432.242 17.2248 431.592 20.2255C430.451 25.5137 427.918 30.1038 424.847 34.5159C421.488 39.3436 416.815 42.6391 412.365 46.2131C409.842 48.2385 407.289 50.272 404.537 51.9496C400.383 54.4844 397.328 58.1018 394.21 61.6962C386.888 70.1359 380.488 79.2277 374.928 88.9403C373.263 91.8446 371.305 94.6075 369.228 97.2293C367.979 98.8077 366.327 100.113 364.692 101.314C363.248 102.378 361.77 102.163 360.273 100.957ZM388.14 32.205C388.328 32.491 388.734 32.879 388.66 33.037C388.508 33.359 388.092 33.551 387.784 33.795C387.656 33.575 387.526 33.355 387.332 33.027C387.588 32.767 387.864 32.487 388.14 32.205ZM388.727 37.912C388.751 38.26 388.381 38.634 388.181 38.998C387.865 38.79 387.345 38.63 387.283 38.362C387.209 38.034 387.513 37.618 387.745 37.002C388.201 37.4 388.707 37.64 388.727 37.912ZM388.044 30C388.312 30.2086 388.8 30.4156 388.804 30.6258C388.808 30.9954 388.518 31.3666 388.232 32C387.662 31.5046 387.142 31.2239 387.2 31.0675C387.34 30.6825 387.744 30.3528 388.044 30ZM389.628 28C389.856 28.1143 390.238 28.1946 390.278 28.3464C390.402 28.8268 390.398 29.3357 390.46 30C389.966 29.7321 389.566 29.625 389.554 29.4857C389.508 28.9964 389.594 28.4982 389.628 28ZM392.493 37.474C392.863 37.41 393.259 37.502 393.663 37.538C393.579 37.978 393.525 38.262 393.471 38.548C393.095 38.46 392.695 38.422 392.363 38.25C392.285 38.21 392.399 37.49 392.493 37.474ZM396 35.1484C395.56 36.072 394.688 36.6142 393.66 36.9901C393.523 37.0396 393.177 36.8947 393.087 36.762C392.974 36.5955 393.022 36.3478 393 36.1337C394.362 36.5965 394.521 34.4267 396 35.1484ZM396.017 19C396.211 19.1492 396.405 19.2999 396.715 19.5396C396.495 19.9917 396.251 20.4966 396.007 21C395.751 20.792 395.243 20.5463 395.287 20.3836C395.413 19.9043 395.757 19.4582 396.017 19ZM397.2 14C397.372 14.2187 397.544 14.4375 397.886 14.875C397.556 15.2266 397.194 15.6133 396.83 16C396.578 15.7383 396.068 15.3242 396.118 15.2422C396.404 14.7852 396.824 14.4062 397.2 14ZM398.621 23.913C398.355 24.203 398.077 24.509 397.801 24.813C397.651 24.581 397.327 24.285 397.385 24.131C397.513 23.779 397.829 23.497 398.069 23.187C398.231 23.399 398.393 23.611 398.621 23.913ZM398.997 27.4939C398.809 27.9502 398.447 28.3738 398.017 29C397.459 28.6165 396.95 28.3617 397.004 28.2888C397.353 27.8374 397.827 27.426 398.26 27C398.521 27.1675 399.044 27.3811 398.997 27.4939ZM399.545 31.8466C399.43 31.8846 398.953 31.1906 399.004 30.9226C399.062 30.6006 399.479 30.2326 399.789 30.1586C400.034 30.0986 400.353 30.4566 401 30.8486C400.317 31.3486 399.958 31.7146 399.545 31.8466ZM401.352 10.0059C401.4 9.95921 402.01 10.2043 402 10.2349C401.822 10.7951 401.588 11.345 401.328 12C400.66 11.7622 400.33 11.6441 400 11.5259C400.443 11.0139 400.869 10.4902 401.352 10.0059ZM400.13 14.3173C400.392 13.8542 400.746 13.4336 401.07 13C401.35 13.2214 401.91 13.5775 401.87 13.6421C401.598 14.1199 401.206 14.5369 400.83 15C400.48 14.6661 400.09 14.3911 400.13 14.3173ZM400.55 20C400.38 19.8676 400.104 19.754 400.056 19.5991C399.81 18.8137 400.406 17.972 401.178 18.0007C401.371 18.0082 401.552 18.2155 402 18.494C401.523 18.9897 401.036 19.4942 400.55 20ZM401.817 23.993C401.624 24.068 401.278 23.5211 401 23.2548C401.29 22.8227 401.53 22.2982 401.893 22.0144C402.026 21.9108 402.452 22.3875 403 22.7861C402.471 23.3585 402.188 23.8511 401.817 23.993ZM403.902 7C404.156 7.12025 404.408 7.23874 404.97 7.50224C404.526 8.03101 404.122 8.53325 403.672 8.99835C403.646 9.02665 403.012 8.6818 403.03 8.64289C403.282 8.08229 403.602 7.54292 403.902 7ZM404.793 12.0956C404.801 12.3756 404.343 12.8736 404.061 12.8936C403.777 12.9156 403.237 12.4956 403.209 12.2256C403.177 11.9316 403.603 11.5876 403.943 11.1056C404.319 11.5176 404.785 11.8016 404.793 12.0956ZM405.911 18.525C406.2 19.2739 405.764 19.9516 404.951 19.9994C404.679 20.0147 404.206 19.7298 404.114 19.511C403.779 18.7235 404.184 18.1577 405.31 18C405.455 18.1201 405.821 18.292 405.911 18.525ZM408.168 3.42518C408.771 3.12467 409.464 2.50189 409.985 3.73953C410.024 3.83245 409.978 4.05586 409.939 4.19425C409.605 5.3706 408.995 4.92774 408.443 4.87436C408.078 4.84075 407.71 4.89215 407 4.91785C407.575 4.15669 407.835 3.58927 408.168 3.42518ZM409.831 7.87754C409.476 7.60154 409.23 7.10554 409.001 6.65354C408.978 6.60754 409.402 6.06754 409.525 6.11354C409.954 6.27954 410.341 6.59754 411 7.02154C410.393 7.48154 409.951 7.97154 409.831 7.87754ZM411.957 12.0398C412.066 11.8984 412.412 12.1642 413 12.3583C412.404 13.0839 412.044 13.6017 411.627 13.9747C411.502 14.0872 411.214 13.7942 411 13.6869C411.311 13.1248 411.593 12.5099 411.957 12.0398ZM412.476 6.00378C412.561 5.95468 412.821 6.39659 413 6.60993C412.604 6.97057 412.208 7.33121 411.476 8C411.331 7.7274 411.165 7.41248 411 7.09924C411.488 6.72167 411.962 6.30685 412.476 6.00378ZM412 20.7252C412.105 20.4835 412.207 20.2417 412.312 20C412.639 20.1792 412.964 20.3626 413.296 20.5363C413.317 20.5585 413.333 20.5891 413.357 20.6085C413.838 21.0197 418.554 23.6982 419 24.0456C418.865 24.2581 418.546 24.7874 418.412 25C416.919 24.0136 413.771 21.9019 412 20.7252ZM413.753 24.6975C412.85 24.0299 411.859 23.493 411 22.7744C411.222 22.3587 411.408 21.9788 411.542 21.6897C411.651 21.4584 411.761 21.2299 411.871 21C414.119 22.25 416.348 23.5453 418.534 24.9164C418.832 25.1023 419.069 25.8236 418.982 26.2063C418.85 26.7996 418.417 27.3145 418.032 28C416.538 26.8423 415.162 25.7438 413.753 24.6975ZM409 26.3619C409.25 25.9061 409.44 25.4488 409.554 25C410.085 25.1645 410.671 25.315 411.151 25.6384C413.095 26.9501 414.983 28.3552 416.877 29.7505C416.989 29.8355 417.041 30.2049 416.962 30.3332C416.805 30.5869 416.542 30.7751 416.304 30.9618C416.239 31.0134 416.08 31.012 416.004 30.9618C413.662 29.4425 411.319 27.9203 409 26.3619ZM407 28.6107C407.343 28.1179 407.736 27.5727 408.116 27C410.293 28.3156 412.468 29.6384 414.592 31.0572C414.878 31.2491 415.106 32.1358 414.949 32.4411C414.574 33.1737 414.095 34.5053 413.143 33.8003C411.004 32.2187 409 30.4132 407 28.6107ZM406.848 8.885C406.682 8.479 406.382 8.093 406.43 7.755C406.464 7.509 406.952 7.325 407.238 7.115C407.362 7.499 407.568 7.885 407.576 8.271C407.58 8.439 407.182 8.617 406.848 8.885ZM408.3 17C408.623 17.6392 408.813 18.0172 409 18.3895C408.693 18.5338 408.396 18.6861 408.068 18.8133C407.84 18.9003 407.561 18.9393 407.304 19C407.199 18.7892 406.921 18.5395 407.021 18.378C407.27 17.984 407.695 17.6312 408.3 17ZM407.945 16C407.631 15.7663 407.045 15.5212 407.059 15.3063C407.085 14.8615 407.431 14.4336 407.643 14C407.987 14.1923 408.333 14.3827 408.941 14.722C408.543 15.2328 408.245 15.6155 407.945 16ZM410.527 35.2672C410.099 35.067 409.683 34.8497 409.266 34.6267C408.217 33.867 407.17 33.1044 406.117 32.3503C405.857 32.1657 405.563 32.0407 405.285 31.8817C405.163 31.8121 405.078 31.7311 405 31.6473C405.363 31.1006 405.727 30.5524 406.088 30C406.136 30.0284 406.175 30.0298 406.226 30.0682C408.43 31.7425 410.645 33.3969 413 35.1678C412.682 35.4774 412.376 35.7415 412.091 36C411.571 35.6961 410.967 35.4746 410.527 35.2672ZM396.767 46.5653C396.932 46.649 397.002 47.0624 397 47.3199C396.997 47.459 396.768 47.6419 396.605 47.7243C395.52 48.2793 394.479 47.8982 393.491 47.4423C392.136 46.8138 391.093 45.7604 390 44.4108C390.517 44.3567 391.016 44.2099 391.503 44C393.277 44.8074 395.028 45.6754 396.767 46.5653ZM400.342 43.5489C400.563 43.6714 400.71 43.9663 401 44.3151C400.626 44.5938 400.3 45.0354 400.031 44.9977C398.916 44.8388 397.753 44.7029 396.729 44.2302C395.784 43.7953 394.976 42.9632 394.143 42.2522C394.09 42.2065 394.041 42.1257 394 42.0368C394.398 41.7056 394.777 41.3541 395.137 41C395.42 41.0377 395.698 41.0996 395.949 41.2235C397.43 41.956 398.89 42.7477 400.342 43.5489ZM404.821 40.8642C404.902 40.901 404.94 41.008 405 41.0829C404.943 41.2528 404.943 41.5071 404.815 41.5796C404.479 41.7674 404.041 42.055 403.725 41.9908C401.38 41.506 399.116 40.8071 397.218 39.4166C397.134 39.3537 397.06 39.2312 397 39.1005C397.466 38.7345 397.928 38.3684 398.393 38C400.562 38.902 402.688 39.892 404.821 40.8642ZM404.407 22.266C404.629 21.846 404.951 21.48 405.235 21.098C405.365 21.316 405.639 21.578 405.591 21.744C405.473 22.144 405.207 22.498 404.979 22.902C404.733 22.636 404.367 22.344 404.407 22.266ZM404.393 33C404.571 33.03 404.755 33.0849 404.952 33.1885C405.825 33.6467 406.686 34.1274 407.563 34.5757C407.57 34.5794 407.577 34.5831 407.585 34.5881C408.648 35.2199 409.835 36.0502 411 36.5933C409.711 38.2601 409.701 38.315 407.859 37.4385C406.441 36.7631 405.048 36.024 403.693 35.2261C403.458 35.0876 403.169 34.9153 403 34.6755C403.493 34.1387 403.957 33.5781 404.393 33ZM400 27.6739C400.182 27.1934 400.277 26.6865 400.593 26.2508C400.717 26.0832 401.333 26.0792 401.725 26C401.818 26.264 402.097 26.5861 401.965 26.7802C401.665 27.2211 401.161 27.5974 400.74 28C400.494 27.8917 400.248 27.7822 400 27.6739ZM402.269 36C404.244 37.2953 406.369 38.2092 408.59 38.921C408.737 38.968 408.83 39.2057 409 39.4193C408.948 39.5566 408.903 39.718 408.845 39.8743C408.712 40.032 408.577 40.1934 408.44 40.3319C408.26 40.5163 408.063 40.6739 407.874 40.848C407.417 41.0628 406.909 41.0641 406.384 40.7603C404.619 39.7498 402.892 38.6693 401.189 37.552C401.113 37.5012 401.051 37.3741 401 37.2342C401.426 36.8275 401.853 36.4195 402.269 36ZM413.771 17.4427C415.74 18.4095 417.684 19.437 419.605 20.5058C419.851 20.6438 420.072 21.2616 419.978 21.5278C419.889 21.7788 419.27 22.0836 419.054 21.9788C417.755 21.3458 413.764 19.3418 412 18.5295C412.242 18.0233 412.472 17.5117 412.699 17C412.98 17.0745 413.319 17.2207 413.771 17.4427ZM415.366 15.1127C415.467 15.0192 415.562 14.9718 415.627 15.0178C416.672 15.7697 421.552 18.9615 422 19.1456C421.603 20.4304 420.75 20.2072 418.803 18.8708C417.525 17.9919 416.241 17.1215 415 16.1756C415.129 15.8241 415.247 15.4684 415.366 15.1127ZM416.513 12C418.475 13.1355 420.448 14.2468 422.373 15.4562C422.706 15.6651 423.021 16.3245 422.999 16.7565C422.975 17.2255 422.944 17.6319 422.906 18C422.475 17.8039 417.545 14.703 416 13.7849C416.183 13.1994 416.355 12.604 416.513 12ZM422.187 4.78207C422.562 4.98411 422.818 5.46425 423 6C420.99 5.21907 418.776 4.33598 416.618 3.99319C416.457 3.63678 416.252 3.29966 416 3C416.954 3.18388 420.342 3.78774 422.187 4.78207ZM423 9C422.015 8.63451 420.397 8.05861 419.566 7.73039C418.463 7.29155 417.334 6.74572 416.271 6.14578C416.227 5.7887 416.134 5.39315 416 5C417.119 5.39435 418.258 5.94379 419.237 6.36339C420.446 6.88157 421.653 7.26871 422.784 7.8951C422.892 8.4722 422.947 8.93508 423 9ZM424 12.9057C423.944 13.266 423.87 13.6288 423.779 14C421.284 13.4123 418.913 12.2817 417.099 10.7859C417.057 10.7508 417.029 10.7121 417 10.6746C417.049 10.463 417.09 10.2502 417.13 10.0386C417.225 9.99142 417.338 9.98174 417.447 10.0422C418.521 10.642 423.606 12.688 424 12.9057ZM424 11C422.643 10.5501 421.282 10.1061 419.994 9.54493C419.222 9.2087 418.438 8.79594 417.641 8.42029C417.423 8.30899 417.214 8.18725 417 8.0713C417.027 7.7142 417.029 7.3571 417.012 7C417.036 7.00116 417.059 7.00232 417.082 7.00348C417.763 7.42319 418.494 7.79188 419.22 8.14551C420.432 8.73797 421.8 9.13681 422.935 9.83594C423.314 10.0701 423.628 10.382 423.978 10.6081C423.995 10.738 423.995 10.869 424 11ZM436.198 6.16634C434.495 3.82149 431.186 1.53759 430.275 1.06754C429.159 0.493175 427.82 0.120653 426.565 0.0353118C425.951 -0.00668158 423.647 -0.194974 421.617 1.03638C420.369 1.7882 419.063 1.22332 417.762 0.970002C416.165 0.657084 414.569 0.256115 412.954 0.143682C411.807 0.0637589 410.598 0.268307 409.476 0.569034C406.978 1.23822 405.118 2.9315 403.342 4.69928C398.496 9.52445 394.25 14.8332 390.728 20.6825C387.758 25.6147 385.657 30.9722 383.617 36.3257C382.327 39.7136 383.402 42.0287 386.527 43.9373C386.699 44.043 386.809 44.2421 387.043 44.5022C385.652 46.0722 385.17 48.0242 384.922 50.0792C384.583 52.9022 383.699 55.4855 382.09 57.9225C379.097 62.4455 376.062 66.8738 372.137 70.6993C368.34 74.4015 364.884 78.4464 361.178 82.2447C358.296 85.1965 355.991 88.7876 355.274 92.5683C355.027 93.8742 354.875 95.3697 355.137 96.6972C356.163 101.881 359.719 104.477 364.65 105.754C367.392 106.465 369.379 105.611 370.864 103.483C373.77 99.3116 376.6 95.0866 379.384 90.8357C382.886 85.489 386.24 80.0475 389.802 74.7428C391.057 72.8721 392.65 71.1991 394.249 69.5925C396.388 67.4427 398.669 65.4338 400.913 63.3911C402.273 62.1529 403.59 60.8403 405.079 59.7769C407.811 57.8249 410.694 56.0856 413.447 54.1634C418.805 50.4219 423.707 46.1562 427.639 40.9219C432.161 34.902 435.067 29.1489 437.624 22.1103C438.347 20.1217 438.905 16.9072 438.99 14.7682C439.114 11.6079 438.121 8.59112 436.198 6.16634V6.16634Z" fill="#CDCCCE"/>
<path fill-rule="evenodd" clip-rule="evenodd" d="M27.159 142.211C27.2025 142.495 27.1491 142.985 27.337 143.119C27.5462 143.271 28.0879 143.232 28.2884 143.048C28.8157 142.565 29.2585 141.975 29.6933 141.396C31.2783 139.288 32.6576 137.011 34.7076 135.294C35.4656 134.656 36.1353 133.88 36.7316 133.077C36.9399 132.797 36.8063 132.248 36.8288 131.823C36.4367 131.894 35.9112 131.822 35.6712 132.057C32.9288 134.739 30.4206 137.643 28.1034 140.72C27.7755 141.154 27.5155 141.642 27.159 142.211ZM38.1328 152.551C38.4077 153.004 38.6261 153.6 39.0357 153.984C39.5875 154.502 39.9875 153.985 40.331 153.541C43.2747 149.738 47.0681 145.926 49.3735 142.688C49.7192 142.383 50.262 141.393 49.6577 140.926C49.4075 140.734 48.6843 141.031 48.2633 141.268C47.8946 141.476 43.8886 145.717 42.2186 147.51C41.0476 148.768 38.4676 152.045 38.1328 152.551ZM31.6349 127.357C30.4377 128.342 29.2512 129.36 28.2195 130.499C26.2283 132.702 24.3302 134.983 22.4274 137.257C22.0658 137.688 21.7648 138.212 21.6213 138.741C21.5489 139.005 22.7068 139.805 22.8908 139.675C23.3622 139.347 23.7877 138.941 24.1726 138.516C25.6538 136.873 27.1063 135.209 28.5802 133.559C30.18 131.764 31.8084 129.991 33.3708 128.167C33.5755 127.928 32.0117 127.046 31.6349 127.357ZM55.1612 145.844C54.7919 146.018 54.0916 146.143 53.7127 146.562C50.6617 149.946 47.6664 153.381 44.6675 156.811C44.4214 157.093 44.1372 157.453 44.1161 157.791C44.0923 158.203 44.2089 158.783 44.4889 159.005C44.7606 159.22 45.3795 159.217 45.7278 159.055C46.1231 158.87 46.4003 158.412 46.7046 158.053C48.3527 156.099 49.9793 154.13 51.6393 152.188C52.9348 150.672 54.2766 149.197 55.5745 147.684C56.1043 147.068 56.0155 146.252 55.1612 145.844ZM32.6548 147.237C32.9039 147.642 33.1307 148.226 33.5572 148.606C33.749 148.778 34.4466 148.67 34.7204 148.459C35.2875 148.021 35.736 147.437 36.2109 146.896C37.6379 145.276 39.0465 143.637 40.4793 142.021C41.6761 140.672 42.9206 139.362 44.0966 137.995C44.6136 137.395 44.3506 136.75 43.7505 136.395C43.4793 136.235 42.9354 136.429 42.5485 136.554C42.306 136.634 42.1052 136.871 41.9196 137.068C39.1782 139.945 36.4357 142.82 33.7151 145.716C33.3477 146.107 33.0948 146.598 32.6548 147.237ZM15.5677 132.483C15.6929 132.795 15.7637 133.424 16.0375 133.545C16.4459 133.723 17.2054 133.756 17.4505 133.483C18.8194 131.963 20.1197 130.366 21.3619 128.727C22.8805 126.726 24.1724 124.532 26.1131 122.907C26.5843 122.514 26.8949 121.885 27.2337 121.331C27.7033 120.567 27.1403 120.067 26.7344 119.596C26.187 118.961 25.7726 119.552 25.3753 119.898C25.0977 120.14 24.8501 120.431 24.6191 120.726C21.7798 124.342 18.9462 127.961 16.1172 131.584C15.9465 131.803 15.823 132.063 15.5677 132.483ZM61.3948 151.324C61.1151 151.549 60.6435 151.818 60.3094 152.216C57.1609 155.968 54.0423 159.747 50.9003 163.506C50.4447 164.049 50.5181 164.492 50.9199 164.988C51.7105 165.963 52.1291 165.932 52.9936 164.878C55.0419 162.38 57.1055 159.898 59.1594 157.404C60.1593 156.191 61.1915 155.003 62.1294 153.737C62.7111 152.953 62.329 151.47 61.3948 151.324ZM79.7127 195.852C80.2212 195.986 80.4177 196.108 80.5733 196.067C80.9858 195.962 81.4557 195.868 81.7485 195.6C81.882 195.477 81.762 194.853 81.5641 194.629C80.8324 193.801 80.0612 193.001 79.2315 192.274C74.671 188.269 70.0458 184.34 65.5246 180.292C58.2608 173.788 51.0642 167.206 43.8294 160.667C40.0774 157.277 36.3161 153.897 32.5364 150.539C27.3166 145.902 22.0822 141.283 16.8401 136.671C14.6327 134.728 12.3687 132.849 10.168 130.897C9.03038 129.89 8.95101 129.412 9.84172 128.348C11.4956 126.377 13.2127 124.456 14.9534 122.563C16.8739 120.474 18.8582 118.443 20.789 116.364C20.9097 116.233 20.2017 115.552 20.0542 115.684C19.0912 116.534 18.1456 117.412 17.2459 118.328C13.8405 121.792 10.086 124.941 7.7439 129.347C6.93831 130.86 6.83933 131.269 7.87377 132.416C8.42638 133.03 9.07726 133.556 9.70134 134.102C12.0529 136.151 14.4204 138.181 16.7653 140.238C20.8437 143.819 24.9074 147.418 28.9845 150.999C31.5418 153.245 34.1613 155.418 36.666 157.722C42.4108 163.003 48.098 168.345 53.8202 173.653C54.6938 174.464 55.6433 175.195 56.5205 176.005C59.8264 179.064 63.0532 182.212 66.4316 185.188C69.8833 188.225 73.464 191.116 77.0215 194.028C77.9416 194.781 78.992 195.369 79.7127 195.852ZM53.638 149.988C50.989 152.576 48.6696 155.767 46.551 158.804C45.7408 159.967 45.8264 160.503 46.6089 161.253C47.5385 162.146 47.995 162.224 48.949 161.305C50.3433 159.962 51.6745 158.547 52.9627 157.101C54.7454 155.102 56.4525 153.034 58.2193 151.019C58.5807 150.608 59.0291 150.244 59.5006 149.968C60.451 149.414 61.4574 149.61 62.272 150.423C63.106 151.254 63.3083 152.213 62.676 153.185C62.0231 154.191 61.2831 155.152 60.4847 156.043C58.1393 158.663 55.7288 161.222 53.379 163.837C51.932 165.444 51.9851 166.096 53.6005 167.519C57.124 170.62 60.6582 173.711 64.1911 176.801C69.2654 181.239 74.2971 185.727 79.4446 190.077C80.9786 191.373 84.0721 194.072 84.2961 195.103C84.257 196.761 81.5095 198.3 80.2277 197.318C77.0068 194.855 73.7667 192.405 70.7016 189.754C64.6244 184.495 58.6507 179.116 52.6544 173.762C50.796 172.104 49.0287 170.343 47.1797 168.672C41.4915 163.531 35.814 158.377 30.0756 153.293C25.9371 149.627 21.7059 146.064 17.5131 142.458C14.0825 139.509 10.6478 136.565 7.21714 133.617C7.00791 133.437 6.80698 133.243 6.61747 133.042C4.03984 130.304 4.07675 129.393 6.37582 126.441C9.68461 122.191 13.5187 118.447 17.3003 114.651C19.0503 112.893 20.7403 112.726 22.4809 114.048C23.2888 114.661 23.2772 115.14 22.561 115.814C19.4693 118.719 16.3593 121.607 13.3426 124.591C12.371 125.553 11.6574 126.781 10.8372 127.896C10.4532 128.42 10.4965 128.917 10.9953 129.366C11.2693 129.613 11.5234 129.883 11.7777 130.15C12.9426 131.374 13.0619 131.463 14.1264 130.202C16.3881 127.523 18.5151 124.731 20.7308 122.012C21.7786 120.728 22.8749 119.481 24.0018 118.268C24.6517 117.567 25.4572 117.569 26.2744 118.048C28.6322 119.433 28.8355 121.093 26.953 123.228C24.0218 126.557 21.1009 129.896 18.2088 133.26C17.1834 134.451 17.2338 134.775 18.2504 135.819C19.1135 136.705 19.381 136.697 20.1826 135.726C22.8309 132.521 25.4722 129.311 28.1262 126.111C28.4802 125.685 28.8556 125.266 29.2789 124.912C30.3946 123.982 31.6665 123.954 32.8421 124.781C33.9562 125.563 34.0995 126.547 33.178 127.595C31.4725 129.535 29.7075 131.42 28.0135 133.371C26.4994 135.118 25.0601 136.93 23.5622 138.691C22.9859 139.368 22.8708 139.95 23.6022 140.593C24.329 141.232 24.967 141.05 25.5277 140.422C26.6943 139.112 27.8289 137.77 28.9713 136.44C30.5303 134.626 32.1064 132.827 33.6342 130.988C34.8173 129.564 37.4339 129.809 38.1928 131.505C38.3394 131.833 38.2573 132.466 38.0235 132.724C37.3458 133.474 36.5387 134.105 35.7832 134.784C32.9409 137.329 30.7066 140.383 28.5843 143.526C27.9997 144.391 28.2686 144.99 29.3975 145.788C30.1128 146.295 30.5469 145.943 31.0184 145.388C33.6457 142.291 36.2697 139.19 38.9533 136.142C39.6126 135.393 40.4365 134.749 41.2852 134.22C42.3683 133.546 42.9154 133.74 43.8942 134.836C44.9341 135.999 45.1853 137.149 44.3959 138.049C43.1153 139.508 36.7151 146.66 34.9444 148.905C34.4093 149.586 34.3861 150.231 35.109 150.839C35.9446 151.543 36.5178 151.59 37.2168 150.726C39.2944 148.171 41.5419 146.183 43.6014 143.817C44.6907 142.565 45.823 141.345 46.9981 140.175C47.9373 139.24 49.5651 139.003 50.558 139.532C51.7202 140.15 52 141.011 51.1635 141.975C50.1351 143.158 43.1689 151.257 40.8332 154.227C40.7221 154.368 40.5898 154.587 40.626 154.732C40.7476 155.224 40.8304 155.783 41.127 156.161C41.5824 156.741 42.1359 156.425 42.5272 155.989C44.0088 154.34 45.4904 152.689 46.9202 150.997C48.4709 149.161 49.9261 147.244 51.4961 145.429C52.7162 144.016 54.4567 143.649 55.6335 145.12C56.6333 146.37 54.7487 148.902 53.638 149.988V149.988Z" fill="#CDCCCE"/>
<path fill-rule="evenodd" clip-rule="evenodd" d="M384.954 338.099C384.513 338.621 384.227 338.916 383.976 339.28C383.914 339.372 383.974 339.674 383.979 339.878C384.26 339.696 384.566 339.578 384.815 339.298C384.913 339.188 384.89 338.715 384.954 338.099ZM465.759 384.462C463.4 384.656 463.007 386.032 462.308 388.562C463.685 386.927 464.449 386.017 465.759 384.462ZM464.704 377.787C459.784 378.101 459.784 378.101 459.997 381.455C461.623 380.187 463.164 378.989 464.704 377.787ZM461.287 385.413C461.158 385.223 460.856 384.423 460.593 384.446C459.453 384.54 458.28 384.752 457.228 385.208C456.964 385.322 456.794 386.816 457.101 387.136C458.577 388.67 460.717 387.918 461.287 385.413ZM349.444 377.454C350.895 377.196 352.118 377.862 353.569 377.517C353.755 377.473 354.258 375.87 354.251 375.508C354.248 375.275 353.833 374.984 353.56 374.954C352.362 374.82 351.14 374.819 349.943 374.688C348.068 374.478 346.681 375.075 347.072 375.639C347.608 376.407 347.663 377.721 349.444 377.454ZM355.096 400.812C355.374 402.637 355.701 404.411 355.902 406.213C356.045 407.489 355.904 409.212 357.25 409.292C357.826 409.326 358.781 407.527 359.287 406.426C361.952 400.643 361.581 400.134 355.096 400.812ZM355.148 373.164C356.418 372.992 356.864 371.908 356.959 370.793C357.031 369.921 357.086 368.79 356.636 368.193C355.785 367.06 352.652 366.957 351.466 367.745C350.455 368.414 349.044 371.746 349.562 372.719C349.938 373.428 354.126 373.305 355.148 373.164ZM412.754 416.862C412.987 417.092 413.221 417.322 413.457 417.552C417.246 416.384 420.864 414.915 423.679 412.039C424.518 411.18 424.398 410.595 423.25 410.382C421.602 410.079 419.936 409.814 418.269 409.699C417.668 409.658 416.752 409.915 416.485 410.341C415.148 412.458 413.979 414.679 412.754 416.862ZM458.823 350.536C457.353 354.413 456.363 357.277 455.187 360.062C453.596 363.83 453.89 364.344 457.997 364.297C458.276 364.293 458.558 364.301 458.839 364.298C459.874 364.286 460.428 363.675 460.416 362.745C460.376 359.696 460.3 356.648 460.112 353.605C460.069 352.883 459.536 352.182 458.823 350.536ZM444.935 391.774C445.999 391.098 446.88 390.671 447.608 390.047C449.315 388.582 450.986 387.065 452.597 385.483C453.372 384.721 454.677 383.529 454.511 382.945C454.095 381.484 452.5 382.302 451.385 382.164C450.907 382.106 450.439 381.956 449.96 381.92C447.891 381.777 447.444 381.992 446.778 384.19C446.089 386.465 445.642 388.812 444.935 391.774ZM362.724 251.313C362.682 251.554 362.641 251.792 362.599 252.031C365.366 253.636 368.087 255.32 370.905 256.824C376.95 260.049 383.034 263.198 389.128 266.329C389.744 266.643 390.543 266.611 391.257 266.739C390.94 266.062 390.724 265.312 390.282 264.728C389.809 264.103 389.2 263.505 388.521 263.116C380.957 258.763 372.993 255.217 365.015 251.709C364.328 251.407 363.491 251.439 362.724 251.313ZM366.586 386.865C363.791 386.593 361.305 386.268 358.8 386.13C356.601 386.012 356.418 386.168 356.28 388.385C356.132 390.805 356.119 393.24 356.184 395.659C356.251 398.227 356.357 398.271 358.451 398.795C361.924 399.665 362.499 399.326 363.887 395.627C364.392 394.277 364.998 392.956 365.422 391.582C365.876 390.11 366.168 388.586 366.586 386.865ZM449.46 347.578C449.456 347.605 449.452 347.632 449.448 347.66C451.534 348.048 453.61 348.535 455.71 348.793C457.412 348.999 458.183 348.317 458.363 346.679C458.505 345.404 458.318 344.286 457.421 343.088C455.49 340.51 452.766 339.256 449.977 338.027C448.849 337.531 447.909 337.861 447.341 338.977C446.288 341.041 445.184 343.083 444.201 345.181C443.834 345.966 444.071 346.718 445.143 346.894C446.58 347.129 448.021 347.35 449.46 347.578ZM366.559 354.584C370.378 354.981 373.57 355.32 376.763 355.642C377.793 355.746 378.53 355.305 378.908 354.337C380.274 350.841 381.668 347.355 382.953 343.829C383.126 343.353 382.92 342.362 382.571 342.16C381.979 341.816 381.092 341.728 380.406 341.877C379.83 342.003 379.331 342.583 378.849 343.017C376.25 345.363 373.642 347.704 371.08 350.091C369.689 351.384 368.381 352.765 366.559 354.584ZM460.311 368.853C460.453 366.059 460.239 365.863 457.684 365.581C453.676 365.142 453.205 365.452 452.047 369.295C451.549 370.951 451.086 372.619 450.549 374.261C448.699 379.941 448.689 379.938 454.416 379.9C457.37 379.881 458.035 379.436 458.985 376.699C459.245 375.948 460.216 370.704 460.311 368.853ZM400.744 418.434C402.755 418.564 405.374 418.729 407.99 418.905C409.227 418.987 410.099 418.496 410.689 417.326C411.776 415.169 412.969 413.061 414.041 410.897C415.004 408.958 414.95 408.643 413.067 408.305C409.822 407.723 406.523 407.435 403.264 406.92C401.446 406.632 400.373 407.408 399.652 409.045C398.741 411.116 397.752 413.157 396.843 415.233C396.048 417.045 396.197 417.312 398.124 417.827C398.789 418.005 399.467 418.141 400.744 418.434ZM387.506 340.618C391.985 341.523 396.466 341.936 400.968 342.305C406.59 342.763 406.585 342.835 408.456 337.237C408.673 336.586 408.896 335.933 409.057 335.269C409.539 333.282 409.261 332.901 407.092 332.99C401.47 333.225 395.948 333.9 390.631 336.216C388.576 337.112 387.609 338.238 387.506 340.618ZM432.019 345.368C433.056 345.563 434.087 345.84 435.129 345.932C437.333 346.131 439.544 346.232 441.749 346.372C442.77 344.21 443.79 342.043 444.807 339.878C444.86 339.764 444.903 339.642 444.932 339.52C445.294 338.039 444.966 337.366 443.32 337.067C441.124 336.668 438.889 336.469 436.667 336.239C430.569 335.61 431.751 335.022 429.143 340.279C427.188 344.223 426.68 344.533 432.019 345.368ZM438.978 398.176C433.69 396.786 428.933 396.875 424.238 396.435C422.94 396.314 422.223 397.154 421.744 398.174C420.647 400.516 419.615 402.889 418.572 405.256C418.077 406.381 418.473 407.14 419.65 407.35C421.913 407.756 424.183 408.146 426.469 408.395C427.046 408.457 427.763 408.069 428.283 407.698C432.028 405.033 435.397 401.942 438.978 398.176ZM366.536 385.863C367.745 386.038 368.62 385.671 369.079 384.517C370.208 381.687 371.324 378.856 372.427 376.017C372.763 375.153 372.642 374.369 371.574 374.255C367.91 373.875 364.242 373.473 360.566 373.265C358.868 373.169 357.915 374.227 357.81 375.958C357.683 378.07 357.599 380.188 357.632 382.303C357.662 384.29 357.89 384.467 359.867 384.861C360.385 384.965 364.836 385.618 366.536 385.863ZM410.509 342.54C414.787 342.923 418.722 343.263 422.653 343.639C423.697 343.738 424.581 343.525 425.094 342.477C426.163 340.296 427.286 338.132 428.206 335.886C428.83 334.367 428.448 333.796 426.893 333.586C422.85 333.042 418.792 332.582 414.745 332.062C413.149 331.86 412.132 332.615 411.467 334.089C410.702 335.785 409.865 337.451 409.144 339.166C408.111 341.615 408.427 342.199 410.509 342.54ZM389.959 415.851C392.542 416.416 392.808 416.367 394.076 414.274C395.044 412.681 395.894 411.008 396.647 409.306C397.616 407.11 397.419 406.664 395.014 406.176C391.526 405.471 388 404.963 384.491 404.371C383.15 404.144 382.175 404.61 381.63 405.76C380.779 407.564 379.927 409.368 379.152 411.203C378.456 412.85 378.607 413.191 380.289 413.675C381.941 414.15 388.411 415.513 389.959 415.851ZM401.966 406.15C406.611 406.689 410.525 407.113 414.428 407.611C415.914 407.799 416.688 406.877 417.227 405.748C418.404 403.275 419.492 400.758 420.551 398.233C420.938 397.315 420.553 396.525 419.619 396.398C415.959 395.904 412.29 395.49 408.62 395.072C407.07 394.896 406.078 395.785 405.512 397.161C404.376 399.919 403.317 402.71 401.966 406.15ZM380.298 404.028C375.385 402.875 370.606 402.089 365.782 401.582C363.942 401.389 363.316 402.734 362.764 404.053C362.129 405.572 361.587 407.128 360.95 408.642C360.548 409.6 360.972 410.162 361.862 410.353C365.999 411.236 370.14 412.102 374.297 412.868C374.976 412.991 376.143 412.811 376.409 412.375C377.969 409.813 379.811 407.344 380.298 404.028ZM390.83 403.533C390.665 403.484 391.161 403.713 391.678 403.771C394.427 404.08 397.179 404.347 399.932 404.63C402.076 402.715 402.386 399.844 403.599 397.442C403.844 396.958 404.006 396.425 404.153 395.9C404.646 394.152 404.411 393.6 402.704 393.35C400.206 392.988 397.68 392.795 395.163 392.556C393.454 392.394 391.339 391.581 390.138 392.321C388.759 393.168 388.139 395.383 387.278 397.052C384.579 402.287 384.595 402.297 390.83 403.533ZM370.451 400.1C370.448 400.118 370.445 400.134 370.443 400.151C373.36 400.488 376.281 400.819 379.197 401.165C380.652 401.337 381.72 400.741 382.354 399.245C383.285 397.058 384.314 394.904 385.118 392.669C385.957 390.34 385.536 389.727 383.261 389.389C379.466 388.826 375.653 388.345 371.877 387.686C370.415 387.432 369.399 387.57 368.759 389.272C368.068 391.105 367.16 392.85 366.478 394.682C364.812 399.156 364.842 399.168 369.312 399.919C369.692 399.981 370.071 400.04 370.451 400.1ZM452.619 350.93C449.84 350.547 447.037 350.277 444.291 349.733C442.66 349.411 441.708 349.898 441.095 351.363C439.887 354.241 438.62 357.099 437.507 360.013C436.816 361.815 437.203 362.356 439.249 362.648C442.299 363.081 445.351 363.616 448.421 363.739C451.693 363.872 452.347 364.958 453.904 360.663C454.458 359.134 455.337 357.7 455.72 356.139C456.868 351.457 457.088 351.582 452.619 350.93ZM430.896 348.571C426.868 348.066 426.024 348.101 424.943 350.647C424.064 352.719 423.031 354.725 422.14 356.792C421.777 357.64 421.614 358.574 421.356 359.467C420.986 360.737 421.384 361.591 422.752 361.75C426.192 362.152 429.634 362.569 433.086 362.829C434.361 362.925 435.251 362.193 435.775 360.876C437.002 357.791 438.394 354.772 439.711 351.722C440.396 350.132 440.093 349.554 438.439 349.367C435.68 349.057 432.916 348.784 430.896 348.571ZM374.453 356.826C373.418 356.589 372.397 356.24 371.344 356.142C366.601 355.706 363.852 357.68 362.247 362.618C361.637 364.502 361.029 366.392 360.538 368.307C359.776 371.277 360.158 371.952 362.823 372.126C365.613 372.307 368.43 372.215 371.216 372.413C372.517 372.505 373.207 372.063 373.679 370.809C374.774 367.892 375.874 364.975 377.083 362.106C379.054 357.434 379.092 357.451 374.453 356.826ZM417.14 376.994C419.386 377.225 422.467 377.596 425.56 377.832C426.782 377.926 428.117 377.771 428.675 376.345C430.201 372.439 431.672 368.514 433.124 364.582C433.524 363.501 433.287 362.564 432.014 362.456C428.522 362.163 425.02 361.964 421.523 361.705C419.949 361.587 419.013 362.273 418.421 363.815C417.571 366.021 416.536 368.156 415.589 370.326C415.029 371.606 414.413 372.869 413.954 374.185C413.386 375.814 413.755 376.346 415.505 376.748C415.766 376.809 416.039 376.831 417.14 376.994ZM413.663 392.957C416.037 393.304 417.903 393.521 419.745 393.87C421.159 394.137 422.115 393.668 422.661 392.257C424.09 388.571 425.568 384.903 426.915 381.186C427.631 379.216 427.231 378.486 425.34 378.301C421.738 377.95 418.122 377.71 414.502 377.534C413.928 377.507 412.959 377.906 412.762 378.368C410.99 382.517 409.31 386.708 407.7 390.925C407.309 391.954 408.061 392.446 408.978 392.536C410.711 392.706 412.447 392.849 413.663 392.957ZM392.763 389.621C396.555 390.083 400.538 390.547 404.515 391.066C405.829 391.237 406.538 390.584 406.958 389.519C408.261 386.214 409.532 382.895 410.808 379.58C411.227 378.49 410.869 377.682 409.679 377.567C405.561 377.165 401.436 376.835 397.309 376.515C396.125 376.425 395.253 376.95 394.813 378.078C393.613 381.143 392.342 384.182 391.238 387.278C390.739 388.678 391.186 389.24 392.763 389.621ZM396.732 370.841C395.453 375.093 395.679 375.446 398.768 375.711C402.043 375.991 405.322 376.234 408.584 376.62C410.167 376.807 411.152 376.139 411.74 374.701C413.21 371.105 414.67 367.503 416.052 363.871C416.566 362.523 416.1 361.675 414.74 361.548C410.81 361.184 406.857 361.036 402.938 360.602C401.115 360.399 400.176 361.225 399.591 362.82C398.493 365.822 397.444 368.843 396.732 370.841ZM402.727 358.173C406.316 358.625 408.98 359.075 411.668 359.266C413.662 359.406 415.96 359.806 417.608 358.965C418.851 358.327 419.321 355.924 420.059 354.273C420.975 352.215 421.842 350.13 422.673 348.033C422.929 347.39 423.131 346.661 423.1 345.991C423.08 345.57 422.627 344.875 422.289 344.83C418.014 344.266 413.732 343.735 409.436 343.339C407.951 343.201 406.883 344.148 406.279 345.592C404.865 348.972 403.395 352.329 402.056 355.736C401.455 357.261 402.003 358.018 402.727 358.173ZM377.959 388.833C379.569 389.066 382.146 389.394 384.707 389.827C386.326 390.103 387.3 389.512 387.88 388.095C389.028 385.275 390.263 382.487 391.351 379.644C392.093 377.699 391.828 377.159 389.851 376.904C384.972 376.272 380.073 375.797 375.185 375.235C374.092 375.107 373.288 375.443 372.882 376.415C371.715 379.222 370.551 382.027 369.467 384.865C368.966 386.174 369.798 386.871 371.011 387.177C373.004 387.68 375.007 388.133 377.959 388.833ZM427.988 395.55C431.622 395.907 435.468 396.214 439.288 396.691C440.915 396.895 441.833 396.306 442.346 394.72C443.473 391.231 444.658 387.763 445.744 384.263C446.35 382.304 446.035 381.767 443.998 381.57C440.031 381.186 436.041 380.977 432.068 380.625C430.695 380.5 429.732 380.885 429.176 382.305C427.744 385.971 426.257 389.616 424.859 393.296C424.519 394.194 424.871 394.967 425.82 395.207C426.46 395.371 427.129 395.419 427.988 395.55ZM444.75 379.657C445.975 379.708 446.795 379.312 447.198 378.067C448.498 374.049 449.854 370.05 451.081 366.01C451.191 365.649 450.573 364.681 450.195 364.624C446.263 364.036 442.306 363.604 438.365 363.072C436.6 362.836 435.644 363.64 435.045 365.275C433.825 368.598 432.457 371.868 431.266 375.2C430.346 377.771 430.647 378.199 433.259 378.787C433.646 378.875 441.309 379.514 444.75 379.657ZM380.571 356.297C386.54 356.953 392.127 357.627 397.731 358.121C398.503 358.189 399.791 357.58 400.103 356.926C401.902 353.178 403.477 349.321 405.123 345.501C405.178 345.376 405.162 345.224 405.192 345.089C405.398 344.072 404.91 343.356 403.999 343.258C398.675 342.688 393.347 342.149 388.007 341.726C386.281 341.588 385.395 342.654 384.826 344.371C383.82 347.403 382.454 350.312 381.293 353.294C380.995 354.059 380.898 354.903 380.571 356.297ZM379.255 372.371C379.252 372.412 379.247 372.453 379.244 372.496C383.613 372.912 387.986 373.307 392.352 373.755C393.789 373.904 394.75 373.427 395.221 372.088C396.467 368.536 397.754 364.999 398.928 361.427C399.521 359.623 399.259 359.263 397.401 359.016C393.451 358.491 389.495 358.005 385.536 357.561C384.449 357.44 383.311 357.373 382.254 357.569C381.579 357.693 380.698 358.205 380.446 358.779C378.935 362.21 377.537 365.692 376.189 369.191C375.406 371.224 375.773 371.732 378.029 372.188C378.434 372.27 378.847 372.311 379.255 372.371ZM387.884 276.795C388.726 274.673 389.63 272.535 390.418 270.359C390.846 269.175 390.443 268.283 389.259 267.668C386.734 266.352 384.277 264.902 381.768 263.554C376.284 260.61 370.8 257.665 365.288 254.773C361.913 253.003 358.527 251.238 355.061 249.659C353.892 249.126 352.458 248.949 351.153 248.989C347.334 249.107 344.63 251.292 341.926 254.541C357.743 261.213 372.663 268.943 387.884 276.795ZM208.082 290.749C208.141 292.678 208.319 293.753 208.177 294.789C208.038 298.094 208.895 299.601 210.495 301.52C211.444 302.659 212.426 303.812 213.572 304.731C219.47 309.469 242.482 321.71 247.406 324.181C250.409 325.691 266.124 334.881 271.569 338.078C280.252 343.177 290.083 348.585 298.827 353.57C305.942 357.627 313.296 361.267 320.605 364.967C326.601 368.002 332.682 370.868 338.743 373.766C339.582 374.167 340.52 374.383 341.435 374.59C342.235 374.768 343.141 374.812 343.422 373.77C343.682 372.807 343.046 372.26 342.231 371.938C341.855 371.792 341.445 371.729 341.081 371.561C334.02 368.268 326.896 365.101 319.929 361.618C315.252 359.278 310.805 356.472 306.238 353.91C303.428 352.334 278.886 337.922 269.475 332.194C264.312 329.051 258.972 326.204 253.736 323.182C249.088 320.497 244.467 317.771 239.847 315.035C235.231 312.298 230.588 309.601 226.038 306.755C219.418 302.614 213.031 298.163 208.082 290.749ZM209.815 283.37C209.66 284.027 209.572 284.707 209.342 285.337C208.235 288.365 208.932 290.845 211.084 293.209C214.572 297.035 218.249 300.631 222.52 303.533C226.426 306.185 230.397 308.753 234.452 311.166C243.159 316.346 251.929 321.42 260.694 326.506C266.533 329.893 272.438 333.169 278.254 336.596C283.956 339.956 289.583 343.446 295.243 346.879C296.744 347.79 298.222 348.742 299.744 349.618C305.481 352.909 311.226 356.189 316.981 359.449C319.093 360.644 321.208 361.841 323.383 362.912C325.684 364.045 328.049 365.047 330.403 366.069C334.619 367.899 338.827 369.742 343.079 371.485C344.123 371.914 345.412 372.662 346.43 371.621C347.196 370.838 346.563 368.603 345.174 368.041C344.804 367.889 335.873 365.242 332.643 363.632C324.034 359.782 318.555 356.17 311.635 352.215C307.306 349.739 303.241 346.801 298.936 344.277C289.03 338.463 258.151 319.042 252.277 315.724C244.164 311.141 236.163 306.389 228.479 301.115C225.81 299.284 223.365 297.127 220.727 295.247C216.305 292.096 212.075 288.814 209.815 283.37ZM381.687 420.554C384.212 420.975 386.736 421.416 389.266 421.812C395.954 422.863 402.643 423.91 409.335 424.929C415.82 425.917 419.276 424.358 425.82 418.796C428.482 416.535 430.771 414.34 433.484 412.137C441.543 405.591 449.711 399.179 457.817 392.689C458.499 392.145 459.041 391.425 459.699 390.734C458.939 390.124 458.45 389.656 457.89 389.298C455.044 387.465 454.787 387.481 452.265 389.632C449.809 391.725 439.488 400.731 436.63 402.948C432.604 406.073 420.739 416.168 418.51 417.518C414.369 420.028 409.647 420.7 404.798 419.849C402.014 419.363 365.069 412.905 362.166 412.259C360.221 411.826 358.337 411.106 356.449 410.449C355.395 410.025 354.338 404.648 354.283 402.157C354.152 396.245 354.193 390.315 354.518 384.414C354.83 378.773 355.292 378.765 348.984 378.56C348.579 378.548 346.157 378.968 345.965 380.139C344.854 386.941 344.851 393.786 345.332 400.627C345.47 402.582 346.541 408.611 347.52 409.152C355.916 414.342 381.753 420.428 381.687 420.554ZM379.698 326.73C381.814 326.604 383.934 326.34 386.045 326.39C388.577 326.45 391.1 326.942 393.63 326.955C401.28 326.992 408.933 326.826 416.585 326.875C418.981 326.892 421.373 327.337 423.766 327.586C423.04 327.818 422.314 328.245 421.584 328.25C413.116 328.32 404.64 328.491 396.177 328.287C390.832 328.156 386.215 329.852 381.947 332.799C380.409 333.861 379.128 335.29 377.707 336.53C374.349 339.455 370.854 342.232 367.643 345.311C363.071 349.697 358.722 354.311 354.246 358.798C352.616 360.432 351.981 362.564 350.81 364.439C352.675 364.872 354.219 365.185 355.734 365.598C357.12 365.977 358.072 365.667 358.627 364.243C360.602 359.157 364.524 355.544 368.215 351.805C371.728 348.249 375.475 344.928 379.088 341.471C381.427 339.23 383.581 336.774 386.058 334.704C388.54 332.63 389.755 332.566 392.227 331.85C395.038 331.457 403.406 331.577 407.154 331.366C412.022 331.09 416.822 331.519 421.634 332.216C426.148 332.87 430.705 333.223 435.247 333.685C440.693 334.239 446.208 334.607 451.319 336.72C456.42 338.826 460.928 341.605 460.412 348.307C460.341 349.225 460.716 350.169 460.815 351.107C461.057 353.389 461.391 355.669 461.446 357.954C461.558 362.679 461.489 367.408 461.546 372.132C461.558 373.153 461.781 374.173 461.912 375.222C465.11 374.213 465.419 373.874 465.482 371.158C465.555 368.053 465.677 364.944 465.604 361.841C465.532 358.738 465.276 355.638 465.018 352.543C464.987 352.165 464.361 351.484 464.177 351.538C463.57 351.71 463.008 352.354 462.845 351.122C462.597 349.253 462.268 347.396 462.055 345.522C461.036 336.579 456.194 331.56 447.439 330.424C447.174 330.388 446.901 330.4 446.633 330.379C440.459 329.927 434.284 329.518 428.118 328.99C426.574 328.858 424.818 329.137 423.654 327.634C424.039 327.526 424.424 327.315 424.805 327.324C433.286 327.521 441.739 328.051 450.143 329.294C455.547 330.092 459.913 332.166 461.951 337.68C462.42 338.947 462.966 340.224 464.275 341.013C463.379 333.04 462.161 325.211 460.941 317.38C460.435 314.126 457.983 312.113 455.754 310.303C451.591 306.927 447.054 304 442.604 300.989C438.82 298.427 409.589 279.953 405.902 277.833C405.29 279.284 404.164 282.362 403.052 284.614C402.155 286.433 401.947 287.117 403.236 288.356C403.801 288.896 404.128 289.691 404.549 290.381C405.627 292.15 405.583 293.093 403.726 293.871C400.266 295.321 396.709 296.594 393.093 297.574C391.82 297.918 390.161 297.432 388.853 296.895C386.497 295.93 384.279 294.627 381.99 293.493C373.676 289.367 365.421 285.118 357.026 281.17C343.374 274.754 330.707 267.758 317.859 258.827C316.619 257.82 315.311 256.79 314.395 255.51C312.882 253.398 313.283 251.264 314.782 249.171C316.625 246.6 320.405 243.985 322.044 244.372C323.697 244.811 325.35 245.246 327.003 245.693C327.523 245.833 328.041 246.146 328.55 246.122C329.457 246.074 330.545 246.097 331.22 245.614C332.83 244.462 334.241 243.033 336.061 241.424C333.947 240.283 332.203 239.344 330.461 238.398C326.737 236.373 322.777 235.203 318.524 234.99C312.885 234.705 307.253 234.249 301.609 234.078C295.167 233.884 288.716 233.874 282.267 233.879C277.839 233.883 273.405 233.968 268.979 234.167C262.94 234.438 256.901 234.774 250.875 235.239C248.504 235.421 247.548 237.142 248.529 239.268C249.078 240.459 249.887 241.632 250.86 242.496C252.256 243.734 253.891 244.712 255.454 245.752C257.693 247.244 259.964 248.686 262.203 250.18C262.365 250.289 262.372 250.638 262.546 251.162C259.173 250.403 256.79 248.168 254.022 246.675C251.188 245.145 248.486 243.519 246.378 240.64C244.858 242.104 243.487 243.21 242.375 244.534C239.424 248.043 236.591 251.651 233.701 255.212C229.959 259.826 226.191 264.423 222.461 269.048C219.92 272.2 217.426 275.388 214.91 278.557C213.012 280.946 212.649 283.47 214.451 286.028C215.528 287.556 216.678 289.072 218.014 290.368C221.693 293.935 226 296.691 230.084 299.747C236.484 304.527 243.454 308.284 250.219 312.416C257.448 316.833 264.851 320.972 272.008 325.505C279.396 330.186 305.54 346.209 311.128 349.699C316.03 352.766 321.107 355.566 326.21 358.288C331.455 361.087 337.02 363.101 342.779 364.626C346.072 365.497 348.27 364.721 350.323 361.79C353.265 357.592 356.495 353.517 360.104 349.894C366.018 343.957 372.317 338.408 378.5 332.745C379.831 331.525 381.357 330.514 382.602 329.556C382.139 327.751 379.782 328.563 379.77 326.684L379.698 326.73ZM212.42 331.216C211.682 331.112 210.941 331.252 211.105 332.136C211.753 335.621 212.459 339.057 214.031 342.345C215.706 345.85 217.452 348.114 220.707 350.612C226.464 354.288 247.282 367.142 256.954 373.017C263.283 376.861 269.649 380.65 275.878 384.645C281.349 388.158 287.195 390.912 293.042 393.688C297.421 395.768 301.783 397.884 306.184 399.92C312.172 402.692 318.11 405.596 324.219 408.075C328.572 409.838 333.141 411.1 337.668 412.402C345.834 414.747 362.258 416.742 362.042 416.684C357.106 415.33 350.536 413.532 346.607 410.961C344.342 409.509 343.326 408.066 343.24 405.806C343.141 403.273 342.647 400.74 342.698 398.219C342.824 392.094 343.141 385.97 343.439 379.851C343.55 377.58 343.544 377.542 341.324 376.717C338.8 375.781 336.237 374.902 333.821 373.729C328.251 371.026 322.756 368.169 317.237 365.362C301.866 357.541 283.201 347.543 266.471 338.139C255.642 331.994 214.958 309.511 210.226 307.582C212.662 309.275 215.099 310.965 217.537 312.657C217.435 312.819 217.336 312.978 217.236 313.136C214.618 311.832 211.999 310.526 208.778 308.922C211.097 312.13 211.176 312.097 213.426 313.586C214.84 314.521 216.095 315.694 217.422 316.761L217.616 317.219C216.301 316.595 214.857 315.494 213.576 314.81C212.411 314.189 211.313 313.439 210.162 312.789C209.978 312.684 209.471 312.756 209.446 312.844C209.352 313.166 209.248 313.691 209.42 313.847C210.098 314.463 210.867 314.985 211.626 315.506C212.672 316.225 214.218 316.297 214.651 317.812L214.733 317.751C212.957 317.052 211.18 316.353 209.152 315.554C209.157 317.483 209.227 318.93 209.15 320.367C208.987 323.442 209.457 326.152 212.807 327.466C212.966 327.526 212.997 327.91 213.086 328.143L213.156 328.094C212.642 327.943 212.137 327.714 211.614 327.66C211.132 327.608 210.629 327.743 210.135 327.795C210.222 328.28 210.162 328.872 210.425 329.232C210.97 329.979 211.684 330.602 212.33 331.275L212.42 331.216ZM384.018 279.115C384.139 278.625 384.501 277.813 384.346 277.692C382.853 276.553 381.366 275.34 379.699 274.51C373.821 271.585 367.849 268.846 361.96 265.936C360.614 265.271 359.699 265.611 358.671 266.553C359.319 266.972 359.909 267.355 360.961 268.034C359.101 268.268 357.694 268.155 356.531 268.648C353.78 269.809 352.155 268.39 350.516 266.586C351.445 266.125 352.59 265.142 353.039 265.4C355.412 266.75 356.717 264.847 359.085 263.943C352.966 261.241 347.463 258.795 341.939 256.397C341.515 256.212 340.755 256.144 340.498 256.389C340.18 256.696 339.967 257.567 340.172 257.869C340.479 258.317 341.164 258.628 341.737 258.736C342.437 258.863 343.189 258.717 343.918 258.692C341.44 259.555 338.923 259.791 336.407 260.003C336.012 260.035 335.462 260.125 335.236 259.915C333.232 258.04 331.067 257.864 328.647 259.06C328.48 259.143 327.614 258.24 327.647 258.19C329.093 256.05 326.701 256.825 326.195 256.199L326.238 256.291C326.107 255.745 326.987 254.885 325.848 254.673C324.952 254.508 324.02 254.538 323.019 254.477C323.466 253.708 324.124 253.072 324.118 252.445C324.116 251.842 323.428 251.249 323.036 250.64C324.214 250.021 325.225 249.61 326.1 249.001C327.109 248.298 326.954 247.335 325.832 246.874C322.364 245.448 319.564 247.099 317.012 249.155C314.235 251.393 314.27 253.558 317.004 255.92C318.424 257.152 320.116 258.061 321.571 259.254C329.571 264.376 356.433 278.879 364.34 282.642C367.988 284.382 371.664 286.063 375.261 287.901C379.215 289.923 383.03 292.231 387.031 294.149C388.921 295.054 391.229 296.089 393.125 295.747C396.241 295.188 399.198 293.615 402.172 292.343C403.075 291.958 402.997 291.033 402.508 290.237C401.885 289.216 401.121 288.684 399.823 289.094C394.854 290.655 390.227 288.666 385.533 287.632C383.256 287.13 383.028 286.04 384.262 283.941C384.566 283.421 384.846 282.596 384.641 282.148C384.461 281.761 383.544 281.472 383.012 281.555C381.764 281.749 380.839 281.701 380.715 280.156L380.664 280.241C381.211 280.114 381.756 279.987 382.303 279.86C382.887 280.074 383.462 280.419 384.055 280.452C384.44 280.469 384.85 280.026 385.251 279.789C384.84 279.566 384.429 279.34 384.018 279.115ZM339.388 251.925L339.451 252.016C342.688 249.391 346.564 248.289 350.593 247.894C358.823 247.093 366.306 249.854 373.545 253.344C377.185 255.101 380.708 257.109 384.247 259.07C386.725 260.441 389.205 261.834 391.572 263.384C393.226 264.466 394.163 265.873 393.586 268.161C393.242 269.525 393.233 270.895 392.508 272.253C391.001 275.072 389.837 278.073 388.501 280.986C387.411 283.367 387.654 284.267 390 285.546C391.062 286.126 392.191 286.625 393.344 286.987C397.228 288.203 399.976 286.947 401.462 283.21C402.55 280.476 403.654 277.725 404.418 274.888C405.992 269.047 404.695 265.403 400.524 262.459C396.248 259.442 391.92 256.4 387.283 254.005C379.858 250.168 372.227 246.705 364.562 243.363C356.711 239.942 348.598 239.532 340.43 242.225C339.678 242.474 338.949 242.862 338.292 243.306C336.639 244.423 334.969 245.53 333.425 246.785C331.563 248.301 329.777 249.922 328.066 251.604C327.683 251.98 327.485 252.894 327.658 253.413C328.201 255.047 335.041 257.476 336.7 256.735C337.722 256.276 340.461 253.589 341.355 252.162C340.695 252.082 340.042 252.003 339.388 251.925ZM376.945 420.819C367.898 419.876 339.49 415.093 334.272 413.619C332.017 413.049 330.162 412.152 328.424 411.439C314.258 405.608 300.461 398.96 286.741 392.171C280.687 389.177 274.877 385.671 269.069 382.206C259.071 376.239 249.15 370.139 239.215 364.065C232.859 360.179 214.249 349.842 213.579 347.305C212.18 341.962 209.458 335.318 208.842 329.746C208.337 325.186 207.636 320.644 207.169 316.079C206.511 309.638 205.94 303.186 205.421 296.732C205.073 292.391 205.363 288.042 206.736 283.915C207.397 281.93 208.492 279.782 210.038 278.456C214.081 274.984 217.136 270.687 220.522 266.694C226.722 259.379 232.547 251.746 238.534 244.251C239.378 243.195 240.303 242.202 241.104 241.116C242.052 239.831 242.986 238.526 243.781 237.146C245.285 234.535 247.156 232.821 250.48 232.783C254.932 232.732 259.377 232.084 263.828 232.019C277.485 231.817 291.149 231.581 304.804 231.749C311.007 231.826 317.226 232.633 323.384 233.493C326 233.859 328.513 235.125 331.014 236.13C332.891 236.885 334.707 237.815 336.487 238.782C337.777 239.483 339.017 239.507 340.395 239.153C342.621 238.582 344.865 238.061 347.125 237.635C353.503 236.428 359.433 238.256 365.328 240.38C373.878 243.462 381.952 247.595 389.976 251.784C394.271 254.027 402.873 260.19 403.196 260.434C406.555 262.949 407.561 266.465 407.499 270.437C407.47 272.283 406.863 274.402 407.577 275.895C408.231 277.263 435.293 293.548 440.609 297.026C446.496 300.878 452.408 304.694 458.397 308.382C460.394 309.612 462.569 312.239 463.24 314.417C464.316 317.917 467.146 341.901 467.334 347.728C467.573 355.145 468.086 362.554 468.429 369.97C468.49 371.314 468.244 372.668 468.247 374.018C468.251 375.087 468.043 376.431 468.588 377.169C470.061 379.157 469.356 381.027 468.763 382.93C468.283 384.47 467.648 385.965 466.995 387.443C466.791 387.903 466.379 388.399 465.934 388.606C460.824 390.992 457.19 395.33 452.71 398.557C446.797 402.816 441.175 407.493 435.547 412.133C432.214 414.881 423.232 423.102 421.769 424.058C418.376 426.271 414.697 427.335 410.574 426.587C405.912 425.744 401.217 425.083 396.556 424.24C394.16 423.808 381.12 421.255 376.945 420.819V420.819Z" fill="#CDCCCE"/>
</svg>
