<svg width="1899" height="799" viewBox="0 0 1899 799" fill="none" xmlns="http://www.w3.org/2000/svg">
<path d="M1880.47 122.805C1879.86 117.865 1876.77 113.624 1872.19 111.458C1867.61 109.292 1862.28 109.552 1857.94 112.153L1847.49 118.421C1845.76 119.46 1844.44 120.986 1843.68 122.831C1842.92 124.677 1842.8 126.67 1843.31 128.594C1843.83 130.518 1844.94 132.192 1846.53 133.435C1848.12 134.679 1850.03 135.374 1852.07 135.447L1852.2 135.452C1857.31 135.67 1862.12 137.967 1865.43 141.768C1866.29 142.748 1867.32 143.528 1868.48 144.077C1869.12 144.375 1869.79 144.606 1870.48 144.763C1872.47 145.209 1874.5 145.023 1876.37 144.225C1878.23 143.427 1879.75 142.093 1880.76 140.365C1881.77 138.638 1882.17 136.681 1881.93 134.706L1880.47 122.805Z" fill="#EFEFEF"/>
<path d="M1853.79 109.976C1855.84 110.149 1857.83 109.39 1859.38 107.84C1860.87 106.366 1861.78 104.336 1861.97 102.123C1862.15 99.9106 1861.58 97.7566 1860.36 96.0569C1859.08 94.2706 1857.25 93.1936 1855.21 93.0233C1851.09 92.6788 1847.43 96.2011 1847.03 100.878C1846.73 104.602 1848.59 107.949 1851.44 109.33C1852.16 109.683 1852.96 109.907 1853.79 109.976Z" fill="#EFEFEF"/>
<path d="M1868.65 109.205C1873 111.359 1878.49 108.983 1880.88 103.909C1883.28 98.8325 1881.69 92.9503 1877.34 90.7949C1873 88.6404 1867.51 91.0173 1865.12 96.0938C1862.72 101.168 1864.31 107.05 1868.65 109.205Z" fill="#EFEFEF"/>
<path d="M1881.19 116.962V116.963C1881.75 117.499 1882.37 117.929 1883.04 118.253C1886.18 119.764 1890.34 118.963 1893.2 116.031C1894.85 114.343 1895.83 112.195 1895.98 109.983C1896.13 107.668 1895.36 105.559 1893.8 104.047C1892.24 102.534 1890.1 101.821 1887.78 102.038C1885.57 102.247 1883.44 103.291 1881.79 104.979C1878.32 108.54 1878.05 113.915 1881.19 116.962Z" fill="#EFEFEF"/>
<path d="M1898.22 124.91L1898.22 124.908C1896.24 121.118 1891.18 119.868 1886.93 122.122C1882.68 124.379 1880.82 129.299 1882.78 133.089C1883.5 134.471 1884.63 135.517 1885.98 136.177C1888.33 137.328 1891.37 137.311 1894.07 135.878C1898.32 133.62 1900.18 128.701 1898.22 124.91Z" fill="#EFEFEF"/>
<path d="M1644.47 33.8049C1643.86 28.8653 1640.77 24.6239 1636.19 22.4576C1631.61 20.2921 1626.28 20.5522 1621.94 23.153L1611.49 29.4209C1609.76 30.4603 1608.44 31.9863 1607.68 33.831C1606.92 35.6767 1606.79 37.6697 1607.31 39.5937C1607.83 41.5177 1608.94 43.1919 1610.53 44.4354C1612.12 45.679 1614.03 46.3744 1616.07 46.4471L1616.2 46.4517C1621.31 46.6699 1626.12 48.9667 1629.43 52.7681C1630.29 53.7479 1631.32 54.5281 1632.48 55.0771C1633.12 55.3754 1633.79 55.6057 1634.48 55.7632C1636.47 56.2088 1638.5 56.0233 1640.37 55.2254C1642.23 54.4274 1643.75 53.0925 1644.76 51.3652C1645.77 49.6379 1646.17 47.6813 1645.93 45.706L1644.47 33.8049Z" fill="#EFEFEF"/>
<path d="M1616.79 20.9758C1618.84 21.1489 1620.83 20.3902 1622.38 18.8406C1623.87 17.3663 1624.78 15.3359 1624.97 13.1227C1625.15 10.9106 1624.58 8.75636 1623.36 7.05615C1622.08 5.27057 1620.25 4.19301 1618.21 4.02331C1614.09 3.67843 1610.43 7.2009 1610.03 11.8777C1609.73 15.6023 1611.59 18.9494 1614.44 20.3297C1615.16 20.6825 1615.96 20.9069 1616.79 20.9758Z" fill="#EFEFEF"/>
<path d="M1632.65 19.2048C1637 21.3595 1642.49 18.9838 1644.88 13.9088C1647.28 8.83252 1645.69 2.94972 1641.34 0.794902C1637 -1.35963 1631.51 1.01713 1629.12 6.09349C1626.72 11.1685 1628.31 17.0502 1632.65 19.2048Z" fill="#EFEFEF"/>
<path d="M1645.19 27.9616V27.9625C1645.75 28.4995 1646.37 28.9291 1647.04 29.2531C1650.18 30.764 1654.34 29.9626 1657.2 27.0308C1658.85 25.3428 1659.83 23.1948 1659.98 20.9827C1660.13 18.6673 1659.36 16.5591 1657.8 15.0464C1656.24 13.5335 1654.1 12.8208 1651.78 13.0384C1649.57 13.2463 1647.44 14.2908 1645.79 15.9789C1642.32 19.5397 1642.05 24.915 1645.19 27.9616Z" fill="#EFEFEF"/>
<path d="M1662.22 34.9101L1662.22 34.9082C1660.24 31.1177 1655.18 29.868 1650.93 32.1217C1646.68 34.3792 1644.82 39.299 1646.78 43.0885C1647.5 44.4712 1648.63 45.5166 1649.98 46.1766C1652.33 47.3281 1655.37 47.3107 1658.07 45.878C1662.32 43.6204 1664.18 38.7006 1662.22 34.9101Z" fill="#EFEFEF"/>
<path d="M1863.47 376.805C1862.86 371.865 1859.77 367.624 1855.19 365.458C1850.61 363.292 1845.28 363.552 1840.94 366.153L1830.49 372.421C1828.76 373.46 1827.44 374.986 1826.68 376.831C1825.92 378.677 1825.79 380.67 1826.31 382.594C1826.83 384.518 1827.94 386.192 1829.53 387.435C1831.12 388.679 1833.03 389.374 1835.07 389.447L1835.2 389.452C1840.31 389.67 1845.12 391.967 1848.43 395.768C1849.29 396.748 1850.32 397.528 1851.48 398.077C1852.12 398.375 1852.79 398.606 1853.48 398.763C1855.47 399.209 1857.5 399.023 1859.37 398.225C1861.23 397.427 1862.75 396.093 1863.76 394.365C1864.77 392.638 1865.17 390.681 1864.93 388.706L1863.47 376.805Z" fill="#EFEFEF"/>
<path d="M1836.79 363.976C1838.84 364.149 1840.83 363.39 1842.38 361.84C1843.87 360.366 1844.78 358.336 1844.97 356.123C1845.15 353.911 1844.58 351.757 1843.36 350.057C1842.08 348.271 1840.25 347.194 1838.21 347.023C1834.09 346.679 1830.43 350.201 1830.03 354.878C1829.73 358.602 1831.59 361.949 1834.44 363.33C1835.16 363.683 1835.96 363.907 1836.79 363.976Z" fill="#EFEFEF"/>
<path d="M1851.65 362.205C1856 364.359 1861.49 361.983 1863.88 356.909C1866.28 351.832 1864.69 345.95 1860.34 343.795C1856 341.64 1850.51 344.017 1848.12 349.094C1845.72 354.168 1847.31 360.05 1851.65 362.205Z" fill="#EFEFEF"/>
<path d="M1864.19 370.962V370.963C1864.75 371.499 1865.37 371.929 1866.04 372.253C1869.18 373.764 1873.34 372.963 1876.2 370.031C1877.85 368.343 1878.83 366.195 1878.98 363.983C1879.13 361.668 1878.36 359.559 1876.8 358.047C1875.24 356.534 1873.1 355.821 1870.78 356.038C1868.57 356.247 1866.44 357.291 1864.79 358.979C1861.32 362.54 1861.05 367.915 1864.19 370.962Z" fill="#EFEFEF"/>
<path d="M1881.22 378.91L1881.22 378.908C1879.24 375.118 1874.18 373.868 1869.93 376.122C1865.68 378.379 1863.82 383.299 1865.78 387.089C1866.5 388.471 1867.63 389.517 1868.98 390.177C1871.33 391.328 1874.37 391.311 1877.07 389.878C1881.32 387.62 1883.18 382.701 1881.22 378.91Z" fill="#EFEFEF"/>
<path d="M38.4307 775.537C37.8086 770.316 34.6327 765.831 29.9348 763.541C25.2368 761.252 19.7759 761.527 15.3274 764.276L4.60709 770.902C2.82853 772.001 1.47698 773.614 0.698951 775.564C-0.0791746 777.515 -0.210232 779.622 0.318984 781.656C0.849666 783.69 1.99143 785.46 3.62074 786.775C5.24995 788.089 7.21424 788.824 9.30058 788.901L9.44054 788.906C14.6717 789.137 19.6103 791.565 23.0096 795.583C23.8866 796.619 24.9469 797.444 26.1378 798.024C26.7851 798.34 27.472 798.583 28.1884 798.75C30.2225 799.221 32.3085 799.025 34.2211 798.181C36.1326 797.338 37.6908 795.926 38.7267 794.1C39.7625 792.274 40.1785 790.206 39.93 788.118L38.4307 775.537Z" fill="#EFEFEF"/>
<path d="M11.245 761.974C13.4297 762.158 15.5475 761.354 17.2082 759.713C18.7889 758.152 19.7677 756.003 19.9641 753.66C20.1595 751.317 19.5518 749.036 18.2532 747.237C16.8889 745.345 14.9345 744.205 12.7522 744.025C8.36368 743.66 4.45354 747.389 4.03539 752.341C3.70716 756.284 5.69251 759.829 8.73186 761.29C9.50788 761.664 10.3528 761.901 11.245 761.974Z" fill="#EFEFEF"/>
<path d="M26.9131 761.165C31.5016 763.427 37.2921 760.933 39.821 755.604C42.3504 750.274 40.6751 744.098 36.0866 741.835C31.4986 739.572 25.7081 742.068 23.1787 747.398C20.6498 752.727 22.3252 758.903 26.9131 761.165Z" fill="#EFEFEF"/>
<path d="M40.3208 769.842L40.3213 769.843C40.9089 770.411 41.5695 770.866 42.2807 771.209C45.5999 772.809 50.0032 771.96 53.0334 768.856C54.7781 767.069 55.8245 764.795 55.9797 762.452C56.1426 760.001 55.3221 757.769 53.6693 756.167C52.016 754.565 49.7536 753.81 47.2985 754.041C44.9533 754.261 42.7013 755.367 40.9575 757.155C37.2782 760.925 36.9927 766.616 40.3208 769.842Z" fill="#EFEFEF"/>
<path d="M57.2159 777.91L57.2152 777.908C55.2438 774.118 50.1811 772.868 45.9281 775.122C41.6769 777.379 39.8182 782.299 41.7842 786.089C42.5009 787.471 43.6294 788.517 44.9803 789.177C47.3346 790.328 50.3655 790.311 53.0719 788.878C57.3227 786.62 59.1819 781.701 57.2159 777.91Z" fill="#EFEFEF"/>
<path d="M231.431 762.537C230.809 757.316 227.633 752.831 222.934 750.541C218.237 748.252 212.776 748.527 208.327 751.276L197.607 757.902C195.829 759.001 194.477 760.614 193.699 762.564C192.921 764.515 192.79 766.622 193.319 768.656C193.85 770.69 194.991 772.46 196.621 773.775C198.25 775.089 200.214 775.824 202.301 775.901L202.441 775.906C207.672 776.137 212.61 778.565 216.01 782.583C216.886 783.619 217.946 784.444 219.138 785.024C219.785 785.34 220.472 785.583 221.189 785.75C223.223 786.221 225.308 786.025 227.221 785.181C229.132 784.338 230.691 782.926 231.727 781.1C232.763 779.274 233.178 777.206 232.93 775.118L231.431 762.537Z" fill="#EFEFEF"/>
<path d="M204.245 748.974C206.43 749.158 208.548 748.354 210.208 746.713C211.789 745.152 212.768 743.003 212.964 740.66C213.159 738.317 212.552 736.036 211.253 734.237C209.889 732.345 207.935 731.205 205.752 731.025C201.363 730.66 197.454 734.389 197.035 739.341C196.707 743.284 198.693 746.829 201.732 748.29C202.508 748.664 203.353 748.901 204.245 748.974Z" fill="#EFEFEF"/>
<path d="M219.913 747.165C224.502 749.427 230.292 746.933 232.821 741.604C235.35 736.274 233.676 730.098 229.086 727.835C224.499 725.572 218.708 728.068 216.178 733.398C213.65 738.727 215.325 744.903 219.913 747.165Z" fill="#EFEFEF"/>
<path d="M233.321 756.842V756.843C233.909 757.411 234.57 757.866 235.281 758.209C238.6 759.809 243.004 758.96 246.034 755.856C247.778 754.069 248.825 751.795 248.98 749.452C249.143 747.001 248.322 744.769 246.669 743.167C245.016 741.565 242.754 740.81 240.299 741.041C237.953 741.261 235.701 742.367 233.957 744.155C230.278 747.925 229.992 753.616 233.321 756.842Z" fill="#EFEFEF"/>
<path d="M250.216 763.91L250.215 763.908C248.244 760.118 243.181 758.868 238.928 761.122C234.677 763.379 232.818 768.299 234.784 772.089C235.501 773.471 236.629 774.517 237.98 775.177C240.335 776.328 243.365 776.311 246.071 774.878C250.323 772.62 252.182 767.701 250.216 763.91Z" fill="#EFEFEF"/>
<path d="M89.6661 582.342C89.1374 577.967 86.438 574.21 82.4443 572.291C78.4515 570.373 73.8102 570.603 70.0284 572.907L60.9162 578.459C59.4041 579.379 58.256 580.731 57.5943 582.365C56.9325 583.999 56.8211 585.765 57.2717 587.469C57.7223 589.173 58.6933 590.656 60.0774 591.757C61.4624 592.859 63.1326 593.474 64.9058 593.539L65.0247 593.543C69.4714 593.736 73.6688 595.771 76.5585 599.138C77.3034 600.005 78.2054 600.696 79.2171 601.183C79.7675 601.447 80.351 601.651 80.9604 601.79C82.6896 602.185 84.462 602.021 86.088 601.314C87.7125 600.607 89.0376 599.425 89.918 597.895C90.7984 596.365 91.1517 594.632 90.9405 592.882L89.6661 582.342Z" fill="#EFEFEF"/>
<path d="M65.8869 570.979C67.6621 571.131 69.3826 570.462 70.7317 569.094C72.0164 567.793 72.8114 566.002 72.9709 564.05C73.1296 562.098 72.6358 560.197 71.5807 558.697C70.4723 557.121 68.8848 556.171 67.1112 556.021C63.5454 555.717 60.3686 558.825 60.0287 562.951C59.7621 566.237 61.3755 569.191 63.845 570.409C64.4757 570.72 65.1619 570.918 65.8869 570.979Z" fill="#EFEFEF"/>
<path d="M79.1371 569.324C83.0017 571.156 87.8774 569.136 90.0072 564.823C92.137 560.508 90.7268 555.508 86.8621 553.676C82.9992 551.844 78.1227 553.865 75.9929 558.18C73.8631 562.493 75.2733 567.493 79.1371 569.324Z" fill="#EFEFEF"/>
<path d="M90.9345 577.201V577.202C91.4246 577.676 91.9748 578.055 92.5674 578.341C95.3333 579.674 99.0031 578.967 101.528 576.38C102.982 574.891 103.854 572.996 103.983 571.044C104.119 569.001 103.435 567.141 102.058 565.806C100.68 564.471 98.795 563.842 96.7492 564.034C94.7944 564.218 92.9177 565.139 91.4644 566.629C88.3985 569.77 88.1604 574.513 90.9345 577.201Z" fill="#EFEFEF"/>
<path d="M106.308 583.421L106.307 583.42C104.568 580.103 100.101 579.01 96.348 580.981C92.5975 582.957 90.9574 587.262 92.6917 590.577C93.3242 591.787 94.3201 592.702 95.5119 593.28C97.5894 594.287 100.263 594.272 102.651 593.018C106.403 591.043 108.043 586.738 106.308 583.421Z" fill="#EFEFEF"/>
</svg>
