<svg width="1920" height="1100" viewBox="0 0 1920 1100" fill="none" xmlns="http://www.w3.org/2000/svg">
<rect width="1920" height="1100" fill="#FFFEFD"/>
<mask id="mask0_0_2790" style="mask-type:alpha" maskUnits="userSpaceOnUse" x="0" y="0" width="1920" height="1100">
<rect width="1920" height="1100" fill="white"/>
</mask>
<g mask="url(#mask0_0_2790)">
<mask id="path-3-inside-1_0_2790" fill="white">
<path fill-rule="evenodd" clip-rule="evenodd" d="M1994 -10.1853H-79V911.815H-159.375H-478.229H-542V1044.98L-478.229 1036.42C-150.139 947.113 14.3562 998.121 131.185 1034.35C164.917 1044.81 194.675 1054.04 223.25 1058.3C350.792 1076.37 478.333 1083.03 605.875 1074.47C733.417 1064.96 860.958 1039.27 988.5 1003.13C1116.04 966.984 1212.5 961.752 1371.12 965.557C1529.75 969.362 1740.2 1026.91 1740.2 1026.91C1740.2 1026.91 1985.72 1106.81 2136.38 1106.81C2400.23 1107.76 2519 995.044 2519 981.252V911.815H2455.23H2136.38H1994V-10.1853Z"/>
</mask>
<path fill-rule="evenodd" clip-rule="evenodd" d="M1994 -10.1853H-79V911.815H-159.375H-478.229H-542V1044.98L-478.229 1036.42C-150.139 947.113 14.3562 998.121 131.185 1034.35C164.917 1044.81 194.675 1054.04 223.25 1058.3C350.792 1076.37 478.333 1083.03 605.875 1074.47C733.417 1064.96 860.958 1039.27 988.5 1003.13C1116.04 966.984 1212.5 961.752 1371.12 965.557C1529.75 969.362 1740.2 1026.91 1740.2 1026.91C1740.2 1026.91 1985.72 1106.81 2136.38 1106.81C2400.23 1107.76 2519 995.044 2519 981.252V911.815H2455.23H2136.38H1994V-10.1853Z" fill="#FBF9FF"/>
<path d="M-79 -10.1853V-12.1853H-81V-10.1853H-79ZM1994 -10.1853H1996V-12.1853H1994V-10.1853ZM-79 911.815V913.815H-77V911.815H-79ZM-159.375 913.815C-158.27 913.815 -157.375 912.919 -157.375 911.815C-157.375 910.71 -158.27 909.815 -159.375 909.815V913.815ZM-540 911.815C-540 910.71 -540.895 909.815 -542 909.815C-543.105 909.815 -544 910.71 -544 911.815H-540ZM-542.266 1043C-543.361 1043.15 -544.129 1044.15 -543.982 1045.25C-543.835 1046.34 -542.829 1047.11 -541.734 1046.96L-542.266 1043ZM-478.755 1034.49C-479.82 1034.78 -480.449 1035.88 -480.159 1036.95C-479.869 1038.01 -478.77 1038.64 -477.704 1038.35L-478.755 1034.49ZM131.185 1034.35L131.777 1032.44L131.185 1034.35ZM223.531 1056.32C222.437 1056.16 221.425 1056.92 221.27 1058.02C221.115 1059.11 221.876 1060.12 222.969 1060.28L223.531 1056.32ZM605.726 1072.47C604.625 1072.56 603.798 1073.52 603.88 1074.62C603.963 1075.72 604.922 1076.54 606.024 1076.46L605.726 1072.47ZM987.955 1001.2C986.892 1001.51 986.275 1002.61 986.576 1003.67C986.877 1004.74 987.983 1005.35 989.045 1005.05L987.955 1001.2ZM1371.17 963.557C1370.07 963.531 1369.15 964.405 1369.13 965.509C1369.1 966.613 1369.97 967.53 1371.08 967.556L1371.17 963.557ZM1740.82 1025.01C1739.77 1024.67 1738.64 1025.24 1738.3 1026.29C1737.96 1027.34 1738.53 1028.47 1739.58 1028.81L1740.82 1025.01ZM2136.38 1104.81C2135.28 1104.8 2134.38 1105.7 2134.38 1106.8C2134.37 1107.91 2135.26 1108.8 2136.37 1108.81L2136.38 1104.81ZM2517 981.252C2517 982.356 2517.9 983.252 2519 983.252C2520.1 983.252 2521 982.356 2521 981.252H2517ZM2519 913.815C2520.1 913.815 2521 912.919 2521 911.815C2521 910.71 2520.1 909.815 2519 909.815V913.815ZM2455.23 913.815C2456.33 913.815 2457.23 912.919 2457.23 911.815C2457.23 910.71 2456.33 909.815 2455.23 909.815V913.815ZM1992 911.815C1992 912.919 1992.9 913.815 1994 913.815C1995.1 913.815 1996 912.919 1996 911.815H1992ZM-81 66.648C-81 67.7526 -80.1046 68.648 -79 68.648C-77.8954 68.648 -77 67.7526 -77 66.648H-81ZM-77 220.315C-77 219.21 -77.8954 218.315 -79 218.315C-80.1046 218.315 -81 219.21 -81 220.315H-77ZM-81 373.981C-81 375.086 -80.1046 375.981 -79 375.981C-77.8954 375.981 -77 375.086 -77 373.981H-81ZM-77 527.648C-77 526.544 -77.8954 525.648 -79 525.648C-80.1046 525.648 -81 526.544 -81 527.648H-77ZM-81 681.315C-81 682.419 -80.1046 683.315 -79 683.315C-77.8954 683.315 -77 682.419 -77 681.315H-81ZM-77 834.981C-77 833.877 -77.8954 832.981 -79 832.981C-80.1046 832.981 -81 833.877 -81 834.981H-77ZM-119.188 909.815C-120.292 909.815 -121.188 910.71 -121.188 911.815C-121.188 912.919 -120.292 913.815 -119.188 913.815V909.815ZM-239.089 909.815C-240.193 909.815 -241.089 910.71 -241.089 911.815C-241.089 912.919 -240.193 913.815 -239.089 913.815V909.815ZM-398.516 913.815C-397.411 913.815 -396.516 912.919 -396.516 911.815C-396.516 910.71 -397.411 909.815 -398.516 909.815V913.815ZM-510.115 909.815C-511.219 909.815 -512.115 910.71 -512.115 911.815C-512.115 912.919 -511.219 913.815 -510.115 913.815V909.815ZM-544 978.398C-544 979.503 -543.105 980.398 -542 980.398C-540.895 980.398 -540 979.503 -540 978.398H-544ZM-509.849 1042.68C-508.754 1042.54 -507.985 1041.53 -508.132 1040.43C-508.279 1039.34 -509.286 1038.57 -510.381 1038.72L-509.849 1042.68ZM-402.533 1019.64C-401.455 1019.4 -400.778 1018.33 -401.02 1017.25C-401.262 1016.18 -402.331 1015.5 -403.409 1015.74L-402.533 1019.64ZM-250.552 990.173C-251.651 990.287 -252.449 991.271 -252.335 992.369C-252.22 993.468 -251.237 994.266 -250.138 994.151L-250.552 990.173ZM-95.9132 990.212C-94.8107 990.28 -93.8621 989.441 -93.7944 988.338C-93.7267 987.236 -94.5656 986.287 -95.6681 986.22L-95.9132 990.212ZM57.3831 1010.77C56.3137 1010.49 55.2227 1011.14 54.9462 1012.21C54.6697 1013.28 55.3126 1014.37 56.382 1014.64L57.3831 1010.77ZM176.264 1049.93C177.328 1050.22 178.43 1049.6 178.724 1048.53C179.018 1047.47 178.394 1046.37 177.329 1046.07L176.264 1049.93ZM286.464 1068.32C287.562 1068.44 288.551 1067.65 288.673 1066.55C288.795 1065.45 288.004 1064.46 286.906 1064.34L286.464 1068.32ZM414.245 1074.35C413.141 1074.3 412.206 1075.16 412.157 1076.26C412.107 1077.37 412.961 1078.3 414.065 1078.35L414.245 1074.35ZM542.064 1079.5C543.168 1079.47 544.038 1078.55 544.007 1077.44C543.976 1076.34 543.055 1075.47 541.951 1075.5L542.064 1079.5ZM670.785 1070.27C671.883 1070.15 672.669 1069.15 672.541 1068.06C672.414 1066.96 671.421 1066.17 670.324 1066.3L670.785 1070.27ZM798.588 1046.48C797.503 1046.69 796.791 1047.74 796.999 1048.82C797.206 1049.91 798.254 1050.62 799.339 1050.41L798.588 1046.48ZM926.254 1021.98C927.324 1021.71 927.97 1020.62 927.697 1019.55C927.424 1018.48 926.335 1017.83 925.265 1018.1L926.254 1021.98ZM1051.34 989.309C1052.42 989.072 1053.1 988.005 1052.86 986.926C1052.62 985.847 1051.56 985.165 1050.48 985.402L1051.34 989.309ZM1177.97 966.525C1176.87 966.613 1176.05 967.577 1176.14 968.678C1176.23 969.779 1177.19 970.6 1178.29 970.513L1177.97 966.525ZM1306.72 966.544C1307.83 966.55 1308.73 965.659 1308.73 964.555C1308.74 963.45 1307.85 962.55 1306.74 962.544L1306.72 966.544ZM1433.29 971.365C1434.39 971.467 1435.36 970.659 1435.46 969.559C1435.57 968.46 1434.76 967.485 1433.66 967.382L1433.29 971.365ZM1557.56 984.601C1556.47 984.408 1555.44 985.134 1555.24 986.222C1555.05 987.309 1555.78 988.347 1556.86 988.539L1557.56 984.601ZM1679.2 1013.77C1680.27 1014.02 1681.35 1013.35 1681.6 1012.28C1681.85 1011.2 1681.19 1010.13 1680.11 1009.88L1679.2 1013.77ZM1804.28 1048.24C1805.35 1048.55 1806.45 1047.93 1806.76 1046.87C1807.06 1045.81 1806.44 1044.7 1805.38 1044.4L1804.28 1048.24ZM1936.28 1077.62C1935.2 1077.38 1934.13 1078.06 1933.9 1079.14C1933.66 1080.22 1934.34 1081.29 1935.42 1081.53L1936.28 1077.62ZM2068.79 1104.6C2069.88 1104.72 2070.87 1103.93 2071 1102.83C2071.12 1101.74 2070.33 1100.75 2069.23 1100.62L2068.79 1104.6ZM2205.62 1106.35C2206.73 1106.27 2207.55 1105.3 2207.47 1104.2C2207.38 1103.1 2206.42 1102.28 2205.32 1102.36L2205.62 1106.35ZM2340.99 1079.1C2339.93 1079.4 2339.3 1080.5 2339.6 1081.57C2339.9 1082.63 2341 1083.25 2342.07 1082.96L2340.99 1079.1ZM2469.31 1028.52C2470.25 1027.93 2470.53 1026.7 2469.94 1025.76C2469.35 1024.83 2468.11 1024.55 2467.18 1025.13L2469.31 1028.52ZM2521 946.533C2521 945.429 2520.1 944.533 2519 944.533C2517.9 944.533 2517 945.429 2517 946.533H2521ZM2487.11 909.815C2486.01 909.815 2485.11 910.71 2485.11 911.815C2485.11 912.919 2486.01 913.815 2487.11 913.815V909.815ZM2375.52 909.815C2374.41 909.815 2373.52 910.71 2373.52 911.815C2373.52 912.919 2374.41 913.815 2375.52 913.815V909.815ZM2216.09 913.815C2217.19 913.815 2218.09 912.919 2218.09 911.815C2218.09 910.71 2217.19 909.815 2216.09 909.815V913.815ZM2065.19 909.815C2064.08 909.815 2063.19 910.71 2063.19 911.815C2063.19 912.919 2064.08 913.815 2065.19 913.815V909.815ZM1996 834.981C1996 833.877 1995.1 832.981 1994 832.981C1992.9 832.981 1992 833.877 1992 834.981H1996ZM1992 681.315C1992 682.419 1992.9 683.315 1994 683.315C1995.1 683.315 1996 682.419 1996 681.315H1992ZM1996 527.648C1996 526.543 1995.1 525.648 1994 525.648C1992.9 525.648 1992 526.543 1992 527.648H1996ZM1992 373.981C1992 375.086 1992.9 375.981 1994 375.981C1995.1 375.981 1996 375.086 1996 373.981H1992ZM1996 220.315C1996 219.21 1995.1 218.315 1994 218.315C1992.9 218.315 1992 219.21 1992 220.315H1996ZM1992 66.648C1992 67.7525 1992.9 68.648 1994 68.648C1995.1 68.648 1996 67.7525 1996 66.648H1992ZM1919.96 -12.1853C1918.86 -12.1853 1917.96 -11.2899 1917.96 -10.1853C1917.96 -9.08073 1918.86 -8.1853 1919.96 -8.1853V-12.1853ZM1771.89 -8.1853C1773 -8.1853 1773.89 -9.08073 1773.89 -10.1853C1773.89 -11.2899 1773 -12.1853 1771.89 -12.1853V-8.1853ZM1623.82 -12.1853C1622.72 -12.1853 1621.82 -11.2899 1621.82 -10.1853C1621.82 -9.08073 1622.72 -8.1853 1623.82 -8.1853V-12.1853ZM1475.75 -8.1853C1476.85 -8.1853 1477.75 -9.08073 1477.75 -10.1853C1477.75 -11.2899 1476.85 -12.1853 1475.75 -12.1853V-8.1853ZM1327.68 -12.1853C1326.57 -12.1853 1325.68 -11.2899 1325.68 -10.1853C1325.68 -9.08073 1326.57 -8.1853 1327.68 -8.1853V-12.1853ZM1179.61 -8.1853C1180.71 -8.1853 1181.61 -9.08073 1181.61 -10.1853C1181.61 -11.2899 1180.71 -12.1853 1179.61 -12.1853V-8.1853ZM1031.54 -12.1853C1030.43 -12.1853 1029.54 -11.2899 1029.54 -10.1853C1029.54 -9.08073 1030.43 -8.1853 1031.54 -8.1853V-12.1853ZM883.464 -8.1853C884.569 -8.1853 885.464 -9.08073 885.464 -10.1853C885.464 -11.2899 884.569 -12.1853 883.464 -12.1853V-8.1853ZM735.393 -12.1853C734.288 -12.1853 733.393 -11.2899 733.393 -10.1853C733.393 -9.08073 734.288 -8.1853 735.393 -8.1853V-12.1853ZM587.322 -8.1853C588.426 -8.1853 589.322 -9.08073 589.322 -10.1853C589.322 -11.2899 588.426 -12.1853 587.322 -12.1853V-8.1853ZM439.25 -12.1853C438.146 -12.1853 437.25 -11.2899 437.25 -10.1853C437.25 -9.08073 438.146 -8.1853 439.25 -8.1853V-12.1853ZM291.179 -8.1853C292.283 -8.1853 293.179 -9.08073 293.179 -10.1853C293.179 -11.2899 292.283 -12.1853 291.179 -12.1853V-8.1853ZM143.107 -12.1853C142.003 -12.1853 141.107 -11.2899 141.107 -10.1853C141.107 -9.08073 142.003 -8.1853 143.107 -8.1853V-12.1853ZM-4.96405 -8.1853C-3.8595 -8.1853 -2.96405 -9.08073 -2.96405 -10.1853C-2.96405 -11.2899 -3.8595 -12.1853 -4.96405 -12.1853V-8.1853ZM-81 -10.1853V66.648H-77V-10.1853H-81ZM-81 220.315V373.981H-77V220.315H-81ZM-81 527.648V681.315H-77V527.648H-81ZM-81 834.981V911.815H-77V834.981H-81ZM-79 909.815H-119.188V913.815H-79V909.815ZM-159.375 909.815H-239.089V913.815H-159.375V909.815ZM-398.516 909.815H-478.229V913.815H-398.516V909.815ZM-478.229 909.815H-510.115V913.815H-478.229V909.815ZM-544 911.815V978.398H-540V911.815H-544ZM-541.734 1046.96L-509.849 1042.68L-510.381 1038.72L-542.266 1043L-541.734 1046.96ZM-477.704 1038.35C-451.63 1031.25 -426.592 1025.04 -402.533 1019.64L-403.409 1015.74C-427.529 1021.15 -452.625 1027.38 -478.755 1034.49L-477.704 1038.35ZM-250.138 994.151C-191.98 988.097 -141.063 987.44 -95.9132 990.212L-95.6681 986.22C-141.044 983.434 -192.182 984.096 -250.552 990.173L-250.138 994.151ZM56.382 1014.64C83.4603 1021.64 107.902 1029.22 130.592 1036.26L131.777 1032.44C109.094 1025.4 84.5664 1017.8 57.3831 1010.77L56.382 1014.64ZM130.592 1036.26C146.584 1041.22 161.72 1045.91 176.264 1049.93L177.329 1046.07C162.856 1042.07 147.782 1037.4 131.777 1032.44L130.592 1036.26ZM222.969 1060.28C244.134 1063.28 265.299 1065.96 286.464 1068.32L286.906 1064.34C265.782 1061.99 244.657 1059.31 223.531 1056.32L222.969 1060.28ZM414.065 1078.35C456.729 1080.27 499.395 1080.7 542.064 1079.5L541.951 1075.5C499.385 1076.7 456.816 1076.27 414.245 1074.35L414.065 1078.35ZM606.024 1076.46C627.612 1074.85 649.199 1072.78 670.785 1070.27L670.324 1066.3C648.79 1068.8 627.258 1070.87 605.726 1072.47L606.024 1076.46ZM799.339 1050.41C841.647 1042.32 883.953 1032.78 926.254 1021.98L925.265 1018.1C883.035 1028.88 840.809 1038.41 798.588 1046.48L799.339 1050.41ZM989.045 1005.05C1010.55 998.959 1031.16 993.746 1051.34 989.309L1050.48 985.402C1030.22 989.858 1009.53 995.09 987.955 1001.2L989.045 1005.05ZM1178.29 970.513C1218 967.35 1259.69 966.287 1306.72 966.544L1306.74 962.544C1259.65 962.286 1217.83 963.351 1177.97 966.525L1178.29 970.513ZM1371.08 967.556C1391.15 968.038 1412.06 969.382 1433.29 971.365L1433.66 967.382C1412.36 965.393 1391.35 964.042 1371.17 963.557L1371.08 967.556ZM1556.86 988.539C1603.77 996.841 1646.72 1006.18 1679.2 1013.77L1680.11 1009.88C1647.58 1002.27 1604.55 992.918 1557.56 984.601L1556.86 988.539ZM1740.2 1026.91C1739.58 1028.81 1739.58 1028.81 1739.58 1028.81C1739.58 1028.81 1739.58 1028.81 1739.58 1028.81C1739.58 1028.81 1739.58 1028.81 1739.58 1028.81C1739.59 1028.81 1739.59 1028.81 1739.6 1028.82C1739.61 1028.82 1739.63 1028.83 1739.66 1028.84C1739.71 1028.85 1739.78 1028.88 1739.88 1028.91C1740.07 1028.97 1740.37 1029.06 1740.75 1029.19C1741.52 1029.44 1742.67 1029.8 1744.16 1030.28C1747.15 1031.22 1751.55 1032.6 1757.18 1034.33C1768.43 1037.79 1784.6 1042.65 1804.28 1048.24L1805.38 1044.4C1785.73 1038.81 1769.58 1033.96 1758.35 1030.51C1752.74 1028.78 1748.35 1027.41 1745.37 1026.46C1743.88 1025.99 1742.74 1025.63 1741.97 1025.38C1741.59 1025.26 1741.3 1025.16 1741.11 1025.1C1741.01 1025.07 1740.94 1025.05 1740.89 1025.03C1740.87 1025.02 1740.85 1025.02 1740.84 1025.01C1740.83 1025.01 1740.82 1025.01 1740.82 1025.01C1740.82 1025.01 1740.82 1025.01 1740.82 1025.01C1740.82 1025.01 1740.82 1025.01 1740.82 1025.01C1740.82 1025.01 1740.82 1025.01 1740.2 1026.91ZM1935.42 1081.53C1979.21 1091.19 2025.51 1099.75 2068.79 1104.6L2069.23 1100.62C2026.15 1095.79 1979.99 1087.26 1936.28 1077.62L1935.42 1081.53ZM2136.37 1108.81C2160.67 1108.9 2183.75 1108.02 2205.62 1106.35L2205.32 1102.36C2183.55 1104.03 2160.58 1104.9 2136.38 1104.81L2136.37 1108.81ZM2342.07 1082.96C2397.89 1067.34 2440.03 1046.95 2469.31 1028.52L2467.18 1025.13C2438.23 1043.36 2396.45 1063.59 2340.99 1079.1L2342.07 1082.96ZM2521 981.252V946.533H2517V981.252H2521ZM2519 909.815H2487.11V913.815H2519V909.815ZM2455.23 909.815H2375.52V913.815H2455.23V909.815ZM2216.09 909.815H2136.38V913.815H2216.09V909.815ZM2136.38 909.815H2065.19V913.815H2136.38V909.815ZM1996 911.815V834.981H1992V911.815H1996ZM1996 681.315V527.648H1992V681.315H1996ZM1996 373.981V220.315H1992V373.981H1996ZM1996 66.648V-10.1853H1992V66.648H1996ZM1994 -12.1853H1919.96V-8.1853H1994V-12.1853ZM1771.89 -12.1853H1623.82V-8.1853H1771.89V-12.1853ZM1475.75 -12.1853H1327.68V-8.1853H1475.75V-12.1853ZM1179.61 -12.1853H1031.54V-8.1853H1179.61V-12.1853ZM883.464 -12.1853H735.393V-8.1853H883.464V-12.1853ZM587.322 -12.1853H439.25V-8.1853H587.322V-12.1853ZM291.179 -12.1853H143.107V-8.1853H291.179V-12.1853ZM-4.96405 -12.1853H-79V-8.1853H-4.96405V-12.1853ZM-79 -10.1853V-14.1853H-83V-10.1853H-79ZM1994 -10.1853H1998V-14.1853H1994V-10.1853ZM-79 911.815V915.815H-75V911.815H-79ZM-159.375 915.815C-157.166 915.815 -155.375 914.024 -155.375 911.815C-155.375 909.606 -157.166 907.815 -159.375 907.815V915.815ZM-538 911.815C-538 909.606 -539.791 907.815 -542 907.815C-544.209 907.815 -546 909.606 -546 911.815H-538ZM-542.532 1041.02C-544.722 1041.31 -546.258 1043.32 -545.964 1045.51C-545.671 1047.7 -543.657 1049.24 -541.468 1048.95L-542.532 1041.02ZM-479.28 1032.56C-481.411 1033.14 -482.669 1035.34 -482.089 1037.47C-481.509 1039.6 -479.31 1040.86 -477.179 1040.28L-479.28 1032.56ZM131.185 1034.35L132.369 1030.53L131.185 1034.35ZM223.811 1054.34C221.624 1054.03 219.599 1055.55 219.29 1057.74C218.98 1059.92 220.502 1061.95 222.689 1062.26L223.811 1054.34ZM605.578 1070.48C603.375 1070.64 601.722 1072.56 601.886 1074.77C602.05 1076.97 603.969 1078.62 606.172 1078.46L605.578 1070.48ZM987.409 999.281C985.284 999.883 984.049 1002.09 984.652 1004.22C985.254 1006.35 987.465 1007.58 989.591 1006.98L987.409 999.281ZM1371.22 961.558C1369.01 961.505 1367.18 963.253 1367.13 965.461C1367.07 967.67 1368.82 969.503 1371.03 969.556L1371.22 961.558ZM1741.44 1023.11C1739.34 1022.42 1737.08 1023.57 1736.4 1025.67C1735.71 1027.77 1736.86 1030.03 1738.96 1030.71L1741.44 1023.11ZM2136.39 1102.81C2134.18 1102.8 2132.38 1104.59 2132.38 1106.79C2132.37 1109 2134.15 1110.8 2136.36 1110.81L2136.39 1102.81ZM2515 981.252C2515 983.461 2516.79 985.252 2519 985.252C2521.21 985.252 2523 983.461 2523 981.252H2515ZM2519 915.815C2521.21 915.815 2523 914.024 2523 911.815C2523 909.606 2521.21 907.815 2519 907.815V915.815ZM2455.23 915.815C2457.44 915.815 2459.23 914.024 2459.23 911.815C2459.23 909.606 2457.44 907.815 2455.23 907.815V915.815ZM1990 911.815C1990 914.024 1991.79 915.815 1994 915.815C1996.21 915.815 1998 914.024 1998 911.815H1990ZM-83 66.648C-83 68.8572 -81.2091 70.648 -79 70.648C-76.7909 70.648 -75 68.8572 -75 66.648H-83ZM-75 220.315C-75 218.106 -76.7909 216.315 -79 216.315C-81.2091 216.315 -83 218.106 -83 220.315H-75ZM-83 373.981C-83 376.191 -81.2091 377.981 -79 377.981C-76.7909 377.981 -75 376.191 -75 373.981H-83ZM-75 527.648C-75 525.439 -76.7909 523.648 -79 523.648C-81.2091 523.648 -83 525.439 -83 527.648H-75ZM-83 681.315C-83 683.524 -81.2091 685.315 -79 685.315C-76.7909 685.315 -75 683.524 -75 681.315H-83ZM-75 834.981C-75 832.772 -76.7909 830.981 -79 830.981C-81.2091 830.981 -83 832.772 -83 834.981H-75ZM-119.188 907.815C-121.397 907.815 -123.188 909.606 -123.188 911.815C-123.188 914.024 -121.397 915.815 -119.188 915.815V907.815ZM-239.089 907.815C-241.298 907.815 -243.089 909.606 -243.089 911.815C-243.089 914.024 -241.298 915.815 -239.089 915.815V907.815ZM-398.516 915.815C-396.307 915.815 -394.516 914.024 -394.516 911.815C-394.516 909.606 -396.307 907.815 -398.516 907.815V915.815ZM-510.115 907.815C-512.324 907.815 -514.115 909.606 -514.115 911.815C-514.115 914.024 -512.324 915.815 -510.115 915.815V907.815ZM-546 978.398C-546 980.607 -544.209 982.398 -542 982.398C-539.791 982.398 -538 980.607 -538 978.398H-546ZM-509.582 1044.67C-507.393 1044.37 -505.856 1042.36 -506.15 1040.17C-506.444 1037.98 -508.457 1036.44 -510.647 1036.74L-509.582 1044.67ZM-402.095 1021.59C-399.94 1021.11 -398.584 1018.97 -399.068 1016.82C-399.552 1014.66 -401.692 1013.3 -403.847 1013.79L-402.095 1021.59ZM-250.759 988.184C-252.957 988.412 -254.553 990.379 -254.324 992.576C-254.095 994.774 -252.128 996.369 -249.931 996.141L-250.759 988.184ZM-96.0357 992.208C-93.8307 992.344 -91.9335 990.666 -91.7982 988.461C-91.6628 986.256 -93.3405 984.359 -95.5456 984.223L-96.0357 992.208ZM57.8837 1008.83C55.7449 1008.28 53.5628 1009.57 53.0099 1011.71C52.4569 1013.84 53.7426 1016.03 55.8813 1016.58L57.8837 1008.83ZM175.731 1051.86C177.86 1052.45 180.064 1051.2 180.652 1049.07C181.24 1046.94 179.991 1044.73 177.862 1044.15L175.731 1051.86ZM286.243 1070.3C288.439 1070.55 290.417 1068.97 290.661 1066.77C290.905 1064.57 289.323 1062.6 287.128 1062.35L286.243 1070.3ZM414.334 1072.36C412.127 1072.26 410.258 1073.97 410.159 1076.17C410.059 1078.38 411.768 1080.25 413.975 1080.35L414.334 1072.36ZM542.12 1081.5C544.328 1081.44 546.068 1079.6 546.006 1077.39C545.944 1075.18 544.103 1073.44 541.895 1073.5L542.12 1081.5ZM671.016 1072.26C673.211 1072 674.783 1070.02 674.528 1067.82C674.273 1065.63 672.287 1064.06 670.093 1064.31L671.016 1072.26ZM798.212 1044.52C796.042 1044.93 794.619 1047.03 795.034 1049.2C795.449 1051.37 797.544 1052.79 799.714 1052.38L798.212 1044.52ZM926.749 1023.92C928.889 1023.37 930.182 1021.19 929.635 1019.05C929.089 1016.91 926.911 1015.62 924.77 1016.16L926.749 1023.92ZM1051.77 991.262C1053.93 990.788 1055.29 988.654 1054.82 986.496C1054.34 984.339 1052.21 982.974 1050.05 983.449L1051.77 991.262ZM1177.81 964.532C1175.61 964.707 1173.97 966.634 1174.14 968.837C1174.32 971.039 1176.25 972.682 1178.45 972.506L1177.81 964.532ZM1306.71 968.544C1308.92 968.556 1310.72 966.775 1310.73 964.565C1310.74 962.356 1308.96 960.556 1306.75 960.544L1306.71 968.544ZM1433.1 973.356C1435.3 973.561 1437.25 971.945 1437.45 969.745C1437.66 967.546 1436.04 965.596 1433.84 965.391L1433.1 973.356ZM1557.91 982.631C1555.73 982.246 1553.66 983.698 1553.27 985.873C1552.89 988.048 1554.34 990.124 1556.52 990.509L1557.91 982.631ZM1678.74 1015.72C1680.89 1016.22 1683.05 1014.88 1683.55 1012.73C1684.05 1010.58 1682.72 1008.43 1680.57 1007.93L1678.74 1015.72ZM1803.74 1050.17C1805.86 1050.77 1808.08 1049.54 1808.68 1047.41C1809.28 1045.29 1808.05 1043.08 1805.93 1042.47L1803.74 1050.17ZM1936.71 1075.67C1934.55 1075.19 1932.42 1076.55 1931.94 1078.71C1931.47 1080.87 1932.83 1083 1934.99 1083.48L1936.71 1075.67ZM2068.56 1106.59C2070.76 1106.83 2072.74 1105.25 2072.98 1103.06C2073.23 1100.86 2071.65 1098.88 2069.46 1098.64L2068.56 1106.59ZM2205.78 1108.34C2207.98 1108.18 2209.63 1106.25 2209.46 1104.05C2209.29 1101.85 2207.37 1100.2 2205.17 1100.37L2205.78 1108.34ZM2340.45 1077.18C2338.32 1077.77 2337.08 1079.98 2337.68 1082.11C2338.27 1084.23 2340.48 1085.48 2342.61 1084.88L2340.45 1077.18ZM2470.38 1030.21C2472.25 1029.03 2472.81 1026.56 2471.63 1024.69C2470.45 1022.83 2467.98 1022.26 2466.11 1023.44L2470.38 1030.21ZM2523 946.533C2523 944.324 2521.21 942.533 2519 942.533C2516.79 942.533 2515 944.324 2515 946.533H2523ZM2487.11 907.815C2484.91 907.815 2483.11 909.606 2483.11 911.815C2483.11 914.024 2484.91 915.815 2487.11 915.815V907.815ZM2375.52 907.815C2373.31 907.815 2371.52 909.606 2371.52 911.815C2371.52 914.024 2373.31 915.815 2375.52 915.815V907.815ZM2216.09 915.815C2218.3 915.815 2220.09 914.024 2220.09 911.815C2220.09 909.606 2218.3 907.815 2216.09 907.815V915.815ZM2065.19 907.815C2062.98 907.815 2061.19 909.606 2061.19 911.815C2061.19 914.024 2062.98 915.815 2065.19 915.815V907.815ZM1998 834.981C1998 832.772 1996.21 830.981 1994 830.981C1991.79 830.981 1990 832.772 1990 834.981H1998ZM1990 681.315C1990 683.524 1991.79 685.315 1994 685.315C1996.21 685.315 1998 683.524 1998 681.315H1990ZM1998 527.648C1998 525.439 1996.21 523.648 1994 523.648C1991.79 523.648 1990 525.439 1990 527.648H1998ZM1990 373.981C1990 376.19 1991.79 377.981 1994 377.981C1996.21 377.981 1998 376.19 1998 373.981H1990ZM1998 220.315C1998 218.105 1996.21 216.315 1994 216.315C1991.79 216.315 1990 218.105 1990 220.315H1998ZM1990 66.648C1990 68.8571 1991.79 70.648 1994 70.648C1996.21 70.648 1998 68.8571 1998 66.648H1990ZM1919.96 -14.1853C1917.76 -14.1853 1915.96 -12.3944 1915.96 -10.1853C1915.96 -7.97616 1917.76 -6.1853 1919.96 -6.1853V-14.1853ZM1771.89 -6.1853C1774.1 -6.1853 1775.89 -7.97616 1775.89 -10.1853C1775.89 -12.3944 1774.1 -14.1853 1771.89 -14.1853V-6.1853ZM1623.82 -14.1853C1621.61 -14.1853 1619.82 -12.3944 1619.82 -10.1853C1619.82 -7.97616 1621.61 -6.1853 1623.82 -6.1853V-14.1853ZM1475.75 -6.1853C1477.96 -6.1853 1479.75 -7.97616 1479.75 -10.1853C1479.75 -12.3944 1477.96 -14.1853 1475.75 -14.1853V-6.1853ZM1327.68 -14.1853C1325.47 -14.1853 1323.68 -12.3944 1323.68 -10.1853C1323.68 -7.97616 1325.47 -6.1853 1327.68 -6.1853V-14.1853ZM1179.61 -6.1853C1181.82 -6.1853 1183.61 -7.97616 1183.61 -10.1853C1183.61 -12.3944 1181.82 -14.1853 1179.61 -14.1853V-6.1853ZM1031.54 -14.1853C1029.33 -14.1853 1027.54 -12.3944 1027.54 -10.1853C1027.54 -7.97616 1029.33 -6.1853 1031.54 -6.1853V-14.1853ZM883.464 -6.1853C885.673 -6.1853 887.464 -7.97616 887.464 -10.1853C887.464 -12.3944 885.673 -14.1853 883.464 -14.1853V-6.1853ZM735.393 -14.1853C733.184 -14.1853 731.393 -12.3944 731.393 -10.1853C731.393 -7.97616 733.184 -6.1853 735.393 -6.1853V-14.1853ZM587.322 -6.1853C589.531 -6.1853 591.322 -7.97616 591.322 -10.1853C591.322 -12.3944 589.531 -14.1853 587.322 -14.1853V-6.1853ZM439.25 -14.1853C437.041 -14.1853 435.25 -12.3944 435.25 -10.1853C435.25 -7.97616 437.041 -6.1853 439.25 -6.1853V-14.1853ZM291.179 -6.1853C293.388 -6.1853 295.179 -7.97616 295.179 -10.1853C295.179 -12.3944 293.388 -14.1853 291.179 -14.1853V-6.1853ZM143.107 -14.1853C140.898 -14.1853 139.107 -12.3944 139.107 -10.1853C139.107 -7.97616 140.898 -6.1853 143.107 -6.1853V-14.1853ZM-4.96405 -6.1853C-2.75494 -6.1853 -0.96405 -7.97616 -0.96405 -10.1853C-0.96405 -12.3944 -2.75494 -14.1853 -4.96405 -14.1853V-6.1853ZM-83 -10.1853V66.648H-75V-10.1853H-83ZM-83 220.315V373.981H-75V220.315H-83ZM-83 527.648V681.315H-75V527.648H-83ZM-83 834.981V911.815H-75V834.981H-83ZM-79 907.815H-119.188V915.815H-79V907.815ZM-159.375 907.815H-239.089V915.815H-159.375V907.815ZM-398.516 907.815H-478.229V915.815H-398.516V907.815ZM-478.229 907.815H-510.115V915.815H-478.229V907.815ZM-546 911.815V978.398H-538V911.815H-546ZM-541.468 1048.95L-509.582 1044.67L-510.647 1036.74L-542.532 1041.02L-541.468 1048.95ZM-477.179 1040.28C-451.132 1033.19 -426.124 1026.99 -402.095 1021.59L-403.847 1013.79C-427.997 1019.21 -453.122 1025.44 -479.28 1032.56L-477.179 1040.28ZM-249.931 996.141C-191.879 990.097 -141.072 989.444 -96.0357 992.208L-95.5456 984.223C-141.034 981.431 -192.282 982.096 -250.759 988.184L-249.931 996.141ZM55.8813 1016.58C82.9072 1023.57 107.306 1031.13 130 1038.17L132.369 1030.53C109.69 1023.49 85.1194 1015.88 57.8837 1008.83L55.8813 1016.58ZM130 1038.17C145.985 1043.13 161.152 1047.83 175.731 1051.86L177.862 1044.15C163.424 1040.16 148.381 1035.49 132.369 1030.53L130 1038.17ZM222.689 1062.26C243.872 1065.26 265.057 1067.95 286.243 1070.3L287.128 1062.35C266.023 1060.01 244.918 1057.33 223.811 1054.34L222.689 1062.26ZM413.975 1080.35C456.685 1082.27 499.4 1082.7 542.12 1081.5L541.895 1073.5C499.379 1074.7 456.859 1074.27 414.334 1072.36L413.975 1080.35ZM606.172 1078.46C627.789 1076.85 649.404 1074.77 671.016 1072.26L670.093 1064.31C648.586 1066.81 627.081 1068.88 605.578 1070.48L606.172 1078.46ZM799.714 1052.38C842.067 1044.28 884.412 1034.72 926.749 1023.92L924.77 1016.16C882.576 1026.94 840.39 1036.46 798.212 1044.52L799.714 1052.38ZM989.591 1006.98C1011.06 1000.89 1031.64 995.69 1051.77 991.262L1050.05 983.449C1029.75 987.914 1009.02 993.156 987.409 999.281L989.591 1006.98ZM1178.45 972.506C1218.08 969.35 1259.72 968.287 1306.71 968.544L1306.75 960.544C1259.62 960.286 1217.75 961.351 1177.81 964.532L1178.45 972.506ZM1371.03 969.556C1391.05 970.036 1411.91 971.377 1433.1 973.356L1433.84 965.391C1412.51 963.398 1391.46 962.043 1371.22 961.558L1371.03 969.556ZM1556.52 990.509C1603.37 998.803 1646.29 1008.13 1678.74 1015.72L1680.57 1007.93C1648.01 1000.32 1604.95 990.957 1557.91 982.631L1556.52 990.509ZM1740.2 1026.91C1738.96 1030.71 1738.96 1030.71 1738.96 1030.71C1738.96 1030.71 1738.96 1030.71 1738.96 1030.71C1738.96 1030.71 1738.96 1030.71 1738.97 1030.71C1738.97 1030.72 1738.97 1030.72 1738.98 1030.72C1738.99 1030.72 1739.01 1030.73 1739.04 1030.74C1739.09 1030.75 1739.16 1030.78 1739.26 1030.81C1739.46 1030.87 1739.75 1030.97 1740.14 1031.09C1740.91 1031.34 1742.06 1031.71 1743.56 1032.18C1746.55 1033.13 1750.96 1034.51 1756.59 1036.25C1767.85 1039.71 1784.04 1044.57 1803.74 1050.17L1805.93 1042.47C1786.29 1036.89 1770.16 1032.05 1758.94 1028.6C1753.33 1026.87 1748.95 1025.5 1745.97 1024.56C1744.49 1024.09 1743.35 1023.72 1742.59 1023.48C1742.2 1023.35 1741.92 1023.26 1741.72 1023.2C1741.63 1023.17 1741.55 1023.14 1741.51 1023.13C1741.48 1023.12 1741.47 1023.11 1741.45 1023.11C1741.45 1023.11 1741.44 1023.11 1741.44 1023.11C1741.44 1023.11 1741.44 1023.11 1741.44 1023.11C1741.44 1023.11 1741.44 1023.11 1741.44 1023.11C1741.44 1023.1 1741.44 1023.11 1740.2 1026.91ZM1934.99 1083.48C1978.82 1093.15 2025.2 1101.72 2068.56 1106.59L2069.46 1098.64C2026.46 1093.82 1980.38 1085.3 1936.71 1075.67L1934.99 1083.48ZM2136.36 1110.81C2160.72 1110.9 2183.85 1110.02 2205.78 1108.34L2205.17 1100.37C2183.45 1102.03 2160.54 1102.9 2136.39 1102.81L2136.36 1110.81ZM2342.61 1084.88C2398.61 1069.21 2440.93 1048.75 2470.38 1030.21L2466.11 1023.44C2437.33 1041.56 2395.73 1061.71 2340.45 1077.18L2342.61 1084.88ZM2523 981.252V946.533H2515V981.252H2523ZM2519 907.815H2487.11V915.815H2519V907.815ZM2455.23 907.815H2375.52V915.815H2455.23V907.815ZM2216.09 907.815H2136.38V915.815H2216.09V907.815ZM2136.38 907.815H2065.19V915.815H2136.38V907.815ZM1998 911.815V834.981H1990V911.815H1998ZM1998 681.315V527.648H1990V681.315H1998ZM1998 373.981V220.315H1990V373.981H1998ZM1998 66.648V-10.1853H1990V66.648H1998ZM1994 -14.1853H1919.96V-6.1853H1994V-14.1853ZM1771.89 -14.1853H1623.82V-6.1853H1771.89V-14.1853ZM1475.75 -14.1853H1327.68V-6.1853H1475.75V-14.1853ZM1179.61 -14.1853H1031.54V-6.1853H1179.61V-14.1853ZM883.464 -14.1853H735.393V-6.1853H883.464V-14.1853ZM587.322 -14.1853H439.25V-6.1853H587.322V-14.1853ZM291.179 -14.1853H143.107V-6.1853H291.179V-14.1853ZM-4.96405 -14.1853H-79V-6.1853H-4.96405V-14.1853Z" fill="#EBE5F7" mask="url(#path-3-inside-1_0_2790)"/>
</g>
</svg>
